<?xml version="1.0" encoding="UTF-8" standalone="no"?>
<!-- Created with Inkscape (http://www.inkscape.org/) -->

<svg
   xmlns:dc="http://purl.org/dc/elements/1.1/"
   xmlns:cc="http://creativecommons.org/ns#"
   xmlns:rdf="http://www.w3.org/1999/02/22-rdf-syntax-ns#"
   xmlns:svg="http://www.w3.org/2000/svg"
   xmlns="http://www.w3.org/2000/svg"
   xmlns:sodipodi="http://sodipodi.sourceforge.net/DTD/sodipodi-0.dtd"
   xmlns:inkscape="http://www.inkscape.org/namespaces/inkscape"
   width="77.522911mm"
   height="77.522911mm"
   viewBox="0 0 77.522911 77.522911"
   version="1.1"
   id="svg12878"
   inkscape:version="0.92.4 (5da689c313, 2019-01-14)"
   sodipodi:docname="bounties.svg">
  <defs
     id="defs12872" />
  <sodipodi:namedview
     id="base"
     pagecolor="#ffffff"
     bordercolor="#666666"
     borderopacity="1.0"
     inkscape:pageopacity="0.0"
     inkscape:pageshadow="2"
     inkscape:zoom="0.9899495"
     inkscape:cx="234.07854"
     inkscape:cy="313.2515"
     inkscape:document-units="mm"
     inkscape:current-layer="layer1"
     showgrid="false"
     inkscape:window-width="1680"
     inkscape:window-height="1013"
     inkscape:window-x="0"
     inkscape:window-y="0"
     inkscape:window-maximized="1" />
  <metadata
     id="metadata12875">
    <rdf:RDF>
      <cc:Work
         rdf:about="">
        <dc:format>image/svg+xml</dc:format>
        <dc:type
           rdf:resource="http://purl.org/dc/dcmitype/StillImage" />
        <dc:title />
      </cc:Work>
    </rdf:RDF>
  </metadata>
  <g
     inkscape:label="Layer 1"
     inkscape:groupmode="layer"
     id="layer1"
     transform="translate(-3.8736465,-307.03718)">
    <g
       transform="translate(1366.2717,510.90765)"
       id="g13921">
      <circle
         style="opacity:1;fill:#ffffff;fill-opacity:1;stroke:#c69249;stroke-width:1.32291663;stroke-linecap:round;stroke-linejoin:round;stroke-miterlimit:4;stroke-dasharray:none;stroke-dashoffset:0;stroke-opacity:1"
         id="circle13723"
         cx="-1323.6366"
         cy="165.10901"
         r="38.099998"
         transform="scale(1,-1)" />
      <g
         transform="matrix(0.06910421,0,0,0.06910421,-1339.0942,-185.0276)"
         id="g13729"
         style="fill:#c69249;fill-opacity:1">
        <g
           id="g13727"
           style="fill:#c69249;fill-opacity:1">
          <path
             id="path13725"
             d="m 375.035,225.124 c -2.452,-6.204 -9.469,-9.242 -15.675,-6.792 -6.204,2.453 -9.244,9.471 -6.792,15.675 6.139,15.525 9.25,31.933 9.25,48.77 0,73.14 -59.503,132.645 -132.645,132.645 -73.147,0 -132.658,-59.505 -132.658,-132.645 0,-73.14 59.511,-132.645 132.658,-132.645 16.896,0 33.332,3.131 48.852,9.306 6.197,2.469 13.222,-0.56 15.689,-6.757 2.467,-6.199 -0.559,-13.223 -6.757,-15.689 -18.374,-7.312 -37.816,-11.019 -57.783,-11.019 -86.468,0 -156.817,70.341 -156.817,156.803 0,86.462 70.346,156.804 156.816,156.804 86.461,0 156.803,-70.341 156.803,-156.803 0,-19.891 -3.682,-39.287 -10.941,-57.653 z"
             inkscape:connector-curvature="0"
             style="fill:#c69249;fill-opacity:1" />
        </g>
      </g>
      <g
         transform="matrix(0.06910421,0,0,0.06910421,-1339.0942,-185.0276)"
         id="g13735"
         style="fill:#c69249;fill-opacity:1">
        <g
           id="g13733"
           style="fill:#c69249;fill-opacity:1">
          <path
             id="path13731"
             d="m 449.506,219.607 c -1.835,-6.414 -8.518,-10.121 -14.936,-8.29 -6.414,1.836 -10.125,8.523 -8.29,14.936 5.236,18.302 7.891,37.32 7.891,56.522 0,113.044 -91.962,205.014 -204.999,205.014 -113.044,0 -205.013,-91.969 -205.013,-205.014 0,-113.045 91.968,-205.012 205.013,-205.012 19.246,0 38.296,2.667 56.618,7.928 6.413,1.84 13.103,-1.864 14.943,-8.277 1.841,-6.413 -1.864,-13.103 -8.277,-14.943 C 271.967,56.587 250.674,53.603 229.172,53.603 102.806,53.604 0,156.41 0,282.776 c 0,126.366 102.806,229.173 229.172,229.173 126.358,0 229.158,-102.806 229.158,-229.173 0,-21.452 -2.969,-42.705 -8.824,-63.169 z"
             inkscape:connector-curvature="0"
             style="fill:#c69249;fill-opacity:1" />
        </g>
      </g>
      <g
         transform="matrix(0.06910421,0,0,0.06910421,-1339.0942,-185.0276)"
         id="g13741"
         style="fill:#c69249;fill-opacity:1">
        <g
           id="g13739"
           style="fill:#c69249;fill-opacity:1">
          <path
             id="path13737"
             d="m 313.278,275.401 c -0.592,-6.645 -6.463,-11.525 -13.105,-10.958 -6.645,0.593 -11.552,6.461 -10.958,13.106 0.153,1.72 0.231,3.479 0.231,5.228 0,33.237 -27.04,60.275 -60.275,60.275 -33.244,0 -60.29,-27.04 -60.29,-60.275 0.002,-33.245 27.047,-60.29 60.291,-60.29 1.857,0 3.675,0.081 5.406,0.24 6.649,0.61 12.525,-4.276 13.138,-10.92 0.612,-6.643 -4.277,-12.524 -10.92,-13.138 -2.464,-0.227 -5.029,-0.342 -7.623,-0.342 -46.565,0 -84.449,37.882 -84.449,84.448 0,46.558 37.884,84.434 84.449,84.434 46.557,0 84.434,-37.876 84.434,-84.434 -0.001,-2.461 -0.111,-4.944 -0.329,-7.374 z"
             inkscape:connector-curvature="0"
             style="fill:#c69249;fill-opacity:1" />
        </g>
      </g>
      <g
         transform="matrix(0.06910421,0,0,0.06910421,-1339.0942,-185.0276)"
         id="g13747"
         style="fill:#503821;fill-opacity:1">
        <g
           id="g13745"
           style="fill:#503821;fill-opacity:1">
          <path
             id="path13743"
             d="M 510.149,81.264 C 506.396,72.202 497.632,66.346 487.823,66.346 H 445.704 V 24.228 c 0,-9.81 -5.856,-18.573 -14.918,-22.326 -9.058,-3.752 -19.391,-1.695 -26.325,5.239 l -70.376,70.377 c -6.842,6.841 -10.609,15.939 -10.609,25.618 v 68.355 l -98.17,98.17 c -4.717,4.717 -4.717,12.366 0,17.084 2.358,2.358 5.45,3.538 8.541,3.538 3.091,0 6.183,-1.18 8.541,-3.538 l 98.171,-98.171 h 68.355 c 9.679,0 18.778,-3.768 25.618,-10.608 l 70.377,-70.379 c 6.936,-6.935 8.992,-17.266 5.24,-26.323 z m -162.514,21.871 c 0.001,-3.225 1.256,-6.257 3.534,-8.534 l 70.376,-70.366 v 49.188 l -73.911,73.911 v -44.199 z m 69.815,57.747 c -2.244,2.244 -5.356,3.533 -8.535,3.533 h -44.196 l 73.909,-73.909 49.192,0.006 z"
             inkscape:connector-curvature="0"
             style="fill:#503821;fill-opacity:1" />
        </g>
      </g>
      <g
         style="fill:#c69249;fill-opacity:1"
         id="g13753"
         transform="translate(3355.3144,-1487.1758)">
        <path
           style="fill:#c69249;fill-opacity:1;stroke-width:0.00797508"
           d="m -4648.5191,1324.8443 c -0.1504,-0.013 -0.3007,-0.029 -0.351,-0.039 -0.033,-0.01 -0.083,-0.015 -0.1116,-0.021 -0.094,-0.017 -0.1552,-0.03 -0.1794,-0.038 -0.024,-0.01 -0.094,-0.027 -0.1476,-0.041 -0.045,-0.011 -0.106,-0.032 -0.1288,-0.044 -0.012,-0.01 -0.026,-0.011 -0.032,-0.011 -0.012,0 -0.08,-0.025 -0.1313,-0.049 -0.018,-0.01 -0.035,-0.015 -0.038,-0.015 -0.01,0 -0.1212,-0.053 -0.1402,-0.065 -0.01,0 -0.017,-0.01 -0.024,-0.012 -0.024,-0.01 -0.093,-0.045 -0.1237,-0.063 -0.017,-0.01 -0.04,-0.023 -0.05,-0.027 -0.01,0 -0.034,-0.019 -0.053,-0.032 -0.019,-0.013 -0.037,-0.024 -0.039,-0.024 0,0 -0.1414,-0.092 -0.2203,-0.1474 -0.024,-0.017 -0.064,-0.047 -0.088,-0.067 -0.024,-0.02 -0.056,-0.046 -0.072,-0.057 -0.081,-0.06 -0.3469,-0.3244 -0.4165,-0.4137 -0.012,-0.015 -0.041,-0.051 -0.064,-0.08 -0.064,-0.079 -0.2044,-0.2806 -0.2275,-0.3269 -0.01,-0.011 -0.017,-0.031 -0.026,-0.044 -0.01,-0.013 -0.02,-0.033 -0.026,-0.044 -0.01,-0.011 -0.022,-0.039 -0.036,-0.062 -0.015,-0.023 -0.026,-0.045 -0.026,-0.048 0,0 -0.011,-0.026 -0.024,-0.05 -0.013,-0.024 -0.026,-0.049 -0.029,-0.056 0,-0.01 -0.024,-0.057 -0.048,-0.1116 -0.024,-0.055 -0.043,-0.1035 -0.043,-0.108 1e-4,0 -0.01,-0.022 -0.016,-0.04 -0.01,-0.017 -0.016,-0.039 -0.016,-0.048 0,-0.01 0,-0.021 -0.01,-0.026 -0.01,0 -0.012,-0.023 -0.015,-0.039 0,-0.017 -0.012,-0.047 -0.019,-0.066 -0.01,-0.02 -0.018,-0.056 -0.024,-0.08 -0.01,-0.024 -0.019,-0.069 -0.028,-0.099 -0.01,-0.03 -0.016,-0.067 -0.016,-0.081 0,-0.014 0,-0.036 -0.01,-0.048 0,-0.012 -0.014,-0.057 -0.02,-0.098 -0.01,-0.042 -0.014,-0.099 -0.019,-0.1276 -0.025,-0.1671 -0.039,-0.4813 -0.025,-0.5742 0,-0.033 0.012,-0.1133 0.017,-0.1787 0,-0.065 0.011,-0.1228 0.015,-0.1276 0,0 0.01,-0.032 0.012,-0.06 0,-0.047 0.017,-0.1115 0.038,-0.1954 0,-0.018 0.013,-0.052 0.018,-0.076 0.013,-0.057 0.034,-0.1247 0.049,-0.1577 0.01,-0.014 0.011,-0.034 0.011,-0.044 0,-0.01 0,-0.025 0.011,-0.034 0.01,-0.01 0.014,-0.028 0.017,-0.044 0,-0.015 0.011,-0.036 0.017,-0.046 0.01,-0.01 0.011,-0.022 0.011,-0.027 0,-0.01 0.01,-0.026 0.017,-0.046 0.01,-0.02 0.022,-0.048 0.027,-0.061 0.04,-0.091 0.1553,-0.3168 0.1876,-0.3669 0.01,-0.013 0.021,-0.036 0.029,-0.05 0.01,-0.014 0.017,-0.026 0.02,-0.026 0,0 0.01,0 0.01,-0.01 0,0 0.01,-0.021 0.02,-0.038 0.011,-0.017 0.025,-0.037 0.03,-0.045 0.01,-0.01 0.016,-0.023 0.024,-0.033 0.01,-0.01 0.014,-0.022 0.014,-0.027 0,0 0,-0.011 0.01,-0.015 0.01,0 0.021,-0.023 0.033,-0.042 0.013,-0.02 0.027,-0.039 0.032,-0.044 0.01,-0.01 0.038,-0.046 0.082,-0.1037 0.023,-0.03 0.061,-0.074 0.1206,-0.1382 0.038,-0.041 0.072,-0.08 0.075,-0.086 0,-0.01 0.012,-0.011 0.019,-0.011 0.014,0 0.038,0.022 0.263,0.2432 0.1588,0.1562 0.1696,0.1687 0.1605,0.1849 -0.01,0.01 -0.052,0.066 -0.1028,0.1243 -0.1136,0.1306 -0.1386,0.1656 -0.1244,0.1746 0.015,0.01 1.2243,0.01 1.2304,0 0.01,-0.011 0.011,-0.1 0.011,-0.2691 v -0.1458 h 0.1495 0.1495 v 0.2074 c 0,0.114 0.01,0.2082 0.01,0.2093 0,0 0.093,0 0.2045,0 0.1536,0 0.2045,0 0.2094,-0.01 0,-0.01 0.01,-0.1 0.01,-0.2093 v -0.1994 h 0.1476 0.1475 v 0.1994 c 0,0.1096 0.01,0.2038 0.01,0.2093 0,0.01 0.057,0.01 0.2129,0.01 0.1563,0 0.2079,0 0.2128,-0.01 0,-0.01 0.01,-0.1 0.01,-0.2093 v -0.1994 h 0.1475 0.1476 v 0.2005 c 0,0.1561 0,0.2025 0.013,0.2094 0.01,0.01 0.1756,0.01 0.6,0.01 0.581,0 0.5892,0 0.5865,-0.018 0,-0.01 -0.012,-0.026 -0.023,-0.04 -0.011,-0.013 -0.033,-0.04 -0.049,-0.059 -0.077,-0.093 -0.1396,-0.1648 -0.1496,-0.1706 -0.024,-0.014 -0.011,-0.043 0.043,-0.093 0.03,-0.028 0.1222,-0.118 0.2058,-0.2006 0.084,-0.083 0.1562,-0.1501 0.1613,-0.1501 0.022,0 0.164,0.1557 0.2819,0.3081 0.102,0.132 0.1694,0.2321 0.2542,0.3778 0.027,0.046 0.052,0.089 0.056,0.096 0.015,0.026 0.095,0.1903 0.1159,0.2392 0.012,0.028 0.029,0.066 0.037,0.084 0.01,0.018 0.015,0.038 0.015,0.044 0,0.01 0.01,0.018 0.012,0.027 0.01,0.01 0.012,0.022 0.012,0.03 0,0.01 0.01,0.028 0.016,0.044 0.01,0.016 0.016,0.038 0.016,0.047 0,0.01 0.01,0.028 0.011,0.04 0.01,0.012 0.019,0.051 0.028,0.086 0.01,0.035 0.021,0.076 0.026,0.092 0,0.015 0.013,0.051 0.019,0.08 0.01,0.028 0.014,0.07 0.018,0.092 0.063,0.3161 0.075,0.6893 0.032,1.0089 -0.017,0.1283 -0.03,0.205 -0.039,0.2432 -0.01,0.022 -0.016,0.067 -0.024,0.1 -0.029,0.118 -0.027,0.1131 -0.075,0.2712 -0.017,0.054 -0.036,0.1059 -0.044,0.1215 0,0.01 -0.01,0.018 -0.01,0.024 0,0.01 -0.01,0.024 -0.016,0.04 -0.01,0.016 -0.016,0.033 -0.016,0.037 0,0.01 -0.077,0.1812 -0.097,0.2157 0,0.01 -0.012,0.023 -0.019,0.036 -0.01,0.013 -0.02,0.038 -0.03,0.056 -0.01,0.018 -0.029,0.052 -0.043,0.076 -0.045,0.08 -0.055,0.096 -0.06,0.096 0,10e-5 -0.01,0 -0.01,0.01 0,0 -0.02,0.037 -0.044,0.072 -0.024,0.035 -0.044,0.065 -0.044,0.068 0,0.01 -0.2097,0.2693 -0.2605,0.3229 -0.058,0.061 -0.224,0.2258 -0.2586,0.2565 -0.044,0.039 -0.068,0.059 -0.099,0.082 -0.017,0.013 -0.038,0.029 -0.045,0.036 -0.043,0.041 -0.2355,0.1744 -0.3297,0.2284 -0.022,0.013 -0.041,0.025 -0.042,0.029 0,0 -0.015,0.01 -0.03,0.015 -0.015,0 -0.027,0.012 -0.027,0.016 0,0 -0.011,0.01 -0.024,0.012 -0.013,0 -0.026,0.01 -0.028,0.013 0,0 -0.05,0.029 -0.1057,0.056 -0.092,0.044 -0.1188,0.057 -0.197,0.091 -0.031,0.013 -0.1069,0.041 -0.1276,0.047 -0.01,0 -0.041,0.014 -0.072,0.025 -0.031,0.012 -0.068,0.024 -0.084,0.028 -0.053,0.013 -0.1236,0.033 -0.1476,0.041 -0.025,0.01 -0.088,0.022 -0.1794,0.038 -0.029,0.01 -0.077,0.014 -0.1077,0.02 -0.1413,0.028 -0.5429,0.051 -0.6818,0.039 z m 0.018,-0.6364 c 0.01,-0.014 0.01,-3.5443 0,-3.5623 -0.01,-0.015 -0.019,-0.015 -0.2058,-0.015 -0.143,0 -0.2001,0 -0.207,0.01 -0.01,0.01 -0.01,0.4098 -0.01,1.7626 v 1.7531 l 0.025,0.015 c 0.014,0.01 0.049,0.018 0.082,0.021 0.031,0 0.066,0.01 0.077,0.013 0.023,0.01 0.1956,0.021 0.2193,0.016 0.01,0 0.019,-0.01 0.022,-0.013 z m 0.4925,0 c 0.02,0 0.061,-0.011 0.092,-0.016 0.031,0 0.08,-0.015 0.1096,-0.024 l 0.054,-0.016 v -1.0581 c 0,-0.582 0,-1.365 0,-1.74 0,-0.5636 0,-0.6854 -0.01,-0.7019 l -0.011,-0.02 h -0.1992 c -0.1169,0 -0.204,0 -0.2111,0.01 -0.01,0.01 -0.012,0.2152 -0.014,1.7836 0,1.3101 0,1.7787 0.01,1.7867 0.011,0.013 0.1189,0.014 0.1745,0 z m -1.2321,-1.8579 v -1.7185 h -0.7951 -0.7951 l -0.02,0.041 c -0.011,0.022 -0.02,0.046 -0.02,0.053 0,0.01 0,0.023 -0.011,0.037 -0.016,0.037 -0.037,0.1001 -0.045,0.1393 0,0.019 -0.012,0.051 -0.019,0.072 -0.015,0.05 -0.035,0.1396 -0.041,0.1889 0,0.022 -0.011,0.067 -0.017,0.1 -0.015,0.076 -0.018,0.5469 0,0.6101 0.01,0.022 0.014,0.076 0.02,0.1196 0.018,0.1307 0.077,0.3688 0.1042,0.4199 0.01,0.012 0.011,0.029 0.011,0.038 0,0.01 0.01,0.03 0.016,0.047 0.01,0.016 0.016,0.034 0.016,0.039 0,0.019 0.1239,0.2775 0.1717,0.358 0.01,0.017 0.022,0.037 0.025,0.044 0,0.01 0.018,0.029 0.032,0.05 0.015,0.021 0.026,0.04 0.026,0.042 0,0.01 0.1117,0.1608 0.1842,0.2491 0.069,0.085 0.1988,0.2173 0.2754,0.2823 0.038,0.033 0.075,0.064 0.082,0.071 0.01,0.01 0.027,0.023 0.045,0.036 0.017,0.013 0.033,0.025 0.036,0.028 0.01,0.01 0.1586,0.1111 0.1955,0.1337 0.109,0.066 0.2246,0.1279 0.3349,0.1776 0.017,0.01 0.048,0.022 0.069,0.031 0.02,0.01 0.042,0.017 0.048,0.017 0.01,0 0.02,0.01 0.031,0.012 0.011,0.01 0.025,0.011 0.032,0.01 0.011,0 0.012,-0.199 0.012,-1.7204 z m 1.8852,1.682 c 0.02,-0.01 0.051,-0.023 0.069,-0.031 0.061,-0.027 0.2315,-0.1131 0.2632,-0.1326 0.017,-0.011 0.038,-0.022 0.046,-0.024 0.01,0 0.014,-0.01 0.014,-0.011 0,0 0.01,-0.01 0.014,-0.011 0.023,-0.01 0.288,-0.1987 0.3048,-0.2198 0,0 0.037,-0.034 0.076,-0.07 0.076,-0.068 0.1456,-0.1382 0.204,-0.2064 0.019,-0.022 0.051,-0.06 0.072,-0.084 0.038,-0.044 0.06,-0.074 0.1398,-0.1907 0.051,-0.075 0.047,-0.068 0.1006,-0.161 0.021,-0.036 0.042,-0.072 0.045,-0.078 0.012,-0.02 0.069,-0.1366 0.087,-0.1795 0.01,-0.022 0.024,-0.055 0.033,-0.074 0.01,-0.019 0.015,-0.04 0.015,-0.047 0,-0.01 0.01,-0.022 0.011,-0.034 0.014,-0.027 0.04,-0.099 0.052,-0.1448 0.01,-0.02 0.016,-0.061 0.025,-0.092 0.033,-0.1197 0.067,-0.3165 0.081,-0.4626 0.01,-0.1034 0,-0.466 -0.01,-0.5065 0,-0.015 -0.012,-0.055 -0.016,-0.088 -0.01,-0.065 -0.027,-0.1639 -0.045,-0.2272 -0.042,-0.1532 -0.076,-0.2524 -0.1074,-0.315 -0.01,-0.011 -0.1006,-0.012 -0.7738,-0.014 -0.5607,0 -0.7708,0 -0.7787,0.01 -0.01,0.01 -0.011,0.2858 -0.011,1.7054 0,0.933 0,1.6988 0.01,1.7017 0.01,0.01 0.045,0.01 0.081,-0.011 z"
           id="path13749"
           inkscape:connector-curvature="0" />
        <path
           style="fill:#c69249;fill-opacity:1;stroke-width:0.00656227"
           d="m -4711.1086,1324.8339 c 0,-0.01 0,-0.1211 0,-0.251 v -0.2362 l 0.095,-0.01 c 0.1162,-0.01 0.3027,-0.031 0.3904,-0.053 0.014,0 0.044,-0.011 0.066,-0.015 0.021,-0.01 0.049,-0.012 0.059,-0.015 0.011,0 0.042,-0.013 0.069,-0.021 0.027,-0.01 0.056,-0.019 0.067,-0.024 0.01,-0.01 0.021,-0.01 0.027,-0.01 0.01,0 0.02,-0.01 0.036,-0.013 0.014,-0.01 0.03,-0.013 0.033,-0.013 0.01,0 0.015,-0.01 0.027,-0.01 0.01,-0.01 0.045,-0.021 0.078,-0.036 0.033,-0.014 0.067,-0.032 0.076,-0.035 0.064,-0.034 0.1227,-0.066 0.1303,-0.072 0.01,0 0.014,-0.01 0.02,-0.014 0.054,-0.031 0.085,-0.051 0.092,-0.059 0.01,-0.01 0.01,-0.01 0.014,-0.01 0.01,0 0.067,-0.044 0.1046,-0.074 0.1261,-0.1006 0.2806,-0.2485 0.3439,-0.3292 0.02,-0.026 0.041,-0.052 0.049,-0.059 0.027,-0.03 0.1055,-0.1418 0.1692,-0.2429 0.04,-0.065 0.1217,-0.229 0.1568,-0.3182 0.051,-0.1291 0.064,-0.1691 0.089,-0.2691 0,-0.016 0.011,-0.043 0.016,-0.059 0.01,-0.016 0.011,-0.046 0.013,-0.066 0,-0.02 0.01,-0.043 0.011,-0.052 0,-0.01 0.01,-0.044 0.012,-0.079 0,-0.034 0.01,-0.086 0.012,-0.1153 l 0.01,-0.053 -0.011,-0.01 -0.01,-0.01 h -1.9668 -1.9667 v -0.011 c -0.01,-0.013 -0.01,-0.471 0,-0.4845 v -0.011 h 1.9532 c 1.0743,0 1.9571,0 1.962,-0.01 l 0.01,-0.01 -0.01,-0.058 c -0.01,-0.062 -0.018,-0.094 -0.038,-0.1601 -0.01,-0.023 -0.012,-0.049 -0.012,-0.056 0,-0.01 -0.01,-0.019 -0.01,-0.026 -0.01,-0.01 -0.01,-0.019 -0.01,-0.026 0,-0.01 -0.01,-0.026 -0.013,-0.039 -0.01,-0.014 -0.013,-0.029 -0.013,-0.033 0,-0.01 -0.033,-0.092 -0.04,-0.099 0,0 -0.01,-0.011 -0.01,-0.015 0,-0.01 -0.098,-0.2114 -0.1055,-0.2176 0,0 -0.01,-0.012 -0.013,-0.021 -0.021,-0.04 -0.053,-0.09 -0.061,-0.097 -0.01,-0.01 -0.01,-0.011 -0.01,-0.014 0,0 -0.01,-0.021 -0.025,-0.04 -0.013,-0.019 -0.032,-0.046 -0.042,-0.061 -0.01,-0.014 -0.026,-0.035 -0.034,-0.046 -0.01,-0.01 -0.02,-0.023 -0.023,-0.027 -0.084,-0.1001 -0.1168,-0.1362 -0.182,-0.1994 -0.079,-0.077 -0.1711,-0.1566 -0.2255,-0.1954 -0.016,-0.012 -0.046,-0.033 -0.066,-0.047 -0.02,-0.014 -0.052,-0.035 -0.072,-0.048 -0.019,-0.012 -0.043,-0.026 -0.053,-0.033 -0.01,-0.01 -0.029,-0.018 -0.044,-0.026 -0.014,-0.01 -0.034,-0.019 -0.044,-0.025 -0.031,-0.016 -0.1237,-0.063 -0.1588,-0.078 -0.018,-0.01 -0.04,-0.019 -0.05,-0.024 -0.01,-0.01 -0.021,-0.01 -0.026,-0.01 -0.01,0 -0.017,-0.01 -0.029,-0.01 -0.025,-0.012 -0.069,-0.027 -0.1092,-0.039 -0.029,-0.01 -0.051,-0.015 -0.094,-0.031 -0.012,0 -0.038,-0.011 -0.061,-0.015 -0.021,-0.01 -0.048,-0.012 -0.057,-0.015 -0.01,0 -0.027,-0.01 -0.036,-0.01 -0.01,0 -0.045,-0.01 -0.079,-0.012 -0.078,-0.016 -0.2417,-0.033 -0.3159,-0.033 h -0.056 v -0.011 c -0.01,-0.016 -0.01,-0.4709 0,-0.4811 l 0.01,-0.01 0.1271,0.01 c 0.07,0 0.146,0.01 0.1694,0.01 0.024,0 0.067,0.01 0.095,0.012 0.056,0.01 0.1439,0.022 0.1968,0.036 0.018,0.01 0.046,0.011 0.062,0.013 0.015,0 0.038,0.01 0.05,0.014 0.012,0.01 0.029,0.01 0.037,0.01 0.01,0 0.023,0 0.033,0.01 0.01,0.01 0.029,0.011 0.043,0.014 0.014,0 0.033,0.01 0.044,0.014 0.01,0.01 0.023,0.01 0.03,0.01 0.01,0 0.024,0.01 0.037,0.013 0.014,0.01 0.031,0.013 0.035,0.013 0.01,0 0.016,0.01 0.027,0.01 0.01,0.01 0.035,0.015 0.056,0.024 0.021,0.01 0.044,0.017 0.049,0.021 0.01,0 0.014,0.01 0.02,0.011 0.032,0.013 0.086,0.038 0.1114,0.052 0.016,0.01 0.049,0.025 0.073,0.037 0.024,0.012 0.055,0.029 0.069,0.038 0.014,0.01 0.034,0.02 0.043,0.026 0.01,0.01 0.033,0.02 0.056,0.034 0.021,0.014 0.044,0.028 0.05,0.031 0.013,0.01 0.055,0.034 0.059,0.04 0,0 0.016,0.013 0.033,0.024 0.016,0.01 0.032,0.021 0.033,0.023 0,0 0.014,0.011 0.028,0.02 0.013,0.01 0.025,0.018 0.025,0.021 0,0 0.012,0.013 0.028,0.022 0.026,0.016 0.047,0.034 0.086,0.073 0.01,0.01 0.035,0.033 0.062,0.055 0.027,0.023 0.07,0.065 0.096,0.092 0.046,0.048 0.067,0.071 0.1513,0.1648 0.011,0.013 0.029,0.034 0.039,0.049 0.027,0.037 0.032,0.042 0.043,0.055 0.021,0.023 0.133,0.1876 0.1689,0.2498 0.013,0.023 0.029,0.05 0.035,0.059 0.053,0.083 0.1543,0.3022 0.1953,0.4209 0.01,0.027 0.037,0.1115 0.048,0.1412 0.01,0.021 0.02,0.067 0.032,0.1148 0.01,0.016 0.013,0.05 0.02,0.076 0.01,0.026 0.012,0.055 0.012,0.066 -1e-4,0.011 0.01,0.033 0.01,0.05 0.01,0.015 0.011,0.05 0.014,0.074 l 0.01,0.044 0.016,0.01 0.016,0.01 h 0.3926 0.3924 l 0.01,-0.01 0.01,-0.01 -0.029,-0.026 c -0.067,-0.059 -0.6207,-0.6151 -0.6249,-0.6264 l -0.01,-0.012 0.1694,-0.1698 0.1695,-0.1697 h 0.012 0.012 l 0.1479,0.146 c 0.9159,0.9048 1.13,1.1189 1.13,1.1303 0,0.012 -1.2539,1.2684 -1.2771,1.2806 l -0.014,0.01 -0.1713,-0.1717 c -0.095,-0.095 -0.1715,-0.175 -0.1715,-0.1786 0,0 0.1477,-0.1543 0.3281,-0.3344 0.1803,-0.1802 0.328,-0.3312 0.3281,-0.3355 0,-0.014 -0.039,-0.015 -0.4249,-0.014 h -0.3826 l -0.01,0.01 c 0,0.01 -0.01,0.034 -0.01,0.062 0,0.058 -0.022,0.2359 -0.036,0.2921 -0.01,0.02 -0.011,0.051 -0.013,0.069 0,0.018 -0.01,0.044 -0.013,0.059 -0.01,0.014 -0.01,0.035 -0.01,0.046 0,0.01 -0.01,0.028 -0.01,0.038 -0.01,0.01 -0.01,0.023 -0.01,0.028 0,0.014 -0.041,0.1408 -0.076,0.2356 -0.01,0.026 -0.019,0.054 -0.022,0.062 0,0.01 -0.01,0.022 -0.012,0.03 0,0.01 -0.013,0.027 -0.021,0.045 -0.049,0.1113 -0.1586,0.3182 -0.1715,0.3237 0,0 -0.01,0.01 -0.01,0.01 0,0.056 -0.3471,0.4751 -0.511,0.6156 -0.023,0.02 -0.049,0.042 -0.056,0.05 -0.065,0.061 -0.3142,0.2387 -0.3806,0.2725 -0.01,0 -0.025,0.014 -0.039,0.022 -0.015,0.01 -0.045,0.026 -0.069,0.038 -0.024,0.012 -0.057,0.03 -0.076,0.039 -0.018,0.01 -0.048,0.024 -0.066,0.032 -0.018,0.01 -0.037,0.017 -0.043,0.021 -0.011,0.01 -0.01,0.01 -0.089,0.037 -0.032,0.013 -0.073,0.028 -0.088,0.035 -0.016,0.01 -0.052,0.018 -0.079,0.026 -0.027,0.01 -0.059,0.019 -0.071,0.024 -0.011,0.01 -0.027,0.01 -0.034,0.01 -0.01,0 -0.024,0.01 -0.037,0.01 -0.013,0.01 -0.038,0.012 -0.057,0.016 -0.051,0.01 -0.1006,0.021 -0.1564,0.034 -0.028,0.01 -0.063,0.012 -0.079,0.012 -0.015,0 -0.05,0.01 -0.074,0.01 -0.037,0.01 -0.2602,0.023 -0.332,0.023 h -0.018 z"
           id="path13751"
           inkscape:connector-curvature="0" />
      </g>
      <path
         inkscape:connector-curvature="0"
         id="path13755"
         d="m -1321.8566,-199.40966 c -0.018,0 -0.029,0.01 -0.042,0.017 l -0.017,0.017 -0.01,0.2767 c -0.01,0.2721 -0.01,0.3455 -0.033,0.4492 -0.01,0.035 -0.034,0.1183 -0.043,0.137 -0.038,0.079 -0.054,0.1056 -0.097,0.1617 -0.023,0.029 -0.067,0.077 -0.099,0.1064 -0.059,0.054 -0.066,0.065 -0.065,0.098 0,0.018 0.029,0.056 0.043,0.056 0.042,0 0.099,0.043 0.1238,0.092 0.016,0.033 0.041,0.103 0.041,0.1175 0,0.011 0.033,0.04 0.048,0.043 0.017,0.01 0.062,-0.01 0.074,-0.018 0.01,-0.01 0.017,-0.012 0.026,-0.015 0.041,-0.018 0.1294,-0.086 0.1879,-0.1467 0.104,-0.1071 0.1476,-0.1885 0.1837,-0.3435 0.016,-0.068 0.017,-0.081 0.014,-0.1808 -0.01,-0.1017 -0.01,-0.1516 -0.035,-0.2525 -0.011,-0.043 -0.056,-0.1868 -0.067,-0.2098 -0.01,-0.01 -0.017,-0.04 -0.031,-0.074 -0.014,-0.034 -0.042,-0.092 -0.061,-0.129 -0.093,-0.1788 -0.1095,-0.2014 -0.1489,-0.2014 z m -4.7064,0.3165 c -0.01,-10e-5 -0.01,0 -0.01,1e-4 -0.012,0 -0.024,0.01 -0.034,0.014 -0.021,0.02 -0.026,0.056 -0.014,0.1113 0.01,0.026 0.013,0.067 0.017,0.092 0.016,0.1061 0.037,0.2318 0.048,0.2937 0.01,0.027 0.015,0.083 0.023,0.1258 0.021,0.1207 0.03,0.1645 0.066,0.3093 0.034,0.1392 0.092,0.3277 0.1148,0.3702 0.01,0.01 0.018,0.037 0.034,0.069 0.035,0.074 0.056,0.1088 0.1097,0.181 0.068,0.092 0.1773,0.1902 0.2606,0.235 0.014,0.01 0.03,0.016 0.036,0.02 0.013,0.01 0.069,0.032 0.075,0.032 0.01,0 0.014,0.01 0.025,0.01 0.049,0.023 0.1962,0.054 0.285,0.062 0.072,0.01 0.3338,0.01 0.3905,-0.01 0.023,-0.01 0.073,-0.01 0.1097,-0.016 0.1371,-0.019 0.1826,-0.029 0.2145,-0.05 0.032,-0.021 0.074,-0.066 0.091,-0.099 0.015,-0.029 0.037,-0.12 0.037,-0.1523 0,-0.036 -0.022,-0.1277 -0.038,-0.1599 -0.016,-0.031 -0.08,-0.1006 -0.1102,-0.1199 -0.045,-0.028 -0.1114,-0.043 -0.2159,-0.046 -0.2317,-0.01 -0.4783,-0.047 -0.6068,-0.098 -0.1411,-0.056 -0.2505,-0.1269 -0.3428,-0.2223 -0.044,-0.045 -0.1187,-0.1361 -0.1187,-0.1438 0,-0.01 -0.01,-0.017 -0.022,-0.034 -0.063,-0.088 -0.1765,-0.3029 -0.2654,-0.5019 -0.01,-0.011 -0.019,-0.043 -0.032,-0.071 -0.013,-0.028 -0.028,-0.062 -0.034,-0.074 -0.01,-0.013 -0.015,-0.034 -0.021,-0.048 -0.01,-0.014 -0.013,-0.032 -0.015,-0.039 -0.01,-0.026 -0.034,-0.042 -0.059,-0.043 z m 2.6016,0.3238 c -0.087,0 -0.2467,0.024 -0.3906,0.059 -0.044,0.011 -0.093,0.022 -0.1077,0.025 -0.031,0.01 -0.088,0.024 -0.1118,0.034 -0.01,0.01 -0.043,0.015 -0.074,0.025 -0.032,0.011 -0.074,0.025 -0.094,0.032 -0.019,0.01 -0.046,0.017 -0.059,0.021 -0.058,0.016 -0.084,0.078 -0.048,0.1141 l 0.017,0.017 0.1435,0.01 c 0.1584,0.01 0.292,0.01 0.3856,0.026 0.088,0.015 0.202,0.046 0.2389,0.065 0.01,0.01 0.019,0.01 0.022,0.01 0.015,0 0.1087,0.05 0.168,0.09 0.071,0.047 0.1888,0.1565 0.2491,0.2315 0.051,0.063 0.1387,0.1914 0.1854,0.2705 0.043,0.073 0.085,0.1487 0.085,0.1532 0,0.01 -0.015,0.01 -0.034,0.01 -0.089,0.017 -0.2661,0.056 -0.321,0.07 -0.034,0.01 -0.079,0.02 -0.1001,0.025 -0.073,0.018 -0.291,0.086 -0.3302,0.1033 -0.011,0.01 -0.024,0.01 -0.028,0.01 -0.01,0 -0.019,0.01 -0.035,0.012 -0.015,0.01 -0.04,0.017 -0.056,0.023 -0.016,0.01 -0.039,0.016 -0.05,0.02 -0.012,0.01 -0.024,0.01 -0.027,0.01 -0.01,0 -0.029,0.01 -0.056,0.023 -0.027,0.013 -0.059,0.027 -0.069,0.032 -0.011,0.01 -0.052,0.024 -0.09,0.042 -0.098,0.046 -0.1665,0.081 -0.3195,0.1634 -0.031,0.016 -0.1131,0.065 -0.1927,0.1125 -0.013,0.01 -0.028,0.016 -0.033,0.019 -0.01,0.01 -0.021,0.012 -0.036,0.021 -0.014,0.01 -0.032,0.019 -0.039,0.024 -0.02,0.012 -0.1172,0.071 -0.1421,0.087 -0.01,0.01 -0.039,0.024 -0.068,0.042 -0.029,0.018 -0.06,0.037 -0.068,0.042 -0.01,0.01 -0.03,0.019 -0.049,0.031 -0.019,0.012 -0.059,0.037 -0.089,0.056 -0.03,0.019 -0.071,0.045 -0.09,0.056 -0.019,0.012 -0.041,0.026 -0.049,0.031 -0.01,0.01 -0.038,0.024 -0.066,0.04 -0.07,0.042 -0.094,0.068 -0.094,0.1016 0,0.015 0.01,0.031 0.01,0.038 0.01,0.011 0.091,0.1257 0.1897,0.2682 0.062,0.09 0.072,0.1004 0.095,0.1066 0.033,0.01 0.039,0.01 0.1657,-0.076 0.01,-0.01 0.021,-0.014 0.027,-0.017 0.019,-0.012 0.079,-0.049 0.089,-0.055 0.01,-0.01 0.053,-0.031 0.1065,-0.061 0.053,-0.03 0.1012,-0.058 0.1065,-0.061 0.024,-0.015 0.2705,-0.1401 0.3486,-0.1763 0.037,-0.017 0.088,-0.041 0.1129,-0.053 0.025,-0.012 0.073,-0.032 0.1065,-0.045 0.054,-0.021 0.081,-0.033 0.1323,-0.055 0.01,-0.01 0.038,-0.014 0.068,-0.024 0.1104,-0.037 0.1585,-0.054 0.1711,-0.059 0.01,-0.01 0.04,-0.013 0.074,-0.023 0.034,-0.01 0.067,-0.019 0.074,-0.023 0.016,-0.01 0.033,-0.011 0.213,-0.055 0.078,-0.019 0.1739,-0.041 0.213,-0.048 0.039,-0.01 0.088,-0.018 0.1079,-0.023 0.02,-0.01 0.048,-0.01 0.061,-0.01 0.013,0 0.046,-0.01 0.073,-0.01 0.1008,-0.019 0.215,-0.033 0.4073,-0.048 0.017,-0.01 0.043,-0.01 0.067,-0.01 v 0 l 0.062,-0.01 c 0.034,-0.01 0.1055,-0.01 0.1587,-0.011 0.058,-0.01 0.2898,-0.01 0.573,-0.01 l 0.4762,0.01 0.016,-0.016 c 0.023,-0.023 0.027,-0.069 0.014,-0.1469 -0.011,-0.066 -0.019,-0.126 -0.034,-0.2301 -0.03,-0.2234 -0.032,-0.2309 -0.058,-0.2542 -0.025,-0.022 -0.029,-0.023 -0.1936,-0.033 -0.214,-0.013 -0.3284,-0.02 -0.442,-0.03 -0.062,-0.01 -0.1354,-0.01 -0.1627,-0.01 -0.049,1e-4 -0.1977,-0.011 -0.2343,-0.016 -0.015,-0.01 -0.022,-0.01 -0.03,-0.027 -0.037,-0.083 -0.049,-0.1079 -0.076,-0.163 -0.017,-0.034 -0.042,-0.08 -0.054,-0.1032 -0.013,-0.023 -0.027,-0.049 -0.032,-0.058 -0.01,-0.01 -0.016,-0.028 -0.026,-0.044 -0.01,-0.015 -0.018,-0.029 -0.018,-0.031 0,-0.01 -0.01,-0.017 -0.021,-0.035 -0.012,-0.017 -0.024,-0.036 -0.028,-0.041 -0.067,-0.1101 -0.2361,-0.2994 -0.3423,-0.3827 -0.062,-0.049 -0.1401,-0.098 -0.1934,-0.1219 -0.021,-0.01 -0.043,-0.02 -0.048,-0.022 -0.01,-0.01 -0.036,-0.013 -0.068,-0.023 -0.032,-0.01 -0.067,-0.02 -0.077,-0.024 -0.016,-0.01 -0.082,-0.015 -0.1446,-0.022 -0.01,0 -0.01,-0.01 -0.013,-0.01 -0.01,0 -0.01,-0.01 -0.015,-0.01 -0.037,-0.01 -0.069,-0.01 -0.085,-0.01 z m 0.1565,0.1945 c 0.024,0.013 0.045,0.026 0.064,0.038 -0.019,-0.012 -0.041,-0.025 -0.064,-0.038 z m 0.096,0.059 c 0.037,0.025 0.083,0.058 0.1168,0.084 -0.034,-0.026 -0.08,-0.059 -0.1168,-0.084 z m -3.3101,0.6809 c -0.083,0.01 -0.1801,0.022 -0.2621,0.06 -0.076,0.035 -0.1408,0.082 -0.2063,0.1502 -0.097,0.1004 -0.1487,0.192 -0.1849,0.3267 l -0.02,0.075 -0.01,0.6745 c -0.01,0.63 -0.01,0.6768 -0.015,0.71 -0.026,0.079 -0.069,0.1413 -0.1272,0.1839 -0.049,0.036 -0.093,0.053 -0.1736,0.065 -0.1364,0.021 -0.187,0.059 -0.2071,0.1558 -0.015,0.072 0.011,0.1472 0.064,0.1876 0.033,0.025 0.071,0.037 0.1566,0.049 0.084,0.013 0.138,0.038 0.1939,0.094 0.044,0.044 0.072,0.091 0.093,0.1555 0.011,0.033 0.012,0.079 0.015,0.7067 l 0.01,0.6713 0.018,0.068 c 0.039,0.145 0.1009,0.2526 0.2036,0.3554 0.1134,0.1134 0.2393,0.172 0.4006,0.1866 0.1635,0.015 0.2546,-0.034 0.2789,-0.15 0.014,-0.068 -0.02,-0.1496 -0.075,-0.1818 -0.033,-0.019 -0.064,-0.028 -0.1451,-0.039 -0.089,-0.013 -0.1525,-0.045 -0.2094,-0.1055 -0.042,-0.045 -0.074,-0.1 -0.089,-0.1557 -0.01,-0.021 -0.01,-0.2006 -0.012,-0.7034 -0.01,-0.7157 -0.01,-0.6878 -0.034,-0.7912 -0.03,-0.1005 -0.072,-0.1683 -0.1552,-0.2514 l -0.059,-0.059 0.047,-0.044 c 0.077,-0.071 0.1391,-0.1642 0.1657,-0.246 0.033,-0.1022 0.032,-0.075 0.036,-0.8035 0.01,-0.633 0.01,-0.6834 0.016,-0.7164 0.038,-0.1155 0.1162,-0.1977 0.2245,-0.2359 0.014,-0.01 0.049,-0.012 0.078,-0.016 0.1152,-0.016 0.1618,-0.041 0.1952,-0.1062 0.047,-0.092 0.01,-0.2087 -0.084,-0.2495 -0.033,-0.015 -0.077,-0.021 -0.1263,-0.02 z m 6.7531,0 c -0.073,0 -0.1136,0.014 -0.1519,0.047 -0.039,0.034 -0.056,0.069 -0.06,0.119 -0.01,0.059 0.011,0.10569 0.049,0.1446 0.036,0.037 0.065,0.047 0.1692,0.062 0.1429,0.02 0.2381,0.095 0.2898,0.2277 l 0.017,0.043 0.01,0.6745 c 0.01,0.6554 0.01,0.6762 0.017,0.7343 0.035,0.1559 0.081,0.2392 0.1867,0.3406 l 0.047,0.045 -0.055,0.055 c -0.062,0.062 -0.1236,0.14819 -0.1445,0.2041 -0.021,0.054 -0.038,0.13249 -0.045,0.20259 -0.01,0.036 -0.01,0.3145 -0.01,0.6774 0,0.68511 0.01,0.6591 -0.043,0.7449 -0.054,0.1027 -0.1437,0.1638 -0.2669,0.1814 -0.1138,0.016 -0.1545,0.033 -0.1838,0.075 -0.054,0.077 -0.045,0.18431 0.02,0.24441 0.034,0.032 0.061,0.044 0.1112,0.051 0.02,0.01 0.048,0.01 0.062,0.01 0.087,-0.01 0.1105,-0.011 0.1634,-0.025 0.2086,-0.056 0.3974,-0.2374 0.4692,-0.4511 0.039,-0.1178 0.037,-0.076 0.042,-0.8075 0.01,-0.4901 0.01,-0.6788 0.012,-0.6991 0.015,-0.054 0.049,-0.1137 0.091,-0.1578 0.055,-0.058 0.121,-0.092 0.2007,-0.1018 0.1559,-0.02 0.2182,-0.07 0.2246,-0.1806 0.01,-0.1159 -0.047,-0.1793 -0.1729,-0.2029 -0.1087,-0.021 -0.1207,-0.024 -0.1609,-0.043 -0.052,-0.025 -0.1206,-0.092 -0.1473,-0.1451 -0.046,-0.091 -0.042,-0.037 -0.047,-0.7809 l -0.01,-0.6712 -0.018,-0.067 c -0.024,-0.089 -0.053,-0.1553 -0.096,-0.2211 -0.139,-0.2132 -0.3233,-0.3201 -0.5571,-0.3229 -0.01,0 -0.01,-1e-4 -0.015,0 z m -1.5479,1.1407 c -0.015,0 -0.026,0.01 -0.037,0.015 -0.024,0.022 -0.024,0.043 -0.01,0.10389 0.01,0.03 0.021,0.065 0.025,0.078 0.01,0.012 0.017,0.059 0.03,0.10321 0.021,0.074 0.037,0.13229 0.046,0.17429 0.01,0.01 0.01,0.041 0.015,0.071 0.088,0.401 0.085,0.8458 -0.01,1.2554 -0.023,0.097 -0.028,0.119 -0.051,0.2001 -0.013,0.046 -0.027,0.095 -0.03,0.108 -0.01,0.014 -0.01,0.025 -0.012,0.025 -0.01,0 -0.035,-0.028 -0.072,-0.063 -0.079,-0.074 -0.3852,-0.3564 -0.5019,-0.463 -0.01,-0.01 -0.01,-0.01 -0.021,-0.019 0.01,0.01 0.01,0.01 0.01,0.01 -0.01,-0.01 -0.015,-0.014 -0.018,-0.017 l -0.067,-0.061 v 0 c 0.032,0.029 0.058,0.053 0.078,0.071 -0.017,-0.015 -0.035,-0.032 -0.066,-0.062 -0.076,-0.071 -0.1052,-0.073 -0.1555,-0.013 -0.017,0.02 -0.042,0.049 -0.057,0.066 -0.014,0.016 -0.064,0.074 -0.1101,0.1285 -0.046,0.055 -0.1376,0.1622 -0.2033,0.2389 -0.066,0.077 -0.134,0.1566 -0.1517,0.1773 -0.018,0.021 -0.061,0.071 -0.095,0.1127 -0.035,0.042 -0.066,0.074 -0.069,0.073 -0.01,-0.01 -0.052,-0.037 -0.1078,-0.08 -0.056,-0.044 -0.154,-0.1189 -0.2179,-0.1678 -0.227,-0.174 -0.2696,-0.20839 -0.4091,-0.33099 -0.1347,-0.11851 -0.2725,-0.26231 -0.3585,-0.37451 -0.035,-0.045 -0.1245,-0.17799 -0.1396,-0.2064 -0.025,-0.047 -0.045,-0.083 -0.05,-0.09 -0.01,-0.01 -0.018,-0.035 -0.033,-0.07 -0.015,-0.035 -0.032,-0.071 -0.037,-0.081 -0.01,-0.01 -0.01,-0.023 -0.01,-0.028 0,-0.01 -0.01,-0.013 -0.01,-0.016 -0.01,-0.01 -0.044,-0.1279 -0.062,-0.19749 -0.014,-0.056 -0.037,-0.079 -0.076,-0.079 -0.023,0 -0.065,0.018 -0.2374,0.1037 -0.1293,0.064 -0.2165,0.111 -0.2275,0.1226 -0.022,0.023 -0.03,0.051 -0.03,0.099 0,0.019 -0.01,0.071 -0.01,0.1131 -0.01,0.043 -0.011,0.1019 -0.013,0.1321 -0.01,0.03 -0.01,0.097 -0.013,0.1484 -0.01,0.051 -0.014,0.1444 -0.019,0.2066 -0.01,0.062 -0.013,0.1434 -0.016,0.1807 -0.01,0.037 -0.01,0.1041 -0.013,0.1484 -0.01,0.045 -0.011,0.117 -0.016,0.1614 -0.01,0.044 -0.01,0.095 -0.01,0.1123 0,0.017 -0.01,0.07 -0.01,0.1162 -0.016,0.1404 -0.026,0.257 -0.025,0.29 0.01,0.064 0.051,0.082 0.1282,0.047 0.021,-0.01 0.05,-0.023 0.065,-0.029 0.03,-0.014 0.062,-0.028 0.1453,-0.065 0.033,-0.015 0.077,-0.034 0.097,-0.043 0.059,-0.027 0.072,-0.033 0.1162,-0.053 l 0.042,-0.019 0.01,0.2009 c 0.01,0.1106 0.01,0.2634 0.011,0.3397 0.01,0.076 0.01,0.2042 0.01,0.284 0.01,0.3139 0.017,0.5536 0.024,0.5887 0.01,0.046 0.027,0.065 0.061,0.065 0.026,0 0.042,-0.01 0.1278,-0.054 0.047,-0.026 0.1013,-0.055 0.1646,-0.089 0.064,-0.034 0.1677,-0.09 0.1904,-0.1025 0.014,-0.01 0.043,-0.024 0.065,-0.035 0.021,-0.011 0.059,-0.031 0.084,-0.045 0.025,-0.014 0.073,-0.039 0.1074,-0.058 l 0.062,-0.034 0.014,0.044 c 0.01,0.024 0.024,0.079 0.037,0.121 0.013,0.043 0.027,0.089 0.032,0.1033 0.01,0.014 0.015,0.048 0.023,0.074 0.01,0.027 0.018,0.06 0.023,0.074 0.01,0.014 0.015,0.048 0.023,0.074 0.01,0.027 0.018,0.063 0.024,0.081 0.01,0.018 0.014,0.044 0.018,0.058 0.01,0.014 0.015,0.048 0.023,0.074 0.015,0.05 0.053,0.1769 0.068,0.2227 0.01,0.014 0.011,0.035 0.013,0.046 0.01,0.022 0.025,0.045 0.046,0.049 0.02,0.01 0.05,-0.01 0.065,-0.016 0.01,-0.01 0.034,-0.046 0.058,-0.087 0.025,-0.041 0.049,-0.081 0.054,-0.09 0.01,-0.01 0.048,-0.078 0.096,-0.1559 0.047,-0.077 0.1265,-0.206 0.1759,-0.2858 0.049,-0.08 0.092,-0.1511 0.095,-0.1582 0.01,-0.012 0.01,-0.011 0.013,0.01 0.01,0.013 0.013,0.038 0.02,0.058 0.01,0.019 0.017,0.044 0.021,0.055 0.01,0.011 0.01,0.028 0.016,0.04 0.01,0.011 0.01,0.023 0.01,0.026 0,0.01 0.011,0.031 0.023,0.064 0.027,0.068 0.035,0.089 0.055,0.1421 0.01,0.021 0.017,0.045 0.019,0.052 0.01,0.01 0.011,0.03 0.019,0.051 0.01,0.021 0.024,0.063 0.035,0.094 0.012,0.03 0.027,0.072 0.034,0.093 0.01,0.03 0.024,0.052 0.04,0.064 0,0 0,0 0,0 0.01,0.01 0.01,0.01 0.021,0.012 v 0 c 0.024,0.01 0.052,-0.01 0.069,-0.027 0.01,-0.01 0.043,-0.054 0.074,-0.098 0.091,-0.12441 0.293,-0.3961 0.3765,-0.5078 0.054,-0.072 0.054,-0.072 0.065,-0.058 0.01,0.01 0.044,0.062 0.085,0.1207 0.041,0.059 0.082,0.1181 0.092,0.1324 0.01,0.014 0.039,0.058 0.066,0.097 0.026,0.039 0.052,0.075 0.058,0.08 0.017,0.014 0.055,0.01 0.073,-0.01 0.018,-0.018 0.037,-0.085 0.047,-0.1695 0.01,-0.032 0.01,-0.078 0.014,-0.10331 0.016,-0.10529 0.026,-0.17329 0.039,-0.26139 0.014,-0.095 0.024,-0.1656 0.041,-0.2807 0.01,-0.036 0.013,-0.088 0.017,-0.1162 0.01,-0.028 0.01,-0.063 0.012,-0.078 l 0.01,-0.026 0.014,0.029 c 0.01,0.016 0.02,0.045 0.028,0.065 0.015,0.038 0.029,0.07 0.043,0.099 0.01,0.011 0.01,0.022 0.01,0.026 0,0.01 0.01,0.016 0.019,0.026 0.025,0.024 0.06,0.025 0.083,0.01 0.015,-0.014 0.016,-0.023 0.021,-0.096 0.014,-0.2042 0.019,-0.3124 0.026,-0.4768 0.01,-0.098 0.01,-0.1811 0.01,-0.1855 0.01,-0.01 0.01,-0.095 0.01,-0.2017 0.01,-0.1066 0.01,-0.2056 0.012,-0.2198 l 0.01,-0.026 0.057,0.049 c 0.059,0.05 0.08,0.062 0.1092,0.056 0.021,-0.01 0.043,-0.027 0.044,-0.047 0.01,-0.019 -0.011,-0.12001 -0.023,-0.19321 -0.01,-0.03 -0.014,-0.09 -0.019,-0.1323 -0.01,-0.043 -0.015,-0.1036 -0.02,-0.13549 -0.01,-0.055 -0.025,-0.1706 -0.045,-0.3098 -0.01,-0.036 -0.013,-0.086 -0.016,-0.11301 -0.01,-0.027 -0.011,-0.076 -0.016,-0.10969 -0.011,-0.082 -0.027,-0.19261 -0.052,-0.35501 -0.01,-0.037 -0.013,-0.088 -0.016,-0.11299 -0.01,-0.025 -0.01,-0.067 -0.013,-0.094 -0.023,-0.1464 -0.036,-0.2381 -0.049,-0.3376 -0.017,-0.1286 -0.029,-0.149 -0.1096,-0.1893 -0.025,-0.013 -0.09,-0.046 -0.1452,-0.075 -0.07,-0.037 -0.1079,-0.053 -0.1333,-0.053 z m -0.7009,1.5204 0.01,0.032 c 0.01,0.029 0.01,0.058 0.01,0.086 0.01,0.085 0.017,0.1671 0.023,0.2507 -0.01,-0.084 -0.013,-0.1658 -0.023,-0.2507 -0.01,-0.028 -0.01,-0.057 -0.01,-0.086 z m -0.2657,2.7999 c -0.01,0.01 -0.01,0.018 -0.01,0.026 0.01,-0.01 0.01,-0.017 0.01,-0.026 z m -0.015,0.054 c -2e-4,0 0,0.01 0,0.01 10e-5,0 0,-0.01 0,-0.01 z m -0.01,0.01 c 0,0 -10e-5,0.01 0,0.01 10e-5,0 10e-5,-0.01 0,-0.01 z m 0,0.012 c 10e-5,0 0,0.01 0,0.01 -10e-5,0 0,-0.01 0,-0.01 z"
         style="fill:#c69249;fill-opacity:1;stroke-width:0.00645444" />
      <path
         inkscape:connector-curvature="0"
         id="path13757"
         d="m -1323.6313,-138.10782 c -2.0279,0 -3.6723,1.644 -3.6723,3.6724 0,1.6225 1.0522,2.999 2.5113,3.4846 0.1835,0.034 0.2509,-0.08 0.2509,-0.1766 0,-0.088 -0.01,-0.377 -0.01,-0.6838 -1.0217,0.2221 -1.2371,-0.4333 -1.2371,-0.4333 -0.167,-0.4244 -0.4078,-0.5373 -0.4078,-0.5373 -0.3332,-0.228 0.025,-0.2233 0.025,-0.2233 0.3687,0.026 0.563,0.3785 0.563,0.3785 0.3275,0.5614 0.859,0.3992 1.0686,0.3053 0.033,-0.2373 0.1281,-0.3993 0.2331,-0.4911 -0.8157,-0.093 -1.6731,-0.4078 -1.6731,-1.8149 0,-0.4009 0.1435,-0.7285 0.3784,-0.9857 -0.038,-0.092 -0.1638,-0.466 0.036,-0.9719 0,0 0.3084,-0.099 1.0101,0.3765 0.2929,-0.081 0.607,-0.1221 0.9192,-0.1236 0.3121,0 0.6265,0.043 0.92,0.1236 0.7009,-0.4751 1.0088,-0.3765 1.0088,-0.3765 0.1999,0.5059 0.074,0.8794 0.036,0.9719 0.2355,0.2572 0.3779,0.5848 0.3779,0.9857 0,1.4105 -0.8591,1.7211 -1.6769,1.812 0.1317,0.1139 0.2491,0.3374 0.2491,0.68 0,0.4914 -0.01,0.8869 -0.01,1.0079 0,0.098 0.066,0.2122 0.2522,0.1762 1.4584,-0.4862 2.5092,-1.8622 2.5092,-3.4842 0,-2.0284 -1.6441,-3.6724 -3.6723,-3.6724 z m -2.3341,5.2111 c -0.02,-0.01 -0.037,0.01 -0.043,0.018 -0.01,0.018 0.01,0.043 0.033,0.055 0.026,0.013 0.055,0.01 0.063,-0.012 0.01,-0.018 -0.01,-0.044 -0.033,-0.055 -0.01,-0.01 -0.014,-0.01 -0.02,-0.01 z m 0.1318,0.1265 c -0.01,0 -0.012,0.01 -0.016,0.01 -0.018,0.016 -0.014,0.051 0.011,0.076 0.023,0.026 0.057,0.033 0.075,0.017 h 10e-5 c 0.018,-0.016 0.014,-0.05 -0.01,-0.076 -0.018,-0.019 -0.041,-0.028 -0.059,-0.025 z m 0.1515,0.1869 c -0.01,0 -0.014,0.01 -0.019,0.01 -0.023,0.016 -0.023,0.055 0,0.088 0.023,0.033 0.059,0.047 0.082,0.032 0.022,-0.016 0.022,-0.055 0,-0.088 -0.017,-0.024 -0.042,-0.038 -0.063,-0.037 z m 0.1767,0.2088 c -0.012,0 -0.023,0.01 -0.03,0.014 -0.02,0.022 -0.012,0.064 0.021,0.094 0.032,0.03 0.074,0.036 0.094,0.014 0.021,-0.022 0.012,-0.064 -0.02,-0.094 -0.02,-0.019 -0.044,-0.028 -0.064,-0.027 z m 0.2673,0.1596 c -0.03,0 -0.055,0.013 -0.061,0.035 -0.01,0.029 0.019,0.063 0.06,0.075 0.041,0.012 0.083,0 0.092,-0.029 0.01,-0.029 -0.018,-0.063 -0.06,-0.075 -0.01,-0.01 -0.021,-0.01 -0.031,-0.01 z m 0.6146,0.014 c -0.01,0 -0.02,0 -0.031,0 -0.043,0.01 -0.074,0.038 -0.068,0.069 0.01,0.029 0.045,0.048 0.088,0.04 0.043,-0.01 0.074,-0.039 0.068,-0.068 -0.01,-0.023 -0.027,-0.038 -0.056,-0.042 z m -0.3026,0.035 c -0.044,0 -0.078,0.026 -0.078,0.056 0,0.03 0.036,0.055 0.08,0.053 0.044,0 0.08,-0.026 0.078,-0.056 0,-0.03 -0.036,-0.054 -0.079,-0.054 z"
         style="fill:#c69249;fill-opacity:1;fill-rule:evenodd;stroke:none;stroke-width:0.0608128" />
      <g
         transform="translate(-274.36694,-12.213534)"
         aria-label="BOUNTY"
         style="font-style:normal;font-variant:normal;font-weight:normal;font-stretch:normal;font-size:4.78377295px;line-height:125%;font-family:'Trend Sans';-inkscape-font-specification:'Trend Sans';text-align:end;letter-spacing:0px;word-spacing:0px;text-anchor:end;fill:#c69249;fill-opacity:1;stroke:none;stroke-width:0.11959432"
         id="g13771">
        <path
           d="m -1075.8432,-164.31366 0.4625,-0.97192 c 0.3289,-0.69114 0.258,-1.36592 -0.282,-1.62287 -0.324,-0.15417 -0.6627,-0.077 -0.983,0.2845 0.041,-0.39881 -0.1014,-0.69987 -0.4297,-0.8561 -0.4795,-0.22817 -0.9699,-0.0324 -1.342,0.74941 l -0.4625,0.97191 z m -0.9216,-1.50342 c 0.2693,-0.56587 0.5632,-0.63793 0.7705,-0.53926 0.2246,0.10689 0.3493,0.35695 0.1335,0.81051 l -0.22,0.4622 -0.8423,-0.40084 z m -1.1478,-0.70515 c 0.187,-0.39308 0.4295,-0.46842 0.6368,-0.36975 0.229,0.10894 0.3632,0.40589 0.1512,0.84012 l -0.1829,0.38445 -0.8251,-0.39262 z"
           style="font-style:normal;font-variant:normal;font-weight:normal;font-stretch:normal;font-family:'Trend Sans';-inkscape-font-specification:'Trend Sans'"
           id="path13759"
           inkscape:connector-curvature="0" />
        <path
           d="m -1075.7505,-168.30716 c 0.8296,0.54942 1.8704,0.3207 2.4383,-0.5368 0.5679,-0.8575 0.371,-1.9117 -0.4546,-2.45848 -0.8375,-0.5547 -1.8651,-0.32868 -2.4409,0.54079 -0.5574,0.84155 -0.3524,1.91828 0.4572,2.45449 z m 0.3619,-0.52916 c -0.5743,-0.38037 -0.737,-1.07909 -0.3698,-1.63348 0.3724,-0.56236 1.074,-0.67727 1.6483,-0.2969 0.5703,0.37773 0.7251,1.08841 0.3658,1.63083 -0.3592,0.54243 -1.0819,0.67199 -1.6443,0.29955 z"
           style="font-style:normal;font-variant:normal;font-weight:normal;font-stretch:normal;font-family:'Trend Sans';-inkscape-font-specification:'Trend Sans'"
           id="path13761"
           inkscape:connector-curvature="0" />
        <path
           d="m -1072.6709,-172.19232 c 0.7452,0.6737 1.4477,0.56717 2.0124,-0.0574 0.5646,-0.62455 0.6128,-1.34839 -0.1324,-2.0221 l -1.462,-1.32174 -0.3978,0.44002 1.4584,1.31854 c 0.4791,0.43309 0.4693,0.84341 0.1292,1.21956 -0.34,0.37615 -0.7344,0.41296 -1.21,-0.0169 l -1.462,-1.32174 -0.3978,0.44002 z"
           style="font-style:normal;font-variant:normal;font-weight:normal;font-stretch:normal;font-family:'Trend Sans';-inkscape-font-specification:'Trend Sans'"
           id="path13763"
           inkscape:connector-curvature="0" />
        <path
           d="m -1068.7773,-174.2791 0.4575,-0.37752 -1.3274,-1.60879 2.9699,0.2846 0.1218,-0.10047 -2.1556,-2.61244 -0.4575,0.37752 1.367,1.65676 -2.9843,-0.34715 -0.1439,0.11874 z"
           style="font-style:normal;font-variant:normal;font-weight:normal;font-stretch:normal;font-family:'Trend Sans';-inkscape-font-specification:'Trend Sans'"
           id="path13765"
           inkscape:connector-curvature="0" />
        <path
           d="m -1067.2657,-179.06135 0.9543,-0.59423 1.4893,2.39185 0.5077,-0.31608 -1.4894,-2.39184 0.9381,-0.58411 -0.2883,-0.46294 -2.4,1.49441 z"
           style="font-style:normal;font-variant:normal;font-weight:normal;font-stretch:normal;font-family:'Trend Sans';-inkscape-font-specification:'Trend Sans'"
           id="path13767"
           inkscape:connector-curvature="0" />
        <path
           d="m -1062.1607,-182.48559 -0.1465,1.71031 -1.4053,-0.98585 -0.6198,0.28938 1.9763,1.3158 0.5646,1.20938 0.5418,-0.25296 -0.5625,-1.20504 0.2583,-2.36433 z"
           style="font-style:normal;font-variant:normal;font-weight:normal;font-stretch:normal;font-family:'Trend Sans';-inkscape-font-specification:'Trend Sans'"
           id="path13769"
           inkscape:connector-curvature="0" />
      </g>
      <g
         transform="translate(-274.36694,-12.213534)"
         aria-label="HUNTER"
         style="font-style:normal;font-variant:normal;font-weight:normal;font-stretch:normal;font-size:4.78377295px;line-height:125%;font-family:'Trend Sans';-inkscape-font-specification:'Trend Sans';text-align:end;letter-spacing:0px;word-spacing:0px;text-anchor:end;fill:#c69249;fill-opacity:1;stroke:none;stroke-width:0.26458332"
         id="g13785">
        <path
           d="m -1035.7589,-178.45844 0.5322,0.262 1.4832,-3.01288 -0.5322,-0.26201 -0.6655,1.35194 -1.4721,-0.72473 0.6676,-1.35623 -0.5321,-0.262 -1.4854,3.01717 0.5322,0.26201 0.5852,-1.18885 1.4722,0.72473 z"
           id="path13773"
           inkscape:connector-curvature="0" />
        <path
           d="m -1033.2646,-178.65629 c -0.5683,0.82841 -0.369,1.51043 0.3253,1.9867 0.6943,0.47627 1.4181,0.42749 1.9864,-0.40092 l 1.1149,-1.62526 -0.4892,-0.33556 -1.1122,1.62132 c -0.3653,0.53255 -0.7733,0.57756 -1.1914,0.29071 -0.4182,-0.28684 -0.5072,-0.67283 -0.1446,-1.20143 l 1.1149,-1.62526 -0.4892,-0.33556 z"
           id="path13775"
           inkscape:connector-curvature="0" />
        <path
           d="m -1030.6767,-175.07639 0.4355,0.40281 1.4163,-1.53109 0.1161,2.98123 0.1158,0.1072 2.3,-2.48625 -0.4355,-0.40282 -1.4585,1.57674 -0.056,-3.00388 -0.1369,-0.12669 z"
           id="path13777"
           inkscape:connector-curvature="0" />
        <path
           d="m -1025.7347,-174.2197 0.7168,0.86604 -2.1706,1.79653 0.3812,0.46066 2.1707,-1.79654 0.7045,0.8513 0.4202,-0.34772 -1.8027,-2.17798 z"
           id="path13779"
           inkscape:connector-curvature="0" />
        <path
           d="m -1025.5462,-169.44587 1.1845,1.83748 0.4584,-0.29548 -0.8631,-1.33891 0.6754,-0.43544 0.7828,1.21427 0.4423,-0.28512 -0.7828,-1.21426 0.7921,-0.51061 0.8631,1.33891 0.4584,-0.29548 -1.1845,-1.83748 z"
           id="path13781"
           inkscape:connector-curvature="0" />
        <path
           d="m -1023.7445,-166.50574 0.2574,0.53447 0.8792,-0.42332 0.1598,0.33189 c 0.046,0.0948 0.094,0.18327 0.1437,0.26532 l -0.583,1.07178 0.3008,0.62499 0.6524,-1.26973 c 0.3593,0.29423 0.7742,0.30686 1.1923,0.10557 0.6336,-0.30504 0.8825,-0.92394 0.4945,-1.72996 l -0.4669,-0.96981 z m 2.987,-0.29122 c 0.2428,0.5043 0.069,0.79483 -0.2625,0.95461 -0.3319,0.15979 -0.6821,0.11603 -0.9228,-0.38396 l -0.1909,-0.39654 1.1853,-0.57066 z"
           id="path13783"
           inkscape:connector-curvature="0" />
      </g>
      <g
         transform="translate(-274.36694,-12.213534)"
         aria-label="aeterna"
         style="font-style:normal;font-variant:normal;font-weight:normal;font-stretch:normal;font-size:4.78377295px;line-height:125%;font-family:'Trend Sans';-inkscape-font-specification:'Trend Sans';text-align:end;letter-spacing:0px;word-spacing:0px;text-anchor:end;fill:#c69249;fill-opacity:1;stroke:none;stroke-width:0.26458332"
         id="g13801">
        <path
           d="m -1078.2471,-138.37146 0.2545,0.54112 1.7359,-0.81637 c 0.935,-0.43974 1.1313,-1.1241 0.7587,-1.9163 -0.3726,-0.7922 -1.0167,-1.06021 -1.9517,-0.62047 l -1.7359,0.81637 0.2544,0.54112 0.7273,-0.34202 0.6841,1.45453 z m 1.0519,-2.2709 c 0.6147,-0.28909 1.0083,-0.10414 1.2078,0.32009 0.1995,0.42424 0.1212,0.8311 -0.5281,1.13647 l -0.5758,0.27077 c -0.067,-0.14286 -0.5578,-1.18614 -0.6883,-1.45249 z"
           style="font-style:normal;font-variant:normal;font-weight:normal;font-stretch:normal;font-size:4.78377295px;font-family:'Trend Sans';-inkscape-font-specification:'Trend Sans';fill:#c69249;fill-opacity:1;stroke-width:0.26458332"
           id="path13787"
           inkscape:connector-curvature="0" />
        <path
           d="m -1077.3254,-136.64799 1.1535,1.85713 0.4632,-0.28773 -0.8404,-1.35323 0.6827,-0.42402 0.7622,1.22725 0.447,-0.27763 -0.7622,-1.22726 0.8006,-0.49722 0.8404,1.35323 0.4633,-0.28773 -1.1535,-1.85714 z"
           style="font-style:normal;font-variant:normal;font-weight:normal;font-stretch:normal;font-size:4.78377295px;font-family:'Trend Sans';-inkscape-font-specification:'Trend Sans';fill:#c69249;fill-opacity:1;stroke-width:0.26458332"
           id="path13789"
           inkscape:connector-curvature="0" />
        <path
           d="m -1073.4798,-135.82518 0.69,0.8875 -2.2244,1.72946 0.367,0.47208 2.2244,-1.72946 0.6783,0.8724 0.4306,-0.33473 -1.7354,-2.23199 z"
           style="font-style:normal;font-variant:normal;font-weight:normal;font-stretch:normal;font-size:4.78377295px;font-family:'Trend Sans';-inkscape-font-specification:'Trend Sans';fill:#c69249;fill-opacity:1;stroke-width:0.26458332"
           id="path13791"
           inkscape:connector-curvature="0" />
        <path
           d="m -1073.3164,-131.14114 1.5162,1.57493 0.3929,-0.37823 -1.1048,-1.1476 0.5789,-0.55739 1.002,1.04076 0.3791,-0.36496 -1.002,-1.04076 0.6789,-0.65362 1.1049,1.1476 0.3928,-0.37823 -1.5162,-1.57493 z"
           style="font-style:normal;font-variant:normal;font-weight:normal;font-stretch:normal;font-size:4.78377295px;font-family:'Trend Sans';-inkscape-font-specification:'Trend Sans';fill:#c69249;fill-opacity:1;stroke-width:0.26458332"
           id="path13793"
           inkscape:connector-curvature="0" />
        <path
           d="m -1070.8755,-128.70548 0.4566,0.37859 0.6229,-0.7513 0.2835,0.23509 c 0.048,0.0397 0.092,0.0763 0.1394,0.10928 0.1664,0.43629 -0.3619,0.99869 0.2826,1.53298 0.151,0.12518 0.265,0.18246 0.265,0.18246 l 0.3359,-0.40511 -0.1032,-0.0855 c -0.3093,-0.25646 -0.1417,-0.57111 -0.1964,-0.90233 0.4866,0.11758 0.9373,-0.14878 1.1602,-0.41763 0.4488,-0.54137 0.4171,-1.20769 -0.2716,-1.77862 l -0.8286,-0.68695 z m 2.5937,-1.50971 c 0.4309,0.35721 0.3944,0.69357 0.1593,0.97715 -0.2351,0.28357 -0.5717,0.38979 -0.9989,0.0356 l -0.3388,-0.28089 0.8396,-1.01277 z"
           style="font-style:normal;font-variant:normal;font-weight:normal;font-stretch:normal;font-size:4.78377295px;font-family:'Trend Sans';-inkscape-font-specification:'Trend Sans';fill:#c69249;fill-opacity:1;stroke-width:0.26458332"
           id="path13795"
           inkscape:connector-curvature="0" />
        <path
           d="m -1067.9227,-126.3515 0.5002,0.31879 1.1209,-1.75895 0.6454,2.91285 0.1331,0.0848 1.8201,-2.85626 -0.5002,-0.31879 -1.1543,1.81139 -0.5903,-2.94583 -0.1574,-0.10026 z"
           style="font-style:normal;font-variant:normal;font-weight:normal;font-stretch:normal;font-size:4.78377295px;font-family:'Trend Sans';-inkscape-font-specification:'Trend Sans';fill:#c69249;fill-opacity:1;stroke-width:0.26458332"
           id="path13797"
           inkscape:connector-curvature="0" />
        <path
           d="m -1062.3161,-123.22328 0.5415,0.25369 0.8138,-1.7371 c 0.4384,-0.9357 0.1521,-1.58753 -0.6406,-1.95893 -0.7927,-0.37141 -1.4595,-0.16607 -1.8979,0.76962 l -0.8138,1.7371 0.5415,0.25369 0.3409,-0.72776 1.4556,0.68192 z m -0.6417,-2.41902 c 0.2882,-0.61514 0.7092,-0.72432 1.1337,-0.52543 0.4245,0.1989 0.6242,0.56189 0.3198,1.21168 l -0.2699,0.57614 c -0.143,-0.067 -1.187,-0.55609 -1.4576,-0.67759 z"
           style="font-style:normal;font-variant:normal;font-weight:normal;font-stretch:normal;font-size:4.78377295px;font-family:'Trend Sans';-inkscape-font-specification:'Trend Sans';fill:#c69249;fill-opacity:1;stroke-width:0.26458332"
           id="path13799"
           inkscape:connector-curvature="0" />
      </g>
      <g
         transform="translate(-274.36694,-12.213534)"
         aria-label="capienda"
         style="font-style:normal;font-variant:normal;font-weight:normal;font-stretch:normal;font-size:4.78377295px;line-height:125%;font-family:'Trend Sans';-inkscape-font-specification:'Trend Sans';text-align:end;letter-spacing:0px;word-spacing:0px;text-anchor:end;fill:#c69249;fill-opacity:1;stroke:none;stroke-width:0.26458332"
         id="g13819">
        <path
           d="m -1035.9665,-124.12154 c 0,0 -0.2885,0.3672 -0.8149,0.58403 -0.6458,0.26604 -1.313,0.003 -1.5699,-0.62084 -0.2624,-0.63694 -0.01,-1.28098 0.7247,-1.58164 0.4025,-0.16581 0.8976,-0.13181 0.8976,-0.13181 v -0.5472 c 0,0 -0.5197,-0.0808 -1.2008,0.19977 -0.92,0.37901 -1.3848,1.3983 -1.015,2.2962 0.3791,0.92001 1.3622,1.32213 2.4149,0.88845 0.6325,-0.26056 0.9275,-0.68734 0.9275,-0.68734 z"
           style="font-style:normal;font-variant:normal;font-weight:normal;font-stretch:normal;font-size:4.78377295px;font-family:'Trend Sans';-inkscape-font-specification:'Trend Sans';fill:#c69249;fill-opacity:1;stroke-width:0.26458332"
           id="path13803"
           inkscape:connector-curvature="0" />
        <path
           d="m -1032.6263,-125.08052 0.5207,-0.29402 -0.9432,-1.67039 c -0.508,-0.89977 -1.2051,-1.04455 -1.9674,-0.61412 -0.7623,0.43044 -0.9816,1.0927 -0.4736,1.99246 l 0.9432,1.6704 0.5207,-0.29402 -0.3951,-0.69981 1.3996,-0.79032 z m -2.3428,-0.88008 c -0.334,-0.59152 -0.1788,-0.99777 0.2294,-1.22827 0.4082,-0.23051 0.8198,-0.18272 1.1726,0.44212 l 0.3128,0.55402 c -0.1374,0.0776 -1.1413,0.64448 -1.3973,0.79448 z"
           style="font-style:normal;font-variant:normal;font-weight:normal;font-stretch:normal;font-size:4.78377295px;font-family:'Trend Sans';-inkscape-font-specification:'Trend Sans';fill:#c69249;fill-opacity:1;stroke-width:0.26458332"
           id="path13805"
           inkscape:connector-curvature="0" />
        <path
           d="m -1030.8135,-127.45442 c 0.819,-0.59808 0.8906,-1.25451 0.4759,-1.82242 -0.4147,-0.56792 -1.0685,-0.70066 -1.7909,-0.17311 l -0.8306,0.60654 1.9832,2.71596 0.4791,-0.34982 -0.5755,-0.78813 z m -1.0282,-1.52972 c 0.452,-0.33007 0.7692,-0.21215 0.9864,0.0853 0.2172,0.29748 0.2376,0.64985 -0.2106,0.9771 l -0.3168,0.23134 -0.7758,-1.06244 z"
           style="font-style:normal;font-variant:normal;font-weight:normal;font-stretch:normal;font-size:4.78377295px;font-family:'Trend Sans';-inkscape-font-specification:'Trend Sans';fill:#c69249;fill-opacity:1;stroke-width:0.26458332"
           id="path13807"
           inkscape:connector-curvature="0" />
        <path
           d="m -1028.2237,-128.24859 0.4479,-0.38889 -2.2047,-2.53944 -0.448,0.3889 z"
           style="font-style:normal;font-variant:normal;font-weight:normal;font-stretch:normal;font-size:4.78377295px;font-family:'Trend Sans';-inkscape-font-specification:'Trend Sans';fill:#c69249;fill-opacity:1;stroke-width:0.26458332"
           id="path13809"
           inkscape:connector-curvature="0" />
        <path
           d="m -1026.739,-129.57479 1.5245,-1.56694 -0.3908,-0.38029 -1.1109,1.14178 -0.576,-0.56043 1.0074,-1.03549 -0.3771,-0.36694 -1.0075,1.03548 -0.6754,-0.65717 1.1108,-1.14177 -0.3909,-0.38029 -1.5245,1.56694 z"
           style="font-style:normal;font-variant:normal;font-weight:normal;font-stretch:normal;font-size:4.78377295px;font-family:'Trend Sans';-inkscape-font-specification:'Trend Sans';fill:#c69249;fill-opacity:1;stroke-width:0.26458332"
           id="path13811"
           inkscape:connector-curvature="0" />
        <path
           d="m -1024.3764,-132.08808 0.3599,-0.47152 -1.658,-1.26551 2.957,-0.39692 0.096,-0.12549 -2.6922,-2.055 -0.36,0.47153 1.7074,1.30324 -2.9852,0.33928 -0.1132,0.1483 z"
           style="font-style:normal;font-variant:normal;font-weight:normal;font-stretch:normal;font-size:4.78377295px;font-family:'Trend Sans';-inkscape-font-specification:'Trend Sans';fill:#c69249;fill-opacity:1;stroke-width:0.26458332"
           id="path13813"
           inkscape:connector-curvature="0" />
        <path
           d="m -1021.8652,-135.53133 0.6296,-1.10031 c 0.5108,-0.8927 0.2663,-1.91994 -0.5682,-2.39748 -0.8471,-0.48467 -1.8328,-0.17788 -2.3507,0.72728 l -0.6296,1.1003 z m -1.8136,-2.50382 c 0.335,-0.58545 0.9943,-0.76485 1.5673,-0.43699 0.5688,0.32549 0.728,1.00082 0.4049,1.56551 l -0.335,0.58544 -1.9722,-1.12851 z"
           style="font-style:normal;font-variant:normal;font-weight:normal;font-stretch:normal;font-size:4.78377295px;font-family:'Trend Sans';-inkscape-font-specification:'Trend Sans';fill:#c69249;fill-opacity:1;stroke-width:0.26458332"
           id="path13815"
           inkscape:connector-curvature="0" />
        <path
           d="m -1019.0115,-141.27204 0.2277,-0.55292 -1.7738,-0.73046 c -0.9554,-0.39347 -1.5929,-0.0766 -1.9263,0.73291 -0.3333,0.80947 -0.097,1.46572 0.8589,1.85918 l 1.7737,0.73047 0.2277,-0.55292 -0.7431,-0.30603 0.6121,-1.48626 z m -2.3858,0.75579 c -0.6281,-0.25867 -0.7572,-0.67396 -0.5787,-1.10745 0.1785,-0.43349 0.5317,-0.65022 1.1952,-0.37698 l 0.5883,0.24227 c -0.06,0.14598 -0.4992,1.21201 -0.6077,1.48808 z"
           style="font-style:normal;font-variant:normal;font-weight:normal;font-stretch:normal;font-size:4.78377295px;font-family:'Trend Sans';-inkscape-font-specification:'Trend Sans';fill:#c69249;fill-opacity:1;stroke-width:0.26458332"
           id="path13817"
           inkscape:connector-curvature="0" />
      </g>
    </g>
  </g>
</svg>
