<?xml version="1.0" encoding="UTF-8" standalone="no"?>
<!-- Created with Inkscape (http://www.inkscape.org/) -->

<svg
   xmlns:dc="http://purl.org/dc/elements/1.1/"
   xmlns:cc="http://creativecommons.org/ns#"
   xmlns:rdf="http://www.w3.org/1999/02/22-rdf-syntax-ns#"
   xmlns:svg="http://www.w3.org/2000/svg"
   xmlns="http://www.w3.org/2000/svg"
   xmlns:sodipodi="http://sodipodi.sourceforge.net/DTD/sodipodi-0.dtd"
   xmlns:inkscape="http://www.inkscape.org/namespaces/inkscape"
   width="50.799995mm"
   height="50.800011mm"
   viewBox="0 0 50.799995 50.800011"
   version="1.1"
   id="svg8"
   sodipodi:docname="goose.svg"
   inkscape:version="0.92.4 (5da689c313, 2019-01-14)">
  <defs
     id="defs2" />
  <sodipodi:namedview
     id="base"
     pagecolor="#ffffff"
     bordercolor="#666666"
     borderopacity="1.0"
     inkscape:pageopacity="0.0"
     inkscape:pageshadow="2"
     inkscape:zoom="3.959798"
     inkscape:cx="71.350905"
     inkscape:cy="127.48541"
     inkscape:document-units="mm"
     inkscape:current-layer="layer1"
     showgrid="false"
     inkscape:snap-global="true"
     inkscape:window-width="1920"
     inkscape:window-height="1016"
     inkscape:window-x="1680"
     inkscape:window-y="27"
     inkscape:window-maximized="1"
     fit-margin-top="0"
     fit-margin-left="0"
     fit-margin-right="0"
     fit-margin-bottom="0"
     showguides="true"
     inkscape:guide-bbox="true" />
  <metadata
     id="metadata5">
    <rdf:RDF>
      <cc:Work
         rdf:about="">
        <dc:format>image/svg+xml</dc:format>
        <dc:type
           rdf:resource="http://purl.org/dc/dcmitype/StillImage" />
        <dc:title />
      </cc:Work>
    </rdf:RDF>
  </metadata>
  <g
     inkscape:label="Layer 1"
     inkscape:groupmode="layer"
     id="layer1"
     transform="translate(-127.68037,-53.035263)">
    <path
       inkscape:connector-curvature="0"
       style="opacity:1;fill:#6e9c78;fill-opacity:1;stroke:none;stroke-width:10.73843575;stroke-linecap:round;stroke-miterlimit:4;stroke-dasharray:none;stroke-dashoffset:0;stroke-opacity:0"
       d="m 178.48037,78.435272 a 25.399998,25.400005 0 0 1 -25.4,25.400008 25.399998,25.400005 0 0 1 -25.4,-25.400008 25.399998,25.400005 0 0 1 25.4,-25.400005 25.399998,25.400005 0 0 1 25.4,25.400005 z"
       id="path1384" />
    <path
       inkscape:connector-curvature="0"
       style="fill:#ff8e30;fill-opacity:1;stroke-width:0.14271197"
       d="m 158.64564,74.898212 c -0.1858,-0.07408 -1.94729,-1.208819 -2.23466,-1.439545 -0.31244,-0.250862 -1.45008,-0.979376 -1.82621,-1.169465 -0.2195,-0.11093 -0.64714,-0.414015 -0.95032,-0.673518 -0.30317,-0.259503 -0.6175,-0.471826 -0.6985,-0.471826 -0.28438,0 -0.33665,-0.314094 -0.1267,-0.761389 1.95552,-4.166187 2.16867,-4.51896 2.73041,-4.51896 0.17401,0 0.5324,-0.159378 0.79643,-0.354171 0.37538,-0.276946 0.52346,-0.318161 0.67909,-0.188994 0.10946,0.09085 0.68129,0.892426 1.27072,1.781293 l 1.0717,1.616113 c 1.23112,1.522872 1.29243,1.800719 1.94126,2.894519 0.42678,0.388297 0.79083,1.201688 0.69994,1.563831 -0.0763,0.303937 -1.07976,1.107414 -1.38308,1.107414 -0.0673,0 -0.4243,0.160553 -0.79336,0.356781 -0.67997,0.361543 -0.8328,0.395039 -1.17672,0.257917 z"
       id="path830" />
    <path
       inkscape:connector-curvature="0"
       style="fill:#ffffff;stroke-width:0.14271197"
       d="m 150.63103,61.24927 c -0.21566,0.0022 -0.42974,0.01594 -0.6413,0.04237 -0.77078,0.0963 -1.14435,0.297168 -2.92126,1.566829 -0.27472,0.196298 -0.66006,0.468177 -0.85627,0.604614 -1.13798,0.791212 -2.33143,2.142395 -3.29388,3.729489 -0.7289,1.20199 -1.08984,3.536317 -1.20457,7.792806 -0.0826,3.06591 -0.2196,4.318629 -0.63304,5.780008 -0.14433,0.510192 -0.3361,1.200682 -0.42579,1.534274 -0.17384,0.646576 -0.24691,0.681627 -0.98031,0.471289 -0.8059,-0.231126 -6.46779,0.46205 -9.23253,1.130163 -0.51726,0.124999 -1.3607,0.252662 -2.0624,0.320394 a 25.399997,25.400005 0 0 0 21.3098,19.357464 c 1.47233,-1.64879 1.83849,-2.23389 2.65256,-4.118084 0.32218,-0.745665 0.64497,-1.484255 0.71728,-1.641245 0.14664,-0.318339 0.23577,-0.85893 0.43408,-2.640147 0.0743,-0.667174 0.17269,-1.370471 0.2186,-1.562696 0.0903,-0.377613 -0.16817,-2.062882 -0.37828,-2.467033 -0.0709,-0.136289 -0.13192,-0.361283 -0.13591,-0.499711 -0.004,-0.138422 -0.116,-0.451551 -0.24961,-0.696081 -0.13359,-0.244528 -0.41365,-0.75865 -0.62217,-1.14205 -0.20854,-0.383405 -0.57782,-0.885672 -0.82063,-1.11621 -0.24281,-0.230534 -0.4413,-0.493571 -0.4413,-0.584461 0,-0.09089 -0.13134,-0.284045 -0.29199,-0.429431 -0.34499,-0.312222 -0.89197,-1.467694 -1.04437,-2.206067 -0.10551,-0.511056 -0.39597,-1.591928 -0.51781,-1.926497 -0.16243,-0.446125 -0.38074,-1.21866 -0.56431,-1.997811 -0.0925,-0.392455 -0.22516,-0.938639 -0.29456,-1.213363 -0.69762,-2.760006 -0.91228,-5.089479 -0.64129,-6.962365 0.0892,-0.616381 0.22854,-0.887581 0.7612,-1.480013 0.65027,-0.723265 0.65432,-0.725039 1.37303,-0.649056 0.3964,0.0419 1.15991,0.274586 1.69706,0.516764 0.53714,0.242178 1.08662,0.440283 1.22061,0.440283 0.30432,0 0.58594,-0.272442 0.58393,-0.56379 0,-0.121663 0.42122,-1.063994 0.93792,-2.093929 0.93168,-1.857071 1.21439,-2.186188 1.88929,-2.199349 0.41965,-0.0082 0.88553,-0.509284 0.87955,-0.945678 -0.007,-0.515851 -0.98173,-1.788441 -1.9291,-2.519743 -1.39182,-1.0744 -2.98249,-1.647141 -4.49223,-1.631942 z"
       id="path826" />
    <path
       inkscape:connector-curvature="0"
       style="fill:#000000;fill-opacity:1;stroke-width:0.08401753"
       d="m 152.73346,65.817884 a 0.80281848,0.80782175 0 0 1 -0.80281,0.807822 0.80281848,0.80782175 0 0 1 -0.80282,-0.807822 0.80281848,0.80782175 0 0 1 0.80282,-0.807822 0.80281848,0.80782175 0 0 1 0.80281,0.807822 z"
       id="path834" />
    <g
       id="g1449"
       transform="translate(-192.56364,47.97988)">
      <path
         sodipodi:nodetypes="cccccccccssccccccccccccccccccccccccscccccccscsccccccccccc"
         style="fill:#5f5f5f;fill-opacity:1;stroke:#5f5f5f;stroke-width:0.04233333;stroke-opacity:1"
         d="m 335.37534,16.971862 c -0.0568,-0.09193 -0.15098,-0.874393 -0.1509,-1.253948 l 8e-5,-0.423333 0.47719,-0.0066 c 0.52418,-0.0073 1.30926,-0.08886 1.34263,-0.139532 0.0116,-0.01767 0.0974,-0.04532 0.1905,-0.06144 0.40116,-0.06943 0.60654,-0.15252 0.71664,-0.28994 0.0606,-0.07561 0.12952,-0.16114 0.15321,-0.190074 0.0879,-0.107399 0.13218,-0.513148 0.0822,-0.753906 -0.0263,-0.12686 -0.0656,-0.230653 -0.0872,-0.230653 -0.0216,0 -0.0393,-0.02474 -0.0393,-0.05497 0,-0.111289 -0.33567,-0.406482 -0.51849,-0.455965 -0.099,-0.0268 -0.22058,-0.06767 -0.27017,-0.09082 -0.0837,-0.03907 -0.20571,-0.03407 -0.68821,0.02821 -0.10214,0.01318 -0.20715,0.0062 -0.23337,-0.01559 -0.0262,-0.02176 -0.12113,-0.04574 -0.21093,-0.0533 l -0.16326,-0.01374 0.22478,-0.338666 c 0.23937,-0.360655 1.11749,-1.269775 1.43046,-1.480966 l 0.18464,-0.124592 0.76786,0.001 c 0.7042,9.35e-4 1.28228,0.06066 1.33918,0.138359 0.0117,0.01604 0.13032,0.06277 0.26351,0.103851 0.13318,0.04108 0.26747,0.100007 0.2984,0.130941 0.0309,0.03093 0.11941,0.08891 0.19662,0.128835 0.21711,0.112271 0.55444,0.400129 0.78721,0.671758 0.1162,0.135596 0.23985,0.278806 0.27477,0.318245 0.16591,0.187353 0.36437,0.458445 0.43613,0.595749 0.0436,0.08349 0.10816,0.174361 0.14339,0.201934 0.0657,0.0514 -1.3e-4,0.079 -0.38902,0.163161 -0.0699,0.01512 -0.18415,0.05277 -0.254,0.08367 -2.03791,0.722262 -3.66761,1.901381 -5.87231,3.170158 -0.14236,0.127047 -0.41049,0.277278 -0.43219,0.242157 z m 9.13025,-4.014775 c -0.0291,-0.01048 -0.0529,-0.04605 -0.0529,-0.07903 0,-0.03299 -0.0143,-0.06019 -0.0318,-0.06046 -0.0175,-2.54e-4 -0.0688,-0.08123 -0.11407,-0.179916 -0.0453,-0.09869 -0.1122,-0.217532 -0.14872,-0.264098 -0.0365,-0.04657 -0.10224,-0.151342 -0.14604,-0.232834 -0.0438,-0.08149 -0.11261,-0.186266 -0.15291,-0.232833 -0.0403,-0.04657 -0.0977,-0.132292 -0.12761,-0.1905 -0.0299,-0.05821 -0.0894,-0.130726 -0.13229,-0.16115 -0.0429,-0.03043 -0.0779,-0.08237 -0.0779,-0.115441 0,-0.03307 -0.0476,-0.09133 -0.10583,-0.129469 -0.0582,-0.03814 -0.10583,-0.08691 -0.10583,-0.108388 0,-0.04494 -0.26688,-0.309764 -0.59076,-0.586219 -0.12275,-0.104775 -0.24483,-0.209923 -0.27129,-0.233662 -0.12226,-0.109674 -0.66014,-0.4000663 -0.83129,-0.4488023 -0.10477,-0.02984 -0.20002,-0.06726 -0.21166,-0.08316 -0.0117,-0.0159 -0.0593,-0.03989 -0.10584,-0.05331 -0.0466,-0.01342 0.25824,-0.01666 0.67734,-0.0072 0.56124,0.01266 0.87353,0.04084 1.18533,0.106938 1.54878,0.3283463 2.8391,1.1214083 3.6877,2.2665563 0.25791,0.348051 0.50101,0.735516 0.47528,0.75755 -0.0246,0.0211 -2.76313,0.05552 -2.8189,0.03543 z"
         id="path1420"
         inkscape:connector-curvature="0" />
      <path
         inkscape:connector-curvature="0"
         id="path1424"
         d="m 346.98091,7.1860987 c -0.0644,-0.01209 -0.12485,0.01014 -0.17621,0.06821 -0.0727,1.262098 0.32836,2.6345923 -0.73746,3.7997713 -0.0546,0.0358 -0.0992,0.08198 -0.0992,0.102319 0,0.02034 0.13814,0.170638 0.30695,0.334346 0.1688,0.163709 0.39235,0.412494 0.49712,0.552938 0.10478,0.140445 0.19978,0.27413 0.22865,0.275067 0.0289,9.35e-4 0.18077,-0.102788 0.31965,-0.208404 1.39787,-1.031498 0.93703,-3.0855608 0.16197,-4.3423673 -0.0221,-0.01424 -0.0378,-0.03836 -0.0351,-0.05374 0.006,-0.03405 -0.10425,-0.19461 -0.26665,-0.389124 -0.0671,-0.0803 -0.13557,-0.126919 -0.2,-0.139009 z m -15.20992,2.068607 c -0.10979,0 -0.24986,0.200499 -0.22738,0.325562 0.56549,3.2901913 1.41344,6.5115963 5.49221,5.5603853 0.006,-0.0088 0.0301,-0.01991 0.0646,-0.03101 0.0346,-0.01114 0.0796,-0.02191 0.1261,-0.02997 0.40116,-0.06943 0.60613,-0.152484 0.71622,-0.289905 0.0606,-0.07561 0.12981,-0.161235 0.15349,-0.190169 0.0879,-0.1074 0.13216,-0.513201 0.0822,-0.75396 -0.0263,-0.126859 -0.0657,-0.230476 -0.0873,-0.230476 -0.0216,0 -0.0393,-0.02506 -0.0393,-0.05529 0,-0.111289 -0.33549,-0.406304 -0.51829,-0.455786 -0.099,-0.0268 -0.22069,-0.0678 -0.27027,-0.09095 -2.99165,0.144569 -3.74172,-1.0705 -5.18936,-3.3822233 -0.0222,-0.01424 -0.036,-0.04018 -0.0305,-0.05788 0.0161,-0.05124 -0.2124,-0.318327 -0.27233,-0.318327 z m 5.90249,1.2262823 c -0.12642,0.04982 -0.25426,0.122843 -0.28424,0.162264 -0.0705,0.09276 -0.0736,0.344483 -0.004,0.355534 1.85567,0.09825 3.56006,0.163303 4.78627,2.10478 0.0218,0.04174 0.0484,0.08536 0.0744,0.121956 0.026,0.0366 0.0511,0.0658 0.0687,0.07958 -2.35718,0.622927 -5.24132,2.449027 -7.26833,3.964102 -0.0349,0.03215 -0.12033,0.09484 -0.19018,0.13901 -0.35743,0.226016 -0.40942,0.445839 -0.1695,0.717268 0.0815,0.09216 0.1719,0.196758 0.20103,0.232544 0.0291,0.03579 0.16479,0.203018 0.30179,0.371554 0.137,0.168536 0.27842,0.322592 0.31419,0.342615 0.007,0.0041 0.01,0.0111 0.0145,0.01654 l 0.0615,0.03307 h 0.12248 c 0.007,-0.0045 0.0142,-0.01121 0.0212,-0.01499 0.0815,-0.04392 0.21513,-0.132719 0.29663,-0.196887 0.13705,-0.107928 0.25161,-0.187029 0.68005,-0.469222 4.07034,-2.822697 7.97482,-4.330685 11.40451,-3.259232 0.11607,0 0.14851,-0.02216 0.19328,-0.130224 0.0464,-0.112044 0.0371,-0.222119 -0.0667,-0.79375 -0.0663,-0.365017 -0.13398,-0.673071 -0.15038,-0.684713 -0.0164,-0.01164 -0.0436,-0.113366 -0.0605,-0.225826 -0.0201,-0.134193 -0.0679,-0.241553 -0.13901,-0.312643 l -0.10851,-0.10852 c -1.11668,0.0022 -3.2309,0.05836 -3.2758,0.02379 -0.0449,-0.03457 -0.22204,-0.372224 -0.34726,-0.583421 -2.37352,-3.5747389 -3.80444,-2.9036273 -6.47612,-1.885179 z"
         style="fill:#c69249;fill-opacity:1;stroke:none;stroke-width:0.26458332px;stroke-linecap:butt;stroke-linejoin:miter;stroke-opacity:1"
         sodipodi:nodetypes="cccscccccccccccccccccssccccccccccccccccscccccccccccccczcc" />
    </g>
    <path
       inkscape:connector-curvature="0"
       id="path1539"
       style="font-style:normal;font-variant:normal;font-weight:bold;font-stretch:normal;font-size:4.12583447px;line-height:125%;font-family:Kollektif;-inkscape-font-specification:Kollektif;text-align:end;letter-spacing:0px;word-spacing:0px;text-anchor:end;fill:#ffffff;fill-opacity:1;stroke:none;stroke-width:0.10314586"
       d="m 153.56382,77.570175 q 0.20217,0 0.37545,0.08664 0.17741,0.08252 0.30531,0.231047 0.1279,0.144404 0.19804,0.342444 0.0743,0.193914 0.0743,0.416709 v 1.027333 h -0.55699 v -0.375451 q 0,-0.156781 0,-0.321815 0.004,-0.169159 0.004,-0.288808 0,-0.115524 -0.0371,-0.226921 -0.0371,-0.111398 -0.10314,-0.193914 -0.066,-0.08664 -0.15678,-0.136153 -0.0867,-0.05364 -0.18567,-0.05364 -0.0949,0 -0.18153,0.03713 -0.0866,0.03301 -0.15266,0.103146 -0.066,0.06601 -0.10727,0.169159 -0.0371,0.103146 -0.0371,0.243424 v 1.043836 h -0.57349 v -3.011859 h 0.57349 v 1.122227 q 0.10727,-0.103146 0.24342,-0.156782 0.14028,-0.05776 0.31769,-0.05776 z" />
    <path
       inkscape:connector-curvature="0"
       id="path1541"
       style="font-style:normal;font-variant:normal;font-weight:bold;font-stretch:normal;font-size:4.12583447px;line-height:125%;font-family:Kollektif;-inkscape-font-specification:Kollektif;text-align:end;letter-spacing:0px;word-spacing:0px;text-anchor:end;fill:#ffffff;fill-opacity:1;stroke:none;stroke-width:0.10314586"
       d="m 154.96396,77.627936 h 0.56937 v 2.054666 q 0,0.214543 -0.066,0.367199 -0.0619,0.156782 -0.16916,0.255802 -0.10727,0.103146 -0.25167,0.14853 -0.14028,0.04951 -0.29706,0.04951 -0.0949,0 -0.18979,-0.0165 -0.0949,-0.0165 -0.18979,-0.04951 l 0.0454,-0.41671 q 0.066,0.0083 0.10727,0.01238 0.0371,0.0083 0.0619,0.01238 0.0247,0.0041 0.0412,0.0041 0.0165,0 0.0454,0 0.15678,0 0.22279,-0.07839 0.0701,-0.07427 0.0701,-0.214543 z m 0.28881,-0.911809 q 0.13203,0 0.2228,0.09489 0.0908,0.09077 0.0908,0.222795 0,0.132027 -0.0908,0.222795 -0.0908,0.09077 -0.2228,0.09077 -0.13203,0 -0.22279,-0.09077 -0.0908,-0.09077 -0.0908,-0.222795 0,-0.132027 0.0908,-0.222795 0.0908,-0.09489 0.22279,-0.09489 z" />
    <path
       inkscape:connector-curvature="0"
       id="path1543"
       style="font-style:normal;font-variant:normal;font-weight:bold;font-stretch:normal;font-size:4.12583447px;line-height:125%;font-family:Kollektif;-inkscape-font-specification:Kollektif;text-align:end;letter-spacing:0px;word-spacing:0px;text-anchor:end;fill:#ffffff;fill-opacity:1;stroke:none;stroke-width:0.10314586"
       d="m 156.90491,77.570175 q 0.21867,0 0.41258,0.08664 0.19392,0.08252 0.33832,0.231047 0.14441,0.144404 0.22692,0.342444 0.0866,0.193914 0.0866,0.416709 0,0.222795 -0.0866,0.420836 -0.0825,0.193914 -0.22692,0.342444 -0.1444,0.144404 -0.33832,0.231047 -0.19391,0.08252 -0.41258,0.08252 -0.2228,0 -0.41671,-0.08252 -0.19391,-0.08664 -0.33832,-0.231047 -0.1444,-0.14853 -0.23105,-0.342444 -0.0825,-0.198041 -0.0825,-0.420836 0,-0.222795 0.0825,-0.416709 0.0866,-0.19804 0.23105,-0.342444 0.14441,-0.14853 0.33832,-0.231047 0.19391,-0.08664 0.41671,-0.08664 z m 0,1.654459 q 0.10314,0 0.18979,-0.04126 0.0908,-0.04126 0.15678,-0.111398 0.0701,-0.07427 0.10727,-0.173285 0.0413,-0.103146 0.0413,-0.226921 0,-0.123775 -0.0413,-0.231046 -0.0371,-0.107272 -0.10727,-0.185663 -0.066,-0.08252 -0.15678,-0.127901 -0.0867,-0.04951 -0.18979,-0.04951 -0.10315,0 -0.19392,0.04951 -0.0908,0.04538 -0.1609,0.127901 -0.066,0.07839 -0.10727,0.185663 -0.0371,0.107271 -0.0371,0.231046 0,0.123775 0.0371,0.226921 0.0412,0.09902 0.10727,0.173285 0.0701,0.07014 0.1609,0.111398 0.0908,0.04126 0.19392,0.04126 z" />
    <path
       inkscape:connector-curvature="0"
       id="path1545"
       style="font-style:normal;font-variant:normal;font-weight:bold;font-stretch:normal;font-size:4.12583447px;line-height:125%;font-family:Kollektif;-inkscape-font-specification:Kollektif;text-align:end;letter-spacing:0px;word-spacing:0px;text-anchor:end;fill:#ffffff;fill-opacity:1;stroke:none;stroke-width:0.10314586"
       d="m 159.3318,77.627936 q 0.11553,0 0.2558,0.03301 0.14028,0.03301 0.26406,0.123775 0.12377,0.09077 0.20629,0.251676 0.0866,0.160907 0.0866,0.416709 v 1.221247 h -0.57349 v -1.200618 q 0,-0.09489 -0.033,-0.160907 -0.0289,-0.06601 -0.0825,-0.103146 -0.0495,-0.04126 -0.11553,-0.05776 -0.066,-0.02063 -0.13202,-0.02063 -0.0536,0 -0.11965,0.02063 -0.0619,0.0165 -0.11965,0.05776 -0.0536,0.04126 -0.0908,0.107272 -0.0371,0.06601 -0.0371,0.156781 v 1.200618 h -0.56937 v -2.046414 h 0.48685 l 0.0825,0.156782 q 0.099,-0.07014 0.22279,-0.111398 0.12378,-0.04538 0.26818,-0.04538 z" />
    <path
       inkscape:connector-curvature="0"
       id="path1547"
       style="font-style:normal;font-variant:normal;font-weight:bold;font-stretch:normal;font-size:4.12583447px;line-height:125%;font-family:Kollektif;-inkscape-font-specification:Kollektif;text-align:end;letter-spacing:0px;word-spacing:0px;text-anchor:end;fill:#ffffff;fill-opacity:1;stroke:none;stroke-width:0.10314586"
       d="m 161.63408,78.477858 0.8623,1.196492 h -0.68076 l -0.54049,-0.816915 -0.20216,0.218669 v 0.598246 h -0.56937 v -3.011859 h 0.56937 v 1.670963 l 0.66426,-0.705518 h 0.69314 z" />
    <path
       inkscape:connector-curvature="0"
       id="path1549"
       style="font-style:normal;font-variant:normal;font-weight:bold;font-stretch:normal;font-size:4.12583447px;line-height:125%;font-family:Kollektif;-inkscape-font-specification:Kollektif;text-align:end;letter-spacing:0px;word-spacing:0px;text-anchor:end;fill:#ffffff;fill-opacity:1;stroke:none;stroke-width:0.10314586"
       d="m 164.98239,77.570175 q 0.20217,0 0.37545,0.08664 0.17741,0.08252 0.30531,0.231047 0.1279,0.144404 0.19804,0.342444 0.0743,0.193914 0.0743,0.416709 v 1.027333 h -0.55699 v -0.375451 q 0,-0.156781 0,-0.321815 0.004,-0.169159 0.004,-0.288808 0,-0.115524 -0.0371,-0.226921 -0.0371,-0.111398 -0.10314,-0.193914 -0.066,-0.08664 -0.15678,-0.136153 -0.0866,-0.05364 -0.18567,-0.05364 -0.0949,0 -0.18153,0.03713 -0.0867,0.03301 -0.15266,0.103146 -0.066,0.06601 -0.10727,0.169159 -0.0371,0.103146 -0.0371,0.243424 v 1.043836 h -0.57349 v -3.011859 h 0.57349 v 1.122227 q 0.10727,-0.103146 0.24342,-0.156782 0.14028,-0.05776 0.31769,-0.05776 z" />
    <path
       inkscape:connector-curvature="0"
       id="path1551"
       style="font-style:normal;font-variant:normal;font-weight:bold;font-stretch:normal;font-size:4.12583447px;line-height:125%;font-family:Kollektif;-inkscape-font-specification:Kollektif;text-align:end;letter-spacing:0px;word-spacing:0px;text-anchor:end;fill:#ffffff;fill-opacity:1;stroke:none;stroke-width:0.10314586"
       d="m 166.38253,77.627936 h 0.56937 v 2.054666 q 0,0.214543 -0.066,0.367199 -0.0619,0.156782 -0.16916,0.255802 -0.10727,0.103146 -0.25167,0.14853 -0.14028,0.04951 -0.29706,0.04951 -0.0949,0 -0.18979,-0.0165 -0.0949,-0.0165 -0.18979,-0.04951 l 0.0454,-0.41671 q 0.066,0.0083 0.10727,0.01238 0.0371,0.0083 0.0619,0.01238 0.0248,0.0041 0.0413,0.0041 0.0165,0 0.0454,0 0.15678,0 0.22279,-0.07839 0.0701,-0.07427 0.0701,-0.214543 z m 0.28881,-0.911809 q 0.13203,0 0.22279,0.09489 0.0908,0.09077 0.0908,0.222795 0,0.132027 -0.0908,0.222795 -0.0908,0.09077 -0.22279,0.09077 -0.13203,0 -0.2228,-0.09077 -0.0908,-0.09077 -0.0908,-0.222795 0,-0.132027 0.0908,-0.222795 0.0908,-0.09489 0.2228,-0.09489 z" />
    <path
       inkscape:connector-curvature="0"
       id="path1553"
       style="font-style:normal;font-variant:normal;font-weight:bold;font-stretch:normal;font-size:4.12583447px;line-height:125%;font-family:Kollektif;-inkscape-font-specification:Kollektif;text-align:end;letter-spacing:0px;word-spacing:0px;text-anchor:end;fill:#ffffff;fill-opacity:1;stroke:none;stroke-width:0.10314586"
       d="m 168.32348,77.570175 q 0.21867,0 0.41258,0.08664 0.19392,0.08252 0.33832,0.231047 0.1444,0.144404 0.22692,0.342444 0.0866,0.193914 0.0866,0.416709 0,0.222795 -0.0866,0.420836 -0.0825,0.193914 -0.22692,0.342444 -0.1444,0.144404 -0.33832,0.231047 -0.19391,0.08252 -0.41258,0.08252 -0.2228,0 -0.41671,-0.08252 -0.19392,-0.08664 -0.33832,-0.231047 -0.1444,-0.14853 -0.23105,-0.342444 -0.0825,-0.198041 -0.0825,-0.420836 0,-0.222795 0.0825,-0.416709 0.0867,-0.19804 0.23105,-0.342444 0.1444,-0.14853 0.33832,-0.231047 0.19391,-0.08664 0.41671,-0.08664 z m 0,1.654459 q 0.10314,0 0.18979,-0.04126 0.0908,-0.04126 0.15678,-0.111398 0.0701,-0.07427 0.10727,-0.173285 0.0413,-0.103146 0.0413,-0.226921 0,-0.123775 -0.0413,-0.231046 -0.0371,-0.107272 -0.10727,-0.185663 -0.066,-0.08252 -0.15678,-0.127901 -0.0866,-0.04951 -0.18979,-0.04951 -0.10315,0 -0.19392,0.04951 -0.0908,0.04538 -0.1609,0.127901 -0.066,0.07839 -0.10728,0.185663 -0.0371,0.107271 -0.0371,0.231046 0,0.123775 0.0371,0.226921 0.0413,0.09902 0.10728,0.173285 0.0701,0.07014 0.1609,0.111398 0.0908,0.04126 0.19392,0.04126 z" />
    <path
       inkscape:connector-curvature="0"
       id="path1555"
       style="font-style:normal;font-variant:normal;font-weight:bold;font-stretch:normal;font-size:4.12583447px;line-height:125%;font-family:Kollektif;-inkscape-font-specification:Kollektif;text-align:end;letter-spacing:0px;word-spacing:0px;text-anchor:end;fill:#ffffff;fill-opacity:1;stroke:none;stroke-width:0.10314586"
       d="m 170.75037,77.627936 q 0.11552,0 0.2558,0.03301 0.14028,0.03301 0.26406,0.123775 0.12377,0.09077 0.20629,0.251676 0.0866,0.160907 0.0866,0.416709 v 1.221247 h -0.57349 v -1.200618 q 0,-0.09489 -0.033,-0.160907 -0.0289,-0.06601 -0.0825,-0.103146 -0.0495,-0.04126 -0.11553,-0.05776 -0.066,-0.02063 -0.13202,-0.02063 -0.0536,0 -0.11965,0.02063 -0.0619,0.0165 -0.11965,0.05776 -0.0536,0.04126 -0.0908,0.107272 -0.0371,0.06601 -0.0371,0.156781 v 1.200618 h -0.56937 v -2.046414 h 0.48685 l 0.0825,0.156782 q 0.099,-0.07014 0.22279,-0.111398 0.12378,-0.04538 0.26818,-0.04538 z" />
    <path
       inkscape:connector-curvature="0"
       id="path1557"
       style="font-style:normal;font-variant:normal;font-weight:bold;font-stretch:normal;font-size:4.12583447px;line-height:125%;font-family:Kollektif;-inkscape-font-specification:Kollektif;text-align:end;letter-spacing:0px;word-spacing:0px;text-anchor:end;fill:#ffffff;fill-opacity:1;stroke:none;stroke-width:0.10314586"
       d="m 173.05265,78.477858 0.8623,1.196492 h -0.68076 l -0.54049,-0.816915 -0.20216,0.218669 v 0.598246 h -0.56937 v -3.011859 h 0.56937 v 1.670963 l 0.66426,-0.705518 h 0.69314 z" />
    <g
       aria-label="am"
       style="font-style:normal;font-weight:normal;font-size:4.12583447px;line-height:125%;font-family:sans-serif;text-align:end;letter-spacing:0px;word-spacing:0px;text-anchor:end;fill:#ffffff;fill-opacity:1;stroke:none;stroke-width:0.10314586"
       id="text1471"
       transform="translate(-192.38988,63.122024)">
      <path
         inkscape:connector-curvature="0"
         d="m 347.01405,20.664403 v 2.046414 h -0.49098 l -0.0578,-0.218669 q -0.11965,0.160908 -0.28881,0.214544 -0.16503,0.05363 -0.34657,0.05363 -0.21867,0 -0.40433,-0.08252 -0.18154,-0.08664 -0.31769,-0.231047 -0.13615,-0.14853 -0.21454,-0.342444 -0.0743,-0.19804 -0.0743,-0.420835 0,-0.222796 0.0743,-0.41671 0.0784,-0.19804 0.21454,-0.342444 0.13615,-0.14853 0.31769,-0.231047 0.18566,-0.08664 0.40433,-0.08664 0.19804,0 0.36307,0.06189 0.16504,0.06189 0.27231,0.19804 l 0.0578,-0.202166 z m -0.56937,1.027333 q 0,-0.160907 -0.0454,-0.268179 -0.0413,-0.111398 -0.11553,-0.177411 -0.0701,-0.07014 -0.16916,-0.09902 -0.0949,-0.03301 -0.20629,-0.03301 -0.1114,0 -0.21042,0.04538 -0.0949,0.04538 -0.16915,0.123775 -0.0743,0.07427 -0.11553,0.181536 -0.0413,0.103146 -0.0413,0.21867 0,0.119649 0.0413,0.222795 0.0413,0.103145 0.11553,0.181536 0.0743,0.07427 0.16915,0.11965 0.099,0.04538 0.21042,0.04538 0.2228,0 0.37545,-0.136153 0.15678,-0.140278 0.16091,-0.424961 z"
         style="font-style:normal;font-variant:normal;font-weight:bold;font-stretch:normal;font-family:Kollektif;-inkscape-font-specification:Kollektif;fill:#ffffff;fill-opacity:1;stroke-width:0.10314586"
         id="path5278" />
      <path
         inkscape:connector-curvature="0"
         d="m 349.65632,20.664403 q 0.1114,0 0.2393,0.03713 0.1279,0.03713 0.23517,0.132027 0.1114,0.09489 0.18154,0.259927 0.0701,0.165034 0.0701,0.420835 v 1.196492 h -0.56937 v -1.093346 q 0,-0.123775 -0.0289,-0.210417 -0.0247,-0.08664 -0.0701,-0.140279 -0.0454,-0.05364 -0.10727,-0.07427 -0.0578,-0.02475 -0.11965,-0.02475 -0.0578,0 -0.11552,0.02063 -0.0578,0.02063 -0.10315,0.07014 -0.0454,0.04951 -0.0743,0.136152 -0.0248,0.08664 -0.0248,0.218669 v 1.097472 h -0.56936 v -1.093346 q 0,-0.251676 -0.0866,-0.350696 -0.0866,-0.09902 -0.25167,-0.09902 -0.11965,0 -0.21455,0.111398 -0.0949,0.111397 -0.0949,0.34657 v 1.085094 h -0.56936 v -2.046414 h 0.48684 l 0.0825,0.189789 q 0.0949,-0.09077 0.21867,-0.140279 0.1279,-0.04951 0.2723,-0.04951 0.0743,0 0.15679,0.0165 0.0825,0.01238 0.1609,0.04951 0.0784,0.03713 0.14853,0.09902 0.0743,0.05776 0.13203,0.14853 0.0495,-0.07839 0.11965,-0.136153 0.0701,-0.06189 0.15266,-0.09902 0.0825,-0.04126 0.16916,-0.05776 0.0908,-0.02063 0.17328,-0.02063 z"
         style="font-style:normal;font-variant:normal;font-weight:bold;font-stretch:normal;font-family:Kollektif;-inkscape-font-specification:Kollektif;fill:#ffffff;fill-opacity:1;stroke-width:0.10314586"
         id="path5280" />
    </g>
    <g
       id="g881"
       transform="matrix(0.94593365,0,0,0.94593365,9.7806673,4.6441687)">
      <path
         inkscape:connector-curvature="0"
         id="rect1477"
         d="m 160.83066,81.702173 h 10.51415 c 1.20264,0 2.17083,0.968191 2.17083,2.170833 v 1.516965 c 0,1.202641 -0.96819,2.170833 -2.17083,2.170833 h -10.51415 c -1.20264,0 -2.17083,-0.968192 -2.17083,-2.170833 v -1.516965 c 0,-1.202642 0.96819,-2.170833 2.17083,-2.170833 z"
         style="opacity:1;fill:#ffffff;fill-opacity:1;stroke:none;stroke-width:11.55527782;stroke-linecap:round;stroke-miterlimit:4;stroke-dasharray:none;stroke-dashoffset:0;stroke-opacity:1" />
      <g
         transform="translate(-192.38988,63.122024)"
         id="text1475"
         style="font-style:normal;font-weight:normal;font-size:4.56788826px;line-height:125%;font-family:sans-serif;text-align:end;letter-spacing:0px;word-spacing:0px;text-anchor:end;fill:#c69249;fill-opacity:1;stroke:none;stroke-width:0.11419721"
         aria-label="viking">
        <path
           id="path5264"
           style="font-style:normal;font-variant:normal;font-weight:bold;font-stretch:normal;font-family:Kollektif;-inkscape-font-specification:Kollektif;fill:#c69249;fill-opacity:1;stroke-width:0.11419721"
           d="m 354.21867,20.445145 h 0.68062 l -0.91358,2.265672 h -0.81309 l -0.91357,-2.265672 h 0.67604 l 0.64408,1.676415 z"
           inkscape:connector-curvature="0" />
        <path
           id="path5266"
           style="font-style:normal;font-variant:normal;font-weight:bold;font-stretch:normal;font-family:Kollektif;-inkscape-font-specification:Kollektif;fill:#c69249;fill-opacity:1;stroke-width:0.11419721"
           d="m 355.82999,22.710817 h -0.63037 v -2.265672 h 0.63037 z m -0.31518,-2.576289 q -0.14617,0 -0.24667,-0.100493 -0.10049,-0.100494 -0.10049,-0.246666 0,-0.146173 0.10049,-0.246666 0.1005,-0.105062 0.24667,-0.105062 0.14617,0 0.24666,0.105062 0.1005,0.100493 0.1005,0.246666 0,0.146172 -0.1005,0.246666 -0.10049,0.100493 -0.24666,0.100493 z"
           inkscape:connector-curvature="0" />
        <path
           id="path5268"
           style="font-style:normal;font-variant:normal;font-weight:bold;font-stretch:normal;font-family:Kollektif;-inkscape-font-specification:Kollektif;fill:#c69249;fill-opacity:1;stroke-width:0.11419721"
           d="m 357.56079,21.38613 0.95469,1.324687 h -0.7537 l -0.59839,-0.904442 -0.22383,0.242099 v 0.662343 h -0.63037 v -3.334558 h 0.63037 v 1.849995 l 0.73543,-0.781109 h 0.76741 z"
           inkscape:connector-curvature="0" />
        <path
           id="path5270"
           style="font-style:normal;font-variant:normal;font-weight:bold;font-stretch:normal;font-family:Kollektif;-inkscape-font-specification:Kollektif;fill:#c69249;fill-opacity:1;stroke-width:0.11419721"
           d="m 359.43434,22.710817 h -0.63037 v -2.265672 h 0.63037 z m -0.31518,-2.576289 q -0.14617,0 -0.24667,-0.100493 -0.10049,-0.100494 -0.10049,-0.246666 0,-0.146173 0.10049,-0.246666 0.1005,-0.105062 0.24667,-0.105062 0.14617,0 0.24666,0.105062 0.1005,0.100493 0.1005,0.246666 0,0.146172 -0.1005,0.246666 -0.10049,0.100493 -0.24666,0.100493 z"
           inkscape:connector-curvature="0" />
        <path
           id="path5272"
           style="font-style:normal;font-variant:normal;font-weight:bold;font-stretch:normal;font-family:Kollektif;-inkscape-font-specification:Kollektif;fill:#c69249;fill-opacity:1;stroke-width:0.11419721"
           d="m 361.08749,20.445145 q 0.1279,0 0.28321,0.03654 0.15531,0.03654 0.29234,0.137037 0.13704,0.100493 0.2284,0.278641 0.0959,0.178147 0.0959,0.461356 v 1.352095 h -0.63493 v -1.329255 q 0,-0.105062 -0.0366,-0.178148 -0.032,-0.07309 -0.0913,-0.114197 -0.0548,-0.04568 -0.1279,-0.06395 -0.0731,-0.02284 -0.14618,-0.02284 -0.0594,0 -0.13247,0.02284 -0.0685,0.01827 -0.13246,0.06395 -0.0594,0.04568 -0.1005,0.118765 -0.0411,0.07309 -0.0411,0.17358 v 1.329255 h -0.63037 v -2.265672 h 0.53901 l 0.0914,0.17358 q 0.10963,-0.07766 0.24667,-0.123333 0.13703,-0.05025 0.29691,-0.05025 z"
           inkscape:connector-curvature="0" />
        <path
           id="path5274"
           style="font-style:normal;font-variant:normal;font-weight:bold;font-stretch:normal;font-family:Kollektif;-inkscape-font-specification:Kollektif;fill:#c69249;fill-opacity:1;stroke-width:0.11419721"
           d="m 364.15718,20.445145 h 0.53901 v 1.498267 q 0,0.26037 -0.009,0.465925 -0.005,0.200987 -0.032,0.360863 -0.0274,0.164444 -0.0914,0.292345 -0.0594,0.127901 -0.16901,0.23753 -0.20099,0.196419 -0.45222,0.269505 -0.24667,0.07309 -0.52074,0.07309 -0.23296,0 -0.43852,-0.05481 -0.20555,-0.05482 -0.36999,-0.15074 v -0.589258 q 0.0411,0.06395 0.11419,0.114197 0.0777,0.05025 0.17358,0.08679 0.1005,0.03654 0.21013,0.05482 0.11419,0.02284 0.22839,0.02284 0.15074,0 0.28321,-0.04111 0.13247,-0.03654 0.22839,-0.123333 0.1005,-0.08679 0.15531,-0.219258 0.0594,-0.127901 0.0594,-0.315185 v -0.04568 q -0.13247,0.118765 -0.30604,0.191852 -0.17358,0.06852 -0.37914,0.06852 -0.22839,0 -0.42481,-0.08679 -0.19185,-0.09136 -0.33346,-0.242098 -0.1416,-0.155308 -0.22383,-0.360863 -0.0777,-0.210123 -0.0777,-0.443085 0,-0.232963 0.0777,-0.438518 0.0822,-0.205555 0.22383,-0.356295 0.14161,-0.155308 0.33346,-0.242098 0.19642,-0.09136 0.42481,-0.09136 0.21469,0 0.38827,0.05938 0.17358,0.05481 0.29691,0.178148 z m -0.64864,1.635304 q 0.14617,0 0.25124,-0.05025 0.10506,-0.05481 0.17357,-0.137037 0.0685,-0.08222 0.1005,-0.182715 0.032,-0.100494 0.032,-0.196419 0,-0.105062 -0.0365,-0.205555 -0.032,-0.105062 -0.10049,-0.182716 -0.0685,-0.08222 -0.17358,-0.132469 -0.10506,-0.05025 -0.24667,-0.05025 -0.11876,0 -0.21926,0.04568 -0.10049,0.04568 -0.17814,0.123333 -0.0731,0.07766 -0.11877,0.182716 -0.0411,0.100494 -0.0411,0.219259 0,0.118765 0.0411,0.223826 0.0457,0.100494 0.11877,0.178148 0.0777,0.07765 0.17814,0.123333 0.1005,0.04111 0.21926,0.04111 z"
           inkscape:connector-curvature="0" />
      </g>
    </g>
    <path
       style="opacity:1;fill:#ffffff;fill-opacity:1;stroke:none;stroke-width:3.82595325;stroke-linecap:round;stroke-miterlimit:4;stroke-dasharray:none;stroke-dashoffset:0;stroke-opacity:1"
       d="m 155.83848,79.513348 1.93068,-1.930677 0.19802,0.198018 -1.93068,1.930677 z"
       id="rect1537"
       inkscape:connector-curvature="0" />
    <path
       inkscape:connector-curvature="0"
       id="path5294"
       d="m 167.25705,79.513348 1.93068,-1.930677 0.19802,0.198018 -1.93068,1.930677 z"
       style="opacity:1;fill:#ffffff;fill-opacity:1;stroke:none;stroke-width:3.82595325;stroke-linecap:round;stroke-miterlimit:4;stroke-dasharray:none;stroke-dashoffset:0;stroke-opacity:1" />
  </g>
</svg>
