<?xml version="1.0" encoding="UTF-8" standalone="no"?>
<!-- Created with Inkscape (http://www.inkscape.org/) -->

<svg
   xmlns:dc="http://purl.org/dc/elements/1.1/"
   xmlns:cc="http://creativecommons.org/ns#"
   xmlns:rdf="http://www.w3.org/1999/02/22-rdf-syntax-ns#"
   xmlns:svg="http://www.w3.org/2000/svg"
   xmlns="http://www.w3.org/2000/svg"
   xmlns:sodipodi="http://sodipodi.sourceforge.net/DTD/sodipodi-0.dtd"
   xmlns:inkscape="http://www.inkscape.org/namespaces/inkscape"
   width="43.942001mm"
   height="50.799999mm"
   viewBox="0 0 43.942001 50.799999"
   version="1.1"
   id="svg319"
   inkscape:version="0.92.4 (5da689c313, 2019-01-14)"
   sodipodi:docname="hackprep-hex.svg">
  <defs
     id="defs313" />
  <sodipodi:namedview
     id="base"
     pagecolor="#ffffff"
     bordercolor="#666666"
     borderopacity="1.0"
     inkscape:pageopacity="0.0"
     inkscape:pageshadow="2"
     inkscape:zoom="1.979899"
     inkscape:cx="152.58057"
     inkscape:cy="40.900978"
     inkscape:document-units="mm"
     inkscape:current-layer="layer1"
     showgrid="false"
     inkscape:window-width="1920"
     inkscape:window-height="1016"
     inkscape:window-x="1680"
     inkscape:window-y="27"
     inkscape:window-maximized="1"
     fit-margin-top="0"
     fit-margin-left="0"
     fit-margin-right="0"
     fit-margin-bottom="0" />
  <metadata
     id="metadata316">
    <rdf:RDF>
      <cc:Work
         rdf:about="">
        <dc:format>image/svg+xml</dc:format>
        <dc:type
           rdf:resource="http://purl.org/dc/dcmitype/StillImage" />
        <dc:title></dc:title>
      </cc:Work>
    </rdf:RDF>
  </metadata>
  <g
     inkscape:label="Layer 1"
     inkscape:groupmode="layer"
     id="layer1"
     transform="translate(-70.049915,-109.80617)">
    <g
       transform="translate(-639.80924,-126.64489)"
       id="g836">
      <path
         transform="matrix(0,0.25177195,-0.25147384,0,769.17402,235.41501)"
         style="stroke-width:0.26458332"
         inkscape:transform-center-x="-5.7142856e-06"
         d="m 205.88495,148.5 -50.44248,87.36893 -100.884944,0 L 4.1150513,148.5 54.557526,61.131072 l 100.884944,0 z"
         inkscape:randomized="0"
         inkscape:rounded="0"
         inkscape:flatsided="true"
         sodipodi:arg2="0.52359878"
         sodipodi:arg1="0"
         sodipodi:r2="87.368935"
         sodipodi:r1="100.88495"
         sodipodi:cy="148.5"
         sodipodi:cx="105"
         sodipodi:sides="6"
         id="path815"
         sodipodi:type="star" />
      <path
         inkscape:transform-center-y="3.85e-06"
         transform="matrix(0,0.25684986,-0.25656023,0,769.92935,234.88183)"
         sodipodi:type="star"
         id="path1057"
         sodipodi:sides="6"
         sodipodi:cx="105"
         sodipodi:cy="148.5"
         sodipodi:r1="91.703537"
         sodipodi:r2="79.417595"
         sodipodi:arg1="0"
         sodipodi:arg2="0.52359878"
         inkscape:flatsided="true"
         inkscape:rounded="0"
         inkscape:randomized="0"
         d="m 196.70354,148.5 -45.85177,79.41759 H 59.148232 L 13.296463,148.5 59.148232,69.082407 l 91.703538,0 z"
         inkscape:transform-center-x="-3.2856392e-06"
         style="stroke:#c69249;stroke-width:3.08154607;stroke-miterlimit:4;stroke-dasharray:none;stroke-opacity:1" />
      <g
         transform="translate(0,0.82534286)"
         id="g684">
        <g
           id="g895"
           transform="matrix(0.32457241,0,0,0.32495717,852.94352,218.87984)">
          <g
             style="fill:#c69249;fill-opacity:1"
             id="g854">
            <path
               inkscape:connector-curvature="0"
               id="path821"
               style="font-style:normal;font-variant:normal;font-weight:normal;font-stretch:normal;font-size:20.86153221px;line-height:1.25;font-family:Tailwind;-inkscape-font-specification:Tailwind;letter-spacing:0px;word-spacing:0px;fill:#c69249;fill-opacity:1;stroke:none;stroke-width:0.52153826"
               d="m -425.17903,121.03234 4.57365,4.56346 q 0.26484,0.26485 0.26484,0.69267 0,0.41764 -0.26484,0.68248 l -4.45141,4.43104 q -0.28522,0.28522 -0.66211,0.28522 -0.39727,0 -0.70285,-0.29541 -0.30559,-0.2954 -0.30559,-0.68248 0,-0.34633 0.31577,-0.66211 l 3.75875,-3.75874 -3.90136,-3.90135 q -0.2954,-0.2954 -0.2954,-0.6723 0,-0.38708 0.30559,-0.68248 0.30559,-0.2954 0.70285,-0.2954 0.36671,0 0.66211,0.2954 z" />
            <path
               inkscape:connector-curvature="0"
               id="path823"
               style="font-style:normal;font-variant:normal;font-weight:normal;font-stretch:normal;font-size:20.86153221px;line-height:1.25;font-family:Tailwind;-inkscape-font-specification:Tailwind;letter-spacing:0px;word-spacing:0px;fill:#c69249;fill-opacity:1;stroke:none;stroke-width:0.52153826"
               d="m -409.50232,118.68949 q 0.38708,0 0.6723,0.29541 0.28521,0.28521 0.28521,0.67229 v 13.09958 q 0,0.38708 -0.28521,0.67229 -0.28522,0.28522 -0.6723,0.28522 -0.39726,0 -0.68248,-0.27503 -0.27503,-0.28522 -0.27503,-0.68248 v -5.92843 h -6.48867 v 5.92843 q 0,0.38708 -0.2954,0.67229 -0.28522,0.28522 -0.69267,0.28522 -0.38708,0 -0.6723,-0.28522 -0.28521,-0.28521 -0.28521,-0.67229 v -13.09958 q 0,-0.38708 0.28521,-0.67229 0.28522,-0.29541 0.6723,-0.29541 0.40745,0 0.69267,0.29541 0.2954,0.28521 0.2954,0.67229 v 5.23576 h 6.48867 v -5.23576 q 0,-0.39726 0.27503,-0.68248 0.28522,-0.28522 0.68248,-0.28522 z" />
            <path
               inkscape:connector-curvature="0"
               id="path825"
               style="font-style:normal;font-variant:normal;font-weight:normal;font-stretch:normal;font-size:20.86153221px;line-height:1.25;font-family:Tailwind;-inkscape-font-specification:Tailwind;letter-spacing:0px;word-spacing:0px;fill:#c69249;fill-opacity:1;stroke:none;stroke-width:0.52153826"
               d="m -403.197,119.15806 q 1.07975,-0.46857 2.26136,-0.46857 1.18161,0 2.26135,0.46857 1.07975,0.45839 1.86409,1.25292 0.79454,0.78434 1.25292,1.86409 0.46857,1.07975 0.46857,2.26136 v 8.22034 q 0,0.38708 -0.28522,0.67229 -0.28521,0.28522 -0.69267,0.28522 -0.38707,0 -0.68248,-0.28522 -0.28521,-0.28521 -0.28521,-0.67229 v -3.4226 h -7.80271 v 3.4226 q 0,0.38708 -0.28521,0.67229 -0.28522,0.28522 -0.69267,0.28522 -0.38708,0 -0.6723,-0.28522 -0.28521,-0.28521 -0.28521,-0.67229 v -8.22034 q 0,-1.18161 0.45838,-2.26136 0.46857,-1.07975 1.25292,-1.86409 0.78434,-0.79453 1.86409,-1.25292 z m 5.01165,2.62807 q -1.14086,-1.15105 -2.75029,-1.15105 -1.60944,0 -2.76049,1.15105 -1.14087,1.14086 -1.14087,2.7503 v 2.85216 h 7.80271 v -2.85216 q 0,-1.60944 -1.15106,-2.7503 z" />
            <path
               inkscape:connector-curvature="0"
               id="path827"
               style="font-style:normal;font-variant:normal;font-weight:normal;font-stretch:normal;font-size:20.86153221px;line-height:1.25;font-family:Tailwind;-inkscape-font-specification:Tailwind;letter-spacing:0px;word-spacing:0px;fill:#c69249;fill-opacity:1;stroke:none;stroke-width:0.52153826"
               d="m -386.21645,118.68949 q 1.77242,0 3.37167,0.81491 1.60943,0.80471 2.67899,2.2308 0.19354,0.25465 0.19354,0.5908 0,0.38708 -0.28521,0.6723 -0.28522,0.28521 -0.69267,0.28521 -0.50932,0 -0.77416,-0.39726 -0.79453,-1.07975 -1.97614,-1.66037 -1.17143,-0.5908 -2.51602,-0.5908 -1.13068,0 -2.15949,0.43801 -1.02882,0.43801 -1.77242,1.19179 -0.7436,0.7436 -1.19179,1.77242 -0.43801,1.02881 -0.43801,2.16968 0,1.50757 0.74359,2.79104 0.7436,1.28348 2.02708,2.03726 1.28347,0.7436 2.79104,0.7436 1.34459,0 2.51602,-0.5908 1.18161,-0.59081 1.97614,-1.67055 0.26484,-0.39727 0.77416,-0.39727 0.38708,0 0.68248,0.28522 0.2954,0.27503 0.2954,0.68248 0,0.32596 -0.19354,0.58062 -1.06956,1.42608 -2.67899,2.24098 -1.59925,0.80472 -3.37167,0.80472 -2.03726,0 -3.76893,-0.99826 -1.72148,-1.00844 -2.72992,-2.72992 -1.00845,-1.73167 -1.00845,-3.77912 0,-1.52794 0.59081,-2.92347 0.60099,-1.39552 1.60943,-2.39378 1.00845,-1.00844 2.39378,-1.59924 1.38534,-0.601 2.91328,-0.601 z" />
            <path
               inkscape:connector-curvature="0"
               id="path829"
               style="font-style:normal;font-variant:normal;font-weight:normal;font-stretch:normal;font-size:20.86153221px;line-height:1.25;font-family:Tailwind;-inkscape-font-specification:Tailwind;letter-spacing:0px;word-spacing:0px;fill:#c69249;fill-opacity:1;stroke:none;stroke-width:0.52153826"
               d="m -369.26645,118.68949 q 0.38707,0 0.67229,0.29541 0.28522,0.28521 0.28522,0.67229 0,1.89465 -0.91677,3.50409 -0.91677,1.60943 -2.46508,2.58732 1.94558,0.98807 3.117,2.87253 1.18161,1.87428 1.18161,4.13564 0,0.38708 -0.28521,0.67229 -0.28522,0.28522 -0.6723,0.28522 -0.39726,0 -0.68248,-0.27503 -0.27503,-0.28522 -0.27503,-0.68248 0,-1.20199 -0.47876,-2.30211 -0.46857,-1.10012 -1.2631,-1.89465 -0.79453,-0.79453 -1.89465,-1.2631 -1.08993,-0.46857 -2.29191,-0.46857 h -1.45664 v 5.92843 q 0,0.38708 -0.29541,0.67229 -0.28521,0.28522 -0.69266,0.28522 -0.38708,0 -0.6723,-0.28522 -0.28522,-0.28521 -0.28522,-0.67229 v -13.09958 q 0,-0.38708 0.28522,-0.67229 0.28522,-0.29541 0.6723,-0.29541 0.40745,0 0.69266,0.29541 0.29541,0.28521 0.29541,0.67229 v 5.23576 h 1.20198 q 1.42608,0 2.63825,-0.69267 1.21217,-0.70285 1.91502,-1.90484 0.71304,-1.21217 0.71304,-2.63825 0,-0.39726 0.27503,-0.68248 0.28522,-0.28522 0.68249,-0.28522 z" />
          </g>
          <g
             style="fill:#ffffff"
             id="g882">
            <path
               inkscape:connector-curvature="0"
               id="path831"
               style="font-style:normal;font-variant:normal;font-weight:normal;font-stretch:normal;font-size:20.86153221px;line-height:1.25;font-family:Tailwind;-inkscape-font-specification:Tailwind;letter-spacing:0px;word-spacing:0px;fill:#ffffff;fill-opacity:1;stroke:none;stroke-width:0.52153826"
               d="m -364.96784,118.68949 h 4.97092 q 1.3344,0 2.46508,0.66211 1.14086,0.66211 1.80297,1.80298 0.6723,1.14086 0.6723,2.48545 0,1.34459 -0.6723,2.48546 -0.66211,1.13068 -1.80297,1.79279 -1.13068,0.66211 -2.46508,0.66211 h -3.98285 v 4.17638 q 0,0.38708 -0.2954,0.67229 -0.28522,0.28522 -0.69267,0.28522 -0.38708,0 -0.67229,-0.28522 -0.28522,-0.28521 -0.28522,-0.67229 v -13.09958 q 0,-0.38708 0.28522,-0.67229 0.28521,-0.29541 0.67229,-0.29541 z m 4.97092,1.94559 h -3.98285 v 6.03028 h 3.98285 q 1.24272,0 2.11874,-0.8862 0.88621,-0.88621 0.88621,-2.13913 0,-1.25291 -0.88621,-2.12893 -0.87602,-0.87602 -2.11874,-0.87602 z" />
            <path
               inkscape:connector-curvature="0"
               id="path833"
               style="font-style:normal;font-variant:normal;font-weight:normal;font-stretch:normal;font-size:20.86153221px;line-height:1.25;font-family:Tailwind;-inkscape-font-specification:Tailwind;letter-spacing:0px;word-spacing:0px;fill:#ffffff;fill-opacity:1;stroke:none;stroke-width:0.52153826"
               d="m -352.62205,118.68949 h 5.49041 q 1.83354,0 3.1272,1.29366 1.29366,1.29366 1.29366,3.11701 0,1.54832 -0.9677,2.7503 -0.9677,1.1918 -2.43453,1.53813 l 3.21887,4.8283 q 0.16298,0.26485 0.16298,0.5195 0,0.3769 -0.2954,0.68249 -0.28522,0.2954 -0.68248,0.2954 -0.5195,0 -0.79453,-0.43801 l -3.84024,-5.75526 h -3.29017 v 5.23576 q 0,0.38708 -0.2954,0.67229 -0.28522,0.28522 -0.69267,0.28522 -0.38708,0 -0.6723,-0.28522 -0.28521,-0.28521 -0.28521,-0.67229 v -13.09958 q 0,-0.38708 0.28521,-0.67229 0.28522,-0.29541 0.6723,-0.29541 z m 5.49041,1.94559 h -4.50234 v 4.94035 h 4.50234 q 1.02882,0 1.75205,-0.72323 0.73341,-0.72322 0.73341,-1.75204 0,-1.01863 -0.73341,-1.74186 -0.72323,-0.72322 -1.75205,-0.72322 z" />
            <path
               inkscape:connector-curvature="0"
               id="path835"
               style="font-style:normal;font-variant:normal;font-weight:normal;font-stretch:normal;font-size:20.86153221px;line-height:1.25;font-family:Tailwind;-inkscape-font-specification:Tailwind;letter-spacing:0px;word-spacing:0px;fill:#ffffff;fill-opacity:1;stroke:none;stroke-width:0.52153826"
               d="m -340.27626,118.68949 h 7.55824 q 0.38707,0 0.67229,0.29541 0.28522,0.28521 0.28522,0.67229 0,0.40745 -0.28522,0.69267 -0.28522,0.28522 -0.67229,0.28522 h -6.57016 v 4.25787 h 4.98109 q 0.40746,0 0.68249,0.28521 0.27503,0.28522 0.27503,0.69267 0,0.39727 -0.28522,0.68248 -0.27503,0.27503 -0.6723,0.27503 h -4.98109 v 4.95054 h 6.57016 q 0.38707,0 0.67229,0.28522 0.28522,0.28522 0.28522,0.69267 0,0.38708 -0.28522,0.67229 -0.28522,0.28522 -0.67229,0.28522 h -7.55824 q -0.38707,0 -0.67229,-0.28522 -0.28522,-0.28521 -0.28522,-0.67229 v -13.09958 q 0,-0.38708 0.28522,-0.67229 0.28522,-0.29541 0.67229,-0.29541 z" />
            <path
               inkscape:connector-curvature="0"
               id="path837"
               style="font-style:normal;font-variant:normal;font-weight:normal;font-stretch:normal;font-size:20.86153221px;line-height:1.25;font-family:Tailwind;-inkscape-font-specification:Tailwind;letter-spacing:0px;word-spacing:0px;fill:#ffffff;fill-opacity:1;stroke:none;stroke-width:0.52153826"
               d="m -329.35655,118.68949 h 4.97092 q 1.3344,0 2.46508,0.66211 1.14086,0.66211 1.80297,1.80298 0.6723,1.14086 0.6723,2.48545 0,1.34459 -0.6723,2.48546 -0.66211,1.13068 -1.80297,1.79279 -1.13068,0.66211 -2.46508,0.66211 h -3.98285 v 4.17638 q 0,0.38708 -0.2954,0.67229 -0.28522,0.28522 -0.69267,0.28522 -0.38708,0 -0.67229,-0.28522 -0.28522,-0.28521 -0.28522,-0.67229 v -13.09958 q 0,-0.38708 0.28522,-0.67229 0.28521,-0.29541 0.67229,-0.29541 z m 4.97092,1.94559 h -3.98285 v 6.03028 h 3.98285 q 1.24272,0 2.11874,-0.8862 0.88621,-0.88621 0.88621,-2.13913 0,-1.25291 -0.88621,-2.12893 -0.87602,-0.87602 -2.11874,-0.87602 z" />
          </g>
        </g>
        <g
           id="g962"
           transform="matrix(0.25147384,0,0,0.25177195,705.42541,224.62009)">
          <g
             style="stroke:#ffffff;stroke-opacity:1"
             transform="translate(-9.1620117,-11.058913)"
             id="g870">
            <path
               inkscape:connector-curvature="0"
               id="path836"
               style="font-style:normal;font-variant:normal;font-weight:normal;font-stretch:normal;font-size:10.58333302px;line-height:1.25;font-family:Acre;-inkscape-font-specification:Acre;letter-spacing:1.71979165px;word-spacing:0px;fill:#ffffff;fill-opacity:1;stroke:#ffffff;stroke-width:0.26458332;stroke-opacity:1"
               d="m 81.114558,177.63635 c 1.439333,0 2.296583,-0.89958 2.307167,-2.01083 0.03175,-2.49767 -3.46075,-2.08492 -3.450167,-3.69359 0,-0.55033 0.465667,-0.9525 1.143,-0.9525 0.582083,0 1.11125,0.37042 1.471083,0.77259 l 0.656167,-0.67734 c -0.455083,-0.55033 -1.2065,-1.05833 -2.148417,-1.05833 -1.23825,0 -2.137833,0.83608 -2.148416,1.905 0,2.42358 3.46075,1.91558 3.46075,3.69358 0,0.59267 -0.486834,1.04775 -1.227667,1.04775 -0.66675,0 -1.291167,-0.41275 -1.703917,-1.00541 l -0.73025,0.68791 c 0.47625,0.73025 1.36525,1.29117 2.370667,1.29117 z" />
            <path
               inkscape:connector-curvature="0"
               id="path838"
               style="font-style:normal;font-variant:normal;font-weight:normal;font-stretch:normal;font-size:10.58333302px;line-height:1.25;font-family:Acre;-inkscape-font-specification:Acre;letter-spacing:1.71979165px;word-spacing:0px;fill:#ffffff;fill-opacity:1;stroke:#ffffff;stroke-width:0.26458332;stroke-opacity:1"
               d="m 90.532566,171.09585 v -0.97367 h -4.063999 v 7.40834 h 4.063999 v -0.97367 h -3.058583 v -2.31775 h 2.360083 v -0.96308 h -2.360083 v -2.18017 z" />
            <path
               inkscape:connector-curvature="0"
               id="path840"
               style="font-style:normal;font-variant:normal;font-weight:normal;font-stretch:normal;font-size:10.58333302px;line-height:1.25;font-family:Acre;-inkscape-font-specification:Acre;letter-spacing:1.71979165px;word-spacing:0px;fill:#ffffff;fill-opacity:1;stroke:#ffffff;stroke-width:0.26458332;stroke-opacity:1"
               d="m 97.211973,177.53052 h 1.143 l -1.799166,-2.9845 c 0.963083,-0.32809 1.502833,-1.17475 1.502833,-2.13784 0,-1.17475 -0.889,-2.286 -2.402417,-2.286 H 93.64539 v 7.40834 h 1.005417 v -2.84692 h 0.931333 z m -2.561166,-6.42409 h 0.963083 c 0.846667,0 1.42875,0.52917 1.42875,1.30175 0,0.762 -0.582083,1.30175 -1.42875,1.30175 h -0.963083 z" />
            <path
               inkscape:connector-curvature="0"
               id="path842"
               style="font-style:normal;font-variant:normal;font-weight:normal;font-stretch:normal;font-size:10.58333302px;line-height:1.25;font-family:Acre;-inkscape-font-specification:Acre;letter-spacing:1.71979165px;word-spacing:0px;fill:#ffffff;fill-opacity:1;stroke:#ffffff;stroke-width:0.26458332;stroke-opacity:1"
               d="m 101.21495,177.53052 h 1.00542 v -7.40834 h -1.00542 z" />
            <path
               inkscape:connector-curvature="0"
               id="path844"
               style="font-style:normal;font-variant:normal;font-weight:normal;font-stretch:normal;font-size:10.58333302px;line-height:1.25;font-family:Acre;-inkscape-font-specification:Acre;letter-spacing:1.71979165px;word-spacing:0px;fill:#ffffff;fill-opacity:1;stroke:#ffffff;stroke-width:0.26458332;stroke-opacity:1"
               d="m 109.7686,171.09585 v -0.97367 h -4.064 v 7.40834 h 4.064 v -0.97367 h -3.05858 v -2.31775 h 2.36008 v -0.96308 h -2.36008 v -2.18017 z" />
            <path
               inkscape:connector-curvature="0"
               id="path846"
               style="font-style:normal;font-variant:normal;font-weight:normal;font-stretch:normal;font-size:10.58333302px;line-height:1.25;font-family:Acre;-inkscape-font-specification:Acre;letter-spacing:1.71979165px;word-spacing:0px;fill:#ffffff;fill-opacity:1;stroke:#ffffff;stroke-width:0.26458332;stroke-opacity:1"
               d="m 114.80759,177.63635 c 1.43933,0 2.29658,-0.89958 2.30717,-2.01083 0.0318,-2.49767 -3.46075,-2.08492 -3.45017,-3.69359 0,-0.55033 0.46567,-0.9525 1.143,-0.9525 0.58208,0 1.11125,0.37042 1.47108,0.77259 l 0.65617,-0.67734 c -0.45508,-0.55033 -1.2065,-1.05833 -2.14842,-1.05833 -1.23825,0 -2.13783,0.83608 -2.14841,1.905 0,2.42358 3.46075,1.91558 3.46075,3.69358 0,0.59267 -0.48684,1.04775 -1.22767,1.04775 -0.66675,0 -1.29117,-0.41275 -1.70392,-1.00541 l -0.73025,0.68791 c 0.47625,0.73025 1.36525,1.29117 2.37067,1.29117 z" />
          </g>
          <g
             transform="translate(-9.1620117,-11.058913)"
             style="fill:#c69249;fill-opacity:1;stroke:#c69249;stroke-opacity:1"
             id="g875">
            <path
               inkscape:connector-curvature="0"
               id="path848"
               style="font-style:normal;font-variant:normal;font-weight:normal;font-stretch:normal;font-size:10.58333302px;line-height:1.25;font-family:Acre;-inkscape-font-specification:Acre;letter-spacing:1.71979165px;word-spacing:0px;fill:#c69249;fill-opacity:1;stroke:#c69249;stroke-width:0.26458332;stroke-opacity:1"
               d="m 128.98214,177.6681 c 2.29659,0 3.79942,-1.778 3.79942,-3.84175 0,-2.05317 -1.50283,-3.83117 -3.79942,-3.83117 -2.30716,0 -3.81,1.778 -3.81,3.83117 0,2.06375 1.50284,3.84175 3.81,3.84175 z m 0,-0.99483 c -1.67216,0 -2.78341,-1.3335 -2.78341,-2.84692 0,-1.51342 1.11125,-2.83633 2.78341,-2.83633 1.66159,0 2.794,1.32291 2.794,2.83633 0,1.51342 -1.13241,2.84692 -2.794,2.84692 z" />
            <path
               inkscape:connector-curvature="0"
               id="path850"
               style="font-style:normal;font-variant:normal;font-weight:normal;font-stretch:normal;font-size:10.58333302px;line-height:1.25;font-family:Acre;-inkscape-font-specification:Acre;letter-spacing:1.71979165px;word-spacing:0px;fill:#c69249;fill-opacity:1;stroke:#c69249;stroke-width:0.26458332;stroke-opacity:1"
               d="m 141.04119,170.12218 v 5.19642 l -4.90008,-5.31283 h -0.13758 v 7.52475 h 0.99483 v -5.09059 l 4.90008,5.21759 h 0.13759 v -7.53534 z" />
            <path
               inkscape:connector-curvature="0"
               id="path852"
               style="font-style:normal;font-variant:normal;font-weight:normal;font-stretch:normal;font-size:10.58333302px;line-height:1.25;font-family:Acre;-inkscape-font-specification:Acre;letter-spacing:1.71979165px;word-spacing:0px;fill:#c69249;fill-opacity:1;stroke:#c69249;stroke-width:0.26458332;stroke-opacity:1"
               d="m 149.58013,171.09585 v -0.97367 h -4.064 v 7.40834 h 4.064 v -0.97367 h -3.05859 v -2.31775 h 2.36009 v -0.96308 h -2.36009 v -2.18017 z" />
          </g>
        </g>
      </g>
      <g
         transform="matrix(0.55659099,0,0,0.55725079,314.75795,129.77135)"
         id="g313">
        <g
           id="g1035"
           transform="matrix(0.28881622,0,0,0.28881622,721.64723,150.33863)">
          <path
             inkscape:connector-curvature="0"
             id="path1018"
             d="m 73.363629,198.29893 c -0.06209,0 -0.09968,0.0151 -0.141728,0.0572 l -0.05723,0.0572 -0.01432,0.93538 c -0.01407,0.91949 -0.03195,1.1677 -0.109471,1.51815 -0.02572,0.11627 -0.114456,0.39985 -0.14501,0.46349 -0.127378,0.26535 -0.182102,0.35656 -0.327901,0.54625 -0.07639,0.0994 -0.226288,0.26131 -0.3331,0.35981 -0.19879,0.18333 -0.223311,0.21998 -0.220177,0.32948 0.0018,0.0625 0.09847,0.18789 0.145009,0.1883 0.141671,7.5e-4 0.333794,0.14333 0.41858,0.31065 0.05542,0.10936 0.139129,0.34824 0.139129,0.39706 0,0.0366 0.11164,0.13716 0.163631,0.14739 0.05787,0.0114 0.209804,-0.0252 0.250944,-0.0605 0.01802,-0.0154 0.05729,-0.0385 0.08727,-0.0513 0.139027,-0.0594 0.437617,-0.29249 0.635263,-0.49592 0.351437,-0.36173 0.498692,-0.63713 0.620818,-1.16102 0.05377,-0.23064 0.05708,-0.27367 0.04692,-0.61089 -0.01037,-0.34389 -0.03365,-0.51262 -0.117695,-0.85365 -0.03596,-0.14593 -0.190215,-0.63143 -0.225291,-0.70906 -0.01084,-0.024 -0.0588,-0.13691 -0.106531,-0.25091 -0.04773,-0.11399 -0.1403,-0.31035 -0.205689,-0.43634 -0.313579,-0.6042 -0.370127,-0.68069 -0.503421,-0.68069 z"
             style="fill:#c69249;fill-opacity:1;stroke-width:0.02181746" />
          <path
             inkscape:connector-curvature="0"
             id="path1016"
             d="m 57.455245,199.36862 c -0.0057,-1.2e-4 -0.01143,0 -0.01713,3.4e-4 -0.04144,0.002 -0.08155,0.0175 -0.113135,0.0472 -0.0716,0.0673 -0.08634,0.1877 -0.04606,0.37601 0.01862,0.0871 0.0444,0.22703 0.05731,0.31102 0.05514,0.35873 0.124966,0.78354 0.163162,0.9927 0.01644,0.09 0.0507,0.28144 0.07615,0.42544 0.07212,0.40807 0.103467,0.5558 0.221796,1.04549 0.113689,0.47052 0.311353,1.10782 0.38807,1.2511 0.01116,0.0208 0.06213,0.12624 0.113221,0.23424 0.118486,0.25048 0.189496,0.36765 0.370939,0.61165 0.230598,0.31014 0.599506,0.64277 0.881008,0.79446 0.048,0.0259 0.101997,0.056 0.119996,0.0669 0.0437,0.0266 0.233839,0.1087 0.251838,0.1087 0.0079,0 0.04519,0.014 0.08301,0.031 0.167087,0.0754 0.663147,0.18362 0.963292,0.21017 0.24368,0.0215 1.128372,0.006 1.319957,-0.0239 0.078,-0.012 0.244901,-0.0359 0.370897,-0.0532 0.463442,-0.0635 0.617114,-0.0991 0.725132,-0.16789 0.108571,-0.0691 0.248785,-0.2227 0.306723,-0.33591 0.05027,-0.0982 0.1243,-0.40563 0.1243,-0.5148 -2.47e-4,-0.12268 -0.07457,-0.43167 -0.130095,-0.54049 -0.05432,-0.10647 -0.268802,-0.34008 -0.372175,-0.40533 -0.151839,-0.0959 -0.376655,-0.14323 -0.730246,-0.15396 -0.782868,-0.0237 -1.616552,-0.15808 -2.050842,-0.33042 -0.477085,-0.18935 -0.846658,-0.42896 -1.158669,-0.75133 -0.146435,-0.15129 -0.40128,-0.46012 -0.40128,-0.48625 0,-0.007 -0.03347,-0.0587 -0.07436,-0.11569 -0.211878,-0.29552 -0.596797,-1.02361 -0.896902,-1.6964 -0.01606,-0.036 -0.06516,-0.14399 -0.109088,-0.23999 -0.04393,-0.096 -0.09504,-0.2089 -0.113561,-0.2509 -0.01852,-0.042 -0.0511,-0.11563 -0.0724,-0.16363 -0.0213,-0.048 -0.04471,-0.1078 -0.05203,-0.13291 -0.02554,-0.0876 -0.112895,-0.14164 -0.198829,-0.14352 z"
             style="fill:#c69249;fill-opacity:1;stroke-width:0.02181746" />
          <path
             inkscape:connector-curvature="0"
             id="path1014"
             d="m 66.249132,200.46316 c -0.295644,0 -0.833947,0.0807 -1.320553,0.19832 -0.149996,0.0363 -0.313754,0.0748 -0.363908,0.0856 -0.105649,0.0228 -0.29893,0.0805 -0.377886,0.11288 -0.02999,0.0123 -0.142904,0.0501 -0.2509,0.0841 -0.107996,0.034 -0.250359,0.083 -0.316354,0.10879 -0.066,0.0258 -0.1558,0.0568 -0.199553,0.0689 -0.19469,0.0537 -0.283554,0.26456 -0.16248,0.38565 l 0.05689,0.0569 0.485268,0.004 c 0.535466,0.004 0.986768,0.0343 1.303466,0.0872 0.296631,0.0496 0.682731,0.1545 0.807246,0.21928 0.03,0.0156 0.06381,0.0285 0.07513,0.0285 0.04879,2.5e-4 0.367486,0.1704 0.568148,0.30323 0.239294,0.15837 0.637943,0.52886 0.84189,0.78236 0.171852,0.21361 0.468785,0.64678 0.626656,0.9142 0.145342,0.24617 0.288101,0.50283 0.288101,0.51799 0,0.006 -0.05155,0.0201 -0.114541,0.0323 -0.300912,0.0585 -0.8996,0.18882 -1.085419,0.23625 -0.113997,0.0291 -0.266175,0.0674 -0.338171,0.0851 -0.247461,0.0609 -0.983683,0.29137 -1.116015,0.34938 -0.03782,0.0166 -0.08007,0.0301 -0.09392,0.0301 -0.01384,0 -0.06633,0.0179 -0.116672,0.0398 -0.05034,0.0219 -0.135709,0.0572 -0.18971,0.0786 -0.054,0.0213 -0.130448,0.0525 -0.169852,0.0693 -0.03941,0.0168 -0.08108,0.0305 -0.09264,0.0305 -0.01156,0 -0.09715,0.0354 -0.190179,0.0785 -0.09303,0.0432 -0.198579,0.0913 -0.23458,0.10678 -0.036,0.0156 -0.173449,0.079 -0.305444,0.14092 -0.331601,0.15569 -0.562713,0.27389 -1.079965,0.55226 -0.103784,0.0558 -0.382324,0.2186 -0.651115,0.38044 -0.04389,0.0264 -0.0945,0.0552 -0.112496,0.0639 -0.018,0.009 -0.072,0.0408 -0.119996,0.0714 -0.048,0.0306 -0.106904,0.0666 -0.130905,0.08 -0.06997,0.0392 -0.39619,0.23817 -0.48041,0.293 -0.02765,0.018 -0.130536,0.0818 -0.228658,0.14181 -0.09811,0.06 -0.20101,0.12381 -0.228657,0.14181 -0.02764,0.018 -0.102874,0.0652 -0.167168,0.10479 -0.06429,0.0396 -0.200337,0.12502 -0.302334,0.18975 -0.101998,0.0648 -0.238044,0.15015 -0.302333,0.18979 -0.06429,0.0396 -0.139521,0.0867 -0.167168,0.10475 -0.02765,0.018 -0.127332,0.0789 -0.221499,0.13537 -0.237529,0.14239 -0.318569,0.22981 -0.318569,0.34372 0,0.05 0.01494,0.10562 0.03405,0.12681 0.03205,0.0355 0.307515,0.42491 0.641442,0.9067 0.211021,0.30447 0.24194,0.33935 0.319507,0.35999 0.112473,0.0299 0.133548,0.0204 0.56001,-0.25503 0.03,-0.0194 0.07088,-0.0452 0.09085,-0.0573 0.06615,-0.0402 0.268594,-0.16501 0.301865,-0.18604 0.018,-0.0114 0.179992,-0.10479 0.359989,-0.20752 0.179991,-0.10274 0.341988,-0.19624 0.359988,-0.20778 0.08095,-0.0519 0.914515,-0.47343 1.178526,-0.59602 0.125791,-0.0584 0.297427,-0.13864 0.381423,-0.17833 0.084,-0.0397 0.245991,-0.10837 0.359988,-0.15268 0.181944,-0.0707 0.274058,-0.10903 0.447258,-0.18609 0.024,-0.0107 0.127089,-0.0475 0.229083,-0.0818 0.372856,-0.12532 0.535483,-0.18162 0.578163,-0.20028 0.024,-0.0105 0.136904,-0.0449 0.250901,-0.0764 0.113995,-0.0315 0.226902,-0.0657 0.250901,-0.0759 0.0532,-0.0226 0.111973,-0.0379 0.719976,-0.18631 0.263992,-0.0644 0.587981,-0.13812 0.719976,-0.16371 0.131996,-0.0256 0.296287,-0.0605 0.365102,-0.0776 0.06882,-0.0171 0.161113,-0.031 0.205093,-0.031 0.04398,0 0.15459,-0.014 0.245787,-0.031 0.340557,-0.0637 0.726585,-0.10947 1.376674,-0.16329 0.05736,-0.005 0.145767,-0.0124 0.225248,-0.0192 l 4.2e-5,0.001 0.209141,-0.0139 c 0.115041,-0.008 0.356454,-0.0241 0.536446,-0.0366 0.194671,-0.0136 0.979374,-0.0207 1.936811,-0.0176 l 1.609592,0.005 0.0545,-0.0545 c 0.07613,-0.0761 0.09085,-0.23164 0.04696,-0.49635 -0.0372,-0.22431 -0.06666,-0.4259 -0.113689,-0.77793 -0.10085,-0.75489 -0.106646,-0.78031 -0.196486,-0.85919 -0.08552,-0.0751 -0.09997,-0.0776 -0.65414,-0.10998 -0.723855,-0.0424 -1.110091,-0.0684 -1.494496,-0.10082 -0.209992,-0.0177 -0.457357,-0.032 -0.549698,-0.032 -0.167638,2e-4 -0.668213,-0.0345 -0.792076,-0.0549 -0.04986,-0.008 -0.07416,-0.0302 -0.101972,-0.0923 -0.125253,-0.27987 -0.165006,-0.36456 -0.258528,-0.55068 -0.05728,-0.11399 -0.139483,-0.27108 -0.182636,-0.34908 -0.04316,-0.078 -0.09086,-0.16635 -0.106062,-0.19635 -0.0152,-0.03 -0.05454,-0.0961 -0.0874,-0.14685 -0.03286,-0.0507 -0.05974,-0.0975 -0.05974,-0.10384 0,-0.006 -0.03191,-0.0586 -0.07091,-0.11608 -0.039,-0.0575 -0.08072,-0.12066 -0.09272,-0.14045 -0.225558,-0.37191 -0.798094,-1.01188 -1.157178,-1.29345 -0.209349,-0.16416 -0.473636,-0.33072 -0.653671,-0.41197 -0.072,-0.0325 -0.145631,-0.0667 -0.163631,-0.0761 -0.018,-0.009 -0.121088,-0.0435 -0.229084,-0.0759 -0.107996,-0.0324 -0.225813,-0.0687 -0.261809,-0.0806 -0.0434,-0.0144 -0.193078,-0.0373 -0.358753,-0.0584 -0.03747,-0.005 -0.07451,-0.009 -0.112709,-0.0137 -0.0267,-0.003 -0.05207,-0.006 -0.07819,-0.009 -0.0052,-5.5e-4 -0.01008,-0.001 -0.01521,-0.002 -0.131308,-0.0143 -0.250286,-0.0248 -0.307235,-0.0248 z"
             style="fill:#c69249;fill-opacity:1;stroke-width:0.02181746" />
          <path
             inkscape:connector-curvature="0"
             id="path1012"
             d="m 66.276612,200.46416 c 0.0049,2e-4 0.01067,5.9e-4 0.0159,8.6e-4 -0.0052,-2.7e-4 -0.01105,-6.6e-4 -0.0159,-8.6e-4 z"
             style="fill:#c69249;fill-opacity:1;stroke-width:0.02181746" />
          <path
             inkscape:connector-curvature="0"
             id="path1010"
             d="m 66.323912,200.46716 c 0.0096,6.3e-4 0.02163,0.002 0.03204,0.003 -0.01028,-7.6e-4 -0.02255,-0.002 -0.03204,-0.003 z"
             style="fill:#c69249;fill-opacity:1;stroke-width:0.02181746" />
          <path
             inkscape:connector-curvature="0"
             id="path1008"
             d="m 66.453964,200.47786 c 0.0057,5.4e-4 0.01169,0.001 0.01747,0.002 -0.0057,-5.5e-4 -0.01186,-0.001 -0.01747,-0.002 z"
             style="fill:#c69249;fill-opacity:1;stroke-width:0.02181746" />
          <path
             inkscape:connector-curvature="0"
             id="path1006"
             d="m 65.605129,200.55596 c 1.6e-5,0.002 0.0015,0.004 0.0044,0.007 -0.0029,-0.003 -0.0044,-0.005 -0.0044,-0.007 z"
             style="fill:#c69249;fill-opacity:1;stroke-width:0.02181746" />
          <path
             inkscape:connector-curvature="0"
             id="path1004"
             d="m 66.098877,200.77635 c 0.106872,0.0485 0.223582,0.10478 0.340131,0.16384 -0.116539,-0.0591 -0.233266,-0.11537 -0.340131,-0.16384 z"
             style="fill:#c69249;fill-opacity:1;stroke-width:0.02181746" />
          <path
             inkscape:connector-curvature="0"
             id="path1002"
             d="m 55.915404,203.62127 c -0.279352,0.004 -0.608701,0.0749 -0.886036,0.20296 -0.257055,0.11867 -0.475875,0.27794 -0.697477,0.50768 -0.327576,0.33957 -0.502527,0.64877 -0.624823,1.10426 l -0.06775,0.25235 -0.01232,2.27992 c -0.0115,2.1296 -0.01496,2.28785 -0.05216,2.39992 -0.08876,0.26744 -0.233992,0.4775 -0.429915,0.62171 -0.164912,0.12142 -0.315943,0.17757 -0.586855,0.21826 -0.461104,0.0693 -0.632139,0.19797 -0.700034,0.52669 -0.04993,0.24172 0.03729,0.49745 0.216171,0.6339 0.109514,0.0835 0.239378,0.12444 0.52933,0.16679 0.284688,0.0416 0.46645,0.12985 0.655205,0.31818 0.147812,0.14749 0.243023,0.30565 0.316183,0.52528 0.03739,0.11223 0.04075,0.26676 0.05224,2.38901 l 0.01227,2.26902 0.06187,0.22908 c 0.132293,0.48981 0.340758,0.85361 0.688273,1.20116 0.383143,0.38318 0.808656,0.58133 1.353833,0.63049 0.552892,0.0499 0.86074,-0.11564 0.942796,-0.50687 0.04834,-0.23044 -0.06484,-0.5058 -0.252477,-0.61439 -0.110645,-0.064 -0.217209,-0.093 -0.49051,-0.13337 -0.29934,-0.0442 -0.515508,-0.15319 -0.707576,-0.3568 -0.144358,-0.15302 -0.250137,-0.33727 -0.302121,-0.52626 -0.02,-0.0727 -0.03035,-0.67799 -0.04074,-2.3775 -0.01478,-2.4191 -0.0107,-2.32506 -0.116076,-2.67473 -0.102336,-0.33961 -0.243856,-0.56877 -0.524684,-0.8496 l -0.199511,-0.19947 0.15741,-0.14659 c 0.258904,-0.24108 0.470356,-0.55515 0.56001,-0.83175 0.111956,-0.34541 0.107801,-0.25292 0.121956,-2.7158 0.0123,-2.1396 0.01603,-2.31019 0.05267,-2.42174 0.128223,-0.39036 0.392742,-0.66844 0.758753,-0.79757 0.04567,-0.0161 0.164206,-0.0403 0.263386,-0.0536 0.389495,-0.0525 0.547167,-0.13828 0.660107,-0.35909 0.159677,-0.31223 0.02696,-0.70552 -0.284565,-0.84334 -0.109602,-0.0485 -0.259234,-0.0705 -0.426847,-0.0682 z"
             style="fill:#c69249;fill-opacity:1;stroke-width:0.02181746" />
          <path
             inkscape:connector-curvature="0"
             id="path1000"
             d="m 78.742439,203.62227 c -0.248036,0.002 -0.384126,0.0453 -0.513478,0.1592 -0.130418,0.1148 -0.191076,0.2341 -0.204581,0.40235 -0.016,0.19933 0.03726,0.35746 0.164654,0.48885 0.119657,0.1234 0.217763,0.15926 0.571813,0.20918 0.483205,0.0681 0.805025,0.32106 0.979528,0.76979 l 0.05667,0.14573 0.01253,2.27993 c 0.01217,2.21521 0.01381,2.28565 0.05842,2.48212 0.119632,0.52683 0.273926,0.80817 0.631215,1.151 l 0.159668,0.15323 -0.186897,0.18494 c -0.211201,0.20895 -0.41791,0.50075 -0.488677,0.68989 -0.06899,0.18439 -0.127791,0.44805 -0.152722,0.68478 -0.01281,0.12166 -0.02205,1.06316 -0.02246,2.29015 -7.79e-4,2.31566 0.0044,2.22744 -0.147736,2.51766 -0.182065,0.34734 -0.485556,0.55356 -0.902102,0.61298 -0.384602,0.0549 -0.522236,0.11112 -0.621116,0.2538 -0.181377,0.26173 -0.151016,0.62272 0.06946,0.82595 0.115618,0.10657 0.205802,0.1482 0.375883,0.17347 0.06807,0.0102 0.163063,0.015 0.211058,0.0108 0.293186,-0.0255 0.373305,-0.0379 0.552425,-0.0858 0.704908,-0.18865 1.343087,-0.80236 1.585602,-1.5248 0.13355,-0.39783 0.126303,-0.25837 0.141728,-2.72953 0.01034,-1.65662 0.0212,-2.29439 0.04027,-2.36301 0.05103,-0.18359 0.166429,-0.38429 0.306595,-0.53325 0.184164,-0.19573 0.409224,-0.30991 0.678727,-0.34431 0.526907,-0.0673 0.737498,-0.23658 0.759137,-0.61042 0.02267,-0.39161 -0.160089,-0.60599 -0.584597,-0.68576 -0.367402,-0.069 -0.408062,-0.0798 -0.543732,-0.14399 -0.17616,-0.0833 -0.407803,-0.31126 -0.498137,-0.49025 -0.155441,-0.30799 -0.144431,-0.12407 -0.158049,-2.63966 l -0.01227,-2.26901 -0.06145,-0.22691 c -0.08179,-0.30198 -0.178213,-0.52497 -0.323214,-0.74742 -0.469872,-0.72085 -1.093026,-1.0821 -1.883035,-1.0916 -0.01756,-2.1e-4 -0.0346,-2.3e-4 -0.05113,-9e-5 z"
             style="fill:#c69249;fill-opacity:1;stroke-width:0.02181746" />
          <path
             inkscape:connector-curvature="0"
             id="path998"
             d="m 73.509954,207.47826 c -0.05176,-9.3e-4 -0.08855,0.0174 -0.125067,0.0517 -0.07857,0.0738 -0.08129,0.14507 -0.01325,0.351 0.0337,0.102 0.07128,0.21981 0.08352,0.26181 0.01224,0.042 0.05822,0.19908 0.102184,0.34908 0.07308,0.24932 0.125013,0.44701 0.154768,0.58907 0.0063,0.03 0.02986,0.138 0.05237,0.23999 0.299118,1.35542 0.287105,2.85897 -0.03392,4.2435 -0.07631,0.32912 -0.09501,0.40235 -0.172793,0.67634 -0.04429,0.156 -0.0907,0.32044 -0.103121,0.36544 -0.01242,0.045 -0.02994,0.0818 -0.03895,0.0818 -0.009,0 -0.118591,-0.0957 -0.243486,-0.21272 -0.266204,-0.24937 -1.297329,-1.19997 -1.693624,-1.56191 -0.02046,-0.0189 -0.03324,-0.0308 -0.07508,-0.069 0.0068,0.006 0.02117,0.0196 0.02723,0.0252 -0.01643,-0.015 -0.05117,-0.0469 -0.06426,-0.0588 0.01012,0.009 0.02781,0.0251 0.03699,0.0335 -0.0561,-0.0518 -0.11852,-0.10947 -0.226143,-0.20953 -0.256277,-0.23877 -0.355458,-0.24711 -0.525579,-0.0441 -0.05659,0.0675 -0.142703,0.1673 -0.191329,0.22167 -0.04862,0.0543 -0.216008,0.2499 -0.372005,0.43456 -0.155995,0.18464 -0.465253,0.54801 -0.68725,0.80746 -0.221991,0.25945 -0.452711,0.52913 -0.512711,0.5993 -0.06,0.0702 -0.20534,0.24156 -0.322958,0.38091 -0.117616,0.13935 -0.222926,0.25099 -0.234026,0.24809 -0.0111,-0.003 -0.175019,-0.12519 -0.364292,-0.27174 -0.189273,-0.14655 -0.520855,-0.40183 -0.736851,-0.56734 -0.767236,-0.58785 -0.911066,-0.70421 -1.382639,-1.1187 -0.455737,-0.40057 -0.921101,-0.88658 -1.212148,-1.26592 -0.117149,-0.15268 -0.420707,-0.60163 -0.471675,-0.69757 -0.08487,-0.15979 -0.152886,-0.28144 -0.16981,-0.30374 -0.01007,-0.0133 -0.05967,-0.1196 -0.110195,-0.23632 -0.05053,-0.11673 -0.106051,-0.23945 -0.123405,-0.27272 -0.01735,-0.0333 -0.0317,-0.0757 -0.0317,-0.0943 0,-0.0186 -0.0087,-0.0431 -0.01922,-0.0546 -0.02063,-0.0224 -0.149183,-0.43239 -0.209268,-0.66743 -0.04809,-0.18813 -0.123314,-0.26603 -0.256995,-0.26603 -0.07691,0 -0.219645,0.0624 -0.80226,0.35057 -0.437067,0.21619 -0.731844,0.37502 -0.769109,0.41436 -0.07343,0.0775 -0.103206,0.1738 -0.103206,0.33374 0,0.0664 -0.01402,0.23829 -0.03115,0.38193 -0.01713,0.14363 -0.03712,0.34463 -0.0444,0.44662 -0.0073,0.102 -0.02714,0.32781 -0.04415,0.5018 -0.01701,0.174 -0.04617,0.48817 -0.06477,0.69816 -0.01859,0.21 -0.04376,0.4849 -0.05595,0.61089 -0.01218,0.126 -0.03218,0.35181 -0.04444,0.5018 -0.01227,0.15 -0.03669,0.39545 -0.05425,0.54544 -0.01757,0.15 -0.03187,0.32081 -0.03187,0.37963 0,0.0588 -0.01419,0.23552 -0.03162,0.39272 -0.05263,0.4747 -0.08691,0.86883 -0.08527,0.98029 0.0032,0.21501 0.171923,0.27681 0.433324,0.15869 0.072,-0.0326 0.170178,-0.0777 0.218175,-0.10027 0.103096,-0.0486 0.210263,-0.0964 0.490893,-0.21898 0.113996,-0.0498 0.261262,-0.1151 0.327262,-0.14505 0.19872,-0.0902 0.244812,-0.11113 0.392714,-0.17791 l 0.141813,-0.064 0.01474,0.67919 c 0.0081,0.37358 0.02509,0.89033 0.03767,1.14832 0.01258,0.25799 0.02813,0.68998 0.0346,0.95997 0.02541,1.06085 0.0582,1.87116 0.08049,1.98961 0.02889,0.15352 0.09041,0.21891 0.207735,0.22085 0.08647,0.002 0.142356,-0.0221 0.432003,-0.18182 0.157406,-0.0868 0.342499,-0.18663 0.556345,-0.30003 0.215784,-0.11446 0.56666,-0.30318 0.643615,-0.34619 0.048,-0.0268 0.146175,-0.0795 0.218175,-0.11718 0.072,-0.0376 0.199632,-0.10535 0.283627,-0.15046 0.084,-0.0451 0.247195,-0.1328 0.362673,-0.19487 l 0.20995,-0.1128 0.04508,0.14736 c 0.02478,0.081 0.08053,0.26512 0.123916,0.40912 0.04338,0.14399 0.09221,0.30108 0.108491,0.34908 0.01628,0.048 0.05072,0.1609 0.07653,0.2509 0.02581,0.09 0.06017,0.2029 0.07636,0.2509 0.01619,0.048 0.05107,0.1609 0.07747,0.2509 0.02639,0.09 0.0624,0.21272 0.08003,0.27272 0.01763,0.06 0.04513,0.14836 0.06111,0.19636 0.01598,0.048 0.05038,0.1609 0.07649,0.2509 0.04886,0.16845 0.179555,0.59817 0.228912,0.7527 0.01533,0.048 0.03443,0.11797 0.04244,0.15545 0.01596,0.0747 0.0858,0.15045 0.154129,0.1673 0.06959,0.0172 0.170607,-0.008 0.22137,-0.0541 0.02576,-0.0236 0.114125,-0.15609 0.196357,-0.29432 0.08224,-0.13826 0.164254,-0.27455 0.182253,-0.30293 0.018,-0.0284 0.163587,-0.26551 0.323555,-0.52695 0.159967,-0.26141 0.427385,-0.69624 0.594227,-0.96623 0.166852,-0.26999 0.312079,-0.51053 0.322745,-0.53453 0.01733,-0.039 0.02184,-0.0355 0.04223,0.0327 0.01256,0.042 0.04393,0.13036 0.06976,0.19636 0.02582,0.066 0.05702,0.14945 0.06933,0.18545 0.01232,0.036 0.03615,0.0964 0.05297,0.13422 0.01681,0.0378 0.0306,0.0769 0.0306,0.0868 0,0.01 0.03515,0.10664 0.07811,0.2149 0.09075,0.22871 0.118848,0.3017 0.184852,0.48045 0.02658,0.072 0.05656,0.15054 0.06665,0.17454 0.01009,0.024 0.03911,0.10254 0.06447,0.17454 0.02537,0.072 0.07906,0.21435 0.119357,0.31635 0.0403,0.102 0.09232,0.24303 0.115564,0.31341 0.03341,0.10113 0.07985,0.17462 0.135294,0.21681 0.0088,0.0277 0.03299,0.0358 0.0718,0.0421 0.0815,0.0131 0.176186,-0.0234 0.232961,-0.0898 0.03,-0.0351 0.142905,-0.18396 0.250901,-0.3308 0.309329,-0.4206 0.99058,-1.33921 1.272998,-1.71651 0.182425,-0.24372 0.18352,-0.24467 0.220135,-0.19635 0.02024,0.0267 0.1491,0.21041 0.286354,0.40826 0.137248,0.19786 0.276958,0.39912 0.310473,0.44726 0.03351,0.0481 0.133611,0.19634 0.222478,0.32935 0.08887,0.13302 0.176573,0.25429 0.194866,0.26948 0.05695,0.0473 0.18644,0.0338 0.245745,-0.0255 0.06284,-0.0628 0.124586,-0.28705 0.157835,-0.57309 0.01255,-0.108 0.03346,-0.26509 0.0464,-0.34908 0.05491,-0.35628 0.08884,-0.58579 0.130649,-0.88361 0.04527,-0.32239 0.08016,-0.56 0.139427,-0.94906 0.01828,-0.12 0.04393,-0.29672 0.05702,-0.39271 0.01308,-0.096 0.03079,-0.21382 0.03933,-0.26181 l 0.01555,-0.0873 0.04559,0.0982 c 0.02507,0.054 0.06709,0.15218 0.09341,0.21818 0.05146,0.12906 0.09817,0.23607 0.146075,0.3345 0.01653,0.034 0.03008,0.0739 0.03008,0.0886 0,0.0148 0.02854,0.0542 0.06345,0.0876 0.08425,0.0807 0.202944,0.0836 0.279749,0.007 0.04913,-0.0491 0.05565,-0.0785 0.07227,-0.32398 0.04674,-0.6903 0.06651,-1.05597 0.08714,-1.61177 0.01225,-0.32999 0.02652,-0.61207 0.0317,-0.62686 0.0052,-0.0148 0.02017,-0.32172 0.03328,-0.68205 0.0131,-0.36034 0.03068,-0.69464 0.03903,-0.74287 l 0.01517,-0.0876 0.193204,0.16649 c 0.198445,0.171 0.271836,0.20879 0.369192,0.19018 0.07246,-0.0139 0.145729,-0.0926 0.149143,-0.16027 0.0033,-0.066 -0.0373,-0.40586 -0.07807,-0.65324 -0.01681,-0.102 -0.04671,-0.30327 -0.06643,-0.44726 -0.01972,-0.144 -0.04932,-0.35017 -0.06579,-0.45817 -0.02862,-0.18759 -0.08522,-0.57669 -0.152296,-1.04724 -0.01711,-0.11999 -0.04229,-0.29181 -0.05595,-0.3818 -0.01366,-0.09 -0.03742,-0.2569 -0.0528,-0.3709 -0.03722,-0.27596 -0.09186,-0.651 -0.174838,-1.19996 -0.01904,-0.126 -0.04319,-0.29781 -0.05365,-0.38181 -0.01047,-0.084 -0.03027,-0.22635 -0.04402,-0.31635 -0.0756,-0.49498 -0.120327,-0.8049 -0.164696,-1.14124 -0.05733,-0.43461 -0.09732,-0.50373 -0.370258,-0.63982 -0.084,-0.0419 -0.304901,-0.15549 -0.490893,-0.25244 -0.237003,-0.12353 -0.364784,-0.1785 -0.451051,-0.18003 z"
             style="fill:#c69249;fill-opacity:1;stroke-width:0.02181746" />
          <path
             inkscape:connector-curvature="0"
             id="path996"
             d="m 70.242661,222.08185 c -0.01007,0.0319 -0.01921,0.0613 -0.02663,0.0868 0.0073,-0.0251 0.01675,-0.0554 0.02663,-0.0868 z"
             style="fill:#c69249;fill-opacity:1;stroke-width:0.02181746" />
          <path
             inkscape:connector-curvature="0"
             id="path994"
             d="m 70.191361,222.26406 c -5e-4,0.002 -8.71e-4,0.005 -0.0013,0.007 4.48e-4,-0.002 8.24e-4,-0.005 0.0013,-0.007 z"
             style="fill:#c69249;fill-opacity:1;stroke-width:0.02181746" />
          <path
             inkscape:connector-curvature="0"
             id="path992"
             d="m 70.185361,222.30036 c -1.6e-4,10e-4 -3.76e-4,0.003 -5.12e-4,0.004 1.34e-4,-0.001 3.54e-4,-0.003 5.12e-4,-0.004 z"
             style="fill:#c69249;fill-opacity:1;stroke-width:0.02181746" />
          <path
             inkscape:connector-curvature="0"
             id="path4522"
             d="m 70.184594,222.33916 c 2.38e-4,0.002 5.14e-4,0.004 8.52e-4,0.005 -3.37e-4,-0.002 -6.14e-4,-0.004 -8.52e-4,-0.005 z"
             style="fill:#c69249;fill-opacity:1;stroke-width:0.02181746" />
        </g>
        <g
           id="text988"
           style="font-style:normal;font-variant:normal;font-weight:normal;font-stretch:normal;font-size:10.58333302px;line-height:1.25;font-family:Acre;-inkscape-font-specification:Acre;letter-spacing:0px;word-spacing:0px;fill:#ffffff;fill-opacity:1;stroke:none;stroke-width:0.26458332"
           aria-label="vikingsDev"
           transform="matrix(0.28881622,0,0,0.28881622,721.64723,150.33863)">
          <path
             inkscape:connector-curvature="0"
             id="path1188"
             style="font-style:normal;font-variant:normal;font-weight:normal;font-stretch:normal;font-family:Acre;-inkscape-font-specification:Acre;fill:#ffffff;fill-opacity:1;stroke-width:0.26458332"
             d="m 92.341154,209.71218 -1.566334,3.84175 -1.576916,-3.84175 h -1.0795 l 2.338916,5.31283 h 0.635 l 2.31775,-5.31283 z" />
          <path
             inkscape:connector-curvature="0"
             id="path1190"
             style="font-style:normal;font-variant:normal;font-weight:normal;font-stretch:normal;font-family:Acre;-inkscape-font-specification:Acre;fill:#ffffff;fill-opacity:1;stroke-width:0.26458332"
             d="m 94.806574,208.71735 c 0.391583,0 0.677333,-0.29634 0.677333,-0.68792 0,-0.37042 -0.28575,-0.66675 -0.677333,-0.66675 -0.391583,0 -0.677333,0.29633 -0.677333,0.66675 0,0.39158 0.28575,0.68792 0.677333,0.68792 z m -0.497417,6.2865 h 0.994834 v -5.29167 h -0.994834 z" />
          <path
             inkscape:connector-curvature="0"
             id="path1192"
             style="font-style:normal;font-variant:normal;font-weight:normal;font-stretch:normal;font-family:Acre;-inkscape-font-specification:Acre;fill:#ffffff;fill-opacity:1;stroke-width:0.26458332"
             d="m 101.59413,215.00385 -2.508251,-2.61409 2.360081,-2.67758 h -1.21708 l -2.169584,2.50825 v -5.68325 h -0.994834 v 8.46667 h 0.994834 v -2.43417 l 2.243664,2.43417 z" />
          <path
             inkscape:connector-curvature="0"
             id="path1194"
             style="font-style:normal;font-variant:normal;font-weight:normal;font-stretch:normal;font-family:Acre;-inkscape-font-specification:Acre;fill:#ffffff;fill-opacity:1;stroke-width:0.26458332"
             d="m 103.13682,208.71735 c 0.39158,0 0.67733,-0.29634 0.67733,-0.68792 0,-0.37042 -0.28575,-0.66675 -0.67733,-0.66675 -0.39159,0 -0.67734,0.29633 -0.67734,0.66675 0,0.39158 0.28575,0.68792 0.67734,0.68792 z m -0.49742,6.2865 h 0.99483 v -5.29167 h -0.99483 z" />
          <path
             inkscape:connector-curvature="0"
             id="path1196"
             style="font-style:normal;font-variant:normal;font-weight:normal;font-stretch:normal;font-family:Acre;-inkscape-font-specification:Acre;fill:#ffffff;fill-opacity:1;stroke-width:0.26458332"
             d="m 107.98762,209.60635 c -0.73025,0 -1.29117,0.34925 -1.59808,0.84666 v -0.74083 h -0.99484 v 5.29167 h 0.99484 v -2.88925 c 0,-1.04775 0.55033,-1.59809 1.29116,-1.59809 0.75142,0 1.29117,0.55034 1.29117,1.59809 v 2.88925 h 0.99483 v -3.03742 c 0,-1.57692 -0.94191,-2.36008 -1.97908,-2.36008 z" />
          <path
             inkscape:connector-curvature="0"
             id="path1198"
             style="font-style:normal;font-variant:normal;font-weight:normal;font-stretch:normal;font-family:Acre;-inkscape-font-specification:Acre;fill:#ffffff;fill-opacity:1;stroke-width:0.26458332"
             d="m 116.33159,209.71218 h -0.98425 v 0.85725 c -0.40217,-0.56092 -1.02659,-0.93133 -1.80975,-0.93133 -1.47109,0 -2.4765,1.19591 -2.4765,2.71991 0,1.524 1.00541,2.71992 2.4765,2.71992 0.79375,0 1.41816,-0.381 1.83091,-0.9525 v 0.40217 c 0,1.17475 -0.67733,1.72508 -1.651,1.72508 -0.62441,0 -1.30175,-0.254 -1.89441,-0.66675 l -0.0106,1.04775 c 0.58209,0.32808 1.2065,0.56092 2.01084,0.56092 1.25941,0 2.51883,-0.79375 2.51883,-2.413 z m -2.62467,4.40267 c -0.9525,0 -1.61925,-0.78317 -1.61925,-1.75684 0,-0.96308 0.66675,-1.74625 1.61925,-1.74625 0.9525,0 1.64042,0.81492 1.64042,1.74625 0,0.93134 -0.68792,1.75684 -1.64042,1.75684 z" />
          <path
             inkscape:connector-curvature="0"
             id="path1200"
             style="font-style:normal;font-variant:normal;font-weight:normal;font-stretch:normal;font-family:Acre;-inkscape-font-specification:Acre;fill:#ffffff;fill-opacity:1;stroke-width:0.26458332"
             d="m 119.41382,215.08851 c 1.10066,0 1.83091,-0.65616 1.8415,-1.524 0,-1.8415 -2.54,-1.49225 -2.52942,-2.44475 0,-0.3175 0.28575,-0.52916 0.68792,-0.52916 0.4445,0 0.86783,0.30691 1.10066,0.51858 l 0.58209,-0.73025 c -0.32809,-0.37042 -0.9525,-0.762 -1.69334,-0.75142 -1.03716,0 -1.70391,0.66675 -1.70391,1.47109 -0.0106,1.79916 2.51883,1.41816 2.51883,2.44475 0,0.34925 -0.32808,0.58208 -0.77258,0.58208 -0.49742,0 -0.9525,-0.29633 -1.28059,-0.61383 l -0.62441,0.74083 c 0.43391,0.48683 1.2065,0.83608 1.87325,0.83608 z" />
          <path
             inkscape:connector-curvature="0"
             id="path1202"
             style="font-style:normal;font-variant:normal;font-weight:normal;font-stretch:normal;font-family:Acre;-inkscape-font-specification:Acre;fill:#ffffff;fill-opacity:1;stroke-width:0.26458332"
             d="m 124.49051,207.59551 h -1.94734 v 7.40834 h 1.94734 c 2.32833,0 3.71475,-1.67217 3.71475,-3.72534 0,-2.04258 -1.38642,-3.683 -3.71475,-3.683 z m 0.0106,6.42409 h -0.9525 v -5.43984 h 0.9525 c 1.69333,0 2.68817,1.18534 2.68817,2.69875 0,1.48167 -0.99484,2.74109 -2.68817,2.74109 z" />
          <path
             inkscape:connector-curvature="0"
             id="path1204"
             style="font-style:normal;font-variant:normal;font-weight:normal;font-stretch:normal;font-family:Acre;-inkscape-font-specification:Acre;fill:#ffffff;fill-opacity:1;stroke-width:0.26458332"
             d="m 131.86478,209.6381 c -1.55575,0 -2.59292,1.24883 -2.59292,2.71991 0,1.48167 1.016,2.7305 2.69875,2.7305 0.71967,0 1.35467,-0.20108 1.79917,-0.52916 v -1.00542 c -0.508,0.34925 -1.04775,0.5715 -1.74625,0.5715 -0.91017,0 -1.56634,-0.52917 -1.72509,-1.36525 h 4.04284 c 0.11641,-1.67217 -0.8255,-3.12208 -2.4765,-3.12208 z m -0.0212,0.99483 c 0.762,0 1.30175,0.52917 1.44992,1.30175 h -2.9845 c 0.15875,-0.762 0.73025,-1.30175 1.53458,-1.30175 z" />
          <path
             inkscape:connector-curvature="0"
             id="path1206"
             style="font-style:normal;font-variant:normal;font-weight:normal;font-stretch:normal;font-family:Acre;-inkscape-font-specification:Acre;fill:#ffffff;fill-opacity:1;stroke-width:0.26458332"
             d="m 138.8086,209.71218 -1.56633,3.84175 -1.57692,-3.84175 h -1.0795 l 2.33892,5.31283 h 0.635 l 2.31775,-5.31283 z" />
        </g>
      </g>
      <path
         inkscape:connector-curvature="0"
         id="rect1065"
         d="m 727.66996,276.34127 v 1.77182 h 8.3204 v -1.77182 z m 2.05653,0.15549 h 6.10857 v 1.46057 h -6.10857 z m 0.40297,0.19242 v 1.04573 h 0.16532 v -1.04573 z m 2.63062,0 v 1.04573 h 0.16533 v -1.04573 z m 2.43957,0.12995 v 0.17913 h -0.1209 v 0.123 h 0.1209 v 0.41651 c 0,0.14014 0.0634,0.21022 0.19025,0.21022 a 0.40714538,0.40762802 0 0 0 0.10872,-0.0156 v -0.128 a 0.25404984,0.254351 0 0 1 -0.0577,0.007 0.07710246,0.07719386 0 0 1 -0.0593,-0.0186 0.09013777,0.09024462 0 0 1 -0.0167,-0.0609 v -0.4112 h 0.12984 v -0.12246 h -0.12984 v -0.17913 z m -3.65399,0.16416 a 0.31090597,0.31127452 0 0 0 -0.21998,0.10131 c -0.0599,0.0674 -0.0899,0.15715 -0.0899,0.26932 v 0.017 c 0,0.11847 0.0301,0.21103 0.0904,0.27767 a 0.31367944,0.31405129 0 0 0 0.2449,0.0999 0.32394129,0.3243253 0 0 0 0.1481,-0.0347 0.28067514,0.28100786 0 0 0 0.10926,-0.0952 0.24240127,0.24268862 0 0 0 0.0427,-0.12745 h -0.15563 a 0.12314206,0.12328804 0 0 1 -0.0435,0.0891 0.14921268,0.14938956 0 0 1 -0.10265,0.0361 l 1.5e-4,0.003 a 0.14532981,0.14550209 0 0 1 -0.12481,-0.0588 c -0.0288,-0.0394 -0.0432,-0.0991 -0.0432,-0.17886 v -0.0277 c 5e-4,-0.0789 0.0151,-0.13771 0.0441,-0.17659 a 0.14532981,0.14550209 0 0 1 0.12367,-0.0583 0.13867349,0.13883788 0 0 1 0.10265,0.0383 0.1511541,0.15133328 0 0 1 0.0433,0.10413 h 0.15562 a 0.27401882,0.27434365 0 0 0 -0.0866,-0.20104 0.30230822,0.30266659 0 0 0 -0.21381,-0.0766 0.31090597,0.31127452 0 0 0 -0.0249,-1.5e-4 z m 0.77711,1.5e-4 a 0.30868721,0.30905314 0 0 0 -0.0308,5e-5 0.38329354,0.38374791 0 0 0 -0.15395,0.03 0.26736249,0.26767943 0 0 0 -0.10926,0.0833 0.18360371,0.18382135 0 0 0 -0.0402,0.11329 h 0.1664 a 0.0873643,0.08746787 0 0 1 0.036,-0.0719 0.14560717,0.14577978 0 0 1 0.0924,-0.0277 0.12674757,0.12689782 0 0 1 0.0974,0.0344 0.12896635,0.12911923 0 0 1 0.0319,0.0917 v 0.0477 h -0.10206 c -0.10816,0 -0.19137,0.021 -0.24961,0.063 a 0.20884229,0.20908986 0 0 0 -0.0874,0.18081 0.20218596,0.20242564 0 0 0 0.0699,0.15657 0.27734698,0.27767576 0 0 0 0.37388,-0.0191 0.25432717,0.25462865 0 0 0 0.0191,0.0689 l 0.16809,1.4e-4 v -0.0116 a 0.37580515,0.37625064 0 0 1 -0.0277,-0.15858 v -0.33321 a 0.23158474,0.23185926 0 0 0 -0.0788,-0.18272 0.30868721,0.30905314 0 0 0 -0.17524,-0.065 z m 0.91796,0.001 a 0.25682329,0.25712774 0 0 0 -0.18829,0.0786 v 0.12218 a 0.15614635,0.15633145 0 0 1 0.13174,-0.0653 0.13479064,0.13495042 0 0 1 0.0968,0.0317 c 0.022,0.0211 0.033,0.0571 0.033,0.10803 v 0.47509 h 0.16641 v -0.48122 c -0.002,-0.17919 -0.0818,-0.26878 -0.23878,-0.26878 z m -2.45615,5e-4 a 0.33891801,0.33931977 0 0 0 -0.17805,0.0466 0.31284742,0.31321828 0 0 0 -0.12042,0.13358 0.4337707,0.43428491 0 0 0 -0.0427,0.19437 v 0.009 c 0,0.11478 0.0311,0.20685 0.0932,0.27627 a 0.31894903,0.31932712 0 0 0 0.24961,0.10385 0.34141414,0.34181887 0 0 0 0.18001,-0.0469 0.30896454,0.30933079 0 0 0 0.11814,-0.1333 0.43793091,0.43845005 0 0 0 0.0419,-0.19438 v -0.0389 a 0.37691458,0.37736139 0 0 0 -0.10037,-0.25463 0.32144516,0.32182621 0 0 0 -0.24127,-0.0955 z m 3.92999,0 a 0.31728495,0.31766107 0 0 0 -0.20411,0.0639 0.19580697,0.19603909 0 0 0 -0.0802,0.15934 c 0,0.0757 0.0412,0.13356 0.12373,0.17355 a 0.62042524,0.62116071 0 0 0 0.14057,0.045 0.38634434,0.38680233 0 0 1 0.12069,0.0409 0.07488369,0.07497245 0 0 1 0.0363,0.0675 0.07682511,0.07691618 0 0 1 -0.0338,0.065 0.1664082,0.16660546 0 0 1 -0.0993,0.025 0.17167778,0.17188129 0 0 1 -0.10818,-0.0317 0.11648573,0.11662382 0 0 1 -0.0441,-0.0902 h -0.16062 a 0.21244779,0.21269963 0 0 0 0.0394,0.12328 0.26486636,0.26518034 0 0 0 0.11094,0.09 0.37996536,0.38041578 0 0 0 0.16115,0.0328 0.35084396,0.35125986 0 0 0 0.21548,-0.0616 0.19164677,0.19187395 0 0 0 0.0832,-0.16108 0.18110758,0.18132227 0 0 0 -0.0277,-0.10082 0.21577595,0.21603174 0 0 0 -0.0832,-0.071 0.61182747,0.61255275 0 0 0 -0.15255,-0.0511 0.43987234,0.44039378 0 0 1 -0.12924,-0.0425 0.06684063,0.06691986 0 0 1 -0.0318,-0.0591 0.07932123,0.07941526 0 0 1 0.0347,-0.0683 0.14643921,0.1466128 0 0 1 0.0887,-0.0253 0.13562267,0.13578344 0 0 1 0.0929,0.0319 0.10178634,0.101907 0 0 1 0.0352,0.0794 h 0.1664 a 0.20717819,0.20742379 0 0 0 -0.0813,-0.16938 0.33004292,0.33043417 0 0 0 -0.21326,-0.0652 z m -0.75967,0.001 a 0.33891801,0.33931977 0 0 0 -0.17806,0.0466 0.31284742,0.31321828 0 0 0 -0.12036,0.13353 0.4337707,0.43428491 0 0 0 -0.0427,0.19437 l 10e-4,0.006 c 0,0.11588 0.0312,0.20844 0.0935,0.27768 a 0.31894903,0.31932712 0 0 0 0.24961,0.10385 0.34141414,0.34181887 0 0 0 0.18,-0.0469 0.30896454,0.30933079 0 0 0 0.11869,-0.1333 0.43793091,0.43845005 0 0 0 0.0419,-0.19438 v -0.0389 a 0.37691458,0.37736139 0 0 0 -0.10179,-0.25267 0.32144516,0.32182621 0 0 0 -0.24187,-0.096 z m -4.5077,0.0344 a 0.01359,0.01360611 0 0 1 0.0139,0.0139 v 0.47932 a 0.01359,0.01360611 0 0 1 -0.0139,0.0139 h -0.1007 a 0.01359,0.01360611 0 0 1 -0.0139,-0.0139 v -0.16661 a 0.01248061,0.01249541 0 0 0 -0.013,-0.0131 h -0.14063 a 0.01386735,0.01388379 0 0 0 -0.01,0.004 0.01220327,0.01221773 0 0 0 -0.004,0.009 v 0.16657 a 0.01220327,0.01221773 0 0 1 -0.0139,0.0139 h -0.0998 a 0.01220327,0.01221773 0 0 1 -0.0139,-0.0139 v -0.47872 a 0.01220327,0.01221773 0 0 1 0.0139,-0.0139 h 0.0998 a 0.01220327,0.01221773 0 0 1 0.0139,0.0139 v 0.16216 a 0.01220327,0.01221773 0 0 0 0.0139,0.0139 h 0.1409 a 0.01220327,0.01221773 0 0 0 0.009,-0.004 0.01386735,0.01388379 0 0 0 0.004,-0.01 v -0.16243 a 0.01359,0.01360611 0 0 1 0.0139,-0.0139 z m -1.45618,5.1e-4 a 0.01220327,0.01221773 0 0 1 0.002,1.4e-4 h 0.43629 a 0.08043063,0.08052597 0 0 1 0.033,0.007 l -2.8e-4,-5e-4 a 0.08486818,0.08496878 0 0 1 0.0449,0.045 0.08070797,0.08080364 0 0 1 0.007,0.033 v 0.40822 a 0.01359,0.01360611 0 0 1 -0.0139,0.0139 h -0.10059 a 0.01220327,0.01221773 0 0 1 -0.009,-0.004 0.01386735,0.01388379 0 0 1 -0.003,-0.01 v -0.37015 h -0.081 v 0.36988 a 0.01386735,0.01388379 0 0 1 -0.004,0.01 0.01220327,0.01221773 0 0 1 -0.009,0.004 h -0.091 a 0.01359,0.01360611 0 0 1 -0.0139,-0.0139 v -0.36961 h -0.081 v 0.36987 a 0.01220327,0.01221773 0 0 1 -0.0139,0.0139 h -0.0998 a 0.01220327,0.01221773 0 0 1 -0.0139,-0.0139 v -0.47872 a 0.01220327,0.01221773 0 0 1 0.0118,-0.014 z m 0.64759,0 a 0.01220327,0.01221773 0 0 1 6e-5,0 0.01220327,0.01221773 0 0 1 0.002,1.4e-4 h 0.0998 a 0.01220327,0.01221773 0 0 1 0.0139,0.0139 v 0.3554 a 0.01220327,0.01221773 0 0 0 0.004,0.009 0.01386735,0.01388379 0 0 0 0.01,0.003 h 0.18613 a 0.01220327,0.01221773 0 0 1 0.009,0.004 0.01386735,0.01388379 0 0 1 0.003,0.01 v 0.0955 a 0.01386735,0.01388379 0 0 1 -0.003,0.01 0.01192592,0.01194006 0 0 1 -0.009,0.004 h -0.31344 a 0.01220327,0.01221773 0 0 1 -0.0139,-0.0139 v -0.47731 a 0.01220327,0.01221773 0 0 1 0.0118,-0.014 z m 2.15177,0.0966 a 0.16141595,0.16160729 0 0 1 0.12453,0.0649 0.29260108,0.29294794 0 0 1 0.0494,0.17718 c 0,0.084 -0.0155,0.14784 -0.0466,0.19134 a 0.15087676,0.15105561 0 0 1 -0.13033,0.0652 0.15254084,0.15272166 0 0 1 -0.13065,-0.0644 0.29620659,0.29655772 0 0 1 -0.0469,-0.178 c 0,-0.0853 0.0154,-0.14913 0.0463,-0.19133 a 0.16141595,0.16160729 0 0 1 0.13423,-0.0649 z m 3.17172,1.5e-4 a 0.16141595,0.16160729 0 0 1 0.12454,0.0649 0.29260108,0.29294794 0 0 1 0.048,0.17685 c 0,0.084 -0.0155,0.14783 -0.0466,0.19133 a 0.15087676,0.15105561 0 0 1 -0.13034,0.0652 0.15254084,0.15272166 0 0 1 -0.13065,-0.0644 0.29620659,0.29655772 0 0 1 -0.0466,-0.17799 l -1.4e-4,10e-4 c 0,-0.0853 0.0159,-0.14948 0.0476,-0.19242 a 0.16141595,0.16160729 0 0 1 0.13424,-0.0649 z m -1.66289,0.2704 a 0.24351066,0.24379933 0 0 1 0.0243,5e-4 h 0.0891 v 0.13884 a 0.15864246,0.15883052 0 0 1 -0.0663,0.0638 0.18804125,0.18826416 0 0 1 -0.0921,0.0239 l 5e-4,-5e-4 a 0.12231002,0.12245501 0 0 1 -0.0846,-0.0277 0.09651675,0.09663117 0 0 1 -0.0316,-0.0758 0.10345042,0.10357306 0 0 1 0.0463,-0.0906 0.24351066,0.24379933 0 0 1 0.11436,-0.0324 z"
         style="fill:#ffffff;fill-opacity:1;stroke-width:0.0665752" />
    </g>
  </g>
</svg>
