<svg xmlns="http://www.w3.org/2000/svg" viewBox="0 0 550.3 635.44"><defs><style>.cls-1{fill:#fff;}.cls-2{fill:#c69249;}.cls-3{fill:#9bb735;}.cls-4{fill:#808748;}.cls-5{fill:#a6c634;}.cls-6{fill:#e0eac7;}.cls-7{fill:#664b39;}.cls-8{fill:#995b43;}.cls-9{fill:#c66b2e;}.cls-10{fill:#a68377;}.cls-11{fill:#dcb087;}.cls-12{fill:#7e8083;}.cls-13{fill:#5a5d5f;}.cls-14{fill:#9c6d41;}.cls-15{fill:none;stroke:#c69249;stroke-miterlimit:10;stroke-width:14px;}</style></defs><title>kermit the froggo</title><g id="Layer_7" data-name="Layer 7"><polygon class="cls-1" points="543.3 162.9 275.15 8.08 7 162.9 7 472.54 275.15 627.35 543.3 472.54 543.3 162.9"/><path class="cls-2" d="M351.47,132.22a.29.29,0,0,0-.05.13,1.25,1.25,0,0,1-.77,1,3.69,3.69,0,0,1-1.08.3,4.79,4.79,0,0,0-.77.17,3.22,3.22,0,0,0-2,2.18,2.15,2.15,0,0,0-.06.67c0,2.46-.05,4.91-.08,7.37,0,1.34,0,2.68-.05,4a6.51,6.51,0,0,1-4.29,5.78,5.79,5.79,0,0,1-2.26.31,1.75,1.75,0,0,1-.86-.25,1.73,1.73,0,0,1-.42-2.53,1.15,1.15,0,0,1,.61-.4c.32-.08.65-.16,1-.21a3.16,3.16,0,0,0,2.6-1.92,3,3,0,0,0,.23-1.25c0-1.22,0-2.43,0-3.65l0-7.11a8.52,8.52,0,0,1,.26-2,4.07,4.07,0,0,1,.68-1.46c.3-.37.62-.73.94-1.09a3.41,3.41,0,0,1,.39-.37c-.15-.16-.27-.29-.4-.41a5.51,5.51,0,0,1-1.79-3.44,8.47,8.47,0,0,1-.07-1.33q0-5.48-.07-10.93a1.68,1.68,0,0,0-.12-.63A3.17,3.17,0,0,0,340.3,113c-.22,0-.44-.08-.66-.12a1.65,1.65,0,0,1,.22-3.23,5.51,5.51,0,0,1,4.32,1.3,7,7,0,0,1,2.2,3.37,5.46,5.46,0,0,1,.24,1.61c0,2.77,0,5.53,0,8.3,0,.92,0,1.85,0,2.77a3.13,3.13,0,0,0,2.72,3.1,7.65,7.65,0,0,1,.83.18,1.75,1.75,0,0,1,.81.44,1.18,1.18,0,0,1,.35.69.43.43,0,0,0,.05.16Z" transform="translate(-34.37 -39.44)"/><path class="cls-2" d="M326,95.23a3.65,3.65,0,0,1,.45.52,19.18,19.18,0,0,1,2.3,5.58,9.05,9.05,0,0,1,.18,2.84,5.9,5.9,0,0,1-1.41,3.37,8.7,8.7,0,0,1-1.59,1.44,8.45,8.45,0,0,1-.82.49.66.66,0,0,1-.9-.09.84.84,0,0,1-.15-.26c-.11-.3-.2-.62-.33-.91a1.53,1.53,0,0,0-1.13-.93.58.58,0,0,1-.33-.88,3.88,3.88,0,0,1,.39-.42c.34-.37.71-.73,1-1.12a6.4,6.4,0,0,0,1.34-3.14,15.94,15.94,0,0,0,.16-1.83c.05-1.32.07-2.64.07-4a.7.7,0,0,1,.4-.7Z" transform="translate(-34.37 -39.44)"/><path class="cls-2" d="M312.21,141.17c.19-.21.37-.4.54-.6,1.75-2,3.49-4.09,5.24-6.14.18-.21.35-.42.54-.62.35-.39.6-.41,1-.09a5,5,0,0,1,.43.37l5.45,5c.16.15.33.28.52.45.05-.13.09-.23.12-.32a37.4,37.4,0,0,0,1.07-4.54,27.18,27.18,0,0,0,.28-5.7,30.54,30.54,0,0,0-1.58-7.8c0-.15-.09-.3-.13-.46a.53.53,0,0,1,.69-.66c.21.08.43.16.63.26.61.3,1.2.63,1.81.92a1.38,1.38,0,0,1,.82,1.14c.09.66.19,1.31.28,2l.72,5c.22,1.5.43,3,.65,4.51s.47,3.23.71,4.84c.07.47.12.94.18,1.41a.52.52,0,0,1-.24.53.5.5,0,0,1-.56,0c-.22-.15-.43-.31-.64-.48l-.48-.41c0,.17,0,.29-.06.41-.05,1.09-.1,2.18-.16,3.28l-.3,5.82c0,.37-.07.73-.08,1.1a.55.55,0,0,1-.47.56.67.67,0,0,1-.63-.44c-.24-.6-.5-1.2-.76-1.8l-.07-.1-.07.25c-.33,2.3-.67,4.59-1,6.89-.08.52-.15,1-.24,1.56a5.16,5.16,0,0,1-.16.52.53.53,0,0,1-.9.1c-.43-.66-.88-1.3-1.33-1.94s-.77-1.12-1.16-1.67l-.21-.28a4.6,4.6,0,0,0-.31.35l-3,4L318.12,160a.8.8,0,0,1-.53.35.38.38,0,0,1-.43-.15,3.15,3.15,0,0,1-.3-.5c-.55-1.43-1.08-2.86-1.62-4.29l-.69-1.85-.08-.2c0,.06-.07.09-.09.13l-3.92,6.4c-.09.16-.19.3-.29.45a.63.63,0,0,1-.67.32c-.28,0-.41-.26-.49-.53-.87-2.87-1.75-5.75-2.62-8.63l-.07-.17-.26.13-6.23,3.35a5.69,5.69,0,0,1-.56.26.54.54,0,0,1-.78-.42,3.85,3.85,0,0,1-.09-.67c-.06-1.58-.11-3.15-.17-4.73l-.15-4.24c0-1-.05-2-.08-3.06v-.34l-.29.12-3.85,1.72a2.84,2.84,0,0,1-.56.19.53.53,0,0,1-.72-.58c0-.33,0-.66.06-1,.09-1,.17-2,.27-3,.07-.81.16-1.63.23-2.45l.27-2.82c.14-1.56.29-3.11.44-4.67,0-.29,0-.59,0-.88a1,1,0,0,1,.6-1l3.41-1.7a1.71,1.71,0,0,1,.38-.13.55.55,0,0,1,.67.28,3.94,3.94,0,0,1,.18.48c.22.7.4,1.41.67,2.09a17,17,0,0,0,1.77,3.28,23.24,23.24,0,0,0,3.56,4c1.43,1.32,3,2.49,4.53,3.68L312,141Z" transform="translate(-34.37 -39.44)"/><path class="cls-2" d="M312.13,111.8c-.06-.12-.09-.2-.13-.27a23.65,23.65,0,0,0-2.15-3.36,10.35,10.35,0,0,0-3.33-2.88,9.88,9.88,0,0,0-2.84-.94,21.77,21.77,0,0,0-3.32-.28h-1.51a.51.51,0,0,1-.47-.76.76.76,0,0,1,.45-.41,31.69,31.69,0,0,1,6.44-1.71,10,10,0,0,1,2.51,0,10.48,10.48,0,0,1,2.2.51,8.53,8.53,0,0,1,2.66,1.58A16.42,16.42,0,0,1,316,107.2a32,32,0,0,1,1.87,3.58,1.42,1.42,0,0,0,.08.18.38.38,0,0,0,.35.25c.34,0,.69.07,1,.09,2.28.15,4.56.28,6.84.42l1,.1a.72.72,0,0,1,.68.62c.07.39.14.79.2,1.2.15,1,.3,2.07.44,3.11a2.35,2.35,0,0,1,0,.7c-.06.36-.24.48-.61.48-2.95,0-5.9,0-8.86,0-1,0-2.05.12-3.08.2-.59,0-1.18.09-1.77.17-.78.09-1.55.22-2.33.32a41.86,41.86,0,0,0-4.26.89,38.6,38.6,0,0,0-4.93,1.55,50.14,50.14,0,0,0-5.12,2.32c-1.58.81-3.1,1.7-4.59,2.64-.25.16-.51.32-.78.46a.56.56,0,0,1-.78-.15c-.1-.11-.19-.24-.28-.36l-2-2.8a.59.59,0,0,1,.05-.82,2.81,2.81,0,0,1,.51-.4c2.11-1.31,4.21-2.63,6.33-3.92a51.8,51.8,0,0,1,6.56-3.44,37.1,37.1,0,0,1,5.89-2c1.09-.26,2.2-.49,3.31-.74Z" transform="translate(-34.37 -39.44)"/><path class="cls-2" d="M273.6,131.93c.16.16.34.35.52.52a5.35,5.35,0,0,1,1.52,2.67,7.31,7.31,0,0,1,.15,1.54l.06,6.57c0,1.51.08,3,0,4.53a3.25,3.25,0,0,0,2.31,2.93l1.16.22a1.56,1.56,0,0,1,1.27,1.05,1.65,1.65,0,0,1-1.1,2.13,4,4,0,0,1-1.54.08,6.18,6.18,0,0,1-5.13-4.2,11.55,11.55,0,0,1-.38-1.27,1.09,1.09,0,0,1,0-.31l-.06-10.17c0-.52,0-1,0-1.55a2.68,2.68,0,0,0-.58-1.66,2.92,2.92,0,0,0-2.08-1.27,6.68,6.68,0,0,1-.89-.18,1.6,1.6,0,0,1-1.22-1.62,1.57,1.57,0,0,1,1.19-1.63c.36-.11.75-.16,1.13-.24a3,3,0,0,0,2.38-2.24,1.47,1.47,0,0,0,.06-.42c0-.88.05-1.75.05-2.63,0-3.12,0-6.23.06-9.35a1.84,1.84,0,0,1,.06-.41c.05-.22.11-.44.17-.66a6.6,6.6,0,0,1,3.47-4.15,5.47,5.47,0,0,1,2.57-.58,3.4,3.4,0,0,1,.84.11,1.61,1.61,0,0,1,1.15,1.55,1.56,1.56,0,0,1-1.07,1.57c-.4.12-.83.17-1.24.26a3.14,3.14,0,0,0-2.43,2.31,3,3,0,0,0-.07.73l-.06,5.92c0,1.74,0,3.47,0,5.21a9.39,9.39,0,0,1-.08,1.19,5.08,5.08,0,0,1-1.36,2.66Z" transform="translate(-34.37 -39.44)"/><path class="cls-2" d="M294,115.74c-.43,0-.85,0-1.28,0a9.82,9.82,0,0,1-3.12-.61,8.08,8.08,0,0,1-4.4-4,17.66,17.66,0,0,1-1.42-4c-.47-1.79-.77-3.62-1.08-5.44-.14-.83-.29-1.67-.42-2.51a2.36,2.36,0,0,1,0-.53.51.51,0,0,1,.43-.5.58.58,0,0,1,.6.32c.05.1.07.2.11.29a59.64,59.64,0,0,0,2.71,5.57,12.29,12.29,0,0,0,1.81,2.49,8.73,8.73,0,0,0,4.49,2.47,23.83,23.83,0,0,0,4.29.52A11.88,11.88,0,0,1,298,110a2,2,0,0,1,.95.53,2.86,2.86,0,0,1,1,2.18,2.63,2.63,0,0,1-1,2.31,1.65,1.65,0,0,1-.72.31c-.7.12-1.4.25-2.1.33s-1.41.11-2.11.16Z" transform="translate(-34.37 -39.44)"/></g><g id="Layer_3" data-name="Layer 3"><polygon class="cls-3" points="409.43 547.35 314.87 443.3 275.08 447.17 245.9 610.92 273.95 627.12 409.43 547.35"/><polygon class="cls-4" points="325.5 463.85 317.02 513.54 297.31 466.8 263.46 513.54 273.8 454.49 325.5 463.85"/><polygon class="cls-5" points="274.86 439.39 249.55 517.22 285.86 475.67 299.44 521.18 313.8 470.42 358.39 480.93 315.55 440.01 274.86 439.39"/><ellipse class="cls-6" cx="301.18" cy="281.53" rx="30.88" ry="35.58" transform="translate(-63.74 -4.3) rotate(-6.37)"/><polygon class="cls-5" points="83.59 234.52 269.4 213.02 363.34 355.84 83.59 234.52"/><polygon class="cls-3" points="163.69 269.27 269.4 213.02 363.34 355.84 163.69 269.27"/><polygon class="cls-4" points="343.02 324.92 324.77 297.21 307.98 313.44 343.02 324.92"/><ellipse class="cls-6" cx="350.7" cy="320.29" rx="30.53" ry="35.63" transform="matrix(0.99, -0.15, 0.15, 0.99, -77.69, 15.66)"/><ellipse class="cls-7" cx="354.13" cy="314.4" rx="10.7" ry="12.76" transform="translate(-59.61 -8.48) rotate(-4.84)"/><path class="cls-7" d="M354.1,327.21s6.09,17.72,6.84-3.44-23.19-31.24-18.49-21.16S354.1,327.21,354.1,327.21Z" transform="translate(-34.37 -39.44)"/><polygon class="cls-3" points="143.96 408.55 363.34 355.84 312.98 454.49 143.96 408.55"/><polygon class="cls-4" points="143.96 408.55 239.07 301.95 363.34 355.84 143.96 408.55"/><polygon class="cls-5" points="143.96 408.55 363.34 355.84 204.42 340.79 143.96 408.55"/><polygon class="cls-8" points="244.14 304.15 155.44 401.19 349.75 349.95 244.14 304.15"/><polygon class="cls-9" points="210.28 341.2 336.35 353.49 155.44 401.19 210.28 341.2"/><polygon class="cls-10" points="264.72 313.08 326.58 339.9 229.06 362.91 264.72 313.08"/><polygon class="cls-11" points="242.36 344.33 288.69 348.84 229.06 362.91 242.36 344.33"/><path class="cls-2" d="M353.64,222.54s2.73-5.25,12.66-2.62c0,0-7.26-20.29,11.53-39.92C377.83,180,335,197.26,353.64,222.54Z" transform="translate(-34.37 -39.44)"/><path class="cls-12" d="M337.64,233.83s42.58-52.27,102.44,18.72h0s-26.9-16.46-72.34,3.83h0l-30.1-22.55" transform="translate(-34.37 -39.44)"/><path class="cls-13" d="M423.36,236.09s59.95,35.18,6.72,91.9l-55.82-71,49.1-20.88" transform="translate(-34.37 -39.44)"/><path class="cls-2" d="M361.44,264.59A134.54,134.54,0,0,0,328,241.76l13.18-15.9s13.6,5,29.84,16.56c0,0,44.44-39.13,72.77,13.49C443.81,255.91,413.78,204.34,361.44,264.59Z" transform="translate(-34.37 -39.44)"/><path class="cls-14" d="M361.44,264.59s34.95,20.21,56.24,72.06l18-5.94S411,264.41,377,247.09C377,247.09,366.69,256.18,361.44,264.59Z" transform="translate(-34.37 -39.44)"/><path class="cls-14" d="M377,247.09s46.8-31.75,66.84,8.82c0,0-21.34-24.54-56.53-1.94h0L377,247.09" transform="translate(-34.37 -39.44)"/><path class="cls-14" d="M428.18,274.33s36.33,27.48,70.51-5c0,0-33.83,69.07-78.63,19.92C420.06,289.23,415.82,279.8,428.18,274.33Z" transform="translate(-34.37 -39.44)"/></g><g id="Layer_5" data-name="Layer 5"><polygon class="cls-15" points="543.3 162.9 275.15 8.08 7 162.9 7 472.54 275.15 627.35 543.3 472.54 543.3 162.9"/></g></svg>