<?xml version="1.0" encoding="UTF-8" standalone="no"?>
<!-- Created with Inkscape (http://www.inkscape.org/) -->

<svg
   xmlns:dc="http://purl.org/dc/elements/1.1/"
   xmlns:cc="http://creativecommons.org/ns#"
   xmlns:rdf="http://www.w3.org/1999/02/22-rdf-syntax-ns#"
   xmlns:svg="http://www.w3.org/2000/svg"
   xmlns="http://www.w3.org/2000/svg"
   xmlns:sodipodi="http://sodipodi.sourceforge.net/DTD/sodipodi-0.dtd"
   xmlns:inkscape="http://www.inkscape.org/namespaces/inkscape"
   width="76.199997mm"
   height="38.100002mm"
   viewBox="0 0 76.199997 38.100002"
   version="1.1"
   id="svg8"
   inkscape:version="0.92.4 (5da689c313, 2019-01-14)"
   sodipodi:docname="okboomer.svg">
  <defs
     id="defs2" />
  <sodipodi:namedview
     id="base"
     pagecolor="#ffffff"
     bordercolor="#666666"
     borderopacity="1.0"
     inkscape:pageopacity="0.0"
     inkscape:pageshadow="2"
     inkscape:zoom="2.8"
     inkscape:cx="112.53385"
     inkscape:cy="75.768919"
     inkscape:document-units="mm"
     inkscape:current-layer="layer1"
     showgrid="false"
     inkscape:window-width="1680"
     inkscape:window-height="1013"
     inkscape:window-x="0"
     inkscape:window-y="0"
     inkscape:window-maximized="1"
     fit-margin-top="0"
     fit-margin-left="0"
     fit-margin-right="0"
     fit-margin-bottom="0" />
  <metadata
     id="metadata5">
    <rdf:RDF>
      <cc:Work
         rdf:about="">
        <dc:format>image/svg+xml</dc:format>
        <dc:type
           rdf:resource="http://purl.org/dc/dcmitype/StillImage" />
        <dc:title></dc:title>
      </cc:Work>
    </rdf:RDF>
  </metadata>
  <g
     inkscape:label="Layer 1"
     inkscape:groupmode="layer"
     id="layer1"
     transform="translate(-414.00367,-253.85229)">
    <g
       id="g1225">
      <path
         style="opacity:1;fill:#ffffff;fill-opacity:1;stroke:#c68e49;stroke-width:1.28654444;stroke-linecap:round;stroke-linejoin:round;stroke-miterlimit:4;stroke-dasharray:none;stroke-dashoffset:0;stroke-opacity:1"
         d="m 419.39702,254.49556 h 65.41329 c 2.63155,0 4.75008,2.11854 4.75008,4.75008 v 27.3133 c 0,2.63154 -2.11853,4.75008 -4.75008,4.75008 h -65.41329 c -2.63154,0 -4.75008,-2.11854 -4.75008,-4.75008 v -27.3133 c 0,-2.63154 2.11854,-4.75008 4.75008,-4.75008 z"
         id="rect1174" />
      <path
         style="fill:#9c6d41;fill-opacity:1;stroke-width:0.00406009"
         d="m 418.30744,278.04917 c 0,0.0116 0.003,0.0185 0.0106,0.0264 l 0.0106,0.0105 0.17401,0.002 c 0.1711,0.002 0.21739,0.006 0.2826,0.0204 0.0217,0.005 0.0743,0.0212 0.0862,0.0271 0.0494,0.0237 0.0664,0.0338 0.10172,0.061 0.0185,0.0142 0.0486,0.0421 0.0669,0.062 0.0341,0.037 0.0409,0.0431 0.0613,0.041 0.0116,-4.2e-4 0.0349,-0.0185 0.035,-0.027 1.5e-4,-0.0263 0.0267,-0.0621 0.0578,-0.0779 0.0203,-0.0102 0.0648,-0.0258 0.0739,-0.0258 0.007,0 0.0255,-0.0207 0.0274,-0.0305 0.002,-0.0109 -0.005,-0.0387 -0.0113,-0.0464 -0.003,-0.004 -0.007,-0.0106 -0.01,-0.0163 -0.0111,-0.0258 -0.0545,-0.0814 -0.0923,-0.11819 -0.0673,-0.0654 -0.11854,-0.0929 -0.21603,-0.11561 -0.0429,-0.0108 -0.0509,-0.0108 -0.11366,-0.009 -0.064,0.002 -0.0955,0.006 -0.15893,0.0219 -0.0272,0.007 -0.11744,0.0355 -0.13187,0.0419 -0.004,0.002 -0.0255,0.0108 -0.0468,0.0198 -0.0212,0.009 -0.0577,0.0262 -0.0811,0.0383 -0.11243,0.0583 -0.1267,0.0689 -0.1267,0.0937 z m 0.19922,2.96357 c 0,0.008 0.003,0.0152 0.009,0.021 0.0125,0.0133 0.0349,0.016 0.0699,0.008 0.0162,-0.004 0.0424,-0.008 0.058,-0.0105 0.0668,-0.0102 0.14576,-0.0233 0.18467,-0.0304 0.0168,-0.003 0.0524,-0.009 0.0792,-0.0142 0.0759,-0.0134 0.10345,-0.0192 0.19459,-0.0413 0.0876,-0.0212 0.20616,-0.0579 0.23283,-0.0722 0.004,-0.002 0.0234,-0.0114 0.0435,-0.021 0.0466,-0.0221 0.0685,-0.0353 0.11388,-0.0691 0.0577,-0.0429 0.11959,-0.1116 0.14782,-0.16399 0.005,-0.009 0.0105,-0.0189 0.0125,-0.0223 0.005,-0.008 0.0202,-0.0435 0.0202,-0.0468 0,-0.002 0.002,-0.009 0.006,-0.0154 0.014,-0.0311 0.0342,-0.12343 0.0391,-0.17929 0.004,-0.0453 10e-4,-0.20999 -0.004,-0.24564 -0.002,-0.0146 -0.007,-0.0455 -0.01,-0.069 -0.0118,-0.0863 -0.0185,-0.1149 -0.0312,-0.135 -0.0129,-0.0202 -0.0415,-0.0463 -0.0625,-0.0571 -0.0183,-0.009 -0.0755,-0.023 -0.0958,-0.023 -0.0228,3e-5 -0.0804,0.0138 -0.10063,0.0241 -0.0198,0.01 -0.0633,0.05 -0.0754,0.0693 -0.0179,0.0283 -0.0267,0.0702 -0.0286,0.13597 -0.004,0.14569 -0.0294,0.30079 -0.0614,0.38162 -0.0352,0.0888 -0.0799,0.15755 -0.13984,0.21559 -0.0281,0.0273 -0.0856,0.0747 -0.0905,0.0747 -0.001,0 -0.011,0.006 -0.0215,0.014 -0.055,0.0395 -0.19048,0.11106 -0.31569,0.1669 -0.007,0.003 -0.0267,0.0122 -0.0446,0.0203 -0.0179,0.008 -0.039,0.0177 -0.0468,0.0211 -0.008,0.004 -0.0215,0.01 -0.0304,0.0134 -0.009,0.004 -0.0201,0.008 -0.0248,0.01 -0.0174,0.005 -0.0277,0.0231 -0.0266,0.0401 z m 0.20352,-1.63974 c 0,0.055 0.0151,0.15522 0.037,0.24576 0.007,0.0279 0.0139,0.0585 0.016,0.0678 0.004,0.0196 0.015,0.0556 0.021,0.0703 0.002,0.005 0.009,0.0267 0.0156,0.0468 0.006,0.02 0.0154,0.0465 0.0203,0.0588 0.005,0.0123 0.0106,0.029 0.0128,0.0372 0.01,0.0362 0.0492,0.0527 0.0718,0.0301 l 0.0105,-0.0105 6e-4,-0.0903 c 6.1e-4,-0.0996 0.006,-0.18372 0.0163,-0.24264 0.009,-0.0552 0.0287,-0.12701 0.0407,-0.15019 0.003,-0.005 0.005,-0.0119 0.005,-0.014 4e-5,-0.009 0.0316,-0.0684 0.0563,-0.10569 0.0295,-0.0445 0.0985,-0.1187 0.14567,-0.15666 0.0398,-0.0319 0.12036,-0.0872 0.17013,-0.11658 0.0458,-0.0271 0.0935,-0.0537 0.0963,-0.0537 10e-4,0 0.004,0.01 0.006,0.0214 0.0109,0.056 0.0351,0.16744 0.0439,0.20203 0.005,0.0212 0.0125,0.0494 0.0159,0.0628 0.0113,0.0461 0.0542,0.18311 0.065,0.20773 0.003,0.007 0.005,0.0148 0.005,0.0175 0,0.002 0.004,0.0123 0.007,0.0217 0.004,0.009 0.0107,0.0253 0.0147,0.0353 0.004,0.01 0.01,0.0242 0.0128,0.0316 0.003,0.007 0.005,0.0152 0.005,0.0174 0,0.002 0.007,0.0181 0.0147,0.0353 0.008,0.0173 0.0169,0.037 0.0199,0.0436 0.003,0.007 0.0146,0.0323 0.0262,0.0569 0.029,0.0617 0.051,0.10467 0.10278,0.20094 0.0104,0.0194 0.0407,0.0712 0.0708,0.12121 0.005,0.008 0.0103,0.0175 0.012,0.0209 0.002,0.004 0.008,0.0134 0.0132,0.0224 0.005,0.009 0.0124,0.0198 0.0149,0.0243 0.007,0.0131 0.0443,0.0737 0.0545,0.0894 0.003,0.005 0.0153,0.0242 0.0264,0.0425 0.0111,0.0183 0.0231,0.0374 0.0264,0.0425 0.003,0.005 0.0121,0.0192 0.0195,0.0312 0.007,0.0121 0.0233,0.0373 0.0353,0.0562 0.012,0.0189 0.028,0.0443 0.0353,0.0562 0.007,0.0119 0.0162,0.026 0.0195,0.0312 0.003,0.005 0.0146,0.0237 0.0251,0.0413 0.0265,0.0442 0.0428,0.0592 0.064,0.0592 0.009,0 0.0197,-0.003 0.0236,-0.006 0.007,-0.006 0.0791,-0.0572 0.16873,-0.11937 0.0566,-0.0393 0.0632,-0.045 0.067,-0.0595 0.005,-0.0209 0.004,-0.0248 -0.0474,-0.10419 -0.004,-0.005 -0.009,-0.0134 -0.0108,-0.0169 -0.008,-0.0123 -0.0307,-0.0499 -0.0346,-0.0562 -0.002,-0.004 -0.0194,-0.0335 -0.0385,-0.067 -0.0191,-0.0335 -0.0366,-0.0637 -0.0387,-0.067 -0.01,-0.015 -0.0881,-0.17013 -0.11097,-0.21926 -0.0109,-0.0234 -0.0258,-0.0554 -0.0332,-0.071 -0.007,-0.0156 -0.0201,-0.0458 -0.0283,-0.067 -0.0131,-0.0339 -0.0203,-0.051 -0.0347,-0.0832 -0.002,-0.005 -0.009,-0.0237 -0.0152,-0.0427 -0.0233,-0.0694 -0.0338,-0.0997 -0.0373,-0.10763 -0.002,-0.004 -0.008,-0.0255 -0.0142,-0.0467 -0.006,-0.0212 -0.0122,-0.0422 -0.0141,-0.0467 -0.004,-0.01 -0.007,-0.0209 -0.0347,-0.13403 -0.012,-0.0491 -0.0257,-0.10936 -0.0305,-0.13392 -0.005,-0.0246 -0.0113,-0.0552 -0.0144,-0.068 -0.003,-0.0127 -0.005,-0.03 -0.005,-0.0381 0,-0.008 -0.002,-0.0288 -0.006,-0.0458 -0.0119,-0.0634 -0.0204,-0.13524 -0.0304,-0.2562 -6.1e-4,-0.0107 -0.002,-0.0271 -0.004,-0.0419 l -0.0683,0.002 0.0683,-0.004 -0.002,-0.039 c -0.001,-0.0214 -0.004,-0.0663 -0.007,-0.0998 -0.002,-0.0362 -0.004,-0.18224 -0.003,-0.3604 l 0.001,-0.29951 -0.0102,-0.0102 c -0.0142,-0.0142 -0.0431,-0.0169 -0.0923,-0.009 -0.0418,0.007 -0.0793,0.0123 -0.14481,0.0211 -0.14048,0.0188 -0.1452,0.0199 -0.15988,0.0366 -0.014,0.0159 -0.0145,0.0186 -0.0206,0.12174 -0.008,0.13473 -0.0126,0.20666 -0.0186,0.2782 -0.004,0.0391 -0.006,0.0851 -0.006,0.10224 4e-5,0.0312 -0.006,0.12431 -0.0102,0.14739 -10e-4,0.009 -0.005,0.0139 -0.0172,0.0191 -0.0521,0.0233 -0.0679,0.0309 -0.10258,0.0482 -0.0212,0.0107 -0.0505,0.026 -0.065,0.034 -0.0145,0.008 -0.0309,0.0169 -0.0366,0.0199 -0.005,0.003 -0.0179,0.0102 -0.0274,0.0163 -0.009,0.006 -0.0182,0.0113 -0.0193,0.0113 -10e-4,0 -0.0108,0.006 -0.0215,0.0134 -0.0107,0.007 -0.0224,0.0149 -0.0261,0.0173 -0.0692,0.042 -0.1884,0.14857 -0.2408,0.21538 -0.0306,0.039 -0.0616,0.0881 -0.0767,0.12164 -0.006,0.0134 -0.0125,0.027 -0.0141,0.0304 -0.002,0.004 -0.008,0.0226 -0.0141,0.0427 -0.006,0.0201 -0.0127,0.0421 -0.0149,0.0487 -0.003,0.008 -0.007,0.0393 -0.0113,0.071 -1e-5,9e-5 10e-6,1.3e-4 0,2.1e-4 -0.003,0.0221 -0.004,0.0359 -0.005,0.0548 -0.001,0.0119 -0.004,0.0301 -0.004,0.0362 z m 0.0172,0.11981 c 0.003,-1.3e-4 0.0114,-0.0178 0.0193,-0.0395 0.0103,-0.0287 0.0303,-0.0722 0.0522,-0.1156 -0.022,0.0433 -0.0418,0.0868 -0.0521,0.1155 -0.008,0.0217 -0.0165,0.0396 -0.0193,0.0396 -1.2e-4,0 -1e-4,-9e-5 -2.1e-4,-1.1e-4 z m 0.0717,-0.15515 c 0.022,-0.0433 0.0459,-0.0865 0.0644,-0.11464 -0.0185,0.0281 -0.0425,0.0713 -0.0644,0.11464 z m 0.13036,-0.2061 c 0.0215,-0.0271 0.0557,-0.0641 0.0909,-0.0994 -0.0353,0.0353 -0.0695,0.0722 -0.0909,0.0994 z m 0.36848,2.16465 c 6.1e-4,0.052 0.014,0.11315 0.0378,0.16473 0.0221,0.0478 0.0516,0.0886 0.0944,0.12983 0.0632,0.061 0.12082,0.0935 0.20558,0.11626 l 0.047,0.0127 0.42429,0.002 c 0.3963,0.002 0.42574,0.003 0.4466,0.01 0.0497,0.0165 0.0888,0.0436 0.1156,0.0801 0.0226,0.0307 0.0332,0.0588 0.0407,0.10926 0.0129,0.0858 0.0367,0.11762 0.0979,0.13026 0.045,0.009 0.0926,-0.007 0.11798,-0.0403 0.0156,-0.0204 0.0231,-0.0445 0.031,-0.0985 0.008,-0.053 0.0242,-0.0868 0.0592,-0.12196 0.0275,-0.0275 0.0569,-0.0452 0.0977,-0.0588 0.0209,-0.007 0.0496,-0.008 0.44454,-0.01 l 0.42225,-0.002 0.0427,-0.0114 c 0.0911,-0.0246 0.15889,-0.0634 0.22357,-0.1281 0.0713,-0.0713 0.10818,-0.15056 0.11733,-0.25201 0.009,-0.1029 -0.0215,-0.16014 -0.0944,-0.17541 -0.0429,-0.009 -0.0941,0.012 -0.11431,0.047 -0.0119,0.0206 -0.0172,0.0404 -0.0248,0.0913 -0.008,0.0557 -0.0286,0.0959 -0.0665,0.13166 -0.0285,0.0269 -0.0628,0.0466 -0.0979,0.0562 -0.0136,0.004 -0.12612,0.005 -0.4424,0.008 -0.45016,0.002 -0.43269,0.002 -0.49776,0.0217 -0.0632,0.019 -0.1058,0.0453 -0.15806,0.0976 l -0.0372,0.037 -0.0272,-0.0293 c -0.0449,-0.0482 -0.10336,-0.0875 -0.15483,-0.10419 -0.0643,-0.0209 -0.047,-0.0199 -0.50531,-0.0226 -0.39817,-0.002 -0.42993,-0.003 -0.45069,-0.01 -0.0727,-0.0238 -0.12443,-0.0731 -0.14847,-0.14125 -0.003,-0.009 -0.007,-0.0306 -0.01,-0.049 -0.01,-0.0725 -0.0258,-0.10183 -0.0669,-0.12283 -0.0581,-0.0297 -0.13123,-0.005 -0.15687,0.053 -0.009,0.0204 -0.0131,0.0482 -0.0127,0.0793 z m 2.1e-4,-4.25755 c -6.1e-4,0.0523 0.007,0.0794 0.0297,0.10505 0.0214,0.0243 0.0436,0.0355 0.0749,0.038 0.0371,0.003 0.0665,-0.007 0.0909,-0.0306 0.0229,-0.0223 0.0297,-0.0405 0.039,-0.10645 0.0127,-0.0899 0.0597,-0.14982 0.14319,-0.1823 l 0.0272,-0.0105 0.42429,-0.002 c 0.41224,-0.002 0.42533,-0.002 0.4619,-0.0108 0.098,-0.0223 0.15039,-0.0511 0.21419,-0.11754 l 0.0286,-0.0297 0.0344,0.0348 c 0.0389,0.0393 0.0932,0.0779 0.12843,0.091 0.0343,0.0128 0.0833,0.0237 0.12736,0.0283 0.0226,0.002 0.19789,0.004 0.42623,0.004 0.43092,1.4e-4 0.41456,-6.1e-4 0.46856,0.0275 0.0646,0.0339 0.10293,0.0904 0.11399,0.16785 0.0102,0.0716 0.0208,0.0973 0.0473,0.11562 0.0487,0.0338 0.11582,0.0281 0.15364,-0.0129 0.0199,-0.0215 0.0276,-0.0383 0.0323,-0.0699 h -1.1e-4 c 0.002,-0.0127 0.003,-0.0304 0.002,-0.0393 -0.005,-0.0546 -0.007,-0.0695 -0.016,-0.10279 -0.0351,-0.13118 -0.14925,-0.24996 -0.28369,-0.2951 -0.074,-0.0243 -0.0481,-0.0234 -0.508,-0.0263 -0.30829,-0.002 -0.42692,-0.004 -0.4397,-0.008 -0.0342,-0.01 -0.0715,-0.031 -0.0992,-0.0571 -0.0364,-0.0342 -0.0577,-0.0761 -0.0641,-0.12627 -0.0125,-0.0981 -0.044,-0.13729 -0.11356,-0.14126 -0.0729,-0.004 -0.11284,0.0298 -0.12768,0.10882 -0.0129,0.0684 -0.0148,0.0759 -0.0267,0.10118 -0.0155,0.0328 -0.058,0.0758 -0.0913,0.0927 -0.0573,0.0273 -0.0231,0.0269 -0.4912,0.0294 l -0.42224,0.002 -0.0422,0.0114 c -0.0562,0.0152 -0.0977,0.0332 -0.1391,0.0601 -0.13414,0.0875 -0.20132,0.20348 -0.2032,0.35048 z m 0.19803,-4.26724 h 2.12285 v -0.24943 h -0.61036 l 0.61036,-0.56252 v -0.32376 l -0.6554,0.62888 -0.67134,-0.59172 v 0.30513 l 0.6289,0.54399 h -1.42501 z m 0.20698,0.56608 c 0,0.0982 0.0743,0.1699 0.16722,0.1699 0.0982,0 0.17249,-0.0717 0.17249,-0.1699 0,-0.0982 -0.0743,-0.16981 -0.17249,-0.16981 -0.0929,0 -0.16722,0.0716 -0.16722,0.16981 z m 0,-2.08859 c 0,0.0982 0.0743,0.1698 0.16722,0.1698 0.0982,0 0.17249,-0.0716 0.17249,-0.1698 0,-0.0982 -0.0743,-0.16981 -0.17249,-0.16981 -0.0929,0 -0.16722,0.0716 -0.16722,0.16981 z m 0.0584,-4.86575 h 1.85748 v -0.48818 c 0,-0.58378 -0.41923,-0.93144 -0.93401,-0.93144 -0.51214,0 -0.92347,0.34766 -0.92347,0.93144 z m 0.24684,-0.25202 v -0.23885 c 0,-0.42458 0.29717,-0.67393 0.67663,-0.67393 0.37149,0 0.68728,0.24935 0.68728,0.67393 v 0.23885 z m 0.008,11.88572 c -6e-4,0.005 -6e-4,0.01 6.1e-4,0.0138 h -1.1e-4 c 10e-4,0.005 0.004,0.01 0.009,0.0144 0.0137,0.0146 0.0271,0.0153 0.0654,0.002 0.019,-0.006 0.0408,-0.0133 0.0487,-0.0155 0.008,-0.002 0.037,-0.0108 0.065,-0.0189 0.0464,-0.0136 0.0831,-0.0231 0.10958,-0.0287 0.005,-0.001 0.0257,-0.005 0.0447,-0.01 0.25223,-0.0557 0.53198,-0.0535 0.78964,0.006 0.0613,0.0142 0.0749,0.0176 0.12584,0.0322 0.029,0.008 0.0597,0.0169 0.0681,0.0192 0.008,0.002 0.0152,0.005 0.0152,0.007 0,0.002 -0.0179,0.022 -0.0396,0.0453 -0.0459,0.0491 -0.2143,0.23181 -0.28326,0.30728 -5e-5,6e-5 -6e-4,10e-4 -0.001,10e-4 -0.006,0.007 -0.0214,0.0231 -0.0255,0.0277 -0.009,0.01 -0.007,0.008 -0.0326,0.0352 -0.0444,0.0477 -0.046,0.0662 -0.008,0.0978 0.0126,0.0104 0.0312,0.0265 0.0413,0.0356 0.0101,0.009 0.0464,0.0402 0.0808,0.0693 0.0344,0.029 0.10202,0.0866 0.1503,0.12788 0.0483,0.0413 0.0985,0.0842 0.11151,0.0953 0.0131,0.0113 0.045,0.0383 0.0709,0.0602 0.026,0.0219 0.0468,0.0414 0.0462,0.0435 -6.1e-4,0.002 -0.0234,0.0326 -0.0507,0.0679 -0.0273,0.0352 -0.0748,0.0968 -0.10559,0.13705 -0.1094,0.14278 -0.13102,0.16955 -0.20816,0.25729 -0.0745,0.0848 -0.16493,0.17145 -0.23553,0.22562 -0.0284,0.0218 -0.11197,0.0783 -0.12982,0.0878 -0.0297,0.0159 -0.0524,0.0284 -0.0566,0.0316 -0.002,0.002 -0.0222,0.0113 -0.0439,0.0205 -0.0217,0.009 -0.0445,0.0198 -0.0508,0.0229 -0.006,0.003 -0.0141,0.006 -0.0176,0.006 -0.004,0 -0.008,0.002 -0.0101,0.004 -0.004,0.004 -0.0805,0.0277 -0.12423,0.0389 -0.035,0.009 -0.0496,0.023 -0.0496,0.0478 v 2.1e-4 c 0,0.0144 0.0117,0.0409 0.0653,0.14933 0.0402,0.0813 0.0697,0.13614 0.077,0.14308 0.0144,0.0137 0.0324,0.0192 0.0622,0.0192 0.0123,0 0.0443,0.002 0.071,0.006 0.0268,0.003 0.0642,0.007 0.0832,0.008 0.019,0.002 0.061,0.005 0.0934,0.008 0.0324,0.003 0.0907,0.009 0.12983,0.0119 0.0391,0.004 0.0903,0.008 0.11377,0.0105 0.0234,0.002 0.0654,0.006 0.0933,0.008 0.0279,0.002 0.0736,0.007 0.10149,0.01 0.0279,0.003 0.0597,0.006 0.0707,0.006 0.0109,0 0.0438,0.002 0.073,0.006 0.0883,0.01 0.16176,0.0163 0.18251,0.0159 0.04,-0.002 0.0515,-0.0321 0.0295,-0.0807 -0.006,-0.0133 -0.0145,-0.0316 -0.0188,-0.0405 -0.009,-0.0192 -0.0179,-0.0392 -0.0407,-0.0914 -0.009,-0.0212 -0.0214,-0.0486 -0.0269,-0.0609 -0.0168,-0.037 -0.0208,-0.0456 -0.0332,-0.0732 l -0.0119,-0.0264 0.12638,-0.002 c 0.0695,-0.002 0.16564,-0.005 0.21365,-0.007 0.048,-0.002 0.12839,-0.005 0.17864,-0.006 0.19742,-0.005 0.34827,-0.0108 0.37031,-0.0149 0.0286,-0.005 0.0407,-0.0169 0.041,-0.0387 0,-0.016 -0.004,-0.0265 -0.0338,-0.0804 -0.0162,-0.0294 -0.0347,-0.0637 -0.0558,-0.10354 -0.0213,-0.0402 -0.0565,-0.10549 -0.0644,-0.11982 -0.005,-0.009 -0.0148,-0.0272 -0.0218,-0.0406 -0.007,-0.0134 -0.0196,-0.0372 -0.028,-0.0528 -0.008,-0.0156 -0.0248,-0.0459 -0.0363,-0.0674 l -0.021,-0.039 0.0275,-0.009 c 0.0151,-0.005 0.0494,-0.015 0.0762,-0.0231 0.0268,-0.008 0.056,-0.0171 0.065,-0.0203 0.009,-0.003 0.0299,-0.009 0.0466,-0.0141 0.0168,-0.005 0.0377,-0.0113 0.0467,-0.0142 0.009,-0.003 0.03,-0.01 0.0468,-0.0143 0.0168,-0.005 0.0396,-0.0117 0.0508,-0.0149 0.0111,-0.004 0.0276,-0.009 0.0365,-0.0112 0.009,-0.003 0.0299,-0.009 0.0467,-0.0142 0.0313,-0.009 0.1113,-0.0334 0.14007,-0.0426 0.009,-0.003 0.022,-0.007 0.029,-0.008 0.0139,-0.003 0.028,-0.016 0.0311,-0.0287 0.003,-0.0129 -0.001,-0.0317 -0.0102,-0.0411 -0.004,-0.005 -0.029,-0.0213 -0.0547,-0.0366 -0.0257,-0.0154 -0.0511,-0.0304 -0.0563,-0.0338 -0.005,-0.004 -0.0494,-0.0304 -0.0981,-0.0602 -0.0486,-0.0298 -0.12957,-0.0795 -0.17982,-0.11055 -0.0502,-0.031 -0.095,-0.0582 -0.0994,-0.0601 -0.007,-0.003 -0.007,-0.004 0.006,-0.008 0.008,-0.002 0.0243,-0.008 0.0366,-0.0129 0.0123,-0.005 0.0278,-0.0106 0.0345,-0.0129 0.007,-0.002 0.018,-0.007 0.025,-0.01 0.007,-0.003 0.0143,-0.006 0.0162,-0.006 0.002,0 0.0198,-0.006 0.04,-0.0145 0.0425,-0.0169 0.0562,-0.0221 0.0894,-0.0344 0.0134,-0.005 0.0279,-0.0105 0.0324,-0.0126 0.004,-0.002 0.0191,-0.007 0.0324,-0.0119 0.0134,-0.005 0.0399,-0.0146 0.0589,-0.0222 0.019,-0.007 0.0452,-0.0171 0.0583,-0.0215 0.0188,-0.006 0.0325,-0.0148 0.0404,-0.0251 -5e-5,1e-5 -1.6e-4,-2e-5 -2.1e-4,0 0.005,-0.002 0.007,-0.006 0.008,-0.0134 0.002,-0.0152 -0.004,-0.0328 -0.0167,-0.0434 -0.007,-0.005 -0.0342,-0.0266 -0.0615,-0.0466 -0.0783,-0.0575 -0.24924,-0.18437 -0.31945,-0.23693 -0.0454,-0.0339 -0.0455,-0.0341 -0.0365,-0.041 0.005,-0.004 0.0392,-0.0278 0.076,-0.0533 0.0368,-0.0255 0.0743,-0.0515 0.0833,-0.0577 0.009,-0.006 0.0364,-0.0249 0.0612,-0.0414 0.0248,-0.0165 0.0474,-0.033 0.0502,-0.0363 0.009,-0.0106 0.006,-0.0346 -0.005,-0.0457 -0.0117,-0.0117 -0.0534,-0.0232 -0.10667,-0.0294 -0.0201,-0.002 -0.0493,-0.006 -0.065,-0.009 -0.0663,-0.0103 -0.10899,-0.0166 -0.16442,-0.0243 -0.06,-0.008 -0.1043,-0.0149 -0.1767,-0.026 -0.0223,-0.004 -0.0552,-0.008 -0.0731,-0.0106 -0.0179,-0.002 -0.0398,-0.005 -0.0487,-0.007 l -0.0163,-0.003 0.0183,-0.009 c 0.01,-0.005 0.0282,-0.0125 0.0405,-0.0172 0.024,-0.01 0.0439,-0.0183 0.0623,-0.0273 0.006,-0.003 0.0137,-0.005 0.0165,-0.005 0.003,0 0.0102,-0.005 0.0164,-0.0119 0.015,-0.0157 0.0155,-0.0376 10e-4,-0.052 -0.009,-0.009 -0.0145,-0.0102 -0.0602,-0.0134 -0.12846,-0.009 -0.19653,-0.0125 -0.29995,-0.0163 -0.0614,-0.002 -0.11396,-0.004 -0.11669,-0.006 -0.003,-10e-4 -0.0599,-0.004 -0.12692,-0.006 -0.0671,-0.002 -0.12927,-0.005 -0.13823,-0.007 l -0.0163,-0.003 0.0309,-0.036 c 0.0318,-0.037 0.039,-0.0506 0.0355,-0.0687 -0.002,-0.0136 -0.0173,-0.0256 -0.0298,-0.0276 -0.0123,-6.1e-4 -0.0755,0.007 -0.12153,0.0146 -0.019,0.003 -0.0565,0.009 -0.0833,0.0123 -0.0268,0.004 -0.0651,0.009 -0.0852,0.0123 -0.0349,0.005 -0.10733,0.0159 -0.19491,0.0283 -0.0223,0.003 -0.0543,0.008 -0.0711,0.0104 -0.0168,0.002 -0.0477,0.007 -0.0689,0.01 -0.0514,0.007 -0.1212,0.0171 -0.22335,0.0326 -0.0234,0.004 -0.0554,0.008 -0.071,0.0102 -0.0156,0.002 -0.0422,0.005 -0.0589,0.008 -0.0921,0.014 -0.14978,0.0224 -0.21236,0.0307 -0.0809,0.0106 -0.0937,0.018 -0.11906,0.0688 -0.008,0.0156 -0.0289,0.0568 -0.047,0.0914 -0.0207,0.0397 -0.031,0.063 -0.0331,0.079 z m 0.24943,-7.98415 c 0,0.1831 0.0876,0.32374 0.21236,0.4007 h -0.18575 v 0.24942 h 1.32674 v -0.24942 h -0.72445 c -0.2627,0 -0.40058,-0.13802 -0.40058,-0.32377 0,-0.1884 0.13788,-0.32377 0.40058,-0.32377 h 0.72446 v -0.24942 h -0.76152 c -0.39538,0 -0.59183,0.23621 -0.59183,0.49626 z m 0.005,-2.86228 c 0,0.26004 0.16713,0.42731 0.36881,0.42731 0.4511,0.002 0.35555,-0.63159 0.61294,-0.63159 0.0876,0 0.14599,0.0823 0.14599,0.19372 0,0.12472 -0.0744,0.23882 -0.15396,0.32107 l 0.18575,0.15656 c 0.12206,-0.1088 0.20966,-0.30248 0.20966,-0.46965 0,-0.27598 -0.16446,-0.45914 -0.38205,-0.46179 -0.46172,0 -0.37424,0.63693 -0.61306,0.63428 -0.0796,0 -0.13263,-0.0717 -0.13263,-0.17249 0,-0.11145 0.077,-0.21766 0.13005,-0.27604 l -0.18316,-0.14588 c -0.0929,0.0822 -0.19099,0.23876 -0.18834,0.4245 z m 0.002,1.47068 c 0,0.36884 0.29989,0.62092 0.68201,0.62092 0.38211,0 0.6819,-0.25208 0.6819,-0.62092 0,-0.19902 -0.0955,-0.3555 -0.23876,-0.45898 h 0.10085 c 0.29454,0 0.43247,0.16982 0.43247,0.41394 0,0.15657 -0.0636,0.32634 -0.1671,0.47494 l 0.26268,0.002 c 0.0822,-0.14594 0.1406,-0.30257 0.1406,-0.50424 0,-0.31576 -0.19899,-0.63147 -0.60498,-0.63147 l -1.27103,0.002 v 0.24684 h 0.21494 c -0.14063,0.10083 -0.23358,0.25733 -0.23358,0.4537 z m 0,-4.5951 c 0,0.39007 0.31317,0.65012 0.68201,0.65012 0.37149,0 0.6846,-0.25472 0.6846,-0.67663 0,-0.18044 -0.0503,-0.33966 -0.13264,-0.45111 h -0.25203 c 0.0876,0.12737 0.1433,0.26273 0.1433,0.43786 0,0.2282 -0.13267,0.39268 -0.3423,0.43248 v -1.01364 c -0.41926,-0.0292 -0.78286,0.20697 -0.78286,0.62092 z m 0.0186,10.96839 1.33202,-0.58634 v -0.15924 l -1.33202,-0.58116 v 0.26806 l 0.96322,0.39272 -0.96322,0.39531 z m 0,-1.55214 h 1.32674 v -0.24942 h -1.32674 z m 0,-2.08858 h 1.32674 v -0.24943 h -1.32674 z m 0,-8.00989 1.33202,-0.58644 v -0.15925 l -1.33202,-0.58106 v 0.26796 l 0.96322,0.39272 -0.96322,0.39542 z m 0.22551,5.23487 c 0,-0.23881 0.20435,-0.41125 0.43786,-0.41125 0.23351,0 0.44045,0.17244 0.44045,0.41125 0,0.23883 -0.19632,0.40598 -0.44045,0.40598 -0.24147,0 -0.43786,-0.16715 -0.43786,-0.40598 z m 0.005,-4.54737 c 0,-0.19105 0.13275,-0.32638 0.32646,-0.36352 v 0.74826 c -0.19106,-0.0398 -0.32646,-0.18307 -0.32646,-0.38474 z m 0.57599,14.39728 c 0.10518,-0.0102 0.20693,-0.0158 0.32539,-0.018 -0.11846,0.002 -0.22024,0.008 -0.32539,0.018 z m 1.65546,0.18748 c 0.009,0.002 0.0157,0.004 0.0206,0.004 -0.005,-4.1e-4 -0.0123,-0.002 -0.0206,-0.004 z"
         id="path1176"
         inkscape:connector-curvature="0" />
      <path
         style="opacity:1;fill:#cccccc;fill-opacity:1;stroke:none;stroke-width:2.81725669;stroke-linecap:round;stroke-linejoin:round;stroke-miterlimit:4;stroke-dasharray:none;stroke-dashoffset:0;stroke-opacity:1"
         d="m 425.22765,257.75986 c 0.1669,0 0.30126,0.12375 0.30126,0.27747 v 23.73903 c 0,0.15372 -0.13436,0.27747 -0.30126,0.27747 -0.1669,0 -0.30126,-0.12375 -0.30126,-0.27747 v -23.73903 c 0,-0.15372 0.13436,-0.27747 0.30126,-0.27747 z"
         id="rect1178" />
      <g
         id="g1188"
         transform="matrix(1.0019254,0,0,1.0019254,84.251517,0.17472307)">
        <g
           aria-label="OKAY"
           style="font-style:normal;font-weight:normal;font-size:13.40555573px;line-height:125%;font-family:sans-serif;text-align:end;letter-spacing:0px;word-spacing:0px;text-anchor:end;fill:#c68e49;fill-opacity:1;stroke:none;stroke-width:0.47574165"
           id="text1182">
          <path
             d="m 348.90984,257.09013 q 0.9652,0 1.82315,0.38877 0.85796,0.38876 1.48802,1.05903 0.64346,0.65688 1.01882,1.55505 0.37536,0.88477 0.37536,1.87678 0,1.00541 -0.37536,1.89018 -0.37536,0.88477 -1.01882,1.55504 -0.64347,0.65688 -1.50142,1.04564 -0.85796,0.38876 -1.82316,0.38876 -0.9652,0 -1.82316,-0.38876 -0.85795,-0.38876 -1.50142,-1.04564 -0.63006,-0.67027 -1.00541,-1.55504 -0.36195,-0.88477 -0.36195,-1.89018 0,-0.99201 0.36195,-1.87678 0.37535,-0.89817 1.01882,-1.55505 0.64346,-0.67027 1.50142,-1.05903 0.85796,-0.38877 1.82316,-0.38877 z m 0,8.4321 q 0.68368,0 1.27352,-0.26811 0.60325,-0.28152 1.04564,-0.76412 0.44238,-0.4826 0.69709,-1.12607 0.2547,-0.65687 0.2547,-1.39417 0,-0.73731 -0.2547,-1.38078 -0.25471,-0.64346 -0.69709,-1.12606 -0.44239,-0.4826 -1.04564,-0.75071 -0.58984,-0.28152 -1.27352,-0.28152 -0.68369,0 -1.28694,0.28152 -0.58984,0.26811 -1.03223,0.75071 -0.44238,0.4826 -0.71049,1.12606 -0.25471,0.64347 -0.25471,1.38078 0,0.7373 0.25471,1.39417 0.26811,0.64347 0.71049,1.12607 0.44239,0.4826 1.03223,0.76412 0.60325,0.26811 1.28694,0.26811 z"
             style="font-style:normal;font-variant:normal;font-weight:normal;font-stretch:normal;font-size:13.40555573px;font-family:Kollektif;-inkscape-font-specification:Kollektif;fill:#c68e49;fill-opacity:1;stroke-width:0.47574165"
             id="path1229" />
          <path
             d="m 358.6098,261.63462 4.5713,5.10751 h -1.89019 l -3.60609,-4.18253 -1.50142,1.50142 v 2.66771 h -1.39418 v -9.50454 h 1.39418 v 5.10752 l 1.04563,-1.11266 3.95464,-3.99486 h 1.83656 z"
             style="font-style:normal;font-variant:normal;font-weight:normal;font-stretch:normal;font-size:13.40555573px;font-family:Kollektif;-inkscape-font-specification:Kollektif;fill:#c68e49;fill-opacity:1;stroke-width:0.47574165"
             id="path1231" />
          <path
             d="m 365.08762,266.72873 h -1.52824 l 3.95464,-9.50454 h 1.54164 l 3.95464,9.50454 h -1.51483 l -1.24671,-2.97603 h -3.92783 z m 1.76953,-4.26297 h 2.85539 l -1.42099,-3.43182 z"
             style="font-style:normal;font-variant:normal;font-weight:normal;font-stretch:normal;font-size:13.40555573px;font-family:Kollektif;-inkscape-font-specification:Kollektif;fill:#c68e49;fill-opacity:1;stroke-width:0.47574165"
             id="path1233" />
          <path
             d="m 376.70249,262.27808 -3.35139,-5.05389 h 1.67569 l 2.37279,3.56588 2.37278,-3.56588 h 1.6891 l -3.35139,5.05389 v 4.45065 h -1.40758 z"
             style="font-style:normal;font-variant:normal;font-weight:normal;font-stretch:normal;font-size:13.40555573px;font-family:Kollektif;-inkscape-font-specification:Kollektif;fill:#c68e49;fill-opacity:1;stroke-width:0.47574165"
             id="path1235" />
        </g>
        <g
           aria-label="ブーマー"
           style="font-style:normal;font-weight:normal;font-size:14.67484856px;line-height:125%;font-family:sans-serif;text-align:end;letter-spacing:0px;word-spacing:0px;text-anchor:end;fill:#9c6d41;fill-opacity:1;stroke:none;stroke-width:0.36687121"
           id="text1186">
          <path
             d="m 352.98512,269.16518 -1.09926,0.45579 c 0.25471,0.38876 0.52282,0.85796 0.75072,1.30034 -0.2413,0.0268 -0.4692,0.0268 -0.63007,0.0268 h -6.20677 c -0.44238,0 -1.2065,-0.0536 -1.59526,-0.10724 v 1.89018 c 0.34854,-0.0268 0.97861,-0.0536 1.59526,-0.0536 h 6.23359 c -0.17428,1.15287 -0.68369,2.6677 -1.56845,3.78036 -1.08585,1.36737 -2.60068,2.53365 -5.25498,3.15031 l 1.4612,1.60867 c 2.3996,-0.77753 4.18254,-2.10468 5.38904,-3.71334 1.12606,-1.48802 1.7025,-3.56588 2.02424,-4.87963 0.067,-0.28151 0.16086,-0.67027 0.29492,-0.92498 l -0.85796,-0.56303 0.49601,-0.20109 c -0.2413,-0.4826 -0.68369,-1.26012 -1.03223,-1.76953 z m 1.87678,-0.33514 -1.11266,0.44239 c 0.36195,0.496 0.77752,1.26012 1.07244,1.80975 l 1.11266,-0.4826 c -0.2547,-0.4692 -0.7373,-1.28694 -1.07244,-1.76954 z"
             style="font-style:normal;font-variant:normal;font-weight:bold;font-stretch:normal;font-size:13.40555573px;font-family:Acre;-inkscape-font-specification:Acre;fill:#9c6d41;fill-opacity:1;stroke-width:0.36687121"
             id="path1238" />
          <path
             d="m 357.44917,274.25929 v 2.10467 c 0.49601,-0.0402 1.39418,-0.067 2.15829,-0.067 h 7.19879 c 0.56303,0 1.24671,0.0536 1.56845,0.067 v -2.10467 c -0.34855,0.0268 -0.93839,0.0804 -1.56845,0.0804 h -7.19879 c -0.69708,0 -1.67569,-0.0402 -2.15829,-0.0804 z"
             style="font-style:normal;font-variant:normal;font-weight:bold;font-stretch:normal;font-size:13.40555573px;font-family:Acre;-inkscape-font-specification:Acre;fill:#9c6d41;fill-opacity:1;stroke-width:0.36687121"
             id="path1240" />
          <path
             d="m 382.39691,272.02056 -1.34056,-1.09925 c -0.28151,0.0938 -0.7373,0.14746 -1.24671,0.14746 h -7.44009 c -0.45579,0 -1.19309,-0.067 -1.54164,-0.12065 v 1.87678 c 0.28152,-0.0268 1.00542,-0.0938 1.54164,-0.0938 h 7.09154 c -0.63006,1.09925 -1.89018,2.6543 -3.40501,3.8608 -0.84455,-0.73731 -1.72932,-1.46121 -2.26554,-1.86337 l -1.42099,1.13947 c 0.80434,0.57644 2.1717,1.78294 2.94923,2.57387 0.87136,0.88476 1.99742,2.14488 2.56046,2.8956 l 1.56845,-1.24672 c -0.52282,-0.63006 -1.31375,-1.50142 -2.07786,-2.26554 1.89018,-1.52823 3.60609,-3.67312 4.57129,-5.24157 0.10724,-0.17427 0.26811,-0.34855 0.45579,-0.56304 z"
             style="font-style:normal;font-variant:normal;font-weight:bold;font-stretch:normal;font-size:13.40555573px;font-family:Acre;-inkscape-font-specification:Acre;fill:#9c6d41;fill-opacity:1;stroke-width:0.36687121"
             id="path1242" />
          <path
             d="m 384.26028,274.25929 v 2.10467 c 0.49601,-0.0402 1.39418,-0.067 2.1583,-0.067 h 7.19878 c 0.56303,0 1.24672,0.0536 1.56845,0.067 v -2.10467 c -0.34855,0.0268 -0.93839,0.0804 -1.56845,0.0804 h -7.19878 c -0.69709,0 -1.6757,-0.0402 -2.1583,-0.0804 z"
             style="font-style:normal;font-variant:normal;font-weight:bold;font-stretch:normal;font-size:13.40555573px;font-family:Acre;-inkscape-font-specification:Acre;fill:#9c6d41;fill-opacity:1;stroke-width:0.36687121"
             id="path1244" />
        </g>
      </g>
      <g
         id="g1202"
         transform="matrix(1.0019254,0,0,1.0019254,85.02874,-1.6664704)">
        <g
           aria-label="okay, boomer"
           style="font-style:normal;font-weight:normal;font-size:3.36705565px;line-height:125%;font-family:sans-serif;text-align:end;letter-spacing:0px;word-spacing:0px;text-anchor:end;fill:#000000;fill-opacity:1;stroke:none;stroke-width:0.08417639"
           id="text1192">
          <path
             d="m 344.28734,287.97985 c 0.50843,0 0.8586,-0.40068 0.8586,-0.8687 0,-0.46802 -0.35017,-0.8687 -0.8586,-0.8687 -0.50842,0 -0.85859,0.40068 -0.85859,0.8687 0,0.46802 0.35017,0.8687 0.85859,0.8687 z m 0,-0.31651 c -0.3165,0 -0.53536,-0.25589 -0.53536,-0.55556 0,-0.2963 0.21886,-0.54883 0.53536,-0.54883 0.32324,0 0.532,0.25253 0.532,0.54883 0,0.29967 -0.20876,0.55556 -0.532,0.55556 z"
             style="font-style:normal;font-variant:normal;font-weight:normal;font-stretch:normal;font-family:Acre;-inkscape-font-specification:Acre;stroke-width:0.08417639"
             id="path1247" />
          <path
             d="m 346.97999,287.95291 -0.79799,-0.83166 0.75085,-0.85187 h -0.38721 l -0.69025,0.798 v -1.80811 h -0.3165 v 2.69364 h 0.3165 v -0.77442 l 0.71382,0.77442 z"
             style="font-style:normal;font-variant:normal;font-weight:normal;font-stretch:normal;font-family:Acre;-inkscape-font-specification:Acre;stroke-width:0.08417639"
             id="path1249" />
          <path
             d="m 348.41593,286.26938 v 0.26937 c -0.13131,-0.17509 -0.3266,-0.29294 -0.57576,-0.29294 -0.46802,0 -0.78789,0.38048 -0.78789,0.86534 0,0.48485 0.31987,0.86533 0.78789,0.86533 0.24916,0 0.44445,-0.11785 0.57576,-0.29293 v 0.26936 h 0.31651 v -1.68353 z m -0.52189,1.4007 c -0.30303,0 -0.51516,-0.24916 -0.51516,-0.55893 0,-0.3064 0.21213,-0.55557 0.51516,-0.55557 0.30304,0 0.52189,0.25927 0.52189,0.55557 0,0.2963 -0.21885,0.55893 -0.52189,0.55893 z"
             style="font-style:normal;font-variant:normal;font-weight:normal;font-stretch:normal;font-family:Acre;-inkscape-font-specification:Acre;stroke-width:0.08417639"
             id="path1251" />
          <path
             d="m 350.38293,286.26938 -0.5118,1.31316 -0.51516,-1.31316 h -0.34344 l 0.70035,1.67006 -0.2963,0.68688 h 0.32324 l 0.98655,-2.35694 z"
             style="font-style:normal;font-variant:normal;font-weight:normal;font-stretch:normal;font-family:Acre;-inkscape-font-specification:Acre;stroke-width:0.08417639"
             id="path1253" />
          <path
             d="m 350.52313,288.31319 h 0.22223 l 0.19865,-0.86534 h -0.3266 z"
             style="font-style:normal;font-variant:normal;font-weight:normal;font-stretch:normal;font-family:Acre;-inkscape-font-specification:Acre;stroke-width:0.08417639"
             id="path1255" />
          <path
             d="m 353.30016,286.24581 c -0.24916,0 -0.44781,0.12122 -0.57913,0.29631 v -1.28285 h -0.3165 v 2.69364 h 0.3165 v -0.2761 c 0.13132,0.17846 0.32997,0.29967 0.57913,0.29967 0.46802,0 0.78789,-0.38048 0.78789,-0.86533 0,-0.48486 -0.31987,-0.86534 -0.78789,-0.86534 z m -0.0539,1.4209 c -0.30303,0 -0.52189,-0.25926 -0.52189,-0.55556 0,-0.2963 0.21886,-0.55893 0.52189,-0.55893 0.30304,0 0.51516,0.24916 0.51516,0.55893 0,0.3064 -0.21212,0.55556 -0.51516,0.55556 z"
             style="font-style:normal;font-variant:normal;font-weight:normal;font-stretch:normal;font-family:Acre;-inkscape-font-specification:Acre;stroke-width:0.08417639"
             id="path1257" />
          <path
             d="m 355.23685,287.97985 c 0.50843,0 0.8586,-0.40068 0.8586,-0.8687 0,-0.46802 -0.35017,-0.8687 -0.8586,-0.8687 -0.50842,0 -0.8586,0.40068 -0.8586,0.8687 0,0.46802 0.35018,0.8687 0.8586,0.8687 z m 0,-0.31651 c -0.3165,0 -0.53536,-0.25589 -0.53536,-0.55556 0,-0.2963 0.21886,-0.54883 0.53536,-0.54883 0.32324,0 0.532,0.25253 0.532,0.54883 0,0.29967 -0.20876,0.55556 -0.532,0.55556 z"
             style="font-style:normal;font-variant:normal;font-weight:normal;font-stretch:normal;font-family:Acre;-inkscape-font-specification:Acre;stroke-width:0.08417639"
             id="path1259" />
          <path
             d="m 357.24262,287.97985 c 0.50842,0 0.8586,-0.40068 0.8586,-0.8687 0,-0.46802 -0.35018,-0.8687 -0.8586,-0.8687 -0.50843,0 -0.8586,0.40068 -0.8586,0.8687 0,0.46802 0.35017,0.8687 0.8586,0.8687 z m 0,-0.31651 c -0.31651,0 -0.53536,-0.25589 -0.53536,-0.55556 0,-0.2963 0.21885,-0.54883 0.53536,-0.54883 0.32323,0 0.53199,0.25253 0.53199,0.54883 0,0.29967 -0.20876,0.55556 -0.53199,0.55556 z"
             style="font-style:normal;font-variant:normal;font-weight:normal;font-stretch:normal;font-family:Acre;-inkscape-font-specification:Acre;stroke-width:0.08417639"
             id="path1261" />
          <path
             d="m 360.39992,286.23571 c -0.27274,0 -0.46129,0.15489 -0.56567,0.34008 -0.10774,-0.2256 -0.31314,-0.34008 -0.53199,-0.34008 -0.22896,0 -0.39732,0.11448 -0.49159,0.26263 v -0.22896 h -0.31651 v 1.68353 h 0.31651 v -0.92594 l 0.003,0.0101 c 0,-0.31313 0.15152,-0.50842 0.39058,-0.50842 0.23906,0 0.39395,0.19529 0.39395,0.49832 v 0.92594 h 0.3165 v -0.91584 c 0,-0.31313 0.15152,-0.50842 0.39395,-0.50842 0.23906,0 0.39057,0.19529 0.39057,0.49832 v 0.92594 h 0.31651 l 0.003,-0.97981 c 0,-0.48822 -0.27273,-0.73739 -0.61953,-0.73739 z"
             style="font-style:normal;font-variant:normal;font-weight:normal;font-stretch:normal;font-family:Acre;-inkscape-font-specification:Acre;stroke-width:0.08417639"
             id="path1263" />
          <path
             d="m 362.19377,286.24581 c -0.49496,0 -0.82493,0.39732 -0.82493,0.86534 0,0.47139 0.32324,0.8687 0.8586,0.8687 0.22896,0 0.43098,-0.064 0.5724,-0.16835 v -0.31988 c -0.16162,0.11112 -0.33334,0.18183 -0.55557,0.18183 -0.28956,0 -0.49832,-0.16836 -0.54883,-0.43435 h 1.28622 c 0.037,-0.532 -0.26263,-0.99329 -0.78789,-0.99329 z m -0.007,0.31651 c 0.24243,0 0.41415,0.16835 0.46129,0.41415 h -0.94951 c 0.0505,-0.24243 0.23233,-0.41415 0.48822,-0.41415 z"
             style="font-style:normal;font-variant:normal;font-weight:normal;font-stretch:normal;font-family:Acre;-inkscape-font-specification:Acre;stroke-width:0.08417639"
             id="path1265" />
          <path
             d="m 363.68369,286.55895 v -0.28957 h -0.3165 v 1.68353 h 0.3165 v -0.90574 l 0.003,0.0135 c 0,-0.36364 0.24579,-0.49159 0.48485,-0.45118 v -0.37375 c -0.22559,0 -0.39731,0.15152 -0.48822,0.32324 z"
             style="font-style:normal;font-variant:normal;font-weight:normal;font-stretch:normal;font-family:Acre;-inkscape-font-specification:Acre;stroke-width:0.08417639"
             id="path1267" />
        </g>
        <path
           sodipodi:nodetypes="ccccc"
           inkscape:connector-curvature="0"
           id="path1194"
           d="m 366.79399,286.23574 h 2.24953 l 1.02453,1.7172 h -2.24953 z"
           style="opacity:1;fill:#000000;fill-opacity:1;stroke:none;stroke-width:2.76956129;stroke-linecap:round;stroke-linejoin:round;stroke-miterlimit:4;stroke-dasharray:none;stroke-dashoffset:0;stroke-opacity:1" />
        <path
           style="opacity:1;fill:#000000;fill-opacity:1;stroke:none;stroke-width:2.76956129;stroke-linecap:round;stroke-linejoin:round;stroke-miterlimit:4;stroke-dasharray:none;stroke-dashoffset:0;stroke-opacity:1"
           d="m 370.5519,286.23574 h 2.24953 l 1.02453,1.7172 h -2.24953 z"
           id="path1196"
           inkscape:connector-curvature="0"
           sodipodi:nodetypes="ccccc" />
        <path
           sodipodi:nodetypes="ccccc"
           inkscape:connector-curvature="0"
           id="path1198"
           d="m 374.30981,286.23574 h 2.24953 l 1.02453,1.7172 h -2.24953 z"
           style="opacity:1;fill:#000000;fill-opacity:1;stroke:none;stroke-width:2.76956129;stroke-linecap:round;stroke-linejoin:round;stroke-miterlimit:4;stroke-dasharray:none;stroke-dashoffset:0;stroke-opacity:1" />
        <path
           style="opacity:1;fill:#000000;fill-opacity:1;stroke:none;stroke-width:2.76956129;stroke-linecap:round;stroke-linejoin:round;stroke-miterlimit:4;stroke-dasharray:none;stroke-dashoffset:0;stroke-opacity:1"
           d="m 378.06772,286.23574 h 2.24953 l 1.02453,1.7172 h -2.24953 z"
           id="path1200"
           inkscape:connector-curvature="0"
           sodipodi:nodetypes="ccccc" />
      </g>
    </g>
  </g>
</svg>
