<?xml version="1.0" encoding="UTF-8" standalone="no"?>
<!-- Created with Inkscape (http://www.inkscape.org/) -->

<svg
   xmlns:dc="http://purl.org/dc/elements/1.1/"
   xmlns:cc="http://creativecommons.org/ns#"
   xmlns:rdf="http://www.w3.org/1999/02/22-rdf-syntax-ns#"
   xmlns:svg="http://www.w3.org/2000/svg"
   xmlns="http://www.w3.org/2000/svg"
   xmlns:sodipodi="http://sodipodi.sourceforge.net/DTD/sodipodi-0.dtd"
   xmlns:inkscape="http://www.inkscape.org/namespaces/inkscape"
   width="57.700466mm"
   height="66.340218mm"
   viewBox="0 0 57.700466 66.340218"
   version="1.1"
   id="svg1707"
   inkscape:version="0.92.4 (5da689c313, 2019-01-14)"
   sodipodi:docname="thonk.svg">
  <defs
     id="defs1701" />
  <sodipodi:namedview
     id="base"
     pagecolor="#ffffff"
     bordercolor="#666666"
     borderopacity="1.0"
     inkscape:pageopacity="0.0"
     inkscape:pageshadow="2"
     inkscape:zoom="0.98994949"
     inkscape:cx="123.29053"
     inkscape:cy="269.54725"
     inkscape:document-units="mm"
     inkscape:current-layer="layer1"
     showgrid="false"
     fit-margin-top="0"
     fit-margin-left="0"
     fit-margin-right="0"
     fit-margin-bottom="0"
     inkscape:window-width="1920"
     inkscape:window-height="1016"
     inkscape:window-x="1680"
     inkscape:window-y="27"
     inkscape:window-maximized="1" />
  <metadata
     id="metadata1704">
    <rdf:RDF>
      <cc:Work
         rdf:about="">
        <dc:format>image/svg+xml</dc:format>
        <dc:type
           rdf:resource="http://purl.org/dc/dcmitype/StillImage" />
        <dc:title></dc:title>
      </cc:Work>
    </rdf:RDF>
  </metadata>
  <g
     inkscape:label="Layer 1"
     inkscape:groupmode="layer"
     id="layer1"
     transform="translate(183.06452,-108.85965)">
    <g
       id="g5304"
       transform="translate(-124.17914,-59.532357)">
      <path
         sodipodi:type="star"
         style="opacity:1;fill:#ffffff;fill-opacity:1;stroke:#c69249;stroke-width:1.85208333;stroke-linecap:round;stroke-linejoin:round;stroke-miterlimit:4;stroke-dasharray:none;stroke-dashoffset:0;stroke-opacity:1"
         id="path10734"
         sodipodi:sides="6"
         sodipodi:cx="-30.035149"
         sodipodi:cy="201.56212"
         sodipodi:r1="32.24408"
         sodipodi:r2="27.924192"
         sodipodi:arg1="0.52359878"
         sodipodi:arg2="1.0471976"
         inkscape:flatsided="true"
         inkscape:rounded="0"
         inkscape:randomized="0"
         d="m -2.1109566,217.68416 -27.9241924,16.12204 -27.924192,-16.12204 0,-32.24408 27.924193,-16.12204 27.9241915,16.12204 z"
         inkscape:transform-center-x="1.196588e-06"
         inkscape:transform-center-y="1.1444469e-06" />
      <path
         inkscape:connector-curvature="0"
         id="path10736"
         d="m -28.413499,174.71972 c -0.0169,0 -0.0272,0.005 -0.0388,0.0163 l -0.0161,0.0163 -0.005,0.25602 c -0.003,0.25168 -0.008,0.31971 -0.03,0.41561 -0.006,0.0319 -0.0312,0.10938 -0.0396,0.12677 -0.0348,0.0727 -0.0499,0.0976 -0.0899,0.1495 -0.0209,0.0272 -0.062,0.0715 -0.0912,0.0984 -0.0545,0.0501 -0.061,0.0602 -0.0602,0.0902 4.2e-4,0.0171 0.0269,0.0514 0.0396,0.0515 0.0388,2.2e-4 0.0913,0.0393 0.11453,0.085 0.0145,0.0298 0.0382,0.0954 0.0382,0.10874 0,0.01 0.0306,0.0375 0.0448,0.0401 v 1.3e-4 c 0.0161,0.005 0.0574,-0.006 0.0686,-0.0166 0.005,-0.005 0.0161,-0.0113 0.0238,-0.0145 0.038,-0.0163 0.11969,-0.0801 0.17383,-0.1358 0.0962,-0.0989 0.1366,-0.17436 0.16997,-0.31778 0.0145,-0.0632 0.0161,-0.0749 0.0129,-0.16726 -0.003,-0.0941 -0.008,-0.14031 -0.0322,-0.23364 -0.01,-0.0401 -0.052,-0.17279 -0.0615,-0.19402 -0.003,-0.006 -0.0161,-0.0375 -0.0292,-0.0686 -0.0129,-0.0311 -0.0385,-0.0851 -0.0564,-0.11937 -0.0859,-0.16537 -0.10133,-0.18638 -0.13774,-0.18638 z m -4.35915,0.29294 c -0.0113,0 -0.0222,0.005 -0.0309,0.0129 -0.0197,0.0184 -0.0237,0.0514 -0.0129,0.10293 0.005,0.0238 0.0129,0.0622 0.0161,0.0852 0.0145,0.0983 0.0343,0.21442 0.0448,0.27168 0.005,0.0246 0.0145,0.077 0.0208,0.11646 0.0197,0.11164 0.0283,0.15207 0.0607,0.28611 0.0311,0.12887 0.0854,0.30322 0.10632,0.34243 0.003,0.005 0.0169,0.0345 0.0309,0.0641 0.0324,0.0686 0.0519,0.10068 0.10149,0.1675 0.0631,0.0849 0.16416,0.17591 0.24122,0.21746 0.0129,0.006 0.0279,0.0145 0.0329,0.0184 0.0113,0.008 0.0639,0.0298 0.069,0.0298 0.002,0 0.0129,0.005 0.0229,0.008 0.0457,0.0205 0.18153,0.0503 0.26369,0.0575 0.0667,0.005 0.30886,0 0.36129,-0.006 0.0214,-0.005 0.067,-0.01 0.10149,-0.0145 0.12693,-0.0175 0.1689,-0.0272 0.19846,-0.0459 0.0298,-0.0192 0.0681,-0.0609 0.0839,-0.092 0.0145,-0.0269 0.034,-0.11099 0.034,-0.14095 -7e-5,-0.0337 -0.0205,-0.11808 -0.0356,-0.14788 -0.0145,-0.029 -0.0736,-0.0931 -0.10197,-0.11099 -0.0416,-0.0264 -0.1031,-0.0392 -0.19987,-0.0422 -0.21429,-0.006 -0.44249,-0.0433 -0.56137,-0.0905 -0.13065,-0.0519 -0.23173,-0.11727 -0.31712,-0.20561 -0.0401,-0.0414 -0.10986,-0.12597 -0.10986,-0.13322 0,0 -0.008,-0.0163 -0.0203,-0.0316 -0.058,-0.0809 -0.1634,-0.28015 -0.24554,-0.46432 -0.005,-0.01 -0.0179,-0.0396 -0.0298,-0.0659 -0.0113,-0.0264 -0.0259,-0.0572 -0.0309,-0.0686 -0.005,-0.0113 -0.0145,-0.0316 -0.0198,-0.0448 -0.005,-0.0129 -0.0129,-0.0295 -0.0145,-0.0362 -0.008,-0.0256 -0.034,-0.0404 -0.0591,-0.0391 z m 2.41178,0.29942 c -4.3e-4,0 -10e-4,8e-5 -0.002,8e-5 -1.6e-4,0 -4.3e-4,0 -8.5e-4,0 -4.3e-4,0 -0.002,2.1e-4 -0.003,4.2e-4 -0.082,0 -0.22478,0.0225 -0.35503,0.054 -0.0411,0.01 -0.086,0.0205 -0.0997,0.0235 -0.0288,0.006 -0.0818,0.0222 -0.10342,0.0311 -0.008,0.005 -0.0391,0.0129 -0.0686,0.023 -0.0295,0.008 -0.0686,0.0225 -0.0867,0.0298 -0.018,0.006 -0.0427,0.0163 -0.0546,0.0187 -0.0532,0.0145 -0.0776,0.0723 -0.0445,0.10552 l 0.0161,0.0163 h 0.13274 c 0.14659,0 0.27008,0.008 0.35676,0.0238 0.0812,0.0129 0.18683,0.0422 0.22092,0.0601 0.008,0.005 0.0176,0.008 0.0206,0.008 0.0129,3e-5 0.10052,0.0467 0.15545,0.083 0.0656,0.0433 0.17459,0.14466 0.23042,0.21413 0.047,0.0585 0.12839,0.17711 0.17158,0.25027 0.0398,0.0673 0.0788,0.13757 0.0788,0.14176 0,0 -0.0145,0.005 -0.0312,0.008 -0.0823,0.0163 -0.24629,0.0517 -0.29715,0.0648 -0.0312,0.008 -0.0728,0.0184 -0.0926,0.023 -0.0678,0.0166 -0.26924,0.0797 -0.30546,0.0957 -0.01,0.005 -0.0219,0.008 -0.0256,0.008 -0.003,0 -0.0182,0.005 -0.0321,0.0113 -0.0145,0.005 -0.0372,0.0163 -0.0519,0.0217 -0.0145,0.005 -0.0356,0.0145 -0.0464,0.0189 -0.0113,0.005 -0.0221,0.008 -0.0253,0.008 -0.003,0 -0.0266,0.01 -0.052,0.0213 -0.0255,0.0113 -0.0543,0.0251 -0.0643,0.029 -0.01,0.005 -0.0474,0.0217 -0.0836,0.0388 -0.0908,0.0427 -0.154,0.0749 -0.29565,0.1511 -0.0285,0.0161 -0.1047,0.0598 -0.17827,0.10406 -0.0113,0.008 -0.0259,0.0145 -0.0308,0.0176 -0.005,0 -0.0197,0.0113 -0.0329,0.0197 -0.0129,0.008 -0.0293,0.0184 -0.0358,0.0217 -0.0192,0.0113 -0.10842,0.0651 -0.13145,0.0802 -0.008,0.005 -0.0356,0.0225 -0.0625,0.0388 -0.0269,0.0166 -0.0551,0.0337 -0.0627,0.0388 -0.008,0.005 -0.0282,0.0179 -0.0457,0.029 -0.0176,0.0113 -0.0548,0.0342 -0.0826,0.0519 -0.0279,0.0176 -0.0651,0.0409 -0.0826,0.0519 -0.0176,0.0113 -0.0382,0.0238 -0.0457,0.029 -0.008,0.005 -0.035,0.0217 -0.0607,0.037 -0.0651,0.0388 -0.0872,0.0628 -0.0872,0.0941 0,0.0129 0.005,0.029 0.008,0.035 0.008,0.01 0.0843,0.11631 0.17557,0.24814 0.0577,0.0833 0.0662,0.093 0.0873,0.0986 0.0308,0.008 0.0366,0.005 0.15336,-0.0699 0.008,-0.005 0.0193,-0.0129 0.0248,-0.0163 0.018,-0.0113 0.0735,-0.0453 0.0825,-0.0509 0.005,-0.005 0.0493,-0.0285 0.0986,-0.0567 0.0493,-0.0282 0.0936,-0.0538 0.0984,-0.0569 0.0221,-0.0145 0.25036,-0.12952 0.32261,-0.16307 0.0343,-0.0163 0.0815,-0.038 0.10439,-0.049 0.023,-0.0113 0.0672,-0.0295 0.0984,-0.0417 0.0498,-0.0192 0.0751,-0.0298 0.12242,-0.0507 0.006,-0.005 0.0348,-0.0129 0.0627,-0.0226 0.10213,-0.0345 0.14643,-0.0496 0.15819,-0.0548 0.006,-0.005 0.0375,-0.0129 0.0686,-0.0209 0.0312,-0.008 0.062,-0.0179 0.0686,-0.0209 0.0145,-0.006 0.0308,-0.01 0.19718,-0.0511 0.0723,-0.0174 0.16093,-0.0379 0.19706,-0.045 0.0361,-0.006 0.081,-0.0166 0.0999,-0.0213 0.0188,-0.005 0.0441,-0.008 0.0561,-0.008 0.0113,0 0.0424,-0.005 0.0672,-0.008 0.0933,-0.0176 0.19891,-0.0298 0.37685,-0.0446 0.0161,0 0.0399,-0.005 0.0615,-0.005 l -0.005,-0.10052 0.005,0.10084 0.0572,-0.005 c 0.0316,0 0.0976,-0.006 0.14691,-0.01 0.0533,-0.005 0.26799,-0.005 0.53006,-0.005 h 0.44064 l 0.0145,-0.0145 c 0.0207,-0.0209 0.025,-0.0635 0.0129,-0.13596 -0.01,-0.0614 -0.0182,-0.11663 -0.0311,-0.21294 -0.0275,-0.20663 -0.0292,-0.21362 -0.0538,-0.23519 -0.0234,-0.0205 -0.0274,-0.0213 -0.17914,-0.0298 -0.19812,-0.0113 -0.30378,-0.0187 -0.40902,-0.0277 -0.0574,-0.005 -0.12517,-0.008 -0.15046,-0.008 -0.0459,3e-5 -0.18294,-0.01 -0.21681,-0.0145 -0.0129,0 -0.0203,-0.008 -0.0279,-0.0251 -0.0343,-0.0767 -0.0451,-0.0997 -0.0707,-0.15078 -0.0161,-0.0311 -0.0382,-0.0741 -0.0499,-0.0955 -0.0113,-0.0213 -0.025,-0.0456 -0.0292,-0.0538 -0.005,-0.008 -0.0145,-0.0264 -0.024,-0.0401 -0.008,-0.0145 -0.0163,-0.0264 -0.0163,-0.0285 0,0 -0.008,-0.0163 -0.0194,-0.0319 -0.0113,-0.0163 -0.0221,-0.0332 -0.0253,-0.0383 -0.0617,-0.10181 -0.21852,-0.27686 -0.3168,-0.35393 -0.0573,-0.0449 -0.12968,-0.0907 -0.17894,-0.11276 -0.0197,-0.008 -0.0398,-0.0184 -0.0446,-0.0209 -0.005,0 -0.0332,-0.0113 -0.0627,-0.0209 -0.0295,-0.008 -0.0619,-0.0187 -0.0717,-0.0222 -0.0129,-0.005 -0.0554,-0.0113 -0.10213,-0.0163 -1.8e-4,-4e-5 -4.2e-4,-8e-5 -4.3e-4,-8e-5 -0.0161,0 -0.0295,-0.005 -0.0451,-0.005 -0.0145,0 -0.0266,-0.005 -0.039,-0.005 -0.006,0 -0.0113,0 -0.0172,0 -0.0129,0 -0.0279,0 -0.035,0 z m -0.17622,0.0251 c 5e-5,0.005 0.0263,0.0171 0.0582,0.0285 0.0633,0.0226 0.17564,0.0773 0.26282,0.12629 0.029,0.0163 0.0554,0.0319 0.076,0.0454 0.0196,0.0129 0.0446,0.0306 0.069,0.048 0.0243,0.0174 0.048,0.0354 0.0654,0.049 0.0399,0.0316 0.0942,0.0818 0.14627,0.13371 -0.052,-0.0519 -0.10632,-0.10197 -0.14627,-0.13354 -0.0172,-0.0129 -0.0411,-0.0316 -0.0654,-0.0491 -0.0243,-0.0175 -0.0493,-0.035 -0.069,-0.0478 -0.0208,-0.0129 -0.0469,-0.0295 -0.076,-0.0456 -0.0872,-0.0488 -0.19951,-0.10342 -0.26282,-0.12613 -0.0319,-0.0113 -0.0582,-0.0243 -0.0582,-0.0285 0,0 0,-8e-5 0,-8e-5 z m -2.65234,0.83908 c -0.0765,0 -0.16662,0.0205 -0.24252,0.0556 -0.0702,0.0324 -0.13032,0.076 -0.19091,0.13902 -0.0897,0.093 -0.13757,0.17757 -0.17103,0.30224 l -0.0185,0.0691 -0.003,0.62411 c -0.003,0.58288 -0.005,0.62615 -0.0145,0.65684 -0.0243,0.0731 -0.064,0.13064 -0.11775,0.17014 -0.0451,0.0332 -0.0865,0.0487 -0.16061,0.0598 -0.12629,0.0192 -0.17309,0.0541 -0.19166,0.14417 -0.0129,0.0661 0.01,0.13612 0.0591,0.17351 0.03,0.023 0.0656,0.0341 0.14498,0.0456 0.078,0.0113 0.12774,0.0354 0.17934,0.0872 0.0404,0.0401 0.0665,0.0836 0.0865,0.14369 0.01,0.0306 0.0113,0.073 0.0145,0.65389 l 0.003,0.62109 0.0169,0.0627 c 0.0362,0.13402 0.0933,0.23364 0.18841,0.32878 0.10487,0.10487 0.22136,0.15916 0.37058,0.17257 0.15143,0.0129 0.2355,-0.0316 0.25797,-0.13869 0.0129,-0.063 -0.0177,-0.13838 -0.0691,-0.1681 -0.0303,-0.0174 -0.0594,-0.0256 -0.13419,-0.0362 -0.0818,-0.0129 -0.14111,-0.0422 -0.19369,-0.0978 -0.0395,-0.0417 -0.0685,-0.0923 -0.0828,-0.14401 -0.005,-0.02 -0.008,-0.18557 -0.0113,-0.65073 -0.005,-0.66218 -0.003,-0.63639 -0.0318,-0.73212 -0.028,-0.0929 -0.0668,-0.15577 -0.14369,-0.23258 l -0.0546,-0.0546 0.0432,-0.0401 c 0.0709,-0.0661 0.12871,-0.15191 0.15335,-0.22764 0.0306,-0.0945 0.0295,-0.0693 0.0333,-0.7434 0.003,-0.58566 0.005,-0.63233 0.0145,-0.66285 0.0351,-0.1068 0.10761,-0.18289 0.20776,-0.21826 0.0129,-0.005 0.0448,-0.0113 0.072,-0.0145 0.10664,-0.0145 0.14981,-0.0379 0.18076,-0.0983 0.0438,-0.0854 0.008,-0.19304 -0.078,-0.23076 -0.03,-0.0129 -0.071,-0.0192 -0.11679,-0.0187 z m 6.26223,4.3e-4 c -0.077,0 -0.11679,0.01 -0.15448,0.0437 -0.0358,0.0316 -0.0523,0.0639 -0.0561,0.11002 -0.005,0.0546 0.01,0.0978 0.0449,0.13386 0.0327,0.0337 0.0596,0.0435 0.15657,0.0572 0.13226,0.0187 0.22034,0.0878 0.26812,0.21069 l 0.0161,0.0401 0.003,0.62398 c 0.003,0.60637 0.005,0.62563 0.0161,0.67942 0.0327,0.14418 0.0749,0.22124 0.17277,0.31506 l 0.0437,0.0417 -0.0511,0.0508 c -0.0578,0.0572 -0.11438,0.13708 -0.13387,0.18886 -0.0188,0.0504 -0.035,0.12258 -0.0417,0.18744 -0.003,0.0332 -0.005,0.29099 -0.006,0.6268 -2.1e-4,0.63386 8.5e-4,0.6097 -0.0404,0.68915 -0.0498,0.095 -0.1329,0.15158 -0.24693,0.16776 -0.1052,0.0145 -0.14289,0.0306 -0.16995,0.0694 -0.0496,0.0717 -0.0414,0.17048 0.019,0.2261 0.0316,0.029 0.0564,0.0404 0.10293,0.0475 0.0187,0.005 0.0446,0.005 0.0577,0.005 0.0802,-0.006 0.10213,-0.01 0.1511,-0.0235 0.19296,-0.0515 0.36769,-0.21958 0.43407,-0.4173 0.0366,-0.1089 0.0345,-0.0707 0.0388,-0.7472 0.003,-0.45345 0.005,-0.62804 0.0113,-0.64679 0.0145,-0.0503 0.0456,-0.10519 0.0839,-0.14594 0.0504,-0.0535 0.11212,-0.0849 0.18583,-0.0942 0.14418,-0.0184 0.20183,-0.0648 0.20775,-0.16711 0.006,-0.10729 -0.0438,-0.16585 -0.15997,-0.18767 -0.10052,-0.0187 -0.11163,-0.0217 -0.14884,-0.0396 -0.0483,-0.023 -0.11164,-0.0852 -0.13644,-0.13419 -0.0427,-0.0844 -0.0395,-0.0342 -0.0432,-0.72248 l -0.003,-0.62113 -0.0168,-0.062 c -0.0224,-0.0826 -0.0488,-0.14369 -0.0884,-0.20463 -0.12855,-0.19728 -0.29915,-0.29613 -0.51538,-0.29877 z m -1.44624,1.05547 c -0.0145,-2.1e-4 -0.0243,0.005 -0.0341,0.0145 -0.0216,0.02 -0.0222,0.0396 -0.003,0.096 0.008,0.0277 0.0193,0.0602 0.0229,0.0717 0.003,0.0113 0.0161,0.0546 0.0281,0.0955 0.02,0.0681 0.0343,0.12226 0.0424,0.1612 0.002,0.008 0.008,0.038 0.0145,0.0657 0.0818,0.37102 0.0788,0.78257 -0.008,1.16152 -0.0209,0.09 -0.0261,0.11018 -0.0474,0.18506 -0.0129,0.0427 -0.025,0.0876 -0.0283,0.10003 -0.003,0.0129 -0.008,0.0226 -0.0113,0.0226 -0.002,0 -0.0324,-0.0259 -0.0665,-0.0582 -0.0722,-0.0675 -0.34091,-0.31539 -0.4519,-0.41678 0.005,0.005 -0.0211,-0.0192 -0.0941,-0.087 -0.0701,-0.0654 -0.0973,-0.0677 -0.14385,-0.0129 -0.0161,0.0184 -0.039,0.0459 -0.0523,0.0607 -0.0129,0.0145 -0.0591,0.0685 -0.10181,0.11905 -0.0427,0.0506 -0.12726,0.14997 -0.1881,0.22103 -0.0607,0.071 -0.12388,0.14482 -0.14031,0.16402 -0.0164,0.0192 -0.0562,0.066 -0.0884,0.10422 -0.0322,0.0383 -0.0609,0.0686 -0.0641,0.068 -0.003,0 -0.0478,-0.0342 -0.0997,-0.0744 -0.0519,-0.0401 -0.14256,-0.11002 -0.2017,-0.15529 -0.21001,-0.16093 -0.24938,-0.19277 -0.37846,-0.30623 -0.12469,-0.1097 -0.25214,-0.24265 -0.33182,-0.34647 -0.0321,-0.0417 -0.11517,-0.16478 -0.12919,-0.19103 -0.0232,-0.0438 -0.0417,-0.077 -0.0464,-0.0831 -0.002,-0.005 -0.0164,-0.0329 -0.0303,-0.0648 -0.0145,-0.0319 -0.029,-0.0654 -0.0337,-0.0746 -0.005,-0.008 -0.008,-0.0209 -0.008,-0.0259 0,-0.005 -0.002,-0.0113 -0.005,-0.0145 -0.005,-0.006 -0.0409,-0.1184 -0.0574,-0.18271 -0.0129,-0.0514 -0.0337,-0.0728 -0.0704,-0.0728 h -1.1e-4 c -0.0211,0 -0.0601,0.0171 -0.21953,0.096 -0.11969,0.0591 -0.20035,0.10261 -0.21055,0.1134 -0.02,0.0213 -0.0283,0.0477 -0.0283,0.0913 0,0.0184 -0.003,0.0652 -0.008,0.10455 -0.005,0.0391 -0.01,0.0944 -0.0129,0.12227 -0.002,0.0277 -0.008,0.0897 -0.0129,0.1374 -0.005,0.0477 -0.0129,0.13355 -0.0177,0.19099 -0.005,0.0575 -0.0113,0.13274 -0.0161,0.16729 -0.003,0.0345 -0.008,0.0963 -0.0129,0.13741 -0.003,0.0409 -0.01,0.10825 -0.0145,0.14933 -0.005,0.0409 -0.008,0.0878 -0.008,0.1039 0,0.0161 -0.005,0.0644 -0.008,0.10761 -0.0145,0.13 -0.024,0.2378 -0.0235,0.26831 8.6e-4,0.0588 0.047,0.0757 0.11873,0.0435 0.0196,-0.008 0.0465,-0.0213 0.0598,-0.0272 0.0282,-0.0129 0.0575,-0.0264 0.13434,-0.0599 0.0312,-0.0129 0.0715,-0.0316 0.0896,-0.0396 0.0545,-0.0247 0.067,-0.0306 0.10745,-0.0487 l 0.039,-0.0176 0.005,0.18583 c 0.002,0.10229 0.006,0.24371 0.01,0.31433 0.003,0.0707 0.008,0.18894 0.01,0.26285 0.006,0.29033 0.0161,0.51209 0.0221,0.54453 0.008,0.0422 0.0246,0.0599 0.0567,0.0606 0.0237,3.7e-4 0.0388,-0.005 0.11824,-0.0498 0.0432,-0.0238 0.0937,-0.0511 0.15239,-0.0821 0.0591,-0.0311 0.15513,-0.083 0.17612,-0.0947 0.0129,-0.008 0.0399,-0.0217 0.0598,-0.0319 0.0197,-0.01 0.0546,-0.029 0.0776,-0.0409 0.0231,-0.0129 0.0678,-0.0362 0.0992,-0.0533 l 0.0575,-0.0311 0.0129,0.0401 c 0.006,0.0222 0.0221,0.0725 0.034,0.11195 0.0113,0.0396 0.0253,0.0825 0.0296,0.0955 0.005,0.0129 0.0145,0.0441 0.0209,0.0686 0.006,0.0248 0.0166,0.0556 0.0209,0.0686 0.005,0.0129 0.0145,0.0441 0.0211,0.0686 0.008,0.0247 0.0171,0.0583 0.0219,0.0747 0.005,0.0166 0.0129,0.0404 0.0168,0.0536 0.005,0.0129 0.0145,0.0441 0.0209,0.0686 0.0129,0.0461 0.0491,0.16372 0.0627,0.20604 0.005,0.0129 0.01,0.0324 0.0113,0.0427 0.005,0.0205 0.0235,0.0414 0.0422,0.0459 0.019,0.005 0.0467,0 0.0606,-0.0145 0.006,-0.006 0.0312,-0.0427 0.0538,-0.0807 0.0225,-0.038 0.0449,-0.0751 0.0499,-0.0828 0.005,-0.008 0.0448,-0.0728 0.0884,-0.14433 0.0438,-0.0715 0.11695,-0.19065 0.16262,-0.26454 0.0456,-0.0738 0.0854,-0.13967 0.0883,-0.14627 0.005,-0.0113 0.005,-0.01 0.0113,0.008 0.003,0.0113 0.0113,0.0358 0.019,0.0538 0.006,0.0179 0.0161,0.0409 0.019,0.0507 0.003,0.01 0.01,0.0264 0.0145,0.037 0.005,0.01 0.008,0.0209 0.008,0.0234 0,0 0.01,0.029 0.0214,0.0588 0.0248,0.0627 0.0324,0.0825 0.0506,0.13145 0.008,0.0197 0.0161,0.0414 0.0182,0.0479 0.003,0.006 0.0113,0.0282 0.0177,0.0477 0.006,0.0196 0.0216,0.0588 0.0327,0.0867 0.0113,0.0277 0.0253,0.0665 0.0316,0.0859 0.008,0.0277 0.0219,0.0477 0.037,0.0593 -2e-5,-8e-5 2e-5,-2e-4 0,-4.1e-4 0.002,0.008 0.008,0.01 0.0197,0.0113 l 1.1e-4,-1.3e-4 c 0.0223,0.005 0.0482,-0.006 0.0636,-0.0243 0.008,-0.01 0.0392,-0.0504 0.0686,-0.0905 0.0846,-0.11518 0.27114,-0.3665 0.34843,-0.46982 0.0499,-0.0667 0.0503,-0.067 0.0602,-0.0538 0.005,0.008 0.0407,0.0577 0.0785,0.11179 0.0376,0.0541 0.0759,0.10922 0.0849,0.12243 0.008,0.0129 0.0366,0.0538 0.0609,0.0902 0.0243,0.0362 0.0483,0.0696 0.0533,0.0738 0.0161,0.0129 0.0511,0.008 0.0672,-0.006 0.0172,-0.0171 0.034,-0.0786 0.0432,-0.1569 0.003,-0.0295 0.008,-0.0725 0.0129,-0.0955 0.0145,-0.0975 0.0242,-0.16028 0.0358,-0.24184 0.0129,-0.0883 0.0219,-0.15336 0.0382,-0.25982 0.005,-0.0329 0.0129,-0.0812 0.0161,-0.10761 0.003,-0.0264 0.008,-0.0585 0.0113,-0.0717 l 0.005,-0.0238 0.0129,0.0269 c 0.006,0.0145 0.0182,0.0417 0.0255,0.0598 0.0145,0.0354 0.0269,0.0646 0.0399,0.0917 0.005,0.008 0.008,0.0205 0.008,0.0243 0,0.005 0.008,0.0145 0.0174,0.0238 0.023,0.0222 0.0556,0.023 0.0767,0 0.0129,-0.0129 0.0145,-0.0217 0.0196,-0.0888 0.0129,-0.18899 0.0182,-0.28901 0.0238,-0.44112 0.003,-0.0904 0.008,-0.1675 0.008,-0.17156 10e-4,-0.005 0.005,-0.0881 0.008,-0.18672 0.003,-0.0986 0.008,-0.1901 0.0113,-0.20331 l 0.005,-0.0238 0.053,0.0456 c 0.0543,0.0469 0.0744,0.0572 0.101,0.0522 0.0198,-0.005 0.0399,-0.0256 0.0407,-0.044 8.6e-4,-0.0179 -0.01,-0.11115 -0.0214,-0.17881 -0.005,-0.0277 -0.0129,-0.083 -0.0182,-0.12226 -0.005,-0.0396 -0.0129,-0.0958 -0.018,-0.12549 -0.008,-0.0514 -0.0232,-0.15787 -0.0417,-0.28667 -0.005,-0.0329 -0.0113,-0.0797 -0.0161,-0.10439 -0.003,-0.0247 -0.01,-0.0704 -0.0145,-0.10165 -0.01,-0.0755 -0.0251,-0.17806 -0.0478,-0.32834 -0.005,-0.0345 -0.0113,-0.0815 -0.0145,-0.10455 -0.003,-0.023 -0.008,-0.062 -0.0129,-0.0867 -0.0207,-0.13547 -0.0329,-0.22035 -0.0451,-0.31241 -0.0161,-0.11889 -0.0267,-0.13789 -0.10148,-0.17514 -0.023,-0.0113 -0.0834,-0.0427 -0.13435,-0.0691 -0.0649,-0.0337 -0.0999,-0.0488 -0.12356,-0.0493 z m -0.90345,4.0285 c -0.003,0.0129 -0.005,0.0235 -0.006,0.0308 4.3e-4,-0.006 0.003,-0.0179 0.006,-0.0308 z"
         style="font-style:normal;font-variant:normal;font-weight:normal;font-stretch:normal;font-size:0.68592715px;line-height:1.25;font-family:sans-serif;-inkscape-font-specification:Acre;letter-spacing:0px;word-spacing:0px;fill:#c69249;fill-opacity:1;stroke:none;stroke-width:0.00094802" />
      <path
         inkscape:connector-curvature="0"
         id="path10738"
         style="font-style:normal;font-variant:normal;font-weight:normal;font-stretch:normal;font-size:3.52777767px;line-height:125%;font-family:Acre;-inkscape-font-specification:Acre;text-align:end;letter-spacing:1.70920837px;word-spacing:0px;text-anchor:end;fill:#000000;fill-opacity:1;stroke:none;stroke-width:0.12902081"
         d="M -38.121769,221.90772 H -38.48513 V 221.435 h -0.331611 v 0.47272 h -0.225778 v 0.3175 h 0.225778 v 1.44639 h 0.331611 v -1.44639 h 0.363361 z" />
      <path
         inkscape:connector-curvature="0"
         id="path10740"
         style="font-style:normal;font-variant:normal;font-weight:normal;font-stretch:normal;font-size:3.52777767px;line-height:125%;font-family:Acre;-inkscape-font-specification:Acre;text-align:end;letter-spacing:1.70920837px;word-spacing:0px;text-anchor:end;fill:#000000;fill-opacity:1;stroke:none;stroke-width:0.12902081"
         d="m -35.228495,221.87245 c -0.246944,0 -0.433916,0.11994 -0.536222,0.28575 v -1.30881 h -0.331611 v 2.82222 h 0.331611 v -0.97719 l 0.0035,0.0141 c 0,-0.34925 0.183444,-0.5327 0.430389,-0.5327 0.250472,0 0.430389,0.18345 0.430389,0.5327 v 0.96308 h 0.331611 v -1.01247 c 0,-0.52564 -0.313973,-0.78669 -0.659695,-0.78669 z" />
      <path
         inkscape:connector-curvature="0"
         id="path10742"
         style="font-style:normal;font-variant:normal;font-weight:normal;font-stretch:normal;font-size:3.52777767px;line-height:125%;font-family:Acre;-inkscape-font-specification:Acre;text-align:end;letter-spacing:1.70920837px;word-spacing:0px;text-anchor:end;fill:#000000;fill-opacity:1;stroke:none;stroke-width:0.12902081"
         d="m -31.598742,223.69983 c 0.532694,0 0.899583,-0.4198 0.899583,-0.91016 0,-0.49036 -0.366889,-0.91017 -0.899583,-0.91017 -0.532695,0 -0.899584,0.41981 -0.899584,0.91017 0,0.49036 0.366889,0.91016 0.899584,0.91016 z m 0,-0.33161 c -0.331611,0 -0.560917,-0.26811 -0.560917,-0.58208 0,-0.31044 0.229306,-0.57503 0.560917,-0.57503 0.338666,0 0.557389,0.26459 0.557389,0.57503 0,0.31397 -0.218723,0.58208 -0.557389,0.58208 z" />
      <path
         inkscape:connector-curvature="0"
         id="path10744"
         style="font-style:normal;font-variant:normal;font-weight:normal;font-stretch:normal;font-size:3.52777767px;line-height:125%;font-family:Acre;-inkscape-font-specification:Acre;text-align:end;letter-spacing:1.70920837px;word-spacing:0px;text-anchor:end;fill:#000000;fill-opacity:1;stroke:none;stroke-width:0.12902081"
         d="m -27.713942,221.87245 c -0.243417,0 -0.430389,0.11641 -0.532695,0.28222 v -0.24695 h -0.331611 v 1.76389 h 0.331611 v -0.96308 c 0,-0.34925 0.183445,-0.5327 0.430389,-0.5327 0.250472,0 0.430389,0.18345 0.430389,0.5327 v 0.96308 h 0.331611 v -1.01247 c 0,-0.52564 -0.313972,-0.78669 -0.659694,-0.78669 z" />
      <path
         inkscape:connector-curvature="0"
         id="path10746"
         style="font-style:normal;font-variant:normal;font-weight:normal;font-stretch:normal;font-size:3.52777767px;line-height:125%;font-family:Acre;-inkscape-font-specification:Acre;text-align:end;letter-spacing:1.70920837px;word-spacing:0px;text-anchor:end;fill:#000000;fill-opacity:1;stroke:none;stroke-width:0.12902081"
         d="m -23.340325,223.67161 -0.836083,-0.87136 0.786694,-0.89253 h -0.405694 l -0.723195,0.83609 v -1.89442 h -0.331611 v 2.82222 h 0.331611 v -0.81139 l 0.747889,0.81139 z" />
      <path
         inkscape:connector-curvature="0"
         id="path10748"
         style="font-style:normal;font-variant:normal;font-weight:normal;font-stretch:normal;font-size:3.52777767px;line-height:125%;font-family:Acre;-inkscape-font-specification:Acre;text-align:end;letter-spacing:1.70920837px;word-spacing:0px;text-anchor:end;fill:#000000;fill-opacity:1;stroke:none;stroke-width:0.12902081"
         d="m -21.296803,223.69631 c 0.123472,0 0.22225,-0.0988 0.22225,-0.22225 0,-0.11995 -0.09878,-0.22225 -0.22225,-0.22225 -0.123473,0 -0.218723,0.1023 -0.218723,0.22225 0,0.12347 0.09525,0.22225 0.218723,0.22225 z" />
      <g
         id="g10764"
         transform="matrix(0.28925558,0,0,0.28925558,-278.38719,59.479714)">
        <path
           style="fill:#ffcc4d;fill-opacity:1;stroke-width:0.26458338"
           d="m 856.74731,544.05414 c -2.73237,-0.42323 -10.24044,-2.44753 -11.29123,-3.04431 -0.32323,-0.18357 -5.07773,-3.3556 -5.92909,-3.95567 -0.25723,-0.18131 -0.55729,-0.14575 -0.96886,0.11482 -1.61473,1.02229 -2.24813,1.20553 -4.16811,1.20584 -1.51504,2.5e-4 -2.23468,-0.13261 -3.04271,-0.56175 -2.76857,-1.47039 -6.75804,-3.46947 -8.06979,-4.04369 -2.24394,-0.98229 -4.72311,-3.61931 -5.7613,-6.12813 -1.10039,-2.65911 -1.31786,-4.87779 -0.73494,-7.49792 l 0.44971,-2.02136 -1.82106,-2.44112 c -1.00159,-1.34262 -2.8747,-3.85245 -4.16247,-5.57741 -1.28778,-1.72497 -3.29535,-4.16575 -4.46128,-5.42396 -2.47484,-2.67075 -6.54694,-7.53506 -7.89537,-9.43142 -1.28209,-1.80304 -3.46917,-5.97869 -4.22671,-8.06979 -0.51887,-1.43225 -0.62286,-2.22852 -0.62198,-4.7625 5.2e-4,-1.67349 0.14366,-3.75708 0.31796,-4.63021 0.1743,-0.87312 0.44965,-2.3614 0.61188,-3.30729 0.16224,-0.94589 0.53532,-2.55323 0.82907,-3.57187 0.62275,-2.1595 4.09753,-9.39714 5.52564,-11.50938 4.77037,-7.05564 15.06365,-14.19907 22.12224,-15.35263 2.60666,-0.42599 4.73098,-1.1382 8.2463,-2.76467 1.70043,-0.78675 3.66376,-1.57236 4.36296,-1.74581 2.8441,-0.7055 6.07994,0.1795 8.74556,2.39193 1.24258,1.03133 1.35014,1.06701 3.21598,1.06701 4.25583,0 12.2648,1.2062 17.72344,2.66927 1.60073,0.42903 4.33916,1.14121 6.08542,1.58261 7.03061,1.77712 12.87228,3.96298 16.62283,6.22 6.48607,3.90319 19.35331,16.67502 26.03262,25.83959 3.14728,4.31832 5.56669,9.82137 6.42804,14.62083 0.18281,1.01864 0.56276,2.98317 0.84433,4.36562 1.15953,5.69307 1.328,7.19763 1.17023,10.45104 -0.29357,6.05398 -2.02077,10.68427 -5.6099,15.03911 -2.76846,3.35908 -5.36897,4.89751 -12.28294,7.26645 -3.66888,1.25707 -6.19579,2.3799 -12.17084,5.40805 -9.836,4.9849 -14.86264,6.7759 -21.68986,7.72813 -3.98108,0.55527 -10.37584,0.4979 -14.42577,-0.12941 z"
           id="path10750"
           inkscape:connector-curvature="0" />
        <path
           inkscape:connector-curvature="0"
           style="fill:#664500;fill-opacity:1;stroke-width:0.26458338"
           d="m 840.5953,536.15004 c -0.3291,-0.41964 -0.31975,-0.429 0.0999,-0.0999 0.25466,0.19973 0.46302,0.40809 0.46302,0.46303 0,0.21776 -0.21727,0.0776 -0.56292,-0.36313 z"
           id="path10752" />
        <path
           inkscape:connector-curvature="0"
           style="fill:#664500;fill-opacity:1;stroke-width:0.26458338"
           d="m 871.05614,488.43811 c -2.38453,-1.07813 -3.8984,-3.16043 -4.16324,-5.72647 l -0.14928,-1.44641 -2.4078,0.2234 c -1.3243,0.12286 -3.72717,0.22339 -5.33973,0.22339 -2.80078,0 -2.98971,-0.0358 -4.22419,-0.79942 -2.49359,-1.54257 -3.86034,-4.34205 -3.45136,-7.06935 0.44303,-2.95431 3.15385,-5.57129 6.07196,-5.86175 12.86107,-1.28019 18.06721,-1.87682 21.41104,-2.45372 5.36679,-0.92592 8.85075,-0.9703 10.55817,-0.13451 1.4046,0.68755 2.99744,2.32118 3.54798,3.6388 0.20399,0.48821 0.39071,1.63592 0.41493,2.55047 0.0522,1.96959 -0.57634,3.58124 -1.92842,4.94493 -1.40018,1.4122 -2.75326,1.8646 -6.91914,2.31337 -2.07,0.22299 -3.85735,0.49436 -3.9719,0.60304 -0.11455,0.10868 -0.0848,0.52239 0.0661,0.91936 0.64997,1.70954 0.003,4.47983 -1.44004,6.16563 -1.9787,2.31166 -5.39737,3.11996 -8.07512,1.90924 z"
           id="path10754" />
        <path
           inkscape:connector-curvature="0"
           style="fill:#664500;fill-opacity:1;stroke-width:0.26458338"
           d="m 833.08843,470.23529 c -1.26672,-0.33306 -2.30866,-0.9722 -3.36052,-2.06136 -1.31847,-1.36522 -1.84689,-2.73534 -1.83144,-4.74863 0.0224,-2.92337 1.2279,-4.89178 3.77532,-6.16474 2.07816,-1.03848 3.97117,-1.10001 5.9201,-0.19245 2.7178,1.26559 4.07998,3.36039 4.08969,6.2892 0.009,2.75418 -1.159,4.78723 -3.55857,6.19347 -1.21038,0.70933 -3.66892,1.0436 -5.03458,0.68451 z"
           id="path10756" />
        <path
           inkscape:connector-curvature="0"
           style="fill:#664500;fill-opacity:1;stroke-width:0.26458338"
           d="m 848.25854,464.13905 c -1.89274,-0.74019 -2.81407,-1.52204 -4.04273,-3.43068 -1.03961,-1.61495 -6.83048,-7.63127 -7.24272,-7.52469 -0.0993,0.0257 -3.9905,1.61808 -8.64716,3.53869 -8.02074,3.3081 -8.56421,3.49294 -10.31875,3.50956 -1.4053,0.0133 -2.11597,-0.11984 -2.94599,-0.55191 -3.15442,-1.64205 -4.62192,-4.89034 -3.67731,-8.13968 0.34275,-1.17901 0.75427,-1.82922 1.85333,-2.92829 1.65929,-1.65928 1.37321,-1.52581 15.08872,-7.03957 0.7276,-0.2925 2.6326,-1.14389 4.23333,-1.89198 2.86288,-1.33793 2.95154,-1.36015 5.42797,-1.36015 3.87298,0 4.7607,0.53597 10.84391,6.54708 7.23868,7.1529 8.59173,9.14168 8.59629,12.63521 0.002,1.70331 -0.10746,2.18303 -0.77432,3.38684 -0.90796,1.63904 -2.39609,2.82423 -4.22988,3.36881 -1.68996,0.50186 -2.64648,0.47447 -4.16469,-0.11924 z"
           id="path10758" />
        <path
           style="fill:#f5900c;fill-opacity:1;stroke-width:0.26458338"
           d="m 848.01606,541.96315 c -0.65484,-0.0992 -1.6431,-0.36942 -2.19613,-0.60055 -0.97783,-0.40867 -4.67372,-2.78341 -6.00595,-3.85904 -0.87672,-0.70785 -1.23048,-0.68188 -2.47643,0.18179 -0.93371,0.64723 -1.28601,0.7276 -3.18922,0.7276 -1.46787,0 -2.38875,-0.13441 -2.93331,-0.42814 -2.29354,-1.23711 -6.54714,-3.37516 -7.97283,-4.0075 -3.96716,-1.75955 -6.71155,-6.12848 -6.71155,-10.68444 0,-1.87969 0.84985,-5.25886 1.68705,-6.70805 0.37831,-0.65484 0.68926,-1.53062 0.69102,-1.94618 0.005,-1.19005 -0.75578,-3.81687 -1.6542,-5.71143 -0.70131,-1.47891 -0.82471,-2.04762 -0.83578,-3.85176 -0.0142,-2.31382 0.27179,-3.0961 1.74546,-4.77452 1.14055,-1.29902 2.67442,-2.01804 4.64192,-2.17598 3.86127,-0.30994 6.44129,1.93725 8.37117,7.29125 0.88905,2.46645 1.95498,6.66803 2.18226,8.60176 0.0972,0.82705 0.31947,1.6222 0.49392,1.76698 0.20917,0.17359 2.15677,0.17866 5.71854,0.0149 2.97075,-0.1366 8.49698,-0.32271 12.28052,-0.41357 3.78354,-0.0909 9.14135,-0.3346 11.90626,-0.54163 2.76489,-0.20702 6.73179,-0.50464 8.81532,-0.66135 3.5314,-0.26562 3.90937,-0.24815 5.57475,0.2577 3.2081,0.97443 4.88533,3.24581 4.9044,6.64176 0.0126,2.23828 -0.50224,3.52435 -2.01722,5.03934 -1.66324,1.66324 -2.39106,1.82261 -11.40766,2.49794 -4.53796,0.33989 -10.03679,0.69577 -12.2196,0.79085 -2.18281,0.0951 -4.05001,0.25444 -4.14932,0.35414 -0.0993,0.0997 0.23829,0.8537 0.75023,1.67556 2.07118,3.32496 1.19867,7.51638 -2.00611,9.6372 -1.30143,0.86125 -2.45521,1.11743 -3.98751,0.88538 z"
           id="path10760"
           inkscape:connector-curvature="0"
           sodipodi:nodetypes="cccssscsccccccccccccccccsccsccc" />
        <path
           inkscape:connector-curvature="0"
           style="fill:#664500;fill-opacity:1;stroke-width:0.26458338"
           d="m 904.39365,519.8331 c -1.52797,-0.50383 -4.38547,-1.40925 -6.35,-2.01206 -11.03677,-3.38658 -28.564,-9.22647 -36.51251,-12.16559 -10.40137,-3.8461 -26.50391,-8.97446 -30.76335,-9.79756 -3.75971,-0.72653 -6.25039,-4.50659 -5.44471,-8.26334 0.49839,-2.32392 1.76698,-3.86962 4.17789,-5.09049 0.74349,-0.3765 1.37424,-0.4368 3.43958,-0.32884 2.13624,0.11166 3.43336,0.40669 8.34996,1.8992 7.51077,2.28002 16.66457,5.35872 25.79688,8.67629 8.7232,3.16896 23.46484,8.07813 33.99896,11.32213 10.69301,3.29294 10.38514,3.17904 11.68434,4.32264 1.55228,1.36637 2.25665,2.81156 2.40976,4.9442 0.21026,2.9289 -1.1258,5.18544 -3.91174,6.60672 -1.87748,0.95783 -3.71863,0.92748 -6.87506,-0.1133 z"
           id="path10762" />
      </g>
      <path
         sodipodi:nodetypes="cccccccccssccccccccccccccccccccccccccccccccccc"
         style="fill:#5f5f5f;fill-opacity:1;stroke:#5f5f5f;stroke-width:0.04233333;stroke-opacity:1"
         d="m -14.804528,194.00312 c 0.07616,-0.0767 0.345298,-0.8174 0.431276,-1.18708 l 0.0959,-0.41233 -0.463266,-0.11462 c -0.508875,-0.12596 -1.064849,-0.49915 -1.085861,-0.55607 0.141528,-0.31745 -0.08459,-0.0662 -0.171609,-0.10303 -0.374971,-0.15858 -0.556164,-0.28607 -0.632239,-0.44488 -0.04188,-0.0874 -0.08961,-0.1863 -0.106125,-0.21986 -0.06126,-0.12453 -0.202559,-0.41399 -0.0993,-0.63715 0.05438,-0.11759 0.116187,-0.20977 0.137225,-0.20487 0.02104,0.005 0.04388,-0.0152 0.05074,-0.0446 0.02523,-0.10839 0.41909,-0.31979 0.608368,-0.32653 0.102498,-0.004 0.230178,-0.0159 0.283726,-0.0272 0.09038,-0.0191 0.208077,0.0135 0.663891,0.18351 0.09649,0.036 0.20035,0.053 0.230828,0.0377 0.03045,-0.0153 0.128346,-0.0171 0.217521,-0.004 l 0.162124,0.0236 -0.142141,-0.38081 c -0.151366,-0.40553 -0.800495,-1.49007 -1.057432,-1.76672 l -0.151583,-0.16321 -0.74809,-0.17313 c -0.686073,-0.15875 -1.26264,-0.23164 -1.335675,-0.16887 -0.01503,0.013 -0.141158,0.0316 -0.280194,0.0414 -0.139026,0.01 -0.283179,0.0368 -0.320317,0.0599 -0.03711,0.0231 -0.136459,0.0595 -0.22071,0.0809 -0.236911,0.0601 -0.630722,0.264 -0.919016,0.47578 -0.143917,0.10572 -0.296817,0.21716 -0.33977,0.24766 -0.204067,0.14486 -0.458823,0.36389 -0.559845,0.48135 -0.06139,0.0714 -0.144876,0.1453 -0.18544,0.16416 -0.07564,0.0352 -0.01778,0.077 0.341896,0.24712 0.06465,0.0306 0.16739,0.0931 0.228415,0.13908 1.821082,1.1655 3.141002,2.68341 5.00062,4.41902 0.109848,0.15601 0.315229,0.38689 0.344327,0.35761 z m -7.982218,-5.98031 c 0.686044,-0.65959 1.486218,-1.44678 2.270752,-1.87441 0.143309,-0.0742 0.28605,-0.14894 0.317203,-0.16606 0.143942,-0.0791 0.733655,-0.23998 0.911398,-0.24864 0.108807,-0.005 0.21006,-0.0202 0.225002,-0.033 0.015,-0.0128 0.0668,-0.0254 0.115171,-0.0279 0.04843,-0.003 -0.247738,-0.0748 -0.658068,-0.16059 -0.549495,-0.11492 -0.860042,-0.15827 -1.178708,-0.16459 -1.582892,-0.0314 -3.019419,0.4485 -4.105557,1.37142 -0.330107,0.28052 -0.654725,0.60277 -0.634661,0.63007 0.01918,0.0261 2.678585,0.68055 2.737458,0.67363 z"
         id="path10766"
         inkscape:connector-curvature="0" />
      <path
         inkscape:connector-curvature="0"
         id="path10768"
         d="m -23.889159,181.84088 c 0.06546,0.003 0.1193,0.0382 0.156156,0.10639 -0.215346,1.24571 -0.917145,2.49153 -0.14326,3.86802 0.04506,0.0472 0.09265,0.12865 0.08804,0.14846 -0.0046,0.0198 -0.187847,0.10856 -0.389378,0.22973 -0.201521,0.12117 -0.475656,0.3128 -0.60954,0.42583 -0.133895,0.11303 -0.256731,0.22169 -0.285061,0.21606 -0.02836,-0.006 -0.152758,-0.1411 -0.264075,-0.27545 -1.045329,-1.63032 -0.363586,-3.63115 1.221086,-4.62894 0.08356,-0.063 0.160816,-0.0929 0.226309,-0.0901 z m 14.344813,5.46326 c 0.106931,0.0249 0.197894,0.25192 0.147645,0.36863 -2.564288,3.58276 -3.454111,6.10561 -6.781789,4.06775 -1.592185,-0.91925 -0.803591,-2.22171 0.432752,-2.02101 3.807093,0.64954 4.262168,-0.126 6.201305,-2.41536 z m -6.02681,-0.14392 c 0.111832,0.0772 0.219786,0.17729 0.240048,0.22249 0.04763,0.10633 -0.0064,0.3522 -0.07671,0.34718 -1.829621,-0.32504 -3.504375,-0.64812 -5.138839,0.96478 -0.0307,0.0357 -0.06649,0.0722 -0.100113,0.10192 -0.03362,0.0298 -0.06469,0.0525 -0.08495,0.0619 2.154559,1.14114 4.549562,3.5736 6.180275,5.5088 0.0267,0.0392 0.09569,0.11965 0.15371,0.17851 0.296878,0.30117 0.297674,0.52706 0.0025,0.73702 -0.100273,0.0713 -0.212034,0.15266 -0.248519,0.18091 -0.03646,0.0283 -0.206528,0.16037 -0.378173,0.29345 -0.171644,0.13309 -0.34431,0.25107 -0.383688,0.26246 -0.0077,0.002 -0.01226,0.009 -0.01787,0.0128 l -0.0674,0.0183 -0.11929,-0.0278 c -0.0058,-0.006 -0.01129,-0.0141 -0.01725,-0.0194 -0.06942,-0.0613 -0.179437,-0.17804 -0.244266,-0.25901 -0.10901,-0.13619 -0.202653,-0.23921 -0.555954,-0.61119 -2.398428,-2.80459 -6.056086,-5.08265 -10.332229,-6.42746 0.123912,-0.55621 0.418734,-1.10302 0.798278,-1.45433 1.0871,0.25532 3.133529,0.78937 3.185098,0.76588 0.05157,-0.0235 0.300651,-0.31218 0.470494,-0.48949 3.122203,-2.9435 4.363699,-1.96544 6.734893,-0.36777 z"
         style="fill:#c69249;fill-opacity:1;stroke:none;stroke-width:0.26458332px;stroke-linecap:butt;stroke-linejoin:miter;stroke-opacity:1"
         sodipodi:nodetypes="cccscccccccccccccccccccccccsccccccccczccc" />
      <rect
         style="opacity:1;fill:#000000;fill-opacity:1;stroke:none;stroke-width:0.52916664;stroke-linecap:round;stroke-linejoin:round;stroke-miterlimit:4;stroke-dasharray:none;stroke-dashoffset:0;stroke-opacity:1"
         id="rect10772"
         width="2.3812499"
         height="0.24804688"
         x="-181.0704"
         y="135.06839"
         transform="rotate(-45)" />
    </g>
  </g>
</svg>
