<?xml version="1.0" encoding="UTF-8" standalone="no"?>
<!-- Created with Inkscape (http://www.inkscape.org/) -->

<svg
   xmlns:dc="http://purl.org/dc/elements/1.1/"
   xmlns:cc="http://creativecommons.org/ns#"
   xmlns:rdf="http://www.w3.org/1999/02/22-rdf-syntax-ns#"
   xmlns:svg="http://www.w3.org/2000/svg"
   xmlns="http://www.w3.org/2000/svg"
   xmlns:sodipodi="http://sodipodi.sourceforge.net/DTD/sodipodi-0.dtd"
   xmlns:inkscape="http://www.inkscape.org/namespaces/inkscape"
   width="43.942001mm"
   height="50.799999mm"
   viewBox="0 0 43.942001 50.799999"
   version="1.1"
   id="svg6502"
   inkscape:version="0.92.4 (5da689c313, 2019-01-14)"
   sodipodi:docname="traverse.svg">
  <defs
     id="defs6496" />
  <sodipodi:namedview
     id="base"
     pagecolor="#ffffff"
     bordercolor="#666666"
     borderopacity="1.0"
     inkscape:pageopacity="0.0"
     inkscape:pageshadow="2"
     inkscape:zoom="0.35"
     inkscape:cx="-739.81714"
     inkscape:cy="24.571429"
     inkscape:document-units="mm"
     inkscape:current-layer="layer1"
     showgrid="false"
     fit-margin-top="0"
     fit-margin-left="0"
     fit-margin-right="0"
     fit-margin-bottom="0"
     inkscape:window-width="1920"
     inkscape:window-height="1016"
     inkscape:window-x="1680"
     inkscape:window-y="27"
     inkscape:window-maximized="1" />
  <metadata
     id="metadata6499">
    <rdf:RDF>
      <cc:Work
         rdf:about="">
        <dc:format>image/svg+xml</dc:format>
        <dc:type
           rdf:resource="http://purl.org/dc/dcmitype/StillImage" />
        <dc:title></dc:title>
      </cc:Work>
    </rdf:RDF>
  </metadata>
  <g
     inkscape:label="Layer 1"
     inkscape:groupmode="layer"
     id="layer1"
     transform="translate(-111.83257,-104.53452)">
    <g
       transform="translate(-94.217673,81.694196)"
       id="g6461">
      <path
         sodipodi:type="star"
         id="path6389"
         sodipodi:sides="6"
         sodipodi:cx="105"
         sodipodi:cy="148.5"
         sodipodi:r1="100.88495"
         sodipodi:r2="87.368935"
         sodipodi:arg1="0"
         sodipodi:arg2="0.52359878"
         inkscape:flatsided="true"
         inkscape:rounded="0"
         inkscape:randomized="0"
         d="m 205.88495,148.5 -50.44248,87.36893 -100.884944,0 L 4.1150513,148.5 54.557526,61.131072 l 100.884944,0 z"
         inkscape:transform-center-x="-5.7142856e-06"
         style="fill:#ffffff;fill-opacity:1;stroke-width:0.26458332"
         transform="matrix(0,0.25177195,-0.25147384,0,265.36511,21.804273)" />
      <path
         style="fill:#ffffff;fill-opacity:1;stroke:#c69249;stroke-width:3.08154607;stroke-miterlimit:4;stroke-dasharray:none;stroke-opacity:1"
         inkscape:transform-center-x="-3.2856392e-06"
         d="m 196.70354,148.5 -45.85177,79.41759 H 59.148232 L 13.296463,148.5 59.148232,69.082407 l 91.703538,0 z"
         inkscape:randomized="0"
         inkscape:rounded="0"
         inkscape:flatsided="true"
         sodipodi:arg2="0.52359878"
         sodipodi:arg1="0"
         sodipodi:r2="79.417595"
         sodipodi:r1="91.703537"
         sodipodi:cy="148.5"
         sodipodi:cx="105"
         sodipodi:sides="6"
         id="path6391"
         sodipodi:type="star"
         transform="matrix(0,0.25684986,-0.25656023,0,266.12044,21.271093)"
         inkscape:transform-center-y="3.85e-06" />
      <path
         style="fill:#c69249;fill-opacity:1;stroke:none;stroke-width:2.20776176;stroke-miterlimit:4;stroke-dasharray:none;stroke-opacity:1"
         d="m 228.12547,24.681763 -12.48401,7.207257 a 13.717668,9.2974214 0 0 0 12.48277,5.483399 13.717668,9.2974214 0 0 0 12.48902,-5.481832 l -12.48307,-7.206945 z"
         id="path6393"
         inkscape:connector-curvature="0" />
      <g
         id="g6411"
         transform="matrix(0.5829195,0,0,0.5829195,-178.03111,49.802644)">
        <circle
           r="2.2486367"
           cy="13.128696"
           cx="706.96881"
           id="circle6395"
           style="opacity:1;fill:#c69249;fill-opacity:1;stroke:#000000;stroke-width:0.04807639;stroke-linecap:round;stroke-linejoin:round;stroke-miterlimit:4;stroke-dasharray:none;stroke-dashoffset:0;stroke-opacity:0" />
        <circle
           style="opacity:1;fill:#c69249;fill-opacity:1;stroke:#000000;stroke-width:0.04807639;stroke-linecap:round;stroke-linejoin:round;stroke-miterlimit:4;stroke-dasharray:none;stroke-dashoffset:0;stroke-opacity:0"
           id="circle6397"
           cx="696.78235"
           cy="7.1755714"
           r="2.2486367" />
        <circle
           r="2.2486367"
           cy="-1.0926577"
           cx="700.48651"
           id="circle6399"
           style="opacity:1;fill:#c69249;fill-opacity:1;stroke:#000000;stroke-width:0.04807639;stroke-linecap:round;stroke-linejoin:round;stroke-miterlimit:4;stroke-dasharray:none;stroke-dashoffset:0;stroke-opacity:0" />
        <circle
           style="opacity:1;fill:#c69249;fill-opacity:1;stroke:#000000;stroke-width:0.04807639;stroke-linecap:round;stroke-linejoin:round;stroke-miterlimit:4;stroke-dasharray:none;stroke-dashoffset:0;stroke-opacity:0"
           id="circle6401"
           cx="713.64954"
           cy="6.4479675"
           r="2.2486367" />
        <circle
           r="2.2486367"
           cy="-5.5905743"
           cx="696.31934"
           id="circle6403"
           style="opacity:1;fill:#c69249;fill-opacity:1;stroke:#000000;stroke-width:0.04807639;stroke-linecap:round;stroke-linejoin:round;stroke-miterlimit:4;stroke-dasharray:none;stroke-dashoffset:0;stroke-opacity:0" />
        <circle
           style="opacity:1;fill:#c69249;fill-opacity:1;stroke:#000000;stroke-width:0.04807639;stroke-linecap:round;stroke-linejoin:round;stroke-miterlimit:4;stroke-dasharray:none;stroke-dashoffset:0;stroke-opacity:0"
           id="circle6405"
           cx="689.10944"
           cy="-14.586408"
           r="2.2486367" />
        <circle
           r="2.2486367"
           cy="-18.489012"
           cx="679.51831"
           id="circle6407"
           style="opacity:1;fill:#c69249;fill-opacity:1;stroke:#000000;stroke-width:0.04807639;stroke-linecap:round;stroke-linejoin:round;stroke-miterlimit:4;stroke-dasharray:none;stroke-dashoffset:0;stroke-opacity:0" />
        <path
           style="fill:none;stroke:#c69249;stroke-width:1;stroke-linecap:butt;stroke-linejoin:miter;stroke-miterlimit:4;stroke-dasharray:none;stroke-opacity:1"
           d="m 679.51831,-18.489012 9.59112,3.902604 7.20989,8.9958337 4.16719,4.4979166 -3.70417,8.268229 10.18646,5.9531247 c 0,0 6.68073,-6.6807285 6.68073,-6.6807285 l -13.16302,-7.5406252"
           id="path6409"
           inkscape:connector-curvature="0" />
      </g>
      <path
         style="font-style:normal;font-variant:normal;font-weight:normal;font-stretch:normal;font-size:0.68592715px;line-height:1.25;font-family:sans-serif;-inkscape-font-specification:Acre;letter-spacing:0px;word-spacing:0px;fill:#c69249;fill-opacity:1;stroke:none;stroke-width:0.00054224"
         d="m 228.96242,64.294373 c -0.01,0 -0.0156,0.002 -0.0222,0.009 l -0.009,0.009 -0.002,0.14643 c -0.002,0.14396 -0.005,0.18285 -0.0172,0.23771 -0.004,0.0182 -0.0179,0.0626 -0.0226,0.0726 -0.0199,0.0415 -0.0285,0.0558 -0.0514,0.0855 -0.012,0.0156 -0.0354,0.0409 -0.0521,0.0563 -0.0311,0.0287 -0.0349,0.0345 -0.0345,0.0516 2.4e-4,0.01 0.0154,0.0294 0.0226,0.0295 0.0222,1.2e-4 0.0523,0.0224 0.0655,0.0486 0.009,0.0171 0.0218,0.0546 0.0218,0.0622 0,0.006 0.0175,0.0215 0.0256,0.0231 0.009,0.002 0.0328,-0.004 0.0393,-0.01 0.003,-0.002 0.009,-0.006 0.0137,-0.008 0.0218,-0.009 0.0685,-0.0458 0.0995,-0.0776 0.055,-0.0566 0.078,-0.0997 0.0971,-0.18175 0.008,-0.0361 0.009,-0.0429 0.007,-0.0957 -0.002,-0.0538 -0.005,-0.0803 -0.0184,-0.13365 -0.006,-0.0229 -0.0298,-0.0988 -0.0353,-0.11098 -0.002,-0.004 -0.009,-0.0214 -0.0167,-0.0393 -0.007,-0.0179 -0.022,-0.0486 -0.0322,-0.0683 -0.0491,-0.0946 -0.0579,-0.1066 -0.0788,-0.1066 z m -2.49329,0.16755 c -0.006,3.6e-4 -0.0127,0.003 -0.0176,0.007 -0.0112,0.0105 -0.0136,0.0294 -0.007,0.0589 0.003,0.0136 0.007,0.0355 0.009,0.0487 0.009,0.0562 0.0196,0.12271 0.0256,0.15545 0.002,0.0141 0.008,0.044 0.0119,0.0666 0.0113,0.0639 0.0162,0.087 0.0347,0.16366 0.0178,0.0737 0.0488,0.17347 0.0608,0.19591 0.002,0.003 0.01,0.0197 0.0177,0.0366 0.0186,0.0392 0.0297,0.0576 0.0581,0.0958 0.0361,0.0485 0.0939,0.10063 0.13797,0.12438 0.008,0.004 0.016,0.009 0.0188,0.0105 0.007,0.004 0.0366,0.017 0.0394,0.017 0.001,0 0.007,0.002 0.013,0.005 0.0261,0.0118 0.10377,0.0288 0.15076,0.0329 0.0381,0.003 0.17672,8e-4 0.2067,-0.004 0.0122,-0.002 0.0383,-0.006 0.0581,-0.008 0.0726,-0.01 0.0966,-0.0155 0.11351,-0.0263 0.017,-0.0108 0.0389,-0.0349 0.048,-0.0526 0.008,-0.0154 0.0195,-0.0635 0.0195,-0.0806 -4e-5,-0.0192 -0.0117,-0.0676 -0.0204,-0.0846 -0.009,-0.0167 -0.0421,-0.0532 -0.0583,-0.0634 -0.0238,-0.015 -0.059,-0.0225 -0.11432,-0.0241 -0.12256,-0.004 -0.25309,-0.0247 -0.32108,-0.0517 -0.0747,-0.0296 -0.13254,-0.0672 -0.18139,-0.11765 -0.0229,-0.0237 -0.0628,-0.0721 -0.0628,-0.0761 0,-0.001 -0.005,-0.009 -0.0117,-0.0181 -0.0332,-0.0463 -0.0934,-0.16024 -0.14038,-0.26557 -0.002,-0.006 -0.0102,-0.0225 -0.0171,-0.0375 -0.007,-0.015 -0.0149,-0.0327 -0.0178,-0.0393 -0.003,-0.007 -0.008,-0.0181 -0.0113,-0.0256 -0.003,-0.008 -0.007,-0.0169 -0.008,-0.0208 -0.004,-0.0146 -0.0195,-0.0233 -0.0338,-0.0224 z m 1.37945,0.17126 c -0.0462,0 -0.13052,0.0126 -0.20671,0.0311 -0.0235,0.006 -0.0491,0.0117 -0.057,0.0134 -0.0165,0.004 -0.0468,0.0126 -0.0592,0.0177 -0.005,0.002 -0.0224,0.008 -0.0393,0.0132 -0.0169,0.005 -0.0392,0.013 -0.0495,0.017 -0.0104,0.004 -0.0244,0.009 -0.0313,0.0108 -0.0305,0.008 -0.0444,0.0414 -0.0255,0.0604 l 0.009,0.009 0.076,5.5e-4 c 0.0838,5.8e-4 0.15447,0.005 0.20405,0.0137 0.0464,0.008 0.10687,0.0241 0.12636,0.0343 0.005,0.002 0.01,0.005 0.0118,0.005 0.008,4e-5 0.0575,0.0266 0.0889,0.0474 0.0375,0.0248 0.0999,0.0828 0.1318,0.12253 0.0269,0.0334 0.0734,0.10123 0.0981,0.1431 0.0228,0.0385 0.0451,0.0787 0.0451,0.0811 0,8.6e-4 -0.008,0.003 -0.0179,0.005 -0.0471,0.009 -0.14087,0.0296 -0.16996,0.037 -0.0179,0.004 -0.0417,0.0106 -0.0529,0.0133 -0.0387,0.01 -0.154,0.0456 -0.17472,0.0546 -0.006,0.003 -0.0125,0.005 -0.0147,0.005 -0.002,0 -0.0104,0.003 -0.0183,0.006 -0.008,0.003 -0.0213,0.009 -0.0297,0.0123 -0.008,0.003 -0.0204,0.008 -0.0265,0.0108 -0.006,0.003 -0.0127,0.005 -0.0145,0.005 -0.002,0 -0.0152,0.005 -0.0298,0.0123 -0.0146,0.007 -0.0311,0.0142 -0.0368,0.0167 -0.006,0.002 -0.0271,0.0124 -0.0478,0.0221 -0.0519,0.0244 -0.0881,0.0429 -0.16909,0.0865 -0.0163,0.009 -0.0599,0.0342 -0.10197,0.0595 -0.007,0.004 -0.0148,0.009 -0.0176,0.01 -0.003,0.001 -0.0113,0.006 -0.0188,0.0112 -0.008,0.005 -0.0167,0.0104 -0.0205,0.0125 -0.011,0.006 -0.062,0.0372 -0.0752,0.0458 -0.005,0.003 -0.0204,0.0128 -0.0357,0.0222 -0.0153,0.009 -0.0315,0.0194 -0.0358,0.0222 -0.005,0.003 -0.0162,0.0102 -0.0262,0.0164 -0.0101,0.006 -0.0313,0.0196 -0.0473,0.0297 -0.016,0.0101 -0.0372,0.0235 -0.0473,0.0297 -0.0101,0.006 -0.0218,0.0136 -0.0262,0.0164 -0.005,0.003 -0.0199,0.0123 -0.0347,0.0212 -0.0372,0.0223 -0.0498,0.036 -0.0498,0.0538 0,0.008 0.002,0.0166 0.005,0.0199 0.005,0.006 0.0482,0.0665 0.10041,0.14192 0.033,0.0477 0.0379,0.0532 0.05,0.0564 0.0176,0.005 0.0209,0.003 0.0877,-0.04 0.005,-0.003 0.0111,-0.007 0.0142,-0.009 0.0104,-0.006 0.0421,-0.0259 0.0472,-0.0292 0.003,-0.002 0.0282,-0.0164 0.0564,-0.0325 0.0282,-0.0161 0.0535,-0.0307 0.0563,-0.0325 0.0127,-0.008 0.14321,-0.0741 0.18454,-0.0933 0.0197,-0.009 0.0466,-0.0218 0.0597,-0.028 0.0131,-0.006 0.0385,-0.017 0.0563,-0.0239 0.0285,-0.0111 0.0429,-0.017 0.07,-0.0291 0.004,-0.002 0.0199,-0.007 0.0359,-0.0129 0.0584,-0.0196 0.0838,-0.0284 0.0905,-0.0313 0.004,-0.002 0.0214,-0.007 0.0393,-0.012 0.0179,-0.005 0.0355,-0.0103 0.0393,-0.0119 0.008,-0.004 0.0176,-0.006 0.11277,-0.0292 0.0413,-0.0101 0.092,-0.0216 0.11271,-0.0256 0.0207,-0.004 0.0464,-0.009 0.0571,-0.0121 0.0107,-0.003 0.0252,-0.005 0.0321,-0.005 0.007,0 0.0242,-0.002 0.0385,-0.005 0.0533,-0.01 0.11376,-0.0171 0.21554,-0.0256 0.009,-6.9e-4 0.0228,-0.002 0.0353,-0.003 l -0.002,-0.0574 0.002,0.0576 0.0328,-0.002 c 0.018,-0.001 0.0558,-0.004 0.084,-0.006 0.0304,-0.002 0.15328,-0.003 0.30318,-0.003 l 0.25204,8.1e-4 0.009,-0.008 c 0.0119,-0.0119 0.0143,-0.0363 0.007,-0.0777 -0.006,-0.0351 -0.0104,-0.0667 -0.0177,-0.12179 -0.0158,-0.11818 -0.0167,-0.12216 -0.0307,-0.13451 -0.0134,-0.0118 -0.0157,-0.0122 -0.10246,-0.0172 -0.11333,-0.007 -0.17376,-0.0107 -0.23395,-0.0158 -0.0329,-0.003 -0.0716,-0.005 -0.0861,-0.005 -0.0263,3e-5 -0.10463,-0.005 -0.12401,-0.009 -0.008,-0.001 -0.0116,-0.005 -0.0159,-0.0144 -0.0196,-0.0438 -0.0258,-0.0571 -0.0405,-0.0862 -0.009,-0.0178 -0.0218,-0.0425 -0.0286,-0.0547 -0.007,-0.0122 -0.0143,-0.0261 -0.0166,-0.0308 -0.002,-0.005 -0.009,-0.015 -0.0137,-0.023 -0.005,-0.008 -0.009,-0.0153 -0.009,-0.0162 0,-9.8e-4 -0.005,-0.009 -0.0111,-0.0182 -0.006,-0.009 -0.0126,-0.0189 -0.0145,-0.022 -0.0353,-0.0582 -0.12498,-0.15843 -0.1812,-0.20251 -0.0328,-0.0257 -0.0742,-0.0518 -0.10234,-0.0645 -0.0113,-0.005 -0.0227,-0.0104 -0.0256,-0.0119 -0.003,-0.001 -0.019,-0.007 -0.0358,-0.0119 -0.0169,-0.005 -0.0354,-0.0107 -0.041,-0.0126 -0.007,-0.002 -0.0317,-0.006 -0.0584,-0.009 -10e-5,-2e-5 -2.4e-4,-5e-5 -3.6e-4,-6e-5 -0.009,-10e-4 -0.0169,-0.002 -0.0258,-0.003 -0.008,-8.7e-4 -0.0152,-0.002 -0.0222,-0.002 -0.003,-2.8e-4 -0.005,-2.7e-4 -0.007,-5e-4 -0.008,-6.8e-4 -0.0179,-0.002 -0.0224,-0.002 z m -0.10079,0.0146 c 2e-5,0.002 0.015,0.01 0.0333,0.0162 0.0241,0.009 0.0607,0.0255 0.0972,0.044 -0.0365,-0.0185 -0.0731,-0.0352 -0.0972,-0.0439 -0.0183,-0.007 -0.0333,-0.0139 -0.0333,-0.0162 z m 0.26656,0.1418 c 0.0139,0.01 0.0275,0.0202 0.0373,0.028 0.0114,0.009 0.0249,0.0208 0.0393,0.0339 0.0143,0.0131 0.0295,0.0278 0.0444,0.0426 -0.0149,-0.0149 -0.0301,-0.0295 -0.0444,-0.0426 -0.0144,-0.0131 -0.0278,-0.0248 -0.0393,-0.0338 -0.01,-0.008 -0.0234,-0.018 -0.0373,-0.028 z m -1.78361,0.33807 c -0.0437,5.8e-4 -0.0953,0.0117 -0.13872,0.0318 -0.0402,0.0186 -0.0745,0.0435 -0.10919,0.0795 -0.0513,0.0532 -0.0787,0.10162 -0.0978,0.17293 l -0.0106,0.0395 -0.002,0.35697 c -0.002,0.3334 -0.002,0.35814 -0.008,0.37568 -0.0139,0.0419 -0.0366,0.0748 -0.0673,0.0973 -0.0258,0.019 -0.0495,0.0278 -0.0919,0.0342 -0.0722,0.0108 -0.099,0.031 -0.10962,0.0824 -0.008,0.0378 0.006,0.0779 0.0338,0.0992 0.0171,0.0131 0.0375,0.0195 0.0829,0.0261 0.0446,0.007 0.073,0.0203 0.10259,0.0498 0.0231,0.0231 0.0381,0.0479 0.0495,0.0823 0.006,0.0176 0.006,0.0418 0.008,0.37402 l 0.002,0.35518 0.01,0.0359 c 0.0207,0.0767 0.0534,0.13364 0.10777,0.18805 0.06,0.06 0.1266,0.091 0.21196,0.0987 0.0866,0.008 0.13476,-0.0181 0.1476,-0.0794 0.008,-0.0361 -0.0102,-0.0792 -0.0395,-0.0962 -0.0173,-0.01 -0.034,-0.0146 -0.0768,-0.0209 -0.0468,-0.007 -0.0807,-0.024 -0.11073,-0.0559 -0.0226,-0.024 -0.0392,-0.0528 -0.0473,-0.0824 -0.003,-0.0114 -0.005,-0.10609 -0.006,-0.37216 -0.002,-0.37872 -0.002,-0.36404 -0.0182,-0.41879 -0.016,-0.0532 -0.0382,-0.089 -0.0821,-0.13297 l -0.0312,-0.0312 0.0246,-0.023 c 0.0405,-0.0377 0.0737,-0.0869 0.0877,-0.13018 0.0175,-0.0541 0.0169,-0.0396 0.0191,-0.42516 0.002,-0.33496 0.002,-0.36167 0.008,-0.37914 0.0201,-0.0611 0.0615,-0.10466 0.11876,-0.12488 0.007,-0.002 0.0257,-0.006 0.0412,-0.008 0.061,-0.008 0.0857,-0.0216 0.10333,-0.0562 0.025,-0.0489 0.004,-0.11046 -0.0445,-0.13204 -0.0172,-0.008 -0.0406,-0.011 -0.0668,-0.0107 z m 3.58179,1.8e-4 c -0.044,-5.2e-4 -0.0668,0.006 -0.0884,0.0249 -0.0204,0.018 -0.0299,0.0367 -0.0321,0.063 -0.002,0.0312 0.006,0.056 0.0257,0.0765 0.0187,0.0193 0.0341,0.0249 0.0895,0.0327 0.0757,0.0107 0.12603,0.0503 0.15335,0.12056 l 0.009,0.0228 0.002,0.35691 c 0.002,0.3468 0.002,0.35783 0.009,0.38859 0.0187,0.0825 0.0429,0.12654 0.0988,0.18021 l 0.025,0.024 -0.0293,0.0289 c -0.033,0.0327 -0.0654,0.0784 -0.0765,0.10802 -0.0108,0.0289 -0.02,0.0701 -0.0239,0.10721 -0.002,0.0191 -0.003,0.16642 -0.003,0.35852 -1.1e-4,0.36253 5.8e-4,0.34877 -0.0232,0.39421 -0.0285,0.0544 -0.076,0.0866 -0.14117,0.0959 -0.0602,0.009 -0.0818,0.0174 -0.0973,0.0398 -0.0284,0.041 -0.0237,0.0975 0.0109,0.12932 0.0181,0.0167 0.0322,0.0232 0.0589,0.0271 0.0107,0.002 0.0255,0.002 0.033,0.002 0.0459,-0.004 0.0584,-0.006 0.0865,-0.0135 0.11037,-0.0295 0.21031,-0.1256 0.24828,-0.2387 0.0209,-0.0623 0.0198,-0.0404 0.0222,-0.42731 0.002,-0.25936 0.003,-0.3592 0.006,-0.36994 0.008,-0.0287 0.026,-0.0602 0.048,-0.0835 0.0288,-0.0306 0.0641,-0.0485 0.10629,-0.0539 0.0825,-0.0105 0.11543,-0.037 0.11882,-0.0955 0.003,-0.0613 -0.025,-0.0949 -0.0915,-0.1074 -0.0575,-0.0108 -0.0639,-0.0125 -0.0851,-0.0225 -0.0276,-0.013 -0.0639,-0.0487 -0.078,-0.0767 -0.0244,-0.0482 -0.0226,-0.0195 -0.0247,-0.41329 l -0.002,-0.35524 -0.01,-0.0355 c -0.0128,-0.0473 -0.0279,-0.0822 -0.0506,-0.11704 -0.0736,-0.11285 -0.1711,-0.16939 -0.29478,-0.17089 z m -0.82721,0.6037 c -0.008,-1.4e-4 -0.0138,0.003 -0.0196,0.008 -0.0123,0.0116 -0.0128,0.0227 -0.002,0.055 0.005,0.016 0.0112,0.0344 0.0131,0.0409 0.002,0.007 0.009,0.0312 0.016,0.0546 0.0114,0.039 0.0196,0.07 0.0242,0.0922 0.001,0.005 0.005,0.0216 0.008,0.0376 0.0468,0.2122 0.0449,0.44759 -0.005,0.66435 -0.0119,0.0515 -0.0149,0.063 -0.0271,0.10585 -0.007,0.0244 -0.0142,0.0502 -0.0161,0.0572 -0.002,0.007 -0.005,0.0128 -0.006,0.0128 -0.001,0 -0.0186,-0.015 -0.0381,-0.0333 -0.0413,-0.0387 -0.19499,-0.18039 -0.25847,-0.23839 0.003,0.003 -0.0121,-0.011 -0.0538,-0.0498 -0.0401,-0.0374 -0.0556,-0.0387 -0.0823,-0.007 -0.009,0.0106 -0.0224,0.0262 -0.0299,0.0347 -0.008,0.008 -0.0338,0.0391 -0.0582,0.068 -0.0244,0.0289 -0.0728,0.0858 -0.10758,0.12642 -0.0348,0.0406 -0.0709,0.0828 -0.0803,0.0938 -0.009,0.011 -0.0322,0.0378 -0.0506,0.0597 -0.0184,0.0218 -0.0349,0.0393 -0.0366,0.0388 -0.002,-4.8e-4 -0.0273,-0.0196 -0.057,-0.0425 -0.0297,-0.0229 -0.0816,-0.0629 -0.11537,-0.0888 -0.12012,-0.092 -0.14264,-0.11026 -0.21647,-0.17515 -0.0714,-0.0627 -0.14422,-0.1388 -0.18979,-0.19818 -0.0183,-0.0239 -0.0659,-0.0942 -0.0739,-0.10919 -0.0133,-0.025 -0.0239,-0.0441 -0.0265,-0.0476 -0.002,-0.002 -0.009,-0.0187 -0.0172,-0.037 -0.008,-0.0183 -0.0166,-0.0375 -0.0193,-0.0427 -0.003,-0.005 -0.005,-0.0119 -0.005,-0.0148 0,-0.003 -0.001,-0.007 -0.003,-0.008 -0.003,-0.004 -0.0234,-0.0677 -0.0328,-0.1045 -0.008,-0.0294 -0.0192,-0.0416 -0.0402,-0.0416 l -7e-5,-6e-5 c -0.012,0 -0.0344,0.01 -0.12555,0.0549 -0.0684,0.0338 -0.1146,0.0588 -0.12043,0.0649 -0.0115,0.0121 -0.0162,0.0272 -0.0162,0.0523 0,0.0104 -0.002,0.0373 -0.005,0.0598 -0.003,0.0225 -0.006,0.0539 -0.007,0.0699 -10e-4,0.016 -0.004,0.0513 -0.007,0.0786 -0.003,0.0272 -0.007,0.0764 -0.0101,0.10931 -0.003,0.0329 -0.007,0.0759 -0.009,0.0956 -0.002,0.0197 -0.005,0.0551 -0.007,0.0786 -0.002,0.0235 -0.006,0.0619 -0.008,0.0854 -0.003,0.0235 -0.005,0.0502 -0.005,0.0594 0,0.009 -0.002,0.0369 -0.005,0.0615 -0.008,0.0743 -0.0136,0.13602 -0.0133,0.15347 4.8e-4,0.0337 0.0269,0.0433 0.0678,0.0248 0.0113,-0.005 0.0267,-0.0122 0.0341,-0.0157 0.0161,-0.008 0.033,-0.0151 0.0769,-0.0343 0.0179,-0.008 0.0409,-0.018 0.0512,-0.0227 0.0311,-0.0141 0.0384,-0.0174 0.0615,-0.0279 l 0.0222,-0.01 0.002,0.10635 c 0.001,0.0585 0.004,0.13933 0.006,0.17972 0.002,0.0404 0.005,0.10806 0.005,0.15032 0.004,0.16609 0.009,0.29298 0.0126,0.31152 0.005,0.024 0.0141,0.0342 0.0325,0.0345 0.0136,2.4e-4 0.0224,-0.003 0.0677,-0.0285 0.0247,-0.0136 0.0536,-0.0292 0.0871,-0.0469 0.0338,-0.0179 0.0887,-0.0475 0.10072,-0.0542 0.008,-0.004 0.0229,-0.0125 0.0341,-0.0183 0.0113,-0.006 0.0312,-0.0165 0.0444,-0.0235 0.0132,-0.007 0.0387,-0.0208 0.0568,-0.0305 l 0.0329,-0.0177 0.007,0.023 c 0.004,0.0127 0.0126,0.0416 0.0195,0.0641 0.007,0.0225 0.0144,0.0471 0.017,0.0546 0.002,0.007 0.008,0.0252 0.012,0.0393 0.004,0.0141 0.009,0.0318 0.012,0.0393 0.002,0.007 0.008,0.0252 0.0122,0.0393 0.004,0.0141 0.01,0.0333 0.0125,0.0427 0.003,0.009 0.007,0.0232 0.01,0.0308 0.002,0.007 0.008,0.0252 0.012,0.0393 0.008,0.0264 0.0282,0.0936 0.0359,0.11783 0.002,0.007 0.005,0.0185 0.007,0.0243 0.002,0.0117 0.0134,0.0236 0.0241,0.0262 0.0109,0.003 0.0267,-0.001 0.0346,-0.009 0.004,-0.004 0.0179,-0.0244 0.0307,-0.0461 0.0129,-0.0216 0.0257,-0.043 0.0286,-0.0474 0.003,-0.004 0.0256,-0.0416 0.0506,-0.0825 0.0251,-0.0409 0.0669,-0.10898 0.093,-0.15124 0.0261,-0.0423 0.0489,-0.0799 0.0506,-0.0837 0.003,-0.006 0.003,-0.006 0.007,0.005 0.002,0.007 0.007,0.0204 0.0109,0.0307 0.004,0.0103 0.009,0.0234 0.0109,0.0291 0.002,0.006 0.006,0.0151 0.008,0.021 0.003,0.006 0.005,0.012 0.005,0.0136 0,0.002 0.006,0.0166 0.0122,0.0336 0.0142,0.0358 0.0186,0.0472 0.029,0.0752 0.004,0.0113 0.009,0.0236 0.0105,0.0274 0.002,0.004 0.006,0.016 0.0101,0.0273 0.004,0.0113 0.0124,0.0336 0.0187,0.0495 0.006,0.016 0.0145,0.0381 0.0181,0.0491 0.005,0.0158 0.0125,0.0273 0.0212,0.0339 0.001,0.004 0.005,0.006 0.0112,0.007 v -6e-5 c 0.0128,0.002 0.0276,-0.004 0.0365,-0.014 0.005,-0.005 0.0224,-0.0288 0.0393,-0.0518 0.0484,-0.0658 0.15508,-0.20965 0.1993,-0.26872 0.0286,-0.0382 0.0287,-0.0383 0.0345,-0.0308 0.003,0.004 0.0233,0.0329 0.0448,0.0639 0.0215,0.031 0.0434,0.0625 0.0486,0.07 0.005,0.008 0.0209,0.0307 0.0348,0.0516 0.0139,0.0208 0.0276,0.0398 0.0305,0.0422 0.009,0.007 0.0292,0.005 0.0385,-0.004 0.01,-0.01 0.0195,-0.0449 0.0247,-0.0897 0.002,-0.0169 0.005,-0.0415 0.007,-0.0547 0.009,-0.0558 0.0139,-0.0917 0.0205,-0.13834 0.007,-0.0505 0.0125,-0.0877 0.0218,-0.14859 0.003,-0.0188 0.007,-0.0464 0.009,-0.0614 0.002,-0.015 0.005,-0.0335 0.006,-0.041 l 0.002,-0.0136 0.007,0.0154 c 0.004,0.008 0.0105,0.0238 0.0146,0.0341 0.008,0.0202 0.0154,0.037 0.0229,0.0524 0.003,0.005 0.005,0.0115 0.005,0.0138 0,0.002 0.005,0.008 0.01,0.0137 0.0132,0.0126 0.0318,0.0131 0.0438,10e-4 0.008,-0.008 0.009,-0.0123 0.0113,-0.0507 0.007,-0.10808 0.0104,-0.16534 0.0137,-0.25235 0.002,-0.0517 0.004,-0.0958 0.005,-0.0981 5.8e-4,-0.002 0.003,-0.0504 0.005,-0.10679 0.002,-0.0564 0.005,-0.10874 0.006,-0.11629 l 0.002,-0.0137 0.0303,0.0261 c 0.0311,0.0268 0.0426,0.0327 0.0578,0.0298 0.0113,-0.002 0.0229,-0.0145 0.0233,-0.0251 4.8e-4,-0.0103 -0.006,-0.0635 -0.0122,-0.10221 -0.003,-0.016 -0.007,-0.0475 -0.0104,-0.07 -0.003,-0.0225 -0.008,-0.0549 -0.0103,-0.0718 -0.005,-0.0294 -0.0133,-0.0902 -0.0238,-0.16391 -0.003,-0.0188 -0.007,-0.0457 -0.009,-0.0598 -0.002,-0.0141 -0.006,-0.0402 -0.008,-0.058 -0.006,-0.0432 -0.0144,-0.10193 -0.0274,-0.18787 -0.003,-0.0197 -0.007,-0.0466 -0.008,-0.0598 -0.002,-0.0131 -0.005,-0.0354 -0.007,-0.0495 -0.0118,-0.0775 -0.0188,-0.12602 -0.0258,-0.17867 -0.009,-0.068 -0.0152,-0.0789 -0.0579,-0.10018 -0.0131,-0.007 -0.0477,-0.0243 -0.0769,-0.0395 -0.0371,-0.0193 -0.0571,-0.0279 -0.0706,-0.0282 z m -0.51673,2.30424 c -0.002,0.007 -0.003,0.0131 -0.004,0.0172 3.6e-4,-0.004 0.002,-0.0102 0.004,-0.0172 z"
         id="path6413"
         inkscape:connector-curvature="0" />
      <g
         transform="matrix(0.46516055,0,0,0.46516055,26.882966,42.735943)"
         id="g6435"
         style="fill:#ffffff;fill-opacity:1">
        <path
           d="m 434.66308,-21.084689 h 0.58898 v -0.968954 h 0.36573 c 0.0617,0 0.11873,0 0.17574,-0.0047 0.40374,0.227989 0.35623,0.992703 1.18745,0.992703 0.19474,0 0.31822,-0.0285 0.31822,-0.0285 v -0.522477 h -0.13298 c -0.39899,0 -0.47024,-0.346733 -0.72197,-0.565222 0.44648,-0.218489 0.62222,-0.707718 0.62222,-1.05445 0,-0.698217 -0.44648,-1.187444 -1.33468,-1.187444 h -1.06871 z m 1.02596,-2.797617 c 0.55572,0 0.74096,0.280235 0.74096,0.645969 0,0.365733 -0.18999,0.660218 -0.74096,0.660218 h -0.43698 v -1.306187 z"
           style="font-style:normal;font-variant:normal;font-weight:normal;font-stretch:normal;font-size:43.74567413px;line-height:125%;font-family:'Trend Sans';-inkscape-font-specification:'Trend Sans';text-align:center;letter-spacing:0px;word-spacing:0px;text-anchor:middle;fill:#ffffff;fill-opacity:1;stroke:none;stroke-width:0.11874437;stroke-opacity:1"
           id="path6415"
           inkscape:connector-curvature="0" />
        <path
           d="m 415.89064,-23.882306 h 1.11619 v 2.797617 h 0.59373 v -2.797617 h 1.09719 v -0.541475 h -2.80711 z"
           style="font-style:normal;font-variant:normal;font-weight:normal;font-stretch:normal;font-size:43.74567413px;line-height:125%;font-family:'Trend Sans';-inkscape-font-specification:'Trend Sans';text-align:center;letter-spacing:0px;word-spacing:0px;text-anchor:middle;fill:#ffffff;fill-opacity:1;stroke:none;stroke-width:0.11874437;stroke-opacity:1"
           id="path6417"
           inkscape:connector-curvature="0" />
        <path
           d="m 419.66233,-21.084689 h 0.58896 v -0.968954 h 0.36573 c 0.0617,0 0.11875,0 0.17575,-0.0047 0.40373,0.227989 0.35624,0.992703 1.18746,0.992703 0.19473,0 0.31822,-0.0285 0.31822,-0.0285 v -0.522477 h -0.133 c -0.39897,0 -0.47022,-0.346733 -0.72195,-0.565222 0.44648,-0.218489 0.62222,-0.707718 0.62222,-1.05445 0,-0.698217 -0.44648,-1.187444 -1.33469,-1.187444 h -1.0687 z m 1.02595,-2.797617 c 0.55573,0 0.74097,0.280235 0.74097,0.645969 0,0.365733 -0.19,0.660218 -0.74097,0.660218 h -0.43699 v -1.306187 z"
           style="font-style:normal;font-variant:normal;font-weight:normal;font-stretch:normal;font-size:43.74567413px;line-height:125%;font-family:'Trend Sans';-inkscape-font-specification:'Trend Sans';text-align:center;letter-spacing:0px;word-spacing:0px;text-anchor:middle;fill:#ffffff;fill-opacity:1;stroke:none;stroke-width:0.11874437;stroke-opacity:1"
           id="path6419"
           inkscape:connector-curvature="0" />
        <path
           d="m 425.56184,-21.084689 h 0.59373 v -1.904661 c 0,-1.02595 -0.53198,-1.491429 -1.40118,-1.491429 -0.86921,0 -1.38219,0.465479 -1.38219,1.491429 v 1.904661 h 0.59373 v -0.797962 h 1.59591 z m -1.59591,-1.904661 c 0,-0.674466 0.33247,-0.949953 0.79796,-0.949953 0.46547,0 0.79795,0.242238 0.79795,0.954704 v 0.631719 c -0.15674,0 -1.30144,0 -1.59591,0.0047 z"
           style="font-style:normal;font-variant:normal;font-weight:normal;font-stretch:normal;font-size:43.74567413px;line-height:125%;font-family:'Trend Sans';-inkscape-font-specification:'Trend Sans';text-align:center;letter-spacing:0px;word-spacing:0px;text-anchor:middle;fill:#ffffff;fill-opacity:1;stroke:none;stroke-width:0.11874437;stroke-opacity:1"
           id="path6421"
           inkscape:connector-curvature="0" />
        <path
           d="m 427.60826,-24.423781 h -0.63172 l 1.54843,3.38184 h 0.19949 l 1.54843,-3.38184 h -0.61747 l -1.02596,2.279892 z"
           style="font-style:normal;font-variant:normal;font-weight:normal;font-stretch:normal;font-size:43.74567413px;line-height:125%;font-family:'Trend Sans';-inkscape-font-specification:'Trend Sans';text-align:center;letter-spacing:0px;word-spacing:0px;text-anchor:middle;fill:#ffffff;fill-opacity:1;stroke:none;stroke-width:0.11874437;stroke-opacity:1"
           id="path6423"
           inkscape:connector-curvature="0" />
        <path
           d="m 440.45336,-21.987147 c 0,-0.436979 -0.21375,-0.731465 -0.95945,-1.021201 -0.47023,-0.170992 -0.65073,-0.303985 -0.65073,-0.517725 0,-0.232739 0.1615,-0.427481 0.51298,-0.427481 0.25649,0 0.55097,0.113993 0.74571,0.22324 l 0.19,-0.522474 c -0.21375,-0.123495 -0.56523,-0.227991 -0.92146,-0.227991 -0.71248,0 -1.12096,0.465479 -1.12096,0.968955 0,0.398982 0.22326,0.707717 0.87397,0.945205 0.60322,0.22324 0.72672,0.356233 0.72672,0.579472 0,0.21374 -0.1805,0.408481 -0.57473,0.408481 -0.29924,0 -0.63171,-0.113993 -0.9072,-0.299236 l -0.20425,0.531975 c 0.30399,0.185241 0.69822,0.318235 1.09245,0.318235 0.74572,0 1.19695,-0.365732 1.19695,-0.959455 z"
           style="font-style:normal;font-variant:normal;font-weight:normal;font-stretch:normal;font-size:43.74567413px;line-height:125%;font-family:'Trend Sans';-inkscape-font-specification:'Trend Sans';text-align:center;letter-spacing:0px;word-spacing:0px;text-anchor:middle;fill:#ffffff;fill-opacity:1;stroke:none;stroke-width:0.11874437;stroke-opacity:1"
           id="path6425"
           inkscape:connector-curvature="0" />
        <path
           d="m 441.59293,-21.084689 h 2.17064 v -0.541475 h -1.58167 v -0.797962 h 1.43444 V -22.9466 h -1.43444 v -0.935706 h 1.58167 v -0.541475 h -2.17064 z"
           style="font-style:normal;font-variant:normal;font-weight:normal;font-stretch:normal;font-size:43.74567413px;line-height:125%;font-family:'Trend Sans';-inkscape-font-specification:'Trend Sans';text-align:center;letter-spacing:0px;word-spacing:0px;text-anchor:middle;fill:#ffffff;fill-opacity:1;stroke:none;stroke-width:0.11874437;stroke-opacity:1"
           id="path6427"
           inkscape:connector-curvature="0" />
        <path
           d="m 446.47429,-20.892324 c -0.79321,-0.42748 -1.1827,-1.021201 -1.1827,-1.861912 0,-0.84071 0.38949,-1.439181 1.1827,-1.866662 l -0.24699,-0.375231 c -0.95471,0.503477 -1.45343,1.26344 -1.45343,2.241893 0,0.978454 0.49872,1.733668 1.45343,2.241894 z"
           style="font-style:normal;font-variant:normal;font-weight:normal;font-stretch:normal;font-size:43.74567413px;line-height:125%;font-family:'Trend Sans';-inkscape-font-specification:'Trend Sans';text-align:center;letter-spacing:0px;word-spacing:0px;text-anchor:middle;fill:#ffffff;fill-opacity:1;stroke:none;stroke-width:0.11874437;stroke-opacity:1"
           id="path6429"
           inkscape:connector-curvature="0" />
        <path
           d="m 447.46818,-20.512342 c 0.95471,-0.508226 1.45343,-1.26344 1.45343,-2.241894 0,-0.968953 -0.49872,-1.719418 -1.45343,-2.218145 l -0.247,0.375232 c 0.79322,0.422731 1.1827,1.011703 1.1827,1.842913 0,0.840711 -0.38948,1.434432 -1.1827,1.861912 z"
           style="font-style:normal;font-variant:normal;font-weight:normal;font-stretch:normal;font-size:43.74567413px;line-height:125%;font-family:'Trend Sans';-inkscape-font-specification:'Trend Sans';text-align:center;letter-spacing:0px;word-spacing:0px;text-anchor:middle;fill:#ffffff;fill-opacity:1;stroke:none;stroke-width:0.11874437;stroke-opacity:1"
           id="path6431"
           inkscape:connector-curvature="0" />
        <path
           d="m 431.2399,-21.084689 h 2.17065 v -0.541475 h -1.58168 v -0.797962 h 1.43444 V -22.9466 h -1.43444 v -0.935706 h 1.58168 v -0.541475 h -2.17065 z"
           style="font-style:normal;font-variant:normal;font-weight:normal;font-stretch:normal;font-size:43.74567413px;line-height:125%;font-family:'Trend Sans';-inkscape-font-specification:'Trend Sans';text-align:center;letter-spacing:0px;word-spacing:0px;text-anchor:middle;fill:#ffffff;fill-opacity:1;stroke:none;stroke-width:0.11874437;stroke-opacity:1"
           id="path6433"
           inkscape:connector-curvature="0" />
      </g>
    </g>
  </g>
</svg>
