<?xml version="1.0" encoding="UTF-8" standalone="no"?>
<!-- Created with Inkscape (http://www.inkscape.org/) -->

<svg
   xmlns:dc="http://purl.org/dc/elements/1.1/"
   xmlns:cc="http://creativecommons.org/ns#"
   xmlns:rdf="http://www.w3.org/1999/02/22-rdf-syntax-ns#"
   xmlns:svg="http://www.w3.org/2000/svg"
   xmlns="http://www.w3.org/2000/svg"
   xmlns:sodipodi="http://sodipodi.sourceforge.net/DTD/sodipodi-0.dtd"
   xmlns:inkscape="http://www.inkscape.org/namespaces/inkscape"
   width="145.6002mm"
   height="168.12572mm"
   viewBox="0 0 145.6002 168.12572"
   version="1.1"
   id="svg5744"
   inkscape:version="0.92.4 (5da689c313, 2019-01-14)"
   sodipodi:docname="tubbs.svg">
  <defs
     id="defs5738" />
  <sodipodi:namedview
     id="base"
     pagecolor="#ffffff"
     bordercolor="#666666"
     borderopacity="1.0"
     inkscape:pageopacity="0.0"
     inkscape:pageshadow="2"
     inkscape:zoom="0.49497475"
     inkscape:cx="223.33892"
     inkscape:cy="235.94584"
     inkscape:document-units="mm"
     inkscape:current-layer="layer1"
     showgrid="false"
     fit-margin-top="0"
     fit-margin-left="0"
     fit-margin-right="0"
     fit-margin-bottom="0"
     inkscape:window-width="1680"
     inkscape:window-height="1013"
     inkscape:window-x="0"
     inkscape:window-y="0"
     inkscape:window-maximized="1" />
  <metadata
     id="metadata5741">
    <rdf:RDF>
      <cc:Work
         rdf:about="">
        <dc:format>image/svg+xml</dc:format>
        <dc:type
           rdf:resource="http://purl.org/dc/dcmitype/StillImage" />
        <dc:title />
      </cc:Work>
    </rdf:RDF>
  </metadata>
  <g
     inkscape:label="Layer 1"
     inkscape:groupmode="layer"
     id="layer1"
     transform="translate(28.198915,-162.28833)">
    <path
       inkscape:transform-center-y="-6.7733216e-06"
       inkscape:transform-center-x="1.5017416e-06"
       d="m 72.525381,262.47324 -27.924192,16.12204 -27.924192,-16.12204 0,-32.24408 27.924192,-16.12204 27.924192,16.12204 z"
       inkscape:randomized="0"
       inkscape:rounded="0"
       inkscape:flatsided="true"
       sodipodi:arg2="1.0471976"
       sodipodi:arg1="0.52359878"
       sodipodi:r2="27.924192"
       sodipodi:r1="32.24408"
       sodipodi:cy="246.3512"
       sodipodi:cx="44.601189"
       sodipodi:sides="6"
       id="path2256-7"
       style="opacity:1;fill:#fceabf;fill-opacity:1;stroke:#c69249;stroke-width:1.46500003;stroke-linecap:round;stroke-linejoin:round;stroke-miterlimit:4;stroke-dasharray:none;stroke-dashoffset:0;stroke-opacity:1"
       sodipodi:type="star"
       transform="matrix(2.5404225,0,0,2.5491693,-68.704673,-381.63972)" />
    <path
       style="font-style:normal;font-variant:normal;font-weight:normal;font-stretch:normal;font-size:0.68592715px;line-height:1.25;font-family:sans-serif;-inkscape-font-specification:Acre;letter-spacing:0px;word-spacing:0px;fill:#c69249;fill-opacity:1;stroke:none;stroke-width:0.00241251"
       d="m 48.780314,177.74653 c -0.04293,0 -0.0691,0.0127 -0.09857,0.0416 l -0.0409,0.0416 -0.0127,0.65263 c -0.0076,0.64158 -0.02032,0.815 -0.07621,1.05946 -0.01524,0.0813 -0.07926,0.27883 -0.100601,0.32316 -0.08841,0.18533 -0.126767,0.2488 -0.228384,0.3811 -0.05309,0.0693 -0.157506,0.18227 -0.231686,0.25084 -0.138453,0.12772 -0.154966,0.15346 -0.152934,0.22994 0.0013,0.0436 0.06834,0.13102 0.100601,0.13128 0.09857,5.6e-4 0.231941,0.10018 0.290955,0.21668 0.03684,0.076 0.09704,0.24319 0.09704,0.2772 0,0.0255 0.07774,0.0956 0.113811,0.10222 v 3.3e-4 c 0.0409,0.0127 0.14582,-0.0153 0.174273,-0.0423 0.0127,-0.0127 0.0409,-0.0288 0.06046,-0.037 0.09654,-0.0416 0.304063,-0.20419 0.441601,-0.34618 0.244389,-0.25211 0.347022,-0.44447 0.431796,-0.81007 0.03684,-0.16111 0.0409,-0.19094 0.03277,-0.42638 -0.0076,-0.23987 -0.02032,-0.35767 -0.0818,-0.59559 -0.0254,-0.10222 -0.132102,-0.44047 -0.156236,-0.49458 -0.0076,-0.0153 -0.0409,-0.0956 -0.07418,-0.17488 -0.03277,-0.0793 -0.09781,-0.21693 -0.14328,-0.30429 -0.218223,-0.42156 -0.257421,-0.47512 -0.349918,-0.47512 z m -11.074083,0.74676 c -0.02871,0 -0.0564,0.0127 -0.0785,0.0329 -0.05005,0.0469 -0.06021,0.13103 -0.03277,0.26239 0.0127,0.0607 0.03277,0.15856 0.0409,0.21719 0.03684,0.25058 0.08714,0.54659 0.113811,0.69255 0.0127,0.0627 0.03684,0.19629 0.05284,0.29688 0.05005,0.28459 0.07189,0.38765 0.154204,0.72934 0.07901,0.32852 0.216952,0.77296 0.270098,0.87292 0.0076,0.0127 0.04293,0.0879 0.0785,0.1634 0.08231,0.17487 0.131848,0.25665 0.257827,0.42698 0.160301,0.21643 0.417036,0.44843 0.612801,0.55435 0.03277,0.0153 0.07088,0.037 0.08358,0.0469 0.02871,0.0204 0.162333,0.076 0.175289,0.076 0.0051,0 0.03277,0.0127 0.05818,0.0204 0.116097,0.0523 0.461163,0.12822 0.669884,0.14658 0.169446,0.0127 0.784635,0 0.917829,-0.0153 0.05436,-0.0127 0.170208,-0.0255 0.257828,-0.037 0.322455,-0.0446 0.429077,-0.0693 0.504172,-0.11701 0.0757,-0.0489 0.173003,-0.15524 0.213141,-0.23452 0.03684,-0.0686 0.08637,-0.28293 0.08637,-0.35931 -1.78e-4,-0.0859 -0.05208,-0.301 -0.09044,-0.37697 -0.03684,-0.0739 -0.186976,-0.23733 -0.259047,-0.28293 -0.105682,-0.0673 -0.261918,-0.0999 -0.50778,-0.10758 -0.544362,-0.0153 -1.124086,-0.11038 -1.426092,-0.2307 -0.331906,-0.1323 -0.588692,-0.29894 -0.805618,-0.52413 -0.101871,-0.10554 -0.279091,-0.32112 -0.279091,-0.3396 0,0 -0.02032,-0.0416 -0.05157,-0.0806 -0.147344,-0.20623 -0.415105,-0.71415 -0.623775,-1.18363 -0.0127,-0.0255 -0.04547,-0.10095 -0.0757,-0.168 -0.02871,-0.0673 -0.0658,-0.14581 -0.0785,-0.17487 -0.0127,-0.0288 -0.03684,-0.0805 -0.0503,-0.1142 -0.0127,-0.0329 -0.03277,-0.0752 -0.03684,-0.0923 -0.02032,-0.0653 -0.08638,-0.10299 -0.150139,-0.0997 z m 6.126941,0.76327 c -0.0013,0 -0.0025,2e-4 -0.0051,2e-4 -4.32e-4,0 -0.0013,0 -0.002,0 -0.0013,0 -0.0051,5.4e-4 -0.0076,10e-4 -0.208315,0 -0.571036,0.0574 -0.901926,0.13766 -0.104411,0.0255 -0.218476,0.0523 -0.25328,0.0599 -0.07316,0.0153 -0.207807,0.0566 -0.262731,0.0793 -0.02032,0.0127 -0.09933,0.0329 -0.174273,0.0586 -0.07494,0.0204 -0.174273,0.0574 -0.220254,0.076 -0.04573,0.0153 -0.108476,0.0416 -0.138707,0.0477 -0.135151,0.037 -0.197137,0.1843 -0.113049,0.26899 l 0.0409,0.0416 h 0.337215 c 0.372401,0 0.686118,0.0204 0.906321,0.0607 0.206283,0.0329 0.474628,0.10757 0.561231,0.1532 0.02032,0.0127 0.04471,0.0204 0.05233,0.0204 0.03277,7e-5 0.255364,0.11904 0.394909,0.21158 0.166652,0.11038 0.443532,0.36876 0.585364,0.54585 0.1194,0.14913 0.326165,0.45149 0.435886,0.63798 0.101109,0.17156 0.200185,0.35069 0.200185,0.36137 0,0 -0.03684,0.0128 -0.07926,0.0204 -0.209077,0.0416 -0.625681,0.13179 -0.754887,0.16518 -0.07926,0.0204 -0.184942,0.0469 -0.235243,0.0586 -0.17224,0.0423 -0.683983,0.20317 -0.775997,0.24396 -0.0254,0.0127 -0.05563,0.0204 -0.06504,0.0204 -0.0076,0 -0.04624,0.0128 -0.08155,0.0288 -0.03684,0.0127 -0.0945,0.0416 -0.131848,0.0553 -0.03684,0.0128 -0.09044,0.037 -0.117875,0.0482 -0.02871,0.0128 -0.05614,0.0204 -0.06427,0.0204 -0.0076,0 -0.06758,0.0255 -0.132102,0.0543 -0.06478,0.0288 -0.137945,0.064 -0.163349,0.0739 -0.0254,0.0128 -0.120416,0.0553 -0.212379,0.0989 -0.230671,0.10885 -0.391225,0.19093 -0.751076,0.38518 -0.0724,0.041 -0.265982,0.15244 -0.452881,0.26526 -0.02871,0.0204 -0.0658,0.037 -0.07825,0.0449 -0.0127,0 -0.05005,0.0288 -0.08358,0.0502 -0.03277,0.0204 -0.07444,0.0469 -0.09095,0.0553 -0.04878,0.0288 -0.275433,0.16595 -0.333939,0.20444 -0.02032,0.0127 -0.09044,0.0574 -0.158776,0.0989 -0.06834,0.0423 -0.139978,0.0859 -0.159285,0.0989 -0.02032,0.0128 -0.07164,0.0456 -0.116097,0.0739 -0.04471,0.0288 -0.139215,0.0872 -0.209839,0.1323 -0.07088,0.0449 -0.165381,0.10426 -0.209839,0.1323 -0.04471,0.0288 -0.09704,0.0607 -0.116097,0.0739 -0.02032,0.0128 -0.08892,0.0553 -0.154204,0.0943 -0.165381,0.0989 -0.221525,0.16009 -0.221525,0.23988 0,0.0329 0.0127,0.0739 0.02032,0.0892 0.02032,0.0255 0.214157,0.29649 0.446022,0.63255 0.146582,0.21234 0.168176,0.23707 0.221779,0.25135 0.07824,0.0204 0.09298,0.0127 0.389599,-0.17819 0.02032,-0.0128 0.04903,-0.0329 0.063,-0.0416 0.04573,-0.0288 0.186721,-0.11548 0.209585,-0.12976 0.0127,-0.0127 0.125243,-0.0727 0.250486,-0.14453 0.125243,-0.0719 0.237783,-0.13715 0.249977,-0.14505 0.05614,-0.037 0.636021,-0.33017 0.819566,-0.41569 0.08714,-0.0416 0.207044,-0.0969 0.265195,-0.12491 0.05843,-0.0288 0.170716,-0.0752 0.249977,-0.1063 0.126513,-0.049 0.190786,-0.076 0.310999,-0.12925 0.01524,-0.0127 0.08841,-0.0329 0.159284,-0.0576 0.259454,-0.0879 0.371994,-0.12644 0.40187,-0.13969 0.01524,-0.0128 0.09527,-0.0329 0.174273,-0.0533 0.07926,-0.0204 0.157506,-0.0456 0.174273,-0.0533 0.03684,-0.0153 0.07824,-0.0255 0.50092,-0.13026 0.183673,-0.0444 0.40883,-0.0966 0.500616,-0.11471 0.09171,-0.0153 0.205774,-0.0423 0.253788,-0.0543 0.04776,-0.0128 0.112033,-0.0204 0.142518,-0.0204 0.02871,0 0.107714,-0.0128 0.170716,-0.0204 0.237022,-0.0449 0.505316,-0.076 0.957358,-0.11369 0.0409,0 0.101363,-0.0128 0.156236,-0.0128 l -0.0127,-0.25624 0.0127,0.25706 0.145312,-0.0127 c 0.08028,0 0.247946,-0.0153 0.373214,-0.0255 0.135404,-0.0127 0.680808,-0.0127 1.346576,-0.0127 h 1.119412 l 0.03684,-0.037 c 0.05259,-0.0533 0.06351,-0.16187 0.03277,-0.34658 -0.0254,-0.15652 -0.04624,-0.29731 -0.07901,-0.54282 -0.06986,-0.52674 -0.07418,-0.54455 -0.136674,-0.59954 -0.05945,-0.0523 -0.06961,-0.0543 -0.455092,-0.076 -0.503308,-0.0288 -0.771729,-0.0477 -1.039083,-0.0706 -0.14582,-0.0127 -0.317985,-0.0204 -0.382232,-0.0204 -0.116605,8e-5 -0.464745,-0.0255 -0.550789,-0.037 -0.03277,0 -0.05157,-0.0204 -0.07088,-0.064 -0.08714,-0.19552 -0.114573,-0.25415 -0.179608,-0.38436 -0.0409,-0.0793 -0.09704,-0.1889 -0.126767,-0.24345 -0.02871,-0.0543 -0.06351,-0.11624 -0.07418,-0.13714 -0.0127,-0.0204 -0.03684,-0.0673 -0.06097,-0.10222 -0.02032,-0.037 -0.04141,-0.0673 -0.04141,-0.0727 0,0 -0.02032,-0.0416 -0.04928,-0.0813 -0.02871,-0.0416 -0.05614,-0.0846 -0.06427,-0.0976 -0.156744,-0.25953 -0.555133,-0.70576 -0.804806,-0.90222 -0.145566,-0.11446 -0.329442,-0.23121 -0.454583,-0.28745 -0.05005,-0.0204 -0.101109,-0.0469 -0.113303,-0.0533 -0.0127,0 -0.08434,-0.0288 -0.159284,-0.0533 -0.07494,-0.0204 -0.157253,-0.0477 -0.182149,-0.0566 -0.03277,-0.0127 -0.140739,-0.0288 -0.259453,-0.0416 -4.57e-4,-1e-4 -0.0013,-2e-4 -0.0013,-2e-4 -0.0409,0 -0.07494,-0.0127 -0.114574,-0.0127 -0.03684,0 -0.06757,-0.0127 -0.09908,-0.0127 -0.01524,0 -0.02871,0 -0.04369,0 -0.03277,0 -0.07088,0 -0.08892,0 z m -0.447674,0.064 c 1.27e-4,0.0128 0.06681,0.0436 0.147853,0.0727 0.160809,0.0576 0.446174,0.19706 0.667648,0.32194 0.07367,0.0416 0.14074,0.0813 0.193072,0.11573 0.04979,0.0329 0.113303,0.078 0.17529,0.12236 0.06173,0.0444 0.12194,0.0902 0.166143,0.12491 0.101363,0.0806 0.239308,0.20852 0.371588,0.34085 -0.132102,-0.1323 -0.270098,-0.25994 -0.371588,-0.34042 -0.04369,-0.0329 -0.104411,-0.0806 -0.166143,-0.12516 -0.06173,-0.0446 -0.125243,-0.0892 -0.17529,-0.12185 -0.05284,-0.0329 -0.119145,-0.0752 -0.193072,-0.11624 -0.221525,-0.1244 -0.506814,-0.26364 -0.667648,-0.32153 -0.08104,-0.0288 -0.147853,-0.0619 -0.147853,-0.0726 0,0 0,-2e-4 0,-2e-4 z m -6.738064,2.13896 c -0.194342,0 -0.423285,0.0523 -0.616103,0.14173 -0.178338,0.0826 -0.331068,0.19374 -0.484992,0.35439 -0.227876,0.23707 -0.349486,0.45266 -0.434489,0.77046 l -0.047,0.17615 -0.0076,1.59096 c -0.0076,1.48586 -0.0127,1.59616 -0.03684,1.6744 -0.06173,0.18634 -0.162587,0.33302 -0.299134,0.43371 -0.114574,0.0846 -0.219747,0.12415 -0.408018,0.15244 -0.32083,0.049 -0.439721,0.13791 -0.486897,0.36752 -0.03277,0.1685 0.0254,0.34699 0.150139,0.4423 0.07621,0.0586 0.166652,0.0869 0.36831,0.11624 0.198153,0.0288 0.324514,0.0902 0.4556,0.22229 0.102633,0.10222 0.168938,0.21311 0.219746,0.36629 0.0254,0.078 0.02871,0.18609 0.03684,1.66688 l 0.0076,1.58326 0.04293,0.15984 c 0.09196,0.34163 0.237021,0.59558 0.478641,0.83811 0.266414,0.26733 0.562348,0.40573 0.941429,0.43991 0.384697,0.0329 0.59827,-0.0805 0.655353,-0.35354 0.03277,-0.1606 -0.04496,-0.35276 -0.175543,-0.42852 -0.07698,-0.0444 -0.150901,-0.0653 -0.340899,-0.0923 -0.207807,-0.0329 -0.358479,-0.10757 -0.492055,-0.24931 -0.100346,-0.1063 -0.174019,-0.23529 -0.210347,-0.3671 -0.0127,-0.051 -0.02032,-0.47305 -0.02871,-1.65882 -0.0127,-1.68801 -0.0076,-1.62227 -0.08079,-1.8663 -0.07113,-0.23682 -0.1697,-0.39709 -0.365033,-0.59289 l -0.138707,-0.13918 0.109746,-0.10222 c 0.180116,-0.1685 0.326978,-0.38725 0.389574,-0.5803 0.07774,-0.24089 0.07494,-0.17665 0.0846,-1.89505 0.0076,-1.49295 0.0127,-1.61192 0.03684,-1.68972 0.08917,-0.27225 0.273375,-0.46621 0.527798,-0.55638 0.03277,-0.0127 0.113811,-0.0288 0.182911,-0.037 0.27091,-0.037 0.38058,-0.0966 0.459206,-0.25058 0.111271,-0.2177 0.02032,-0.4921 -0.198153,-0.58825 -0.07621,-0.0329 -0.18037,-0.0489 -0.296696,-0.0477 z m 15.90871,0.001 c -0.195613,0 -0.296696,0.0255 -0.392445,0.1114 -0.09095,0.0806 -0.132864,0.16289 -0.142517,0.28046 -0.0127,0.13918 0.0254,0.24931 0.114065,0.34123 0.08307,0.0859 0.151409,0.11089 0.397754,0.14581 0.335996,0.0477 0.559756,0.22382 0.681112,0.53709 l 0.0409,0.10222 0.0076,1.59063 c 0.0076,1.54574 0.0127,1.59484 0.0409,1.73196 0.08307,0.36754 0.190278,0.56398 0.438909,0.80314 l 0.111016,0.1063 -0.129815,0.1295 c -0.146837,0.14581 -0.290574,0.34944 -0.340061,0.48143 -0.04776,0.12848 -0.08891,0.31248 -0.105936,0.47782 -0.0076,0.0846 -0.0127,0.74178 -0.01524,1.59782 -5.34e-4,1.61581 0.002,1.55423 -0.102633,1.75676 -0.126513,0.24217 -0.337622,0.3864 -0.627307,0.42765 -0.267252,0.037 -0.363001,0.078 -0.431745,0.17691 -0.126005,0.18277 -0.105173,0.43458 0.04827,0.57637 0.08028,0.0739 0.14328,0.10298 0.261486,0.12108 0.04751,0.0127 0.113303,0.0127 0.146582,0.0127 0.203742,-0.0153 0.259454,-0.0255 0.383833,-0.0599 0.490225,-0.13128 0.934113,-0.55974 1.102746,-1.06377 0.09298,-0.2776 0.08765,-0.18022 0.09857,-1.90474 0.0076,-1.15592 0.0127,-1.60098 0.02871,-1.64877 0.03684,-0.12823 0.115843,-0.26815 0.213141,-0.37203 0.128037,-0.13638 0.284832,-0.21642 0.472087,-0.24013 0.366252,-0.0469 0.512708,-0.16519 0.527773,-0.42599 0.01524,-0.2735 -0.111271,-0.42278 -0.406392,-0.4784 -0.255363,-0.0477 -0.283587,-0.0553 -0.378116,-0.10095 -0.122703,-0.0586 -0.283613,-0.21719 -0.346641,-0.34207 -0.108476,-0.21515 -0.100347,-0.0872 -0.109746,-1.84173 l -0.0076,-1.58336 -0.04268,-0.15805 c -0.05691,-0.21056 -0.123972,-0.36629 -0.224573,-0.52164 -0.326571,-0.5029 -0.759942,-0.75488 -1.309257,-0.76161 z m -3.674086,2.69057 c -0.03684,-5.3e-4 -0.06173,0.0128 -0.08663,0.037 -0.05487,0.051 -0.0564,0.10094 -0.0076,0.24472 0.02032,0.0706 0.04903,0.15346 0.05818,0.18277 0.0076,0.0288 0.0409,0.13919 0.07139,0.24345 0.05081,0.1736 0.08714,0.31166 0.107714,0.41092 0.0051,0.0204 0.02032,0.0969 0.03684,0.16748 0.207806,0.9458 0.200185,1.99491 -0.02032,2.96091 -0.05309,0.22943 -0.0663,0.28087 -0.120416,0.47175 -0.03277,0.10885 -0.06351,0.22331 -0.07189,0.255 -0.0076,0.0329 -0.02032,0.0576 -0.02871,0.0576 -0.0051,0 -0.08231,-0.066 -0.168938,-0.14836 -0.183419,-0.17207 -0.866056,-0.80399 -1.148017,-1.06245 0.0127,0.0127 -0.0536,-0.0489 -0.239054,-0.22177 -0.178084,-0.16672 -0.247183,-0.17258 -0.36544,-0.0329 -0.0409,0.0469 -0.09908,0.11701 -0.132864,0.15474 -0.03277,0.037 -0.150139,0.17461 -0.25864,0.30348 -0.108476,0.12898 -0.323294,0.38229 -0.477854,0.56344 -0.154203,0.18099 -0.314707,0.36917 -0.356446,0.41811 -0.04166,0.049 -0.142772,0.16825 -0.224574,0.26568 -0.0818,0.0976 -0.154712,0.17487 -0.162841,0.17334 -0.0076,0 -0.121432,-0.0872 -0.25328,-0.18966 -0.131848,-0.10222 -0.362163,-0.28046 -0.512378,-0.39586 -0.533539,-0.41024 -0.633556,-0.4914 -0.961448,-0.78063 -0.316791,-0.27964 -0.640542,-0.61856 -0.842963,-0.88321 -0.08155,-0.1063 -0.292581,-0.42005 -0.328197,-0.48697 -0.05894,-0.11165 -0.105936,-0.19628 -0.117876,-0.21183 -0.0051,-0.0127 -0.04166,-0.0839 -0.07698,-0.16519 -0.03684,-0.0813 -0.07367,-0.16672 -0.08561,-0.19017 -0.0127,-0.0204 -0.02032,-0.0533 -0.02032,-0.066 0,-0.0127 -0.0051,-0.0288 -0.0127,-0.037 -0.0127,-0.0153 -0.103904,-0.30182 -0.145821,-0.46575 -0.03277,-0.13103 -0.08561,-0.18558 -0.178845,-0.18558 h -2.8e-4 c -0.0536,0 -0.152679,0.0436 -0.557699,0.24472 -0.304063,0.15065 -0.508973,0.26157 -0.534886,0.28907 -0.05081,0.0543 -0.07189,0.1216 -0.07189,0.23274 0,0.0469 -0.0076,0.16621 -0.02032,0.26652 -0.0127,0.0997 -0.0254,0.24064 -0.03277,0.31168 -0.0051,0.0706 -0.02032,0.22866 -0.03277,0.35026 -0.0127,0.1216 -0.03277,0.34044 -0.04496,0.48687 -0.0127,0.14657 -0.02871,0.33837 -0.0409,0.42645 -0.0076,0.0879 -0.02032,0.24548 -0.03277,0.35028 -0.0076,0.10426 -0.0254,0.27595 -0.03684,0.38067 -0.0127,0.10426 -0.02032,0.22381 -0.02032,0.26485 0,0.041 -0.0127,0.16417 -0.02032,0.27432 -0.03684,0.33139 -0.06097,0.60619 -0.0597,0.68397 0.002,0.14989 0.119399,0.19297 0.301624,0.11089 0.04979,-0.0204 0.11813,-0.0543 0.151917,-0.0693 0.07164,-0.0329 0.146074,-0.0673 0.341281,-0.1527 0.07926,-0.0329 0.18164,-0.0806 0.227621,-0.10094 0.138453,-0.063 0.170209,-0.078 0.272969,-0.12415 l 0.09908,-0.0449 0.0127,0.47371 c 0.0051,0.26075 0.01524,0.62126 0.02541,0.80128 0.0076,0.18023 0.02032,0.48164 0.0254,0.67005 0.01524,0.7401 0.0409,1.3054 0.05614,1.3881 0.02032,0.10757 0.0625,0.15269 0.144042,0.15448 0.06021,9.4e-4 0.09857,-0.0128 0.30038,-0.12695 0.109746,-0.0607 0.238037,-0.13026 0.387135,-0.20929 0.150139,-0.0793 0.394095,-0.21158 0.447419,-0.2414 0.03277,-0.0204 0.101363,-0.0553 0.151917,-0.0813 0.05005,-0.0255 0.138707,-0.0739 0.197137,-0.10426 0.05868,-0.0329 0.17224,-0.0923 0.25201,-0.13587 l 0.146074,-0.0793 0.03277,0.10222 c 0.01524,0.0566 0.05614,0.18481 0.08637,0.28538 0.02871,0.10094 0.06427,0.2103 0.0752,0.24344 0.0127,0.0329 0.03684,0.11242 0.05309,0.17488 0.01524,0.0632 0.04217,0.14173 0.05309,0.17487 0.0127,0.0329 0.03684,0.11242 0.0536,0.17487 0.02032,0.063 0.04344,0.14862 0.05563,0.19043 0.0127,0.0423 0.03277,0.10298 0.04268,0.13663 0.0127,0.0329 0.03684,0.11242 0.05309,0.17487 0.03277,0.11752 0.124735,0.41735 0.159285,0.52523 0.0127,0.0329 0.0254,0.0826 0.02871,0.10885 0.0127,0.0523 0.0597,0.10554 0.107206,0.11701 0.04827,0.0128 0.118638,0 0.15395,-0.037 0.01524,-0.0153 0.07926,-0.10885 0.136675,-0.20572 0.05716,-0.0969 0.114065,-0.19144 0.126767,-0.21107 0.0127,-0.0204 0.113811,-0.18558 0.224573,-0.36792 0.11127,-0.18227 0.297102,-0.486 0.413123,-0.67436 0.115844,-0.18813 0.216953,-0.35604 0.22432,-0.37287 0.0127,-0.0288 0.0127,-0.0255 0.02871,0.0204 0.0076,0.0288 0.02871,0.0913 0.04827,0.13714 0.01524,0.0456 0.0409,0.10426 0.04827,0.12924 0.0076,0.0255 0.0254,0.0673 0.03684,0.0943 0.0127,0.0255 0.02032,0.0533 0.02032,0.0597 0,0 0.0254,0.0739 0.05437,0.1499 0.063,0.15983 0.08231,0.2103 0.128546,0.33508 0.02032,0.0502 0.0409,0.10554 0.04623,0.12211 0.0076,0.0153 0.02871,0.0719 0.04497,0.12159 0.01524,0.05 0.05487,0.1499 0.08307,0.22102 0.02871,0.0706 0.06427,0.16952 0.08028,0.21897 0.02032,0.0706 0.05564,0.1216 0.09399,0.15117 -5e-5,-2.1e-4 5.1e-5,-5.1e-4 0,-10e-4 0.0051,0.0204 0.02032,0.0255 0.05005,0.0288 l 2.79e-4,-3.3e-4 c 0.05665,0.0128 0.122449,-0.0153 0.161571,-0.0619 0.02032,-0.0255 0.09959,-0.12848 0.174273,-0.2307 0.21492,-0.29362 0.68881,-0.93427 0.885159,-1.19765 0.126768,-0.17003 0.127784,-0.1708 0.152934,-0.13715 0.0127,0.0204 0.103395,0.14709 0.199423,0.28497 0.09552,0.13791 0.192818,0.27842 0.215682,0.3121 0.02032,0.0329 0.09298,0.13714 0.154712,0.22993 0.06173,0.0923 0.122702,0.17742 0.135404,0.18813 0.0409,0.0329 0.129816,0.0204 0.170717,-0.0153 0.04369,-0.0436 0.08637,-0.20037 0.109746,-0.39997 0.0076,-0.0752 0.02032,-0.18481 0.03277,-0.24344 0.03684,-0.24855 0.06148,-0.40859 0.09095,-0.6165 0.03277,-0.22509 0.05564,-0.39094 0.09704,-0.66232 0.0127,-0.0839 0.03277,-0.20699 0.0409,-0.27432 0.0076,-0.0673 0.02032,-0.14912 0.02871,-0.18277 l 0.0127,-0.0607 0.03277,0.0686 c 0.01524,0.037 0.04623,0.1063 0.06478,0.15244 0.03684,0.0902 0.06834,0.16468 0.101363,0.23376 0.0127,0.0204 0.02032,0.0523 0.02032,0.0619 0,0.0128 0.02032,0.037 0.0442,0.0607 0.05843,0.0566 0.141248,0.0586 0.19485,0 0.03277,-0.0329 0.03684,-0.0553 0.04979,-0.22636 0.03277,-0.48177 0.04623,-0.73674 0.06046,-1.12449 0.0076,-0.23045 0.02032,-0.42699 0.02032,-0.43734 0.0025,-0.0127 0.0127,-0.22458 0.02032,-0.47598 0.0076,-0.25135 0.02032,-0.48459 0.02871,-0.51827 l 0.0127,-0.0607 0.134643,0.11624 c 0.137945,0.11956 0.189007,0.14581 0.256582,0.13307 0.0503,-0.0127 0.101363,-0.0653 0.103396,-0.11216 0.002,-0.0456 -0.0254,-0.28334 -0.05437,-0.45582 -0.0127,-0.0706 -0.03277,-0.21158 -0.04624,-0.31166 -0.0127,-0.10095 -0.03277,-0.24421 -0.04573,-0.3199 -0.02032,-0.13103 -0.05894,-0.40244 -0.105935,-0.73077 -0.0127,-0.0839 -0.02871,-0.20317 -0.0409,-0.26611 -0.0076,-0.063 -0.0254,-0.17946 -0.03684,-0.25912 -0.0254,-0.19246 -0.06376,-0.4539 -0.121432,-0.83699 -0.0127,-0.0879 -0.02871,-0.20776 -0.03684,-0.26652 -0.0076,-0.0586 -0.02032,-0.15805 -0.03277,-0.22101 -0.05259,-0.34534 -0.08358,-0.56171 -0.114573,-0.79639 -0.0409,-0.30307 -0.06783,-0.3515 -0.257802,-0.44646 -0.05843,-0.0288 -0.211871,-0.10885 -0.341306,-0.17615 -0.164873,-0.0859 -0.253788,-0.1244 -0.313894,-0.12567 z m -2.295119,10.26933 c -0.0076,0.0329 -0.0127,0.0599 -0.01524,0.0785 0.0013,-0.0153 0.0076,-0.0456 0.01524,-0.0785 z"
       id="path2258-4"
       inkscape:connector-curvature="0" />
    <path
       style="fill:#ffffff;stroke-width:0.09350301"
       d="m 47.859848,283.56885 c -2.365194,-0.17691 -5.027008,-0.63538 -7.115198,-1.22541 -3.103616,-0.87697 -4.987319,-1.81374 -6.130316,-3.04861 -0.808693,-0.8737 -0.805177,-0.83199 -0.241746,-2.86845 0.381129,-1.37759 0.386893,-1.66443 0.04496,-2.23101 -0.133829,-0.22177 -0.368155,-0.39328 -0.813542,-0.59548 -1.599811,-0.72626 -3.203417,-1.55076 -4.532617,-2.33045 -1.752058,-1.02775 -2.225674,-1.20731 -2.758556,-1.04598 -0.206104,0.0625 -0.552778,0.27934 -0.770375,0.48208 -0.558931,0.52066 -1.124473,0.74372 -2.171924,0.85659 -1.155583,0.12466 -3.569639,0.0405 -4.529416,-0.15779 -0.907828,-0.18762 -2.405384,-0.77943 -3.001397,-1.18638 -2.2648,-1.54636 -3.246472,-3.49843 -3.839077,-7.6341 -0.179963,-1.25583 -0.195358,-1.6732 -0.154153,-4.18299 0.0407,-2.47827 0.07261,-2.93417 0.287279,-4.10398 0.267979,-1.46009 0.292675,-1.84206 0.13886,-2.14467 -0.05736,-0.11293 -0.573948,-0.69177 -1.147931,-1.28631 -0.573947,-0.59457 -1.2119288,-1.33479 -1.4177132,-1.645 -1.4250296,-2.14793 -2.2594492,-5.1509 -2.2594492,-8.13152 v -0.73261 l -0.6822482,-0.15346 c -0.6228049,-0.13995 -0.7677411,-0.22203 -1.6638726,-0.94102 -0.539855,-0.43321 -1.174549,-0.97452 -1.4104273,-1.20293 -0.6363352,-0.61621 -0.6051667,-0.75899 0.3929145,-1.79966 l 0.8217149,-0.85686 -0.1204415,-0.69656 c -0.066254,-0.38308 -0.161139,-1.14021 -0.210855,-1.68247 -0.057464,-0.62689 -0.1350489,-1.01455 -0.2129891,-1.06451 -0.067423,-0.0433 -0.3109324,-0.08 -0.5411023,-0.0818 -1.3497189,-0.0102 -2.7293207,-0.40715 -3.70026759,-1.06349 -0.92911379,-0.62809 -1.58473081,-1.45185 -2.25791221,-2.83709 -0.6007185,-1.23625 -1.9475641,-5.14744 -1.9475641,-5.65574 0,-0.43117 0.2750592,-0.68925 0.7346521,-0.68925 0.3493513,0 0.3958181,0.0403 1.2710978,1.1045 2.19465573,2.66819 3.3373098,3.46015 5.35455,3.71116 0.8638554,0.10758 2.5391116,-0.005 3.1159679,-0.21107 0.1836217,-0.0653 0.8817349,-0.72572 1.8834311,-1.78179 0.8753635,-0.92293 1.5916026,-1.70751 1.5916026,-1.74353 0,-0.036 -0.1674392,-0.27796 -0.3720423,-0.5377 -0.6779245,-0.86055 -0.5460181,-1.12997 1.0094497,-2.06149 4.361903,-2.61223 7.488934,-3.45511 10.449794,-2.81678 0.87956,0.18966 0.940551,0.19068 2.371728,0.0444 1.282029,-0.13128 1.765944,-0.13536 3.802527,-0.0339 2.781158,0.13893 2.667474,0.16952 3.366736,-0.90877 0.782785,-1.20716 0.903641,-1.54495 0.901428,-2.52014 -0.0036,-0.79182 -0.03963,-0.95663 -0.590605,-2.57351 l -0.588669,-1.72752 0.181411,-0.24651 c 0.14356,-0.19501 0.273492,-0.25262 0.622912,-0.27551 0.369352,-0.0255 0.532495,0.0257 0.998414,0.30628 1.571754,0.94625 3.050745,2.37843 3.658714,3.54289 0.327415,0.62712 0.364817,0.77232 0.399616,1.55163 0.04619,1.03458 -0.08696,1.51351 -0.679538,2.44437 -0.243575,0.38258 -0.369108,0.66424 -0.311981,0.69992 0.06364,0.0398 0.05696,0.12236 -0.02007,0.24676 -0.09572,0.15499 -0.08518,0.24906 0.0612,0.54703 0.248098,0.50512 0.547055,0.69057 1.227647,0.76164 0.539494,0.0563 0.611627,0.0915 0.912781,0.44679 0.179836,0.21209 0.701019,0.99627 1.158112,1.74262 0.970185,1.58402 1.010896,1.78059 0.540724,2.61108 l -0.290365,0.51297 1.342456,1.37847 c 0.738351,0.75817 1.486162,1.56883 1.66182,1.80149 0.17567,0.23274 0.95057,1.10448 1.722071,1.93742 1.177409,1.27112 1.471674,1.64927 1.831713,2.35383 0.235954,0.46166 0.517276,1.17247 0.625195,1.57952 0.107943,0.40707 0.277107,0.85486 0.375889,0.99509 0.505359,0.71729 1.950808,0.75211 2.675065,0.0645 0.118561,-0.11267 0.387175,-0.52301 0.5969,-0.91201 0.727066,-1.34882 1.43037,-2.00225 2.611755,-2.42663 0.58839,-0.21133 0.819063,-0.2409 1.879801,-0.24115 1.060809,-1.6e-4 1.283398,0.0283 1.81505,0.23197 0.761484,0.29185 1.575273,0.83371 2.010994,1.33903 0.436142,0.50578 0.85302,1.39936 0.928318,1.98975 0.0755,0.59223 0.366151,1.13239 0.729597,1.35588 0.155423,0.0956 0.651245,0.32693 1.10187,0.51419 3.133881,1.3022 5.403212,2.89948 8.348537,5.87622 2.496311,2.52296 3.633157,4.06292 5.070279,6.86813 0.531584,1.03764 1.004425,1.55374 2.498036,2.72641 2.59812,2.03987 4.924713,4.93822 5.966754,7.43307 1.24406,2.97848 0.768543,5.10369 -1.403904,6.2745 -0.702356,0.37853 -0.992086,0.78367 -0.992086,1.38723 0,0.75563 0.394099,1.12944 1.635034,1.55089 1.261673,0.42847 2.905385,0.72244 4.937575,0.88303 2.919347,0.2307 4.279657,0.52982 5.487513,1.20673 2.002661,1.12232 1.283396,3.30168 -1.234221,3.73971 -0.842333,0.14658 -3.649852,0.11293 -4.857849,-0.0584 -2.429454,-0.34426 -5.265203,-1.06902 -7.170667,-1.83267 -0.532181,-0.21337 -1.532635,-0.68843 -2.22321,-1.05589 -1.016622,-0.54091 -1.338379,-0.66934 -1.6904,-0.67469 -0.712304,-0.0102 -1.255766,0.53206 -1.475439,1.47388 -0.278553,1.19433 -0.844795,1.92839 -1.924129,2.49431 -0.789571,0.41398 -1.396168,0.60879 -2.399645,0.77066 -0.799306,0.12899 -1.3176,0.41261 -1.545814,0.84607 -0.138148,0.26244 -0.172418,0.5354 -0.172418,1.37326 v 1.04573 l -0.37596,0.43165 c -1.776312,2.03948 -7.97465,4.00941 -13.80789,4.38831 -1.615627,0.10503 -3.926405,0.10121 -5.394495,-0.008 z"
       id="path2536-5"
       inkscape:connector-curvature="0" />
    <path
       style="fill:#be9355;fill-opacity:1;stroke:none;stroke-width:0.04684636px;stroke-linecap:butt;stroke-linejoin:miter;stroke-opacity:1"
       d="m -4.3686999,222.21552 2.910031,8.29558 2.6785503,1.69229 7.1758602,-0.33182 3.2407154,-2.12366 0.92592,-2.32276 -1.587291,-2.09049 -6.7790387,0.69684 -3.835949,-0.82958 -3.3399188,-3.84914 z"
       id="path2328-8"
       inkscape:connector-curvature="0" />
    <path
       style="fill:#956f48;fill-opacity:1;stroke:none;stroke-width:0.04684636px;stroke-linecap:butt;stroke-linejoin:miter;stroke-opacity:1"
       d="m 13.918183,218.29999 13.359678,9.62289 12.36762,-3.84915 -0.462959,-2.19004 -2.248655,-2.98643 -11.772394,-0.53091 -5.092546,-1.32728 z"
       id="path2334-2"
       inkscape:connector-curvature="0" />
    <path
       style="fill:#565656;fill-opacity:1;stroke:none;stroke-width:0.04684636px;stroke-linecap:butt;stroke-linejoin:miter;stroke-opacity:1"
       d="m 22.088588,217.28096 6.126338,3.68376 5.565144,-1.61898 -2.408445,-1.5955 -7.225335,-1.00894 z"
       id="path2326-6"
       inkscape:connector-curvature="0" />
    <path
       style="fill:#565656;fill-opacity:1;stroke:none;stroke-width:0.04684636px;stroke-linecap:butt;stroke-linejoin:miter;stroke-opacity:1"
       d="m 7.1722106,225.13088 2.6454791,-2.58823 4.1666333,-0.73 h 3.902084 l 2.645479,1.12818 0.264549,0.99548 -8.068717,4.71191 -6.8121121,5.57462 -1.3227421,0.79639 -0.4629589,-2.78734 4.49732,-1.12818 2.5958751,-1.47661 1.124332,-0.99548 0.347218,-1.59277 -1.140864,-1.67569 z"
       id="path2324-0"
       inkscape:connector-curvature="0" />
    <path
       style="fill:#956f48;fill-opacity:1;stroke:none;stroke-width:0.04684636px;stroke-linecap:butt;stroke-linejoin:miter;stroke-opacity:1"
       d="m 33.125347,218.54798 1.356212,-1.83015 1.449745,-3.33182 -3.320383,-4.31727 -2.010934,-0.14072 -0.654723,1.07932 0.93532,3.1441 -0.795023,4.50499 z"
       id="path2332-6"
       inkscape:connector-curvature="0" />
    <path
       style="fill:#be9355;fill-opacity:1;stroke:none;stroke-width:0.04684636px;stroke-linecap:butt;stroke-linejoin:miter;stroke-opacity:1"
       d="m 33.031816,217.84407 c 1.732853,-1.39834 1.862038,-3.38188 2.29153,-5.2558 l 1.402976,2.9564 -2.29153,3.61337 -1.683573,-0.75083 z"
       id="path2330-6"
       inkscape:connector-curvature="0"
       sodipodi:nodetypes="cccccc" />
    <path
       style="fill:#be9355;fill-opacity:1;stroke:none;stroke-width:0.04684636px;stroke-linecap:butt;stroke-linejoin:miter;stroke-opacity:1"
       d="m 8.5610901,221.48551 4.6295869,-3.11916 4.034359,-0.9291 11.838521,10.02107 -7.341206,2.52187 -7.93644,5.04371 -6.9443872,5.44191 -4.3650427,-3.05278 5.1586885,-4.77827 7.5396184,-5.77371 5.820057,-3.11914 -3.439125,-2.19004 -8.0687171,0.86274 z"
       id="path2336-4"
       inkscape:connector-curvature="0" />
    <path
       style="opacity:1;fill:#fae47e;fill-opacity:1;stroke:#fae47e;stroke-width:0.09369273;stroke-linecap:round;stroke-linejoin:round;stroke-miterlimit:4;stroke-dasharray:none;stroke-dashoffset:0;stroke-opacity:1"
       d="m 48.512754,283.15369 c -1.225213,-0.0668 -4.488032,-0.46573 -5.324029,-0.65108 -1.33861,-0.2968 -2.812911,-0.69129 -3.887649,-1.04027 -2.642535,-0.85805 -4.852548,-2.27105 -5.143335,-3.28845 -0.04237,-0.14836 -0.02337,-0.37386 0.0657,-0.7839 0.164848,-0.75797 0.74693,-2.53535 1.076148,-3.28605 0.144067,-0.32849 0.365859,-0.84913 0.49288,-1.15697 0.29711,-0.72004 0.626781,-1.3818 0.97127,-1.94971 0.318332,-0.52479 0.743927,-0.84176 1.798954,-1.33974 0.669335,-0.31594 1.959639,-0.78127 2.476577,-0.89315 0.163679,-0.0354 0.669637,-0.15448 1.124327,-0.26476 1.074706,-0.26047 2.449194,-0.56701 4.006475,-0.75057 1.095191,-0.12899 1.598185,-0.14811 4.029171,-0.15245 2.978948,-0.005 3.45076,0.0989 5.919263,0.44387 2.322431,0.32453 3.905806,0.6844 5.523783,1.25539 0.770068,0.27176 2.305431,1.05308 2.648588,1.34782 0.669267,0.57484 1.603708,2.37623 2.207988,4.25652 0.656258,2.04202 0.870026,2.98325 0.769146,3.38655 -0.06976,0.2789 -0.675445,0.8762 -1.328161,1.30976 -1.162428,0.77212 -3.335257,1.71358 -4.403387,1.90795 -0.230137,0.0418 -0.717431,0.18992 -1.082889,0.32887 -0.934298,0.35536 -1.472967,0.49556 -2.934081,0.76358 -3.122867,0.57288 -5.739193,0.73457 -9.006742,0.55666 z m 4.365043,-7.49315 c 1.479329,-0.0783 2.085816,-0.14174 3.472193,-0.36454 3.217014,-0.51679 5.542633,-1.49192 6.530375,-2.73816 0.330598,-0.41712 0.371714,-0.65901 0.172749,-1.01623 -0.297497,-0.53412 -0.45875,-0.51863 -1.213748,0.1165 -0.291003,0.24472 -0.704416,0.55903 -0.918703,0.69827 l -0.389607,0.25313 -1.13938,0.86216 c -1.256648,-1.37612 -3.444972,-1.12197 -7.45633,-1.35239 -3.494338,-0.20062 -7.303186,0.37588 -9.474125,1.43419 -0.679253,0.33114 -1.265023,-0.36785 -1.494797,-0.0255 l -0.273621,-0.98618 -0.199626,-0.11522 c -0.109798,-0.0635 -0.477534,-0.37654 -0.817216,-0.69592 -0.339678,-0.31936 -0.665581,-0.58068 -0.724226,-0.58068 -0.05863,0 -0.274384,0.16188 -0.479432,0.35949 l -0.372807,0.35948 0.105809,0.22127 c 0.178643,0.3735 0.706466,0.96188 1.203396,1.34147 0.856932,0.65461 1.899827,1.09722 3.588672,1.52313 1.806862,0.45567 3.472218,0.67097 5.947888,0.76893 1.38295,0.0548 1.822326,0.0477 3.932541,-0.064 z"
       id="path2345-6"
       inkscape:connector-curvature="0"
       sodipodi:nodetypes="scscccccsccsssccccccscssscsccccsccccssccccsss" />
    <path
       style="opacity:1;fill:#ab7028;fill-opacity:1;stroke:none;stroke-width:0.28728136;stroke-linecap:round;stroke-linejoin:round;stroke-miterlimit:4;stroke-dasharray:none;stroke-dashoffset:0;stroke-opacity:1"
       d="m 60.610909,273.62806 c 3e-6,1.28093 -4.5008,0.95752 -10.052823,0.95752 -5.552024,0 -10.05283,0.32341 -10.052827,-0.95752 2e-6,-1.28094 4.500803,-2.31931 10.052827,-2.31931 5.55202,0 10.052823,1.03837 10.052823,2.31931 z"
       id="path2342-2"
       inkscape:connector-curvature="0"
       sodipodi:nodetypes="sssss" />
    <path
       style="fill:#ffffff;stroke:#000000;stroke-width:0.04684636px;stroke-linecap:butt;stroke-linejoin:miter;stroke-opacity:1"
       d="m 45.37802,273.67542 0.941166,-0.7039 1.332827,0.62177 0.116911,0.962 -2.098623,-0.24038 z"
       id="path2347-8"
       inkscape:connector-curvature="0" />
    <path
       style="fill:#ab7028;fill-opacity:1;stroke:none;stroke-width:0.04684636px;stroke-linecap:butt;stroke-linejoin:miter;stroke-opacity:1"
       d="m 66.629381,274.14592 c -0.229858,2.43497 -3.178519,6.1616 -4.966757,8.24906 l 6.223361,-3.53717 z"
       id="path2349-9"
       inkscape:connector-curvature="0"
       sodipodi:nodetypes="cccc" />
    <path
       style="fill:#ffffff;fill-opacity:1;stroke:none;stroke-width:0.04684636px;stroke-linecap:butt;stroke-linejoin:miter;stroke-opacity:1"
       d="m 35.45562,273.54235 c 0.799842,-0.64399 1.559581,-1.44905 1.837562,-1.68393 0.277978,-0.23477 0.804704,0.0885 0.804704,0.0885 l 0.920458,-0.77548 c 0.73227,-1.18695 3.229546,-2.25046 4.644701,-3.02561 l -4.723372,0.5162 -3.437283,2.27595 z"
       id="path2351-6"
       inkscape:connector-curvature="0"
       sodipodi:nodetypes="czcccccc" />
    <path
       style="fill:#000000;stroke-width:0.06040385"
       d="m 48.01774,284.3749 c -1.151865,-0.0762 -2.577606,-0.22866 -3.105458,-0.33216 -0.165813,-0.0324 -0.477876,-0.0851 -0.693451,-0.11701 -0.929572,-0.1374 -1.350319,-0.22152 -2.773804,-0.55513 -0.414564,-0.0971 -0.920126,-0.2307 -1.123469,-0.29652 -0.203335,-0.066 -0.41401,-0.11981 -0.468144,-0.11981 -0.05414,0 -0.14554,-0.0229 -0.203132,-0.053 -0.05759,-0.0291 -0.213243,-0.0854 -0.345909,-0.12491 -0.132661,-0.0395 -0.295471,-0.0941 -0.361799,-0.12134 -0.06633,-0.027 -0.318882,-0.11217 -0.561223,-0.1889 -0.242331,-0.0767 -0.45424,-0.16161 -0.470885,-0.18864 -0.01677,-0.027 -0.06857,-0.0492 -0.11536,-0.0492 -0.237428,0 -2.037902,-0.91273 -2.687854,-1.36256 -1.032897,-0.71492 -1.673556,-1.38943 -2.035564,-2.14314 -0.190964,-0.39757 -0.17313,-0.94085 0.05828,-1.77741 0.102989,-0.3723 0.209738,-0.73135 0.237225,-0.79791 0.04901,-0.11879 0.07139,-0.19221 0.270524,-0.89004 0.0553,-0.19374 0.08018,-0.40634 0.05668,-0.48407 -0.05899,-0.19501 -0.269747,-0.41087 -0.401191,-0.41087 -0.06099,0 -0.158014,-0.0255 -0.215606,-0.0553 -0.146099,-0.0772 -0.468235,-0.21489 -0.858459,-0.36662 -0.942776,-0.36657 -2.663295,-1.3063 -4.753062,-2.59612 -0.694153,-0.42842 -0.806246,-0.42227 -1.339933,0.0737 -0.443832,0.41232 -0.962739,0.70245 -1.537052,0.85935 -0.75444,0.20622 -3.305611,0.30529 -4.701329,0.18277 -0.951274,-0.0836 -2.387583,-0.44088 -3.226057,-0.80263 -1.231393,-0.5313 -2.38958,-1.35259 -3.164185,-2.24383 -0.524765,-0.60377 -1.332335,-1.93411 -1.495262,-2.46319 -0.02058,-0.0665 -0.09598,-0.28441 -0.167744,-0.48406 -0.07177,-0.1996 -0.151841,-0.45836 -0.177982,-0.57483 -0.02612,-0.1165 -0.115132,-0.48407 -0.197772,-0.81686 -0.261173,-1.05174 -0.447742,-2.0727 -0.52521,-2.87411 -0.02734,-0.28288 -0.08086,-0.81324 -0.118942,-1.17859 -0.22028,-2.11356 -0.02083,-5.40523 0.46004,-7.59504 0.197137,-0.89761 0.219162,-0.80786 -0.317428,-1.29345 -2.208598,-1.99868 -3.381318,-4.02346 -4.1220899,-7.11713 -0.027894,-0.11649 -0.082843,-0.44322 -0.1221182,-0.72608 -0.039275,-0.28288 -0.097603,-0.63395 -0.1296123,-0.78015 -0.032035,-0.14632 -0.074485,-0.71998 -0.094351,-1.27504 l -0.036131,-1.0093 -0.3827096,-0.0658 c -0.4560134,-0.0785 -0.7452227,-0.27141 -2.0266347,-1.35261 -1.4071044,-1.18725 -1.4745501,-1.25124 -1.6034105,-1.52089 -0.284291,-0.59492 -0.2201784,-1.33678 0.1593099,-1.84379 0.2343794,-0.31311 0.3845768,-0.46823 0.9125274,-0.94237 l 0.3212593,-0.28852 -0.1043098,-0.61909 c -0.057363,-0.34052 -0.1187139,-0.83998 -0.1363191,-1.10993 l -0.032009,-0.49082 -0.5790258,-0.0408 c -1.7272865,-0.12185 -3.15081226,-0.73365 -4.3786061,-1.88187 -0.2583254,-0.24166 -0.9275488,-1.09877 -1.1341538,-1.4527 -0.2780695,-0.47631 -0.8863305,-1.67781 -0.8867522,-1.75153 -1.778e-4,-0.0319 -0.092954,-0.26325 -0.2061807,-0.51432 -0.1132266,-0.2511 -0.2449221,-0.57902 -0.2926516,-0.72878 -0.047734,-0.14964 -0.2500284,-0.76241 -0.4495709,-1.36141 -0.81575,-2.44909 -0.8575171,-2.65914 -0.659448,-3.31744 0.1122359,-0.37297 0.4574006,-0.78859 0.8045442,-0.96871 0.3516326,-0.18252 0.8720305,-0.24931 1.2746214,-0.1634 0.4550506,0.0969 0.6835566,0.28275 1.2865309,1.04646 1.13376514,1.43594 2.28279822,2.6389 2.894344,3.03012 0.4514076,0.28879 0.9036282,0.49229 1.3531636,0.60894 0.5114251,0.13282 1.5587651,0.23912 1.8893096,0.19221 0.1516378,-0.0204 0.4927709,-0.0658 0.7580926,-0.0981 0.8496341,-0.10401 1.0093809,-0.15882 1.1764213,-0.4043 0.082589,-0.12134 0.6114772,-0.69248 1.1752833,-1.26908 L 8.611647,222.8689 8.4727875,222.70345 c -0.3551815,-0.42321 -0.4755315,-0.91867 -0.3521152,-1.44953 0.1678457,-0.72198 0.4904743,-1.00983 2.3156717,-2.0661 1.010346,-0.58473 2.677008,-1.42981 3.572154,-1.81129 1.867327,-0.7958 4.228894,-1.21649 5.87242,-1.0461 0.401742,0.0416 1.042498,0.14454 1.423896,0.22891 0.691437,0.1527 0.695639,0.1527 1.447203,0.0589 1.342667,-0.16774 1.459465,-0.17487 2.807467,-0.17232 1.343789,0.003 2.358805,0.0698 3.26631,0.21617 0.272805,0.0441 0.510238,0.0658 0.527625,0.0484 0.01728,-0.0178 0.0316,-0.0943 0.0316,-0.17054 0,-0.0762 0.116199,-0.28283 0.258201,-0.45885 0.584244,-0.72412 0.764083,-1.14514 0.773685,-1.81124 0.0081,-0.56308 -0.05563,-0.92698 -0.263485,-1.5039 -0.720608,-2.00023 -0.889003,-2.53633 -0.889003,-2.83027 0,-0.44967 0.127631,-0.7438 0.479137,-1.10427 0.296325,-0.30389 0.398125,-0.36627 0.787759,-0.48272 0.698543,-0.20877 1.202573,-0.0915 2.14053,0.49819 1.149587,0.72266 1.961414,1.37678 2.750624,2.21627 0.652348,0.69391 1.305656,1.72077 1.503306,2.36288 0.483813,1.57182 0.201506,3.1133 -0.819627,4.47535 -0.181132,0.24166 -0.329315,0.45242 -0.329315,0.46853 0,0.0153 0.161368,0.0102 0.358616,-0.0102 0.509962,-0.0579 1.083053,0.0635 1.413501,0.29912 0.443314,0.31627 0.78475,0.79529 2.103648,2.95125 0.676667,1.10613 0.781101,1.43049 0.65283,2.0276 -0.04179,0.19451 -0.153518,0.46469 -0.248301,0.60033 l -0.172342,0.24676 0.70857,0.63714 c 0.728359,0.65491 1.428428,1.44584 2.078914,2.34876 0.203792,0.28288 0.532109,0.66406 0.729589,0.84711 0.888726,0.82371 1.512384,1.44538 1.729992,1.72446 0.524206,0.6723 1.170647,1.7484 1.381233,2.2993 0.197187,0.5158 0.261744,0.70574 0.335251,0.9862 0.04621,0.1764 0.08404,0.3886 0.08404,0.47167 0,0.0831 0.06953,0.22076 0.154483,0.30611 0.142416,0.14301 0.181208,0.15167 0.496317,0.11216 0.592622,-0.0742 0.758778,-0.19782 0.978152,-0.72649 0.284672,-0.68621 0.697445,-1.28865 1.268798,-1.85187 0.743912,-0.73327 1.267547,-1.00707 2.797679,-1.46276 0.37096,-0.11038 2.390425,-0.0867 2.817963,0.0331 1.036386,0.29058 1.640526,0.55827 2.220022,0.98367 0.326371,0.23962 1.001653,0.92313 1.283683,1.29942 0.454052,0.60575 0.822975,1.60238 0.828739,2.23875 0.0011,0.1165 0.0359,0.2566 0.07743,0.31138 0.09318,0.12287 0.495578,0.35424 0.616162,0.35424 0.04885,0 0.1901,0.0546 0.313849,0.12108 0.123769,0.0665 0.254256,0.12109 0.289994,0.12109 0.03574,0 0.198966,0.0645 0.362694,0.14326 0.163755,0.0788 0.490812,0.2279 0.726827,0.33144 1.193016,0.52312 2.909706,1.57376 4.291254,2.62631 1.357592,1.03427 3.58354,3.1368 4.852545,4.58348 1.505995,1.71684 2.744817,3.61042 3.859623,5.89949 0.255335,0.52432 0.439793,0.75354 0.768145,0.95454 0.264839,0.16213 1.442536,1.07906 2.080354,1.61972 0.708888,0.60086 1.863733,1.75648 2.446285,2.44789 0.93754,1.11274 1.377846,1.72421 2.063766,2.866 0.227139,0.37812 1.067711,2.09448 1.067711,2.18018 0,0.0377 0.02586,0.11573 0.05747,0.17335 0.08856,0.16187 0.281847,0.79393 0.355976,1.16395 0.168938,0.84324 0.189567,1.00692 0.189567,1.50454 0,1.73754 -0.699557,3.06423 -2.08553,3.95519 -0.229298,0.14734 -0.487141,0.28563 -0.572951,0.3072 -0.266897,0.067 -0.477127,0.27399 -0.477127,0.46974 0,0.24293 0.161139,0.38393 0.579737,0.50759 0.195206,0.0576 0.487423,0.15677 0.649385,0.21999 0.161952,0.0632 0.360468,0.11522 0.441137,0.11522 0.08066,0 0.192818,0.0255 0.249215,0.0551 0.329168,0.17666 2.338446,0.47555 3.688427,0.54846 1.085746,0.0586 2.167996,0.16034 2.683357,0.25237 0.198991,0.0354 0.497475,0.0851 0.663302,0.11037 0.165813,0.0255 0.382905,0.0747 0.482398,0.10962 0.09951,0.0352 0.343714,0.10961 0.542703,0.16544 0.417909,0.11752 0.41841,0.11777 1.175852,0.47185 1.494177,0.69852 2.10755,1.50975 2.109625,2.79004 8.84e-4,0.50667 -0.01397,0.57089 -0.238495,1.03639 -0.440318,0.91283 -1.398759,1.61263 -2.594734,1.89452 -0.764377,0.18023 -1.242726,0.21974 -2.623055,0.21719 -1.703251,-0.003 -2.246505,-0.0574 -4.567735,-0.4551 -0.741824,-0.12721 -2.54149,-0.54354 -3.120531,-0.72203 -0.08292,-0.0255 -0.272859,-0.0811 -0.422101,-0.12338 -0.732912,-0.2075 -1.802541,-0.57938 -2.275675,-0.79098 -0.140587,-0.063 -0.268677,-0.11421 -0.284639,-0.11421 -0.03386,0 -0.581848,-0.24523 -1.057695,-0.47317 -0.416504,-0.1996 -1.613008,-0.85866 -1.809202,-0.99655 -0.189185,-0.13307 -0.434468,-0.13205 -0.596585,0.002 -0.124837,0.1035 -0.307719,0.66559 -0.307719,0.94587 0,0.076 -0.01804,0.15627 -0.04001,0.17844 -0.0221,0.023 -0.08775,0.17615 -0.146074,0.34238 -0.246091,0.7012 -0.904398,1.53414 -1.56785,1.98377 -0.870524,0.58995 -2.089081,1.02476 -3.336636,1.19059 -0.899914,0.11955 -0.918787,0.1402 -0.879769,0.95777 0.01626,0.34014 0.02624,0.82616 0.02236,1.08003 -0.0069,0.43894 -0.02007,0.48042 -0.266478,0.84469 -0.682675,1.00874 -2.285082,2.10858 -4.096771,2.81187 -0.14925,0.0579 -0.297128,0.12847 -0.328635,0.15677 -0.0315,0.0283 -0.106494,0.0515 -0.166651,0.0515 -0.06016,0 -0.156465,0.0255 -0.214056,0.0556 -0.163172,0.0867 -0.725903,0.28974 -1.190107,0.42931 -0.232144,0.0699 -0.469218,0.15244 -0.526805,0.18405 -0.05759,0.0314 -0.152578,0.0576 -0.211058,0.0581 -0.05848,5.4e-4 -0.227724,0.0433 -0.376051,0.0951 -0.148335,0.0517 -0.378985,0.11777 -0.512551,0.14657 -0.133575,0.0288 -0.473496,0.11064 -0.755397,0.1815 -0.780865,0.1968 -1.888944,0.42 -2.713506,0.54634 -0.215581,0.0331 -0.541748,0.0869 -0.724831,0.11981 -2.019814,0.36198 -5.706498,0.50729 -8.380488,0.33035 z m 5.152246,-1.17813 c 0.466188,-0.0331 1.064696,-0.0872 1.330018,-0.12057 0.265319,-0.0334 0.726614,-0.089 1.025101,-0.12389 0.734759,-0.0859 1.201536,-0.16417 2.924557,-0.48937 0.635304,-0.12006 1.59943,-0.40526 2.020053,-0.59783 0.369616,-0.16926 1.030911,-0.36303 1.238573,-0.36303 0.24007,0 1.687244,-0.51995 2.443774,-0.87801 1.867394,-0.88382 2.982385,-1.71643 3.162369,-2.3615 0.109289,-0.39165 -0.1744,-1.56042 -0.895281,-3.68864 -0.03381,-0.0999 -0.107637,-0.34488 -0.164035,-0.54456 -0.143508,-0.50812 -0.867058,-1.97716 -1.287194,-2.61346 -0.375985,-0.56943 -0.615447,-0.82317 -1.000791,-1.06045 -0.354834,-0.21847 -1.448336,-0.76202 -1.929604,-0.95915 -0.199829,-0.0818 -1.549302,-0.52105 -1.824079,-0.59365 -0.140942,-0.0372 -0.358032,-0.0958 -0.482398,-0.13052 -0.511806,-0.14199 -2.113311,-0.46089 -2.758731,-0.54914 -0.232169,-0.0316 -0.598481,-0.0836 -0.814053,-0.11548 -2.279067,-0.33636 -4.132475,-0.44809 -6.663162,-0.4017 -1.02812,0.0179 -2.127089,0.0627 -2.442157,0.0976 -0.315071,0.0347 -0.871339,0.0933 -1.236154,0.13 -0.364815,0.0367 -0.893949,0.10732 -1.17585,0.15678 -0.281906,0.0495 -0.675364,0.11267 -0.874355,0.1402 -0.331967,0.0461 -0.586271,0.0986 -1.898458,0.39329 -0.248199,0.0558 -0.497407,0.12618 -0.553812,0.15626 -0.0564,0.0303 -0.161825,0.0551 -0.234277,0.0551 -0.134541,0 -0.847099,0.21286 -1.036165,0.30952 -0.05759,0.0293 -0.146074,0.0535 -0.196629,0.0535 -0.05055,0 -0.206943,0.0512 -0.347545,0.1142 -0.140587,0.0627 -0.412107,0.17487 -0.603371,0.24956 -0.191268,0.0744 -0.362459,0.15933 -0.380433,0.18839 -0.01804,0.0291 -0.06963,0.053 -0.114827,0.053 -0.139113,0 -1.134248,0.60191 -1.364517,0.82534 -0.24764,0.24039 -0.961928,1.59267 -1.257859,2.38157 -0.106114,0.28285 -0.216953,0.55515 -0.24632,0.60507 -0.476194,0.80977 -1.443968,3.81098 -1.443968,4.47797 0,0.78596 1.462742,1.96992 3.587856,2.90406 0.165813,0.0729 0.370894,0.16595 0.455704,0.207 0.15367,0.0742 1.947078,0.65712 2.348252,0.76322 0.116072,0.0306 0.403922,0.11089 0.639653,0.17793 0.235726,0.0673 0.496985,0.12236 0.580563,0.12236 0.08358,0 0.25173,0.0418 0.373668,0.093 0.203157,0.0851 0.420196,0.13893 1.089473,0.27009 0.13266,0.026 0.390445,0.079 0.572852,0.11777 0.182403,0.0387 0.684405,0.1086 1.11555,0.15499 0.431146,0.0464 1.082388,0.12848 1.447205,0.18252 1.653236,0.24396 4.965871,0.34564 6.870799,0.21082 z m -4.398495,-7.51255 c -1.269053,-0.0359 -2.61146,-0.14836 -3.463658,-0.28959 -1.074776,-0.17819 -1.862462,-0.33356 -2.264855,-0.44656 -0.165813,-0.0466 -0.518581,-0.14429 -0.7839,-0.21719 -1.79455,-0.49299 -3.0157,-1.23303 -3.809905,-2.30894 -0.375657,-0.50889 -0.375561,-0.51131 0.03691,-0.91382 0.198865,-0.194 0.410073,-0.35283 0.469333,-0.35281 0.05927,3e-5 0.260665,0.17156 0.447574,0.38136 0.646604,0.72557 1.929075,1.55486 2.404513,1.55486 0.101769,0 0.299259,0.0589 0.438888,0.13052 0.163019,0.0839 0.404936,0.13995 0.675976,0.15652 0.419924,0.0257 0.424261,0.0255 0.841091,-0.25869 0.494803,-0.33606 1.239264,-0.93177 1.239264,-0.99165 0,-0.0487 0.38183,-0.21796 0.603002,-0.26744 0.08292,-0.0178 0.427484,-0.0749 0.765714,-0.12541 0.633947,-0.0946 0.982988,-0.0551 0.982988,0.11114 0,0.0709 0.120848,0.18532 1.24357,1.1782 0.269404,0.23809 0.628991,0.5937 0.79908,0.78994 0.200388,0.23121 0.387488,0.3827 0.531461,0.43037 0.441208,0.14607 3.483532,0.0102 5.385505,-0.23987 1.041899,-0.13715 3.179283,-0.6218 3.498452,-0.79318 0.06826,-0.0367 0.175314,-0.0502 0.23791,-0.0303 0.126158,0.0403 1.040557,-0.29476 1.485995,-0.5443 0.509601,-0.28548 1.012648,-0.65152 1.38168,-1.00534 0.341316,-0.32727 0.587638,-0.47667 0.785902,-0.47667 0.09542,0 0.334335,0.35352 0.431859,0.63897 0.08663,0.25364 -0.06773,0.55954 -0.512357,1.01554 -0.837969,0.85938 -2.336998,1.5841 -4.20398,2.03243 -0.298487,0.0716 -0.637674,0.15473 -0.753754,0.1843 -0.496553,0.12721 -2.099011,0.38266 -3.075305,0.49036 -0.865314,0.0953 -4.007004,0.25186 -4.341608,0.21642 -0.04974,-0.005 -0.714557,-0.0273 -1.477354,-0.0489 z m -1.356753,-1.61921 c 0,-0.25186 -0.712408,-0.67097 -1.140655,-0.67097 -0.173003,0 -0.281649,0.0497 -0.462326,0.21107 -0.222719,0.19909 -0.229883,0.21617 -0.126005,0.29752 0.06389,0.05 0.329853,0.10349 0.633152,0.12695 0.287631,0.0229 0.604374,0.063 0.703872,0.0902 0.301083,0.0826 0.391949,0.0698 0.391949,-0.0551 z m 22.239976,0.77599 c 0.704632,-0.1453 0.889798,-0.19909 1.397674,-0.40618 1.100158,-0.4484 1.716955,-1.01554 2.020302,-1.85763 0.03597,-0.0999 0.10182,-0.37552 0.146353,-0.61264 0.09108,-0.48501 0.02363,-1.03204 -0.188524,-1.53137 -0.138987,-0.32695 -0.58117,-0.95894 -0.950814,-1.35893 -0.67529,-0.7307 -2.423817,-2.03156 -2.887104,-2.14791 -0.121305,-0.0306 -0.355898,-0.0869 -0.521295,-0.12542 -0.371311,-0.0864 -0.495377,-0.19475 -0.578706,-0.50524 -0.0676,-0.25186 0.0051,-0.71252 0.137514,-0.87276 0.04316,-0.0523 0.253229,-0.0765 0.662288,-0.0765 0.329485,0 0.726405,-0.0288 0.882044,-0.0642 0.958108,-0.21744 1.007392,-0.23299 1.51913,-0.48102 0.808045,-0.39148 1.429046,-0.86733 1.907385,-1.46162 0.311895,-0.38748 0.564733,-0.84146 0.565145,-1.01472 0,-0.11905 0.219899,-0.4934 0.3482,-0.59373 0.05563,-0.0436 0.270207,-0.0757 0.505178,-0.0757 0.360824,0 0.417336,0.0153 0.484601,0.13612 0.116047,0.20751 0.08625,0.86315 -0.06575,1.44704 -0.163603,0.6284 -0.146887,0.6776 0.342015,1.00608 0.364146,0.24472 0.594245,0.36152 1.038735,0.52755 0.14925,0.0558 0.325621,0.12389 0.391952,0.15117 0.06633,0.0275 0.188423,0.0675 0.27135,0.0892 0.08292,0.0229 0.245709,0.0655 0.361802,0.0971 0.728725,0.1996 2.180739,0.35495 2.617308,0.28003 1.244093,-0.21362 2.367641,-1.04937 2.648495,-1.97031 0.174654,-0.57264 0.233718,-1.18946 0.161723,-1.68851 -0.07545,-0.52302 -0.294486,-1.50876 -0.366347,-1.64876 -0.02563,-0.05 -0.108552,-0.25415 -0.184231,-0.45388 -0.118003,-0.31133 -0.550441,-1.19382 -0.792457,-1.61719 -0.04098,-0.0716 -0.290086,-0.45872 -0.553556,-0.86004 -1.439296,-2.19239 -3.572649,-4.31383 -5.996179,-5.96271 -0.476436,-0.32415 -0.584754,-0.42869 -0.68581,-0.66187 -0.066,-0.15218 -0.172952,-0.39942 -0.237682,-0.54916 -1.023937,-2.36943 -2.770092,-4.83063 -5.113184,-7.20699 -0.878405,-0.89088 -2.381796,-2.23807 -3.082935,-2.76261 -0.145261,-0.10859 -0.485079,-0.36986 -0.755151,-0.58042 -0.27008,-0.21056 -0.622833,-0.45913 -0.783901,-0.55241 -0.161088,-0.0933 -0.575784,-0.34656 -0.921573,-0.56285 -0.505755,-0.31638 -1.665364,-0.91128 -2.386293,-1.22422 -0.425213,-0.18456 -1.040979,-0.36323 -1.153928,-0.33478 -0.08716,0.0229 -0.192386,0.15372 -0.303769,0.38034 -0.252772,0.51434 -1.08399,1.36299 -1.484968,1.51609 -0.477993,0.18252 -0.633157,0.21923 -1.824676,0.43178 -0.472118,0.0841 -3.598354,0.0849 -4.119976,9.4e-4 -0.775731,-0.12491 -1.066485,-0.19297 -1.454156,-0.34057 -1.175839,-0.44763 -1.866595,-1.22467 -2.49203,-2.80332 -0.123591,-0.31196 -0.144778,-0.33269 -0.358011,-0.35041 -0.124659,-0.0102 -0.382364,0.0334 -0.572683,0.0974 -0.190328,0.064 -0.549546,0.17946 -0.798284,0.25663 -0.248733,0.0772 -0.478029,0.16263 -0.509535,0.18991 -0.0315,0.0273 -0.09189,0.0497 -0.13416,0.0497 -0.08289,0 -0.672879,0.26129 -1.255751,0.55615 -0.663025,0.33542 -1.371986,0.85971 -1.966226,1.45407 -0.323495,0.32357 -0.678242,0.64339 -0.788326,0.71074 -0.39545,0.24191 -0.775721,0.0964 -1.005515,-0.38526 -0.101794,-0.21336 -0.104284,-0.25673 -0.02596,-0.4538 0.35839,-0.90175 2.42465,-2.51782 4.027223,-3.14978 0.198991,-0.0785 0.387579,-0.1657 0.419086,-0.19374 0.0315,-0.028 0.114268,-0.051 0.183926,-0.051 0.06963,0 0.159183,-0.0326 0.198991,-0.0727 0.109162,-0.10962 0.08709,-0.55886 -0.05109,-1.04027 -0.43192,-1.5048 -1.426274,-2.88601 -2.951869,-4.10029 -0.315066,-0.25083 -0.612722,-0.53502 -0.661457,-0.63165 -0.461506,-0.91516 -1.663776,-2.27045 -2.909307,-3.27964 l -0.525609,-0.42589 -0.318594,0.09 c -0.175238,0.0495 -0.467834,0.13051 -0.650241,0.18022 -0.182403,0.0497 -0.657271,0.1815 -1.055254,0.29334 -2.744543,0.77058 -3.452287,0.97258 -4.04011,1.15309 -0.364815,0.11191 -0.948218,0.28915 -1.296451,0.39359 -1.617794,0.48526 -4.421331,1.46898 -5.77862,2.02766 -0.453334,0.1866 -1.012374,0.40606 -1.242315,0.48768 -0.229934,0.0816 -0.447018,0.17105 -0.482398,0.19858 -0.03539,0.0275 -0.34925,0.17972 -0.697486,0.33825 -1.38528,0.63018 -4.229651,2.10095 -4.914457,2.54117 -0.298005,0.19169 -1.266523,0.77558 -1.74366,1.0514 -0.13543,0.0783 -0.286948,0.17819 -0.336695,0.22178 -0.04974,0.0438 -0.388936,0.2763 -0.753751,0.51679 -0.364817,0.24064 -0.853249,0.57782 -1.085403,0.74958 -1.351261,0.99969 -1.713078,1.27571 -2.532606,1.93215 -1.127993,0.9035 -2.883153,2.41281 -3.4220325,2.94271 l -0.4070265,0.40024 0.00305,0.69192 c 0.00584,1.2973 0.2134463,2.9538 0.4812526,3.83831 0.030231,0.0999 0.1119564,0.37213 0.1816148,0.6051 0.069658,0.23299 0.149453,0.47799 0.1773215,0.54455 0.027868,0.0665 0.1139379,0.28439 0.191243,0.48407 0.9308539,2.40409 2.5635861,4.23715 4.7012781,5.2781 0.277894,0.13536 0.695207,0.30572 0.927364,0.37865 0.232143,0.0729 0.517075,0.17794 0.633152,0.233 0.202421,0.0964 0.211795,0.11522 0.229501,0.46112 0.01067,0.20674 -0.01397,0.42624 -0.05757,0.51429 -0.11818,0.23886 -0.302968,0.42594 -0.420732,0.42594 -0.143762,0 -0.645988,-0.13561 -1.200969,-0.32407 -0.25013,-0.0849 -0.566347,-0.17233 -0.702699,-0.19425 -0.217866,-0.0349 -0.258587,-0.0229 -0.335993,0.10324 -0.04845,0.0785 -0.119502,0.38801 -0.157862,0.68754 -0.03839,0.2995 -0.09552,0.73515 -0.126971,0.96812 -0.154178,1.14213 -0.197492,1.96638 -0.192335,3.66071 0.003,1.015 0.01829,1.92717 0.03402,2.027 0.0155,0.0999 0.04494,0.37213 0.06519,0.6051 0.02032,0.23299 0.06125,0.5733 0.09115,0.75633 0.0299,0.18303 0.08516,0.53701 0.122804,0.7866 0.09095,0.60296 0.211947,1.19518 0.364657,1.78498 0.06895,0.26624 0.146379,0.56643 0.172063,0.66709 0.232754,0.91176 0.86382,2.05048 1.617721,2.91903 0.289953,0.33407 1.157525,1.10323 1.244365,1.10323 0.01778,0 0.135176,0.0706 0.261015,0.15703 0.687802,0.4717 1.990122,0.94786 3.1712,1.15946 0.802649,0.14378 4.140212,0.13791 4.826378,-0.008 0.833472,-0.17794 1.244299,-0.47647 1.674575,-1.21705 0.535608,-0.92186 0.569578,-2.11355 0.08696,-3.05006 -0.289194,-0.56117 -0.988671,-1.30403 -1.652855,-1.75538 -0.404773,-0.27506 -1.087773,-0.60999 -1.24392,-0.60999 -0.05094,0 -0.139723,-0.0258 -0.197289,-0.0571 -0.05759,-0.0313 -0.376059,-0.11649 -0.707709,-0.18914 -0.331652,-0.0726 -0.779378,-0.18992 -0.994951,-0.26053 l -0.391952,-0.12848 -0.01753,-0.49339 c -0.01702,-0.48044 -0.01296,-0.49642 0.150749,-0.60894 0.364096,-0.25008 0.602174,-0.27804 1.193272,-0.13995 2.215797,0.51799 3.585778,1.32768 4.695885,2.7753 0.305117,0.3979 0.692664,1.13278 0.770472,1.46103 0.17882,0.75433 0.230238,1.39608 0.161113,2.01002 -0.12349,1.09643 -0.154686,0.99589 0.432698,1.39394 0.281903,0.19093 0.621092,0.40397 0.753751,0.47315 0.13266,0.0691 0.375037,0.20776 0.538617,0.30781 0.929444,0.56885 4.479583,2.35072 4.683686,2.35082 0.172368,0 0.137818,0.0609 1.099995,-1.93617 0.499023,-1.03575 0.983334,-1.80749 1.273859,-2.02985 0.203717,-0.15601 1.635169,-0.89626 2.082014,-1.07682 0.14925,-0.0604 0.325618,-0.13307 0.391949,-0.16136 0.06633,-0.0286 0.229146,-0.0864 0.361802,-0.12874 0.132661,-0.0423 0.266978,-0.0986 0.298487,-0.12491 0.0315,-0.0265 0.114268,-0.0482 0.183926,-0.0482 0.06966,0 0.1524,-0.0229 0.183927,-0.0512 0.0315,-0.028 0.287931,-0.11319 0.569837,-0.1889 0.281903,-0.0757 0.688927,-0.18481 0.904502,-0.24268 3.461196,-0.92693 9.200254,-1.26329 13.452058,-0.7884 1.687265,0.18838 3.690433,0.52775 4.668128,0.79072 0.132661,0.0357 0.336174,0.0877 0.452251,0.11548 0.292245,0.0701 0.898021,0.23682 1.115553,0.30695 1.012399,0.32647 1.536876,0.50341 1.688405,0.56961 0.481253,0.2103 0.680226,0.29644 0.87435,0.37885 0.207629,0.0882 0.3862,0.17794 0.884976,0.44463 0.413787,0.22127 0.813799,0.55271 1.103397,0.91411 0.3387,0.4227 1.283109,2.08254 1.577679,2.77286 0.330989,0.77563 0.627002,1.51158 0.778784,1.93624 0.120772,0.3379 0.2074,0.37881 0.709606,0.33512 0.242814,-0.0204 0.704106,-0.0925 1.025101,-0.15882 z M 36.711466,247.53117 c -0.618321,-0.13256 -0.902729,-0.26458 -1.172606,-0.54479 l -0.207807,-0.21566 0.207807,-0.21846 c 0.484878,-0.50955 1.347554,-0.92711 1.960294,-0.94883 l 0.358014,-0.0127 0.02083,0.24191 c 0.02388,0.27858 -0.07977,0.9383 -0.223405,1.42193 -0.09745,0.32813 -0.102227,0.33295 -0.340031,0.34337 -0.13266,0.005 -0.404013,-0.0255 -0.603002,-0.067 z m 4.766569,-2.07375 c -0.263749,-0.0128 -0.518424,-0.0558 -0.565943,-0.0953 -0.06851,-0.0571 -0.07896,-0.18482 -0.05045,-0.61744 0.01982,-0.30001 0.06133,-0.62717 0.09237,-0.72702 0.03104,-0.0999 0.100601,-0.33126 0.154585,-0.5143 0.152933,-0.51855 0.148157,-0.515 0.688962,-0.50914 0.942393,0.0102 1.911371,0.60097 2.106148,1.28402 0.171834,0.60252 0.182377,0.68017 0.120035,0.88395 -0.05025,0.16442 -0.101643,0.21336 -0.250638,0.23936 -0.272171,0.0477 -1.7358,0.0834 -2.295071,0.0558 z m -18.092899,-1.62989 c -0.560659,-0.0229 -0.706484,-0.067 -1.040176,-0.30919 -0.132991,-0.0966 -0.195968,-0.19195 -0.195968,-0.29695 0,-0.20037 0.173663,-0.96678 0.272023,-1.20061 0.04199,-0.0999 0.09679,-0.24956 0.121737,-0.3328 0.146405,-0.48808 1.065552,-1.95465 1.411022,-2.25137 0.284756,-0.24472 0.697387,-0.47147 0.857428,-0.47147 0.330872,0 1.577,1.11511 2.039992,1.82554 0.549082,0.8425 0.890523,1.79568 0.781894,2.18277 -0.12476,0.44461 -0.195663,0.49595 -0.901288,0.65269 -0.182403,0.0405 -0.413055,0.0987 -0.512551,0.12899 -0.202014,0.0617 -1.996686,0.10758 -2.834108,0.0724 z m 2.352899,-1.65681 c 0.102836,-0.11395 0.103852,-0.13612 0.01473,-0.32349 -0.153518,-0.32305 -0.760973,-0.94584 -0.922537,-0.94584 -0.238672,0 -0.751647,0.73893 -0.751647,1.08276 0,0.27694 0.08767,0.30891 0.846916,0.30891 0.628147,0 0.713831,-0.0128 0.812531,-0.12236 z m 3.767565,-4.98485 c -0.571193,-0.13918 -1.049809,-0.35783 -1.174856,-0.53696 -0.113709,-0.16289 -0.04873,-1.07439 0.08389,-1.17618 0.144042,-0.11064 0.455934,-0.0925 0.933719,0.0538 0.571669,0.17512 1.419982,0.18787 1.725056,0.026 0.343237,-0.18201 0.689062,-0.49136 0.816022,-0.72978 0.116961,-0.21974 0.117012,-0.22407 0.0025,-0.30847 -0.06379,-0.0472 -0.21304,-0.10019 -0.331653,-0.11778 -0.396793,-0.0591 -0.817904,-0.16595 -0.894025,-0.22662 -0.04954,-0.0395 -0.07537,-0.23401 -0.07537,-0.56703 0,-0.5947 0.04987,-0.6712 0.593874,-0.91123 0.187433,-0.0826 0.396459,-0.20215 0.464514,-0.2656 0.06806,-0.0635 0.266884,-0.1425 0.44184,-0.17589 0.174959,-0.0334 0.345048,-0.0772 0.377985,-0.0976 0.122524,-0.076 0.875653,-0.20598 1.16692,-0.20164 0.165839,0.003 0.410062,0.0375 0.542723,0.0775 0.234888,0.0709 0.24228,0.0816 0.282277,0.40379 0.02261,0.18201 0.01677,0.52148 -0.01321,0.75443 -0.02985,0.23299 -0.05513,0.44205 -0.05614,0.46463 -0.0011,0.0229 0.04077,0.0839 0.0929,0.13613 0.18441,0.18507 1.346887,0.088 1.653947,-0.13817 0.08764,-0.0645 0.176179,-0.21438 0.211491,-0.35787 0.03341,-0.13587 0.08089,-0.26711 0.105529,-0.29183 0.02464,-0.0255 0.04479,-0.0941 0.04479,-0.15423 0,-0.14836 0.300946,-0.29402 0.607964,-0.29402 0.553787,0 0.851354,0.42061 0.715055,1.0107 -0.205139,0.88815 -0.746556,1.443 -1.79039,1.83481 -0.324102,0.1216 -1.191377,0.0941 -1.679784,-0.0535 -0.235725,-0.0714 -0.54066,-0.1295 -0.677619,-0.1295 -0.224726,0 -0.263792,0.0229 -0.400526,0.2409 -0.08333,0.13255 -0.15151,0.26254 -0.15151,0.28905 0,0.0806 -0.797198,0.82889 -1.063132,0.99805 -0.652947,0.41536 -1.831708,0.62034 -2.554877,0.44429 z m -7.929466,-1.2715 c -0.09951,-0.0456 -0.22437,-0.0971 -0.2775,-0.1142 -0.09976,-0.0321 -0.174756,-0.38885 -0.174756,-0.83111 0,-0.25856 -0.05188,-0.22101 1.408657,-1.02117 1.575524,-0.8632 2.674244,-1.27545 3.399278,-1.27545 0.316785,0 0.325791,0.005 0.419927,0.22688 0.05292,0.12465 0.108704,0.35066 0.124023,0.50193 0.02363,0.23248 0.003,0.30452 -0.132076,0.4657 -0.08795,0.10478 -0.219747,0.20751 -0.292911,0.2279 -0.07316,0.0204 -0.187306,0.0602 -0.253636,0.0882 -0.06633,0.028 -0.28341,0.11217 -0.482401,0.18711 -0.564578,0.21286 -1.507474,0.66064 -2.964896,1.40839 -0.482119,0.24727 -0.517614,0.25364 -0.773711,0.13587 z m 13.613136,-5.72222 c -0.365857,-0.15397 -0.512706,-0.89886 -0.232627,-1.17991 0.351856,-0.35306 2.097513,-1.02754 3.051274,-1.17894 0.248733,-0.0395 0.504012,-0.0818 0.567276,-0.0941 0.261725,-0.0505 0.743467,0.29376 0.767314,0.54848 0.05515,0.58911 -0.127427,0.81387 -0.806708,0.993 -1.495471,0.39441 -1.581444,0.42247 -2.429904,0.7931 -0.311082,0.13587 -0.742573,0.19169 -0.916628,0.11828 z m 55.54748,43.67991 c 1.080559,-0.19679 1.669843,-0.50285 2.116743,-1.0994 0.307341,-0.41027 0.340077,-0.63704 0.151969,-1.05278 -0.298741,-0.66021 -1.84875,-1.44666 -3.380637,-1.71521 -0.21558,-0.0377 -0.51406,-0.0923 -0.663302,-0.12083 -0.14925,-0.0285 -0.746213,-0.0826 -1.326603,-0.12007 -3.108261,-0.20087 -3.855559,-0.32456 -6.180762,-1.02357 -0.198991,-0.0599 -0.48391,-0.14352 -0.633152,-0.18583 -0.14925,-0.0426 -0.386378,-0.12797 -0.526967,-0.19017 -0.140587,-0.0622 -0.291674,-0.11318 -0.33574,-0.11318 -0.04408,0 -0.41747,-0.13919 -0.829783,-0.30922 -0.412316,-0.17003 -0.871772,-0.35813 -1.021016,-0.41798 -0.834732,-0.33471 -2.770628,-1.4164 -3.587857,-2.00472 -0.548769,-0.39505 -0.745936,-0.48266 -0.903659,-0.40147 -0.06679,0.0344 -0.392795,0.24472 -0.724444,0.46747 -0.331652,0.22279 -0.728715,0.47728 -0.88236,0.56568 -0.153645,0.0885 -0.295919,0.20419 -0.316153,0.25696 -0.04878,0.12746 0.101464,0.40983 0.302689,0.56864 0.508021,0.40099 1.229429,1.13392 1.593231,1.6187 0.696866,0.92858 0.994166,1.1689 2.4985,2.01943 0.331596,0.18736 2.004116,1.02494 2.046958,1.02494 0.01905,0 0.163299,0.0571 0.32048,0.12695 0.467242,0.20776 0.505429,0.22305 1.039518,0.41946 0.281903,0.1035 0.566821,0.21031 0.633152,0.23733 0.142848,0.0579 1.210707,0.38556 1.597953,0.49036 0.789383,0.21362 0.974542,0.25866 1.718555,0.41847 0.893152,0.19195 1.094928,0.22866 1.658251,0.30345 0.281903,0.0375 0.643512,0.0936 0.803579,0.12517 0.160072,0.0313 0.431412,0.0586 0.603002,0.0607 0.17158,0.002 0.420514,0.026 0.553175,0.0535 0.367004,0.0762 3.253366,0.0742 3.674677,-0.003 z M 6.7138092,239.77096 c 0.120289,-0.0821 1.2717609,-1.10667 1.3852466,-1.23258 0.058608,-0.065 1.6652215,-1.43028 2.1615002,-1.8368 0.534249,-0.43762 3.303076,-2.53176 3.790288,-2.86669 1.13201,-0.77824 2.883997,-1.88137 3.846982,-2.42225 1.454615,-0.81701 4.843468,-2.50405 5.48731,-2.73169 0.165839,-0.0586 0.597169,-0.2358 0.958542,-0.3939 0.719412,-0.31454 2.93997,-1.14432 4.317722,-1.61342 1.280378,-0.43596 3.853775,-1.19908 7.205863,-2.13681 3.139423,-0.87827 3.165757,-0.88869 3.165757,-1.25289 0,-0.25008 -0.138478,-0.4947 -1.304951,-2.30399 -0.144575,-0.22433 -0.26285,-0.42459 -0.26285,-0.44527 0,-0.0204 -0.127783,-0.21209 -0.283984,-0.42563 -0.457359,-0.62503 -0.564225,-0.62799 -2.731025,-0.0752 -0.514057,0.13102 -1.748702,0.42879 -2.743654,0.66156 -0.994953,0.23274 -2.21603,0.52745 -2.713506,0.6549 -1.470376,0.37672 -1.232971,0.41203 -2.091822,-0.31125 -1.414357,-1.19107 -2.35988,-1.83071 -3.513249,-2.37662 -1.258482,-0.59563 -2.187304,-0.87933 -3.378254,-1.03182 -0.661925,-0.0846 -0.91283,-0.0897 -1.628228,-0.0329 -0.853115,0.0681 -2.193246,0.32734 -2.805226,0.54295 -1.080403,0.38064 -3.292817,1.41645 -4.221008,1.97622 -1.7239819,1.03965 -1.8779721,1.14238 -1.9647504,1.31078 -0.050427,0.0979 -0.074384,0.23249 -0.053247,0.29932 0.076721,0.24243 0.2667215,0.24014 1.1204764,-0.0127 1.596388,-0.4745 3.012432,-0.80098 3.912532,-0.90208 2.343799,-0.26325 4.125816,0.15397 6.182296,1.44747 0.759025,0.47744 1.840988,1.28914 1.817703,1.36371 -0.0097,0.0311 -0.559663,0.31701 -1.222098,0.63533 -2.251379,1.08184 -3.972629,2.03416 -5.722648,3.16614 -2.579095,1.66828 -4.926448,3.55186 -9.2516132,7.42385 -0.5779359,0.51737 -1.3551883,1.20471 -1.7272256,1.52738 -1.111544,0.96412 -1.1603456,1.12454 -0.508336,1.67101 0.2155803,0.18073 0.4597885,0.3862 0.5427003,0.45673 0.8214583,0.69878 1.3876219,1.16105 1.5376542,1.25549 0.2244209,0.14123 0.4992794,0.14633 0.6951079,0.0128 z m 49.3841488,-2.26002 c 0.732236,-0.11955 0.893159,-0.15805 1.433164,-0.34386 0.706392,-0.24293 1.173055,-1.68339 0.893853,-2.75899 -0.115539,-0.44516 -0.26552,-0.72396 -0.664974,-1.23624 -0.456808,-0.58583 -0.861518,-0.89099 -1.782645,-1.34415 -0.04974,-0.0255 -0.239689,-0.0793 -0.422099,-0.12185 -0.182402,-0.0426 -0.410326,-0.10121 -0.506473,-0.13027 -0.246371,-0.0747 -1.845884,-0.066 -2.191092,0.0128 -1.037859,0.23401 -1.73853,0.61815 -2.336221,1.28088 -0.36676,0.40669 -0.530216,0.67132 -0.757193,1.22592 -0.122702,0.29978 -0.14831,0.46319 -0.14704,0.93787 0.0014,0.52752 0.01829,0.6094 0.204657,0.99501 0.247666,0.51236 0.674901,0.94105 1.177979,1.18193 0.809246,0.38749 3.571181,0.55102 5.098094,0.30187 z M 5.3216678,233.86736 c 0.4456206,-0.41763 1.1363031,-1.03088 1.348436,-1.19727 0.092954,-0.0729 0.1582937,-0.14326 0.1451851,-0.15651 -0.01321,-0.0127 -0.19734,0.0319 -0.4094221,0.0997 -0.3106632,0.0997 -1.3205472,0.2997 -1.5178008,0.30077 -0.024896,1.1e-4 -0.045219,0.1188 -0.045219,0.26364 0,0.35701 0.070141,1.00725 0.1086538,1.00725 0.017021,0 0.1837234,-0.14301 0.3701548,-0.31765 z m -0.6597197,-2.25201 c 0.9714931,-0.12312 1.1509765,-0.16315 2.4366487,-0.54481 1.1417599,-0.33883 3.2262732,-1.15363 3.8177062,-1.49223 0.635444,-0.36382 0.990562,-0.95887 1.030751,-1.72722 0.02515,-0.48067 0.01905,-0.50777 -0.197086,-0.89583 -0.249723,-0.44809 -0.532356,-0.68705 -1.036459,-0.8763 -0.490302,-0.18405 -0.8748024,-0.15652 -2.1515018,0.15397 -2.3608324,0.57433 -4.0398865,0.79371 -5.1965078,0.679 -1.2002099,-0.11905 -2.3215956,-0.53362 -3.11993604,-1.15335 -0.79905686,-0.62031 -2.50060136,-2.48312 -3.23883036,-3.54579 -0.128647,-0.18507 -0.162333,-0.20062 -0.3759698,-0.17181 -0.1290534,0.0178 -0.2771321,0.067 -0.3290279,0.11012 -0.2228458,0.18558 -0.2125825,0.32798 0.09679,1.34252 0.5122483,1.6798 1.3361301,3.97043 1.5045424,4.18311 0.027945,0.0352 0.069404,0.12491 0.092116,0.19935 0.088508,0.28976 0.6695054,1.27682 0.981952,1.66822 0.42065332,0.52697 0.56869135,0.67594 1.01156574,1.01794 1.24272636,0.95971 2.74263756,1.29768 4.67325956,1.05301 z m 9.0233109,-4.58907 c 0.585222,-0.43203 2.332827,-1.54181 3.066867,-1.94754 0.132661,-0.0734 0.498982,-0.2774 0.81405,-0.45349 0.315066,-0.17615 0.975045,-0.52546 1.466617,-0.77635 l 0.893764,-0.45618 -0.230468,-0.14351 c -0.126767,-0.079 -0.461114,-0.26094 -0.743015,-0.40438 -1.723384,-0.87681 -3.372781,-1.03542 -5.638061,-0.54208 -0.835989,0.18201 -2.656687,0.67413 -2.834108,0.76595 -0.363077,0.18787 -2.149022,1.80552 -2.0353965,1.84353 0.030231,0.0102 0.3377364,-0.0505 0.6833711,-0.13434 0.744044,-0.18099 1.0849564,-0.18915 1.6535284,-0.0403 0.674527,0.17666 1.496852,0.66205 1.802439,1.06408 0.24317,0.31989 0.56372,0.97136 0.60833,1.23632 0.02312,0.13715 0.06374,0.24931 0.09036,0.24931 0.0266,0 0.207374,-0.11752 0.401724,-0.26086 z m 15.247491,-7.00124 c 0.497476,-0.13306 1.538628,-0.38451 2.313672,-0.55898 l 1.409173,-0.31722 -0.484167,-0.22356 c -0.901245,-0.41618 -2.292576,-0.81523 -3.419579,-0.98074 -0.810547,-0.11905 -2.74002,-0.23147 -3.55559,-0.207 l -0.661186,0.0204 0.540587,0.32341 c 0.666264,0.39861 1.486449,0.98773 2.319436,1.66599 0.348234,0.28354 0.633152,0.51658 0.633152,0.51788 0,0.001 0.407027,-0.1063 0.904502,-0.23936 z m 5.518979,-2.10148 c 0.665243,-0.72646 1.092428,-1.39901 1.297137,-2.04212 0.179303,-0.56334 0.152629,-1.56791 -0.0553,-2.08137 -0.413522,-1.02119 -1.203413,-1.99403 -2.358904,-2.90529 -0.298487,-0.23528 -0.569837,-0.44949 -0.603002,-0.47577 -0.21431,-0.16978 -1.189741,-0.74936 -1.402923,-0.8335 -0.287599,-0.11344 -0.5125,-0.0619 -0.716678,0.16442 -0.104361,0.11573 -0.103421,0.13357 0.02578,0.49367 0.07372,0.20546 0.338008,0.97608 0.587292,1.71243 0.42344,1.25077 0.455592,1.38211 0.488854,1.99676 0.03013,0.55664 0.01626,0.7269 -0.09019,1.10596 -0.147472,0.52533 -0.400168,1.03716 -0.772355,1.56443 -0.184333,0.26113 -0.242864,0.38721 -0.188525,0.40608 0.04337,0.0153 0.333045,0.0979 0.643754,0.18379 0.594857,0.16493 1.888141,0.70102 2.317259,0.96071 0.139393,0.0844 0.298504,0.15448 0.353606,0.15575 0.0551,0.001 0.268485,-0.1815 0.474185,-0.40608 z"
       id="path2320-0"
       inkscape:connector-curvature="0" />
    <path
       style="fill:#ffffff;fill-opacity:1;stroke:none;stroke-width:0.06548565px;stroke-linecap:butt;stroke-linejoin:miter;stroke-opacity:1"
       d="m -0.67313724,225.79705 c -0.1304761,0.22688 1.15746982,2.60092 4.12563844,2.62075 2.9681712,0.0204 5.5597171,-1.20525 5.3390992,-1.58867 -0.2206103,-0.38344 -2.9552227,0.8929 -5.2813071,0.8929 -2.326082,0 -4.05297222,-2.15173 -4.18343054,-1.92498 z"
       id="path2338-7"
       inkscape:connector-curvature="0"
       sodipodi:nodetypes="zzzzz" />
    <ellipse
       style="opacity:1;fill:#ffffff;fill-opacity:1;stroke:none;stroke-width:0.36470684;stroke-linecap:round;stroke-linejoin:round;stroke-miterlimit:4;stroke-dasharray:none;stroke-dashoffset:0;stroke-opacity:1"
       id="path2340-0"
       cx="-1.0318755"
       cy="225.23964"
       rx="0.19308288"
       ry="0.19374768" />
    <ellipse
       style="opacity:1;fill:#ffffff;fill-opacity:1;stroke:none;stroke-width:0.09369276;stroke-linecap:round;stroke-linejoin:round;stroke-miterlimit:4;stroke-dasharray:none;stroke-dashoffset:0;stroke-opacity:1"
       id="path2353-1"
       cx="-264.76108"
       cy="86.367332"
       rx="1.8534125"
       ry="1.5551376"
       transform="matrix(0.17772591,-0.98408003,0.98386494,0.17891275,0,0)" />
    <ellipse
       transform="matrix(-0.98386493,-0.1789128,0.17772596,-0.98408002,0,0)"
       ry="0.65537417"
       rx="0.77606297"
       cy="-264.79993"
       cx="-91.137024"
       id="ellipse2355-0"
       style="opacity:1;fill:#ffffff;fill-opacity:1;stroke:none;stroke-width:0.03935762;stroke-linecap:round;stroke-linejoin:round;stroke-miterlimit:4;stroke-dasharray:none;stroke-dashoffset:0;stroke-opacity:1" />
    <text
       xml:space="preserve"
       style="font-style:normal;font-variant:normal;font-weight:normal;font-stretch:normal;font-size:8.97746086px;line-height:125%;font-family:Acre;-inkscape-font-specification:Acre;text-align:end;letter-spacing:4.34957981px;word-spacing:0px;text-anchor:end;fill:#956f48;fill-opacity:1;stroke:none;stroke-width:0.32833114"
       x="70.748512"
       y="302.01364"
       id="text2574-1"
       transform="scale(0.99828289,1.0017201)"><tspan
         sodipodi:role="line"
         id="tspan2572-3"
         x="75.098091"
         y="302.01364"
         style="font-style:normal;font-variant:normal;font-weight:normal;font-stretch:normal;font-size:8.97746086px;font-family:Acre;-inkscape-font-specification:Acre;letter-spacing:4.34957981px;fill:#956f48;fill-opacity:1;stroke-width:0.32833114">tubbs.</tspan></text>
  </g>
</svg>
