<?xml version="1.0" encoding="UTF-8" standalone="no"?>
<!-- Created with Inkscape (http://www.inkscape.org/) -->

<svg
   xmlns:dc="http://purl.org/dc/elements/1.1/"
   xmlns:cc="http://creativecommons.org/ns#"
   xmlns:rdf="http://www.w3.org/1999/02/22-rdf-syntax-ns#"
   xmlns:svg="http://www.w3.org/2000/svg"
   xmlns="http://www.w3.org/2000/svg"
   xmlns:sodipodi="http://sodipodi.sourceforge.net/DTD/sodipodi-0.dtd"
   xmlns:inkscape="http://www.inkscape.org/namespaces/inkscape"
   width="57.313118mm"
   height="65.952873mm"
   viewBox="0 0 57.313118 65.952873"
   version="1.1"
   id="svg5744"
   inkscape:version="0.92.4 (5da689c313, 2019-01-14)"
   sodipodi:docname="tubss.svg">
  <defs
     id="defs5738" />
  <sodipodi:namedview
     id="base"
     pagecolor="#ffffff"
     bordercolor="#666666"
     borderopacity="1.0"
     inkscape:pageopacity="0.0"
     inkscape:pageshadow="2"
     inkscape:zoom="0.35"
     inkscape:cx="339.73684"
     inkscape:cy="493.20678"
     inkscape:document-units="mm"
     inkscape:current-layer="layer1"
     showgrid="false"
     fit-margin-top="0"
     fit-margin-left="0"
     fit-margin-right="0"
     fit-margin-bottom="0"
     inkscape:window-width="1920"
     inkscape:window-height="1016"
     inkscape:window-x="1680"
     inkscape:window-y="27"
     inkscape:window-maximized="1" />
  <metadata
     id="metadata5741">
    <rdf:RDF>
      <cc:Work
         rdf:about="">
        <dc:format>image/svg+xml</dc:format>
        <dc:type
           rdf:resource="http://purl.org/dc/dcmitype/StillImage" />
        <dc:title></dc:title>
      </cc:Work>
    </rdf:RDF>
  </metadata>
  <g
     inkscape:label="Layer 1"
     inkscape:groupmode="layer"
     id="layer1"
     transform="translate(-15.944628,-213.37476)">
    <g
       id="g10565"
       transform="translate(116.07791,-283.92493)">
      <path
         sodipodi:type="star"
         style="opacity:1;fill:#fceabf;fill-opacity:1;stroke:#c69249;stroke-width:1.46473336;stroke-linecap:round;stroke-linejoin:round;stroke-miterlimit:4;stroke-dasharray:none;stroke-dashoffset:0;stroke-opacity:1"
         id="path2256-7"
         sodipodi:sides="6"
         sodipodi:cx="-71.476723"
         sodipodi:cy="530.27612"
         sodipodi:r1="32.24408"
         sodipodi:r2="27.924192"
         sodipodi:arg1="0.52359878"
         sodipodi:arg2="1.0471976"
         inkscape:flatsided="true"
         inkscape:rounded="0"
         inkscape:randomized="0"
         d="m -43.552531,546.39816 -27.924192,16.12204 -27.924192,-16.12204 0,-32.24408 27.924192,-16.12204 27.924192,16.12204 z"
         inkscape:transform-center-x="1.196588e-06"
         inkscape:transform-center-y="1.1444469e-06" />
      <path
         inkscape:connector-curvature="0"
         id="path2258-4"
         d="m -69.83167,503.36357 c -0.0169,0 -0.0272,0.005 -0.0388,0.0163 l -0.0161,0.0163 -0.005,0.25602 c -0.003,0.25168 -0.008,0.31971 -0.03,0.41561 -0.006,0.0319 -0.0312,0.10938 -0.0396,0.12677 -0.0348,0.0727 -0.0499,0.0976 -0.0899,0.1495 -0.0209,0.0272 -0.062,0.0715 -0.0912,0.0984 -0.0545,0.0501 -0.061,0.0602 -0.0602,0.0902 5.3e-4,0.0171 0.0269,0.0514 0.0396,0.0515 0.0388,2.2e-4 0.0913,0.0393 0.11453,0.085 0.0145,0.0298 0.0382,0.0954 0.0382,0.10874 0,0.01 0.0306,0.0375 0.0448,0.0401 v 1.3e-4 c 0.0161,0.005 0.0574,-0.006 0.0686,-0.0166 0.005,-0.005 0.0161,-0.0113 0.0238,-0.0145 0.038,-0.0163 0.11969,-0.0801 0.17383,-0.1358 0.0962,-0.0989 0.1366,-0.17436 0.16997,-0.31778 0.0145,-0.0632 0.0161,-0.0749 0.0129,-0.16726 -0.003,-0.0941 -0.008,-0.14031 -0.0322,-0.23364 -0.01,-0.0401 -0.052,-0.17279 -0.0615,-0.19402 -0.003,-0.006 -0.0161,-0.0375 -0.0292,-0.0686 -0.0129,-0.0311 -0.0385,-0.0851 -0.0564,-0.11937 -0.0859,-0.16537 -0.10133,-0.18638 -0.13774,-0.18638 z m -4.35915,0.29294 c -0.0113,0 -0.0222,0.005 -0.0309,0.0129 -0.0197,0.0184 -0.0237,0.0514 -0.0129,0.10293 0.005,0.0238 0.0129,0.0622 0.0161,0.0852 0.0145,0.0983 0.0343,0.21442 0.0448,0.27168 0.005,0.0246 0.0145,0.077 0.0208,0.11646 0.0197,0.11164 0.0283,0.15207 0.0607,0.28611 0.0311,0.12887 0.0854,0.30322 0.10632,0.34243 0.003,0.005 0.0169,0.0345 0.0309,0.0641 0.0324,0.0686 0.0519,0.10068 0.10149,0.1675 0.0631,0.0849 0.16416,0.17591 0.24122,0.21746 0.0129,0.006 0.0279,0.0145 0.0329,0.0184 0.0113,0.008 0.0639,0.0298 0.069,0.0298 0.002,0 0.0129,0.005 0.0229,0.008 0.0457,0.0205 0.18153,0.0503 0.26369,0.0575 0.0667,0.005 0.30886,0 0.36129,-0.006 0.0214,-0.005 0.067,-0.01 0.10149,-0.0145 0.12693,-0.0175 0.1689,-0.0272 0.19846,-0.0459 0.0298,-0.0192 0.0681,-0.0609 0.0839,-0.092 0.0145,-0.0269 0.034,-0.11099 0.034,-0.14095 -7e-5,-0.0337 -0.0205,-0.11808 -0.0356,-0.14788 -0.0145,-0.029 -0.0736,-0.0931 -0.10197,-0.11099 -0.0416,-0.0264 -0.1031,-0.0392 -0.19988,-0.0422 -0.21428,-0.006 -0.44248,-0.0433 -0.56136,-0.0905 -0.13065,-0.0519 -0.23173,-0.11727 -0.31712,-0.20561 -0.0401,-0.0414 -0.10986,-0.12597 -0.10986,-0.13322 0,0 -0.008,-0.0163 -0.0203,-0.0316 -0.058,-0.0809 -0.1634,-0.28015 -0.24554,-0.46432 -0.005,-0.01 -0.0179,-0.0396 -0.0298,-0.0659 -0.0113,-0.0264 -0.0259,-0.0572 -0.0309,-0.0686 -0.005,-0.0113 -0.0145,-0.0316 -0.0198,-0.0448 -0.005,-0.0129 -0.0129,-0.0295 -0.0145,-0.0362 -0.008,-0.0256 -0.034,-0.0404 -0.0591,-0.0391 z m 2.41178,0.29942 c -5.3e-4,0 -0.001,8e-5 -0.002,8e-5 -1.7e-4,0 -5.3e-4,0 -8e-4,0 -5.3e-4,0 -0.002,2.1e-4 -0.003,4.2e-4 -0.082,0 -0.22478,0.0225 -0.35503,0.054 -0.0411,0.01 -0.086,0.0205 -0.0997,0.0235 -0.0288,0.006 -0.0818,0.0222 -0.10342,0.0311 -0.008,0.005 -0.0391,0.0129 -0.0686,0.023 -0.0295,0.008 -0.0686,0.0225 -0.0867,0.0298 -0.018,0.006 -0.0427,0.0163 -0.0546,0.0187 -0.0532,0.0145 -0.0776,0.0723 -0.0445,0.10552 l 0.0161,0.0163 h 0.13274 c 0.14659,0 0.27008,0.008 0.35676,0.0238 0.0812,0.0129 0.18683,0.0422 0.22092,0.0601 0.008,0.005 0.0176,0.008 0.0206,0.008 0.0129,3e-5 0.10052,0.0467 0.15545,0.083 0.0656,0.0433 0.17459,0.14466 0.23042,0.21413 0.047,0.0585 0.12839,0.17711 0.17158,0.25027 0.0398,0.0673 0.0788,0.13757 0.0788,0.14176 0,0 -0.0145,0.005 -0.0312,0.008 -0.0823,0.0163 -0.24629,0.0517 -0.29715,0.0648 -0.0312,0.008 -0.0728,0.0184 -0.0926,0.023 -0.0678,0.0166 -0.26924,0.0797 -0.30546,0.0957 -0.01,0.005 -0.0219,0.008 -0.0256,0.008 -0.003,0 -0.0182,0.005 -0.0321,0.0113 -0.0145,0.005 -0.0372,0.0163 -0.0519,0.0217 -0.0145,0.005 -0.0356,0.0145 -0.0464,0.0189 -0.0113,0.005 -0.0221,0.008 -0.0253,0.008 -0.003,0 -0.0266,0.01 -0.052,0.0213 -0.0255,0.0113 -0.0543,0.0251 -0.0643,0.029 -0.01,0.005 -0.0474,0.0217 -0.0836,0.0388 -0.0908,0.0427 -0.154,0.0749 -0.29565,0.1511 -0.0285,0.0161 -0.1047,0.0598 -0.17827,0.10406 -0.0113,0.008 -0.0259,0.0145 -0.0308,0.0176 -0.005,0 -0.0197,0.0113 -0.0329,0.0197 -0.0129,0.008 -0.0293,0.0184 -0.0358,0.0217 -0.0192,0.0113 -0.10842,0.0651 -0.13145,0.0802 -0.008,0.005 -0.0356,0.0225 -0.0625,0.0388 -0.0269,0.0166 -0.0551,0.0337 -0.0627,0.0388 -0.008,0.005 -0.0282,0.0179 -0.0457,0.029 -0.0176,0.0113 -0.0548,0.0342 -0.0826,0.0519 -0.0279,0.0176 -0.0651,0.0409 -0.0826,0.0519 -0.0176,0.0113 -0.0382,0.0238 -0.0457,0.029 -0.008,0.005 -0.035,0.0217 -0.0607,0.037 -0.0651,0.0388 -0.0872,0.0628 -0.0872,0.0941 0,0.0129 0.005,0.029 0.008,0.035 0.008,0.01 0.0843,0.11631 0.17557,0.24814 0.0577,0.0833 0.0662,0.093 0.0873,0.0986 0.0308,0.008 0.0366,0.005 0.15336,-0.0699 0.008,-0.005 0.0193,-0.0129 0.0248,-0.0163 0.018,-0.0113 0.0735,-0.0453 0.0825,-0.0509 0.005,-0.005 0.0493,-0.0285 0.0986,-0.0567 0.0493,-0.0282 0.0936,-0.0538 0.0984,-0.0569 0.0221,-0.0145 0.25036,-0.12952 0.32261,-0.16307 0.0343,-0.0163 0.0815,-0.038 0.10439,-0.049 0.023,-0.0113 0.0672,-0.0295 0.0984,-0.0417 0.0498,-0.0192 0.0751,-0.0298 0.12242,-0.0507 0.006,-0.005 0.0348,-0.0129 0.0627,-0.0226 0.10213,-0.0345 0.14643,-0.0496 0.15819,-0.0548 0.006,-0.005 0.0375,-0.0129 0.0686,-0.0209 0.0312,-0.008 0.062,-0.0179 0.0686,-0.0209 0.0145,-0.006 0.0308,-0.01 0.19718,-0.0511 0.0723,-0.0174 0.16093,-0.0379 0.19706,-0.045 0.0361,-0.006 0.081,-0.0166 0.0999,-0.0213 0.0188,-0.005 0.0441,-0.008 0.0561,-0.008 0.0113,0 0.0424,-0.005 0.0672,-0.008 0.0933,-0.0176 0.19891,-0.0298 0.37685,-0.0446 0.0161,0 0.0399,-0.005 0.0615,-0.005 l -0.005,-0.10052 0.005,0.10084 0.0572,-0.005 c 0.0316,0 0.0976,-0.006 0.14691,-0.01 0.0533,-0.005 0.26799,-0.005 0.53006,-0.005 h 0.44064 l 0.0145,-0.0145 c 0.0207,-0.0209 0.025,-0.0635 0.0129,-0.13596 -0.01,-0.0614 -0.0182,-0.11663 -0.0311,-0.21294 -0.0275,-0.20663 -0.0292,-0.21362 -0.0538,-0.23519 -0.0234,-0.0205 -0.0274,-0.0213 -0.17914,-0.0298 -0.19812,-0.0113 -0.30378,-0.0187 -0.40902,-0.0277 -0.0574,-0.005 -0.12517,-0.008 -0.15046,-0.008 -0.0459,3e-5 -0.18294,-0.01 -0.21681,-0.0145 -0.0129,0 -0.0203,-0.008 -0.0279,-0.0251 -0.0343,-0.0767 -0.0451,-0.0997 -0.0707,-0.15078 -0.0161,-0.0311 -0.0382,-0.0741 -0.0499,-0.0955 -0.0113,-0.0213 -0.025,-0.0456 -0.0292,-0.0538 -0.005,-0.008 -0.0145,-0.0264 -0.024,-0.0401 -0.008,-0.0145 -0.0163,-0.0264 -0.0163,-0.0285 0,0 -0.008,-0.0163 -0.0194,-0.0319 -0.0113,-0.0163 -0.0221,-0.0332 -0.0253,-0.0383 -0.0617,-0.10181 -0.21852,-0.27686 -0.3168,-0.35393 -0.0573,-0.0449 -0.12968,-0.0907 -0.17894,-0.11276 -0.0197,-0.008 -0.0398,-0.0184 -0.0446,-0.0209 -0.005,0 -0.0332,-0.0113 -0.0627,-0.0209 -0.0295,-0.008 -0.0619,-0.0187 -0.0717,-0.0222 -0.0129,-0.005 -0.0554,-0.0113 -0.10213,-0.0163 -1.8e-4,-4e-5 -5.3e-4,-8e-5 -5.3e-4,-8e-5 -0.0161,0 -0.0295,-0.005 -0.0451,-0.005 -0.0145,0 -0.0266,-0.005 -0.039,-0.005 -0.006,0 -0.0113,0 -0.0172,0 -0.0129,0 -0.0279,0 -0.035,0 z m -0.17622,0.0251 c 5e-5,0.005 0.0263,0.0171 0.0582,0.0285 0.0633,0.0226 0.17563,0.0773 0.26281,0.12629 0.029,0.0163 0.0554,0.0319 0.076,0.0454 0.0196,0.0129 0.0446,0.0306 0.069,0.048 0.0243,0.0174 0.048,0.0354 0.0654,0.049 0.0399,0.0316 0.0942,0.0818 0.14627,0.13371 -0.052,-0.0519 -0.10632,-0.10197 -0.14627,-0.13354 -0.0172,-0.0129 -0.0411,-0.0316 -0.0654,-0.0491 -0.0243,-0.0175 -0.0493,-0.035 -0.069,-0.0478 -0.0208,-0.0129 -0.0469,-0.0295 -0.076,-0.0456 -0.0872,-0.0488 -0.1995,-0.10342 -0.26281,-0.12613 -0.0319,-0.0113 -0.0582,-0.0243 -0.0582,-0.0285 0,0 0,-8e-5 0,-8e-5 z m -2.65234,0.83908 c -0.0765,0 -0.16662,0.0205 -0.24252,0.0556 -0.0702,0.0324 -0.13032,0.076 -0.19091,0.13902 -0.0897,0.093 -0.13757,0.17757 -0.17103,0.30224 l -0.0185,0.0691 -0.003,0.62411 c -0.003,0.58288 -0.005,0.62615 -0.0145,0.65684 -0.0243,0.0731 -0.064,0.13064 -0.11775,0.17014 -0.0451,0.0332 -0.0865,0.0487 -0.16061,0.0598 -0.12629,0.0192 -0.17309,0.0541 -0.19166,0.14417 -0.0129,0.0661 0.01,0.13612 0.0591,0.17351 0.03,0.023 0.0656,0.0341 0.14498,0.0456 0.078,0.0113 0.12774,0.0354 0.17934,0.0872 0.0404,0.0401 0.0665,0.0836 0.0865,0.14369 0.01,0.0306 0.0113,0.073 0.0145,0.65389 l 0.003,0.62109 0.0169,0.0627 c 0.0362,0.13402 0.0933,0.23364 0.18841,0.32878 0.10487,0.10487 0.22136,0.15916 0.37058,0.17257 0.15143,0.0129 0.2355,-0.0316 0.25797,-0.13869 0.0129,-0.063 -0.0177,-0.13838 -0.0691,-0.1681 -0.0303,-0.0174 -0.0594,-0.0256 -0.13419,-0.0362 -0.0818,-0.0129 -0.14111,-0.0422 -0.19369,-0.0978 -0.0395,-0.0417 -0.0685,-0.0923 -0.0828,-0.14401 -0.005,-0.02 -0.008,-0.18557 -0.0113,-0.65073 -0.005,-0.66218 -0.003,-0.63639 -0.0318,-0.73212 -0.028,-0.0929 -0.0668,-0.15577 -0.14369,-0.23258 l -0.0546,-0.0546 0.0432,-0.0401 c 0.0709,-0.0661 0.12871,-0.15191 0.15335,-0.22764 0.0306,-0.0945 0.0295,-0.0693 0.0333,-0.7434 0.003,-0.58566 0.005,-0.63233 0.0145,-0.66285 0.0351,-0.1068 0.10761,-0.18289 0.20776,-0.21826 0.0129,-0.005 0.0448,-0.0113 0.072,-0.0145 0.10664,-0.0145 0.14981,-0.0379 0.18076,-0.0983 0.0438,-0.0854 0.008,-0.19304 -0.078,-0.23076 -0.03,-0.0129 -0.071,-0.0192 -0.11679,-0.0187 z m 6.26223,4.2e-4 c -0.077,0 -0.11679,0.01 -0.15448,0.0437 -0.0358,0.0316 -0.0523,0.0639 -0.0561,0.11002 -0.005,0.0546 0.01,0.0978 0.0449,0.13386 0.0327,0.0337 0.0596,0.0435 0.15657,0.0572 0.13226,0.0187 0.22034,0.0878 0.26811,0.21069 l 0.0161,0.0401 0.003,0.62398 c 0.003,0.60637 0.005,0.62563 0.0161,0.67942 0.0327,0.14418 0.0749,0.22124 0.17277,0.31506 l 0.0437,0.0417 -0.0511,0.0508 c -0.0578,0.0572 -0.11438,0.13708 -0.13386,0.18886 -0.0188,0.0504 -0.035,0.12258 -0.0417,0.18744 -0.003,0.0332 -0.005,0.29099 -0.006,0.6268 -2.1e-4,0.63386 7.9e-4,0.6097 -0.0404,0.68915 -0.0498,0.095 -0.1329,0.15158 -0.24693,0.16776 -0.1052,0.0145 -0.14289,0.0306 -0.16995,0.0694 -0.0496,0.0717 -0.0414,0.17048 0.019,0.2261 0.0316,0.029 0.0564,0.0404 0.10293,0.0475 0.0187,0.005 0.0446,0.005 0.0577,0.005 0.0802,-0.006 0.10213,-0.01 0.15109,-0.0235 0.19297,-0.0515 0.3677,-0.21958 0.43408,-0.4173 0.0366,-0.1089 0.0345,-0.0707 0.0388,-0.7472 0.003,-0.45345 0.005,-0.62804 0.0113,-0.64679 0.0145,-0.0503 0.0456,-0.10519 0.0839,-0.14594 0.0504,-0.0535 0.11212,-0.0849 0.18583,-0.0942 0.14417,-0.0184 0.20182,-0.0648 0.20775,-0.16711 0.006,-0.10729 -0.0438,-0.16585 -0.15997,-0.18767 -0.10052,-0.0187 -0.11163,-0.0217 -0.14884,-0.0396 -0.0483,-0.023 -0.11164,-0.0852 -0.13645,-0.13419 -0.0427,-0.0844 -0.0395,-0.0342 -0.0432,-0.72248 l -0.003,-0.62113 -0.0168,-0.062 c -0.0224,-0.0826 -0.0488,-0.14369 -0.0884,-0.20463 -0.12855,-0.19728 -0.29914,-0.29613 -0.51537,-0.29877 z m -1.44625,1.05547 c -0.0145,-2.1e-4 -0.0243,0.005 -0.0341,0.0145 -0.0216,0.02 -0.0222,0.0396 -0.003,0.096 0.008,0.0277 0.0193,0.0602 0.0229,0.0717 0.003,0.0113 0.0161,0.0546 0.0281,0.0955 0.02,0.0681 0.0343,0.12226 0.0424,0.1612 0.002,0.008 0.008,0.038 0.0145,0.0657 0.0818,0.37102 0.0788,0.78257 -0.008,1.16152 -0.0209,0.09 -0.0261,0.11018 -0.0474,0.18506 -0.0129,0.0427 -0.025,0.0876 -0.0283,0.10003 -0.003,0.0129 -0.008,0.0226 -0.0113,0.0226 -0.002,0 -0.0324,-0.0259 -0.0665,-0.0582 -0.0722,-0.0675 -0.34091,-0.31539 -0.4519,-0.41678 0.005,0.005 -0.0211,-0.0192 -0.0941,-0.087 -0.0701,-0.0654 -0.0973,-0.0677 -0.14385,-0.0129 -0.0161,0.0184 -0.039,0.0459 -0.0523,0.0607 -0.0129,0.0145 -0.0591,0.0685 -0.10181,0.11905 -0.0427,0.0506 -0.12726,0.14997 -0.1881,0.22103 -0.0607,0.071 -0.12388,0.14482 -0.14031,0.16402 -0.0164,0.0192 -0.0562,0.066 -0.0884,0.10422 -0.0322,0.0383 -0.0609,0.0686 -0.0641,0.068 -0.003,0 -0.0478,-0.0342 -0.0997,-0.0744 -0.0519,-0.0401 -0.14256,-0.11002 -0.20169,-0.15529 -0.21002,-0.16093 -0.24939,-0.19277 -0.37846,-0.30623 -0.1247,-0.1097 -0.25214,-0.24265 -0.33182,-0.34647 -0.0321,-0.0417 -0.11517,-0.16478 -0.12919,-0.19103 -0.0232,-0.0438 -0.0417,-0.077 -0.0464,-0.0831 -0.002,-0.005 -0.0164,-0.0329 -0.0303,-0.0648 -0.0145,-0.0319 -0.029,-0.0654 -0.0337,-0.0746 -0.005,-0.008 -0.008,-0.0209 -0.008,-0.0259 0,-0.005 -0.002,-0.0113 -0.005,-0.0145 -0.005,-0.006 -0.0409,-0.1184 -0.0574,-0.18271 -0.0129,-0.0514 -0.0337,-0.0728 -0.0704,-0.0728 h -1.1e-4 c -0.0211,0 -0.0601,0.0171 -0.21953,0.096 -0.11969,0.0591 -0.20035,0.10261 -0.21055,0.1134 -0.02,0.0213 -0.0283,0.0477 -0.0283,0.0913 0,0.0184 -0.003,0.0652 -0.008,0.10455 -0.005,0.0391 -0.01,0.0944 -0.0129,0.12227 -0.002,0.0277 -0.008,0.0897 -0.0129,0.1374 -0.005,0.0477 -0.0129,0.13355 -0.0177,0.19099 -0.005,0.0575 -0.0113,0.13274 -0.0161,0.16729 -0.003,0.0345 -0.008,0.0963 -0.0129,0.13741 -0.003,0.0409 -0.01,0.10825 -0.0145,0.14933 -0.005,0.0409 -0.008,0.0878 -0.008,0.1039 0,0.0161 -0.005,0.0644 -0.008,0.10761 -0.0145,0.13 -0.024,0.2378 -0.0235,0.26831 7.9e-4,0.0588 0.047,0.0757 0.11873,0.0435 0.0196,-0.008 0.0465,-0.0213 0.0598,-0.0272 0.0282,-0.0129 0.0575,-0.0264 0.13434,-0.0599 0.0312,-0.0129 0.0715,-0.0316 0.0896,-0.0396 0.0545,-0.0247 0.067,-0.0306 0.10745,-0.0487 l 0.039,-0.0176 0.005,0.18583 c 0.002,0.10229 0.006,0.24371 0.01,0.31433 0.003,0.0707 0.008,0.18894 0.01,0.26285 0.006,0.29033 0.0161,0.51209 0.0221,0.54453 0.008,0.0422 0.0246,0.0599 0.0567,0.0606 0.0237,3.7e-4 0.0388,-0.005 0.11824,-0.0498 0.0432,-0.0238 0.0937,-0.0511 0.15239,-0.0821 0.0591,-0.0311 0.15513,-0.083 0.17612,-0.0947 0.0129,-0.008 0.0399,-0.0217 0.0598,-0.0319 0.0197,-0.01 0.0546,-0.029 0.0776,-0.0409 0.0231,-0.0129 0.0678,-0.0362 0.0992,-0.0533 l 0.0575,-0.0311 0.0129,0.0401 c 0.006,0.0222 0.0221,0.0725 0.034,0.11195 0.0113,0.0396 0.0253,0.0825 0.0296,0.0955 0.005,0.0129 0.0145,0.0441 0.0209,0.0686 0.006,0.0248 0.0166,0.0556 0.0209,0.0686 0.005,0.0129 0.0145,0.0441 0.0211,0.0686 0.008,0.0247 0.0171,0.0583 0.0219,0.0747 0.005,0.0166 0.0129,0.0404 0.0168,0.0536 0.005,0.0129 0.0145,0.0441 0.0209,0.0686 0.0129,0.0461 0.0491,0.16372 0.0627,0.20604 0.005,0.0129 0.01,0.0324 0.0113,0.0427 0.005,0.0205 0.0235,0.0414 0.0422,0.0459 0.019,0.005 0.0467,0 0.0606,-0.0145 0.006,-0.006 0.0312,-0.0427 0.0538,-0.0807 0.0225,-0.038 0.0449,-0.0751 0.0499,-0.0828 0.005,-0.008 0.0448,-0.0728 0.0884,-0.14433 0.0438,-0.0715 0.11695,-0.19065 0.16262,-0.26454 0.0456,-0.0738 0.0854,-0.13967 0.0883,-0.14627 0.005,-0.0113 0.005,-0.01 0.0113,0.008 0.003,0.0113 0.0113,0.0358 0.019,0.0538 0.006,0.0179 0.0161,0.0409 0.019,0.0507 0.003,0.01 0.01,0.0264 0.0145,0.037 0.005,0.01 0.008,0.0209 0.008,0.0234 0,0 0.01,0.029 0.0214,0.0588 0.0248,0.0627 0.0324,0.0825 0.0506,0.13145 0.008,0.0197 0.0161,0.0414 0.0182,0.0479 0.003,0.006 0.0113,0.0282 0.0177,0.0477 0.006,0.0196 0.0216,0.0588 0.0327,0.0867 0.0113,0.0277 0.0253,0.0665 0.0316,0.0859 0.008,0.0277 0.0219,0.0477 0.037,0.0593 -2e-5,-8e-5 2e-5,-2e-4 0,-4e-4 0.002,0.008 0.008,0.01 0.0197,0.0113 l 1.1e-4,-1.3e-4 c 0.0223,0.005 0.0482,-0.006 0.0636,-0.0243 0.008,-0.01 0.0392,-0.0504 0.0686,-0.0905 0.0846,-0.11518 0.27114,-0.3665 0.34843,-0.46982 0.0499,-0.0667 0.0503,-0.067 0.0602,-0.0538 0.005,0.008 0.0407,0.0577 0.0785,0.11179 0.0376,0.0541 0.0759,0.10922 0.0849,0.12243 0.008,0.0129 0.0366,0.0538 0.0609,0.0902 0.0243,0.0362 0.0483,0.0696 0.0533,0.0738 0.0161,0.0129 0.0511,0.008 0.0672,-0.006 0.0172,-0.0171 0.034,-0.0786 0.0432,-0.1569 0.003,-0.0295 0.008,-0.0725 0.0129,-0.0955 0.0145,-0.0975 0.0242,-0.16028 0.0358,-0.24184 0.0129,-0.0883 0.0219,-0.15336 0.0382,-0.25982 0.005,-0.0329 0.0129,-0.0812 0.0161,-0.10761 0.003,-0.0264 0.008,-0.0585 0.0113,-0.0717 l 0.005,-0.0238 0.0129,0.0269 c 0.006,0.0145 0.0182,0.0417 0.0255,0.0598 0.0145,0.0354 0.0269,0.0646 0.0399,0.0917 0.005,0.008 0.008,0.0205 0.008,0.0243 0,0.005 0.008,0.0145 0.0174,0.0238 0.023,0.0222 0.0556,0.023 0.0767,0 0.0129,-0.0129 0.0145,-0.0217 0.0196,-0.0888 0.0129,-0.18899 0.0182,-0.28901 0.0238,-0.44112 0.003,-0.0904 0.008,-0.1675 0.008,-0.17156 10e-4,-0.005 0.005,-0.0881 0.008,-0.18672 0.003,-0.0986 0.008,-0.1901 0.0113,-0.20331 l 0.005,-0.0238 0.053,0.0456 c 0.0543,0.0469 0.0744,0.0572 0.101,0.0522 0.0198,-0.005 0.0399,-0.0256 0.0407,-0.044 7.9e-4,-0.0179 -0.01,-0.11115 -0.0214,-0.17881 -0.005,-0.0277 -0.0129,-0.083 -0.0182,-0.12226 -0.005,-0.0396 -0.0129,-0.0958 -0.018,-0.12549 -0.008,-0.0514 -0.0232,-0.15787 -0.0417,-0.28667 -0.005,-0.0329 -0.0113,-0.0797 -0.0161,-0.10439 -0.003,-0.0247 -0.01,-0.0704 -0.0145,-0.10165 -0.01,-0.0755 -0.0251,-0.17806 -0.0478,-0.32834 -0.005,-0.0345 -0.0113,-0.0815 -0.0145,-0.10455 -0.003,-0.023 -0.008,-0.062 -0.0129,-0.0867 -0.0207,-0.13547 -0.0329,-0.22035 -0.0451,-0.31241 -0.0161,-0.11889 -0.0267,-0.13789 -0.10148,-0.17514 -0.023,-0.0113 -0.0834,-0.0427 -0.13435,-0.0691 -0.0649,-0.0337 -0.0999,-0.0488 -0.12356,-0.0493 z m -0.90344,4.0285 c -0.003,0.0129 -0.005,0.0235 -0.006,0.0308 5.2e-4,-0.006 0.003,-0.0179 0.006,-0.0308 z"
         style="font-style:normal;font-variant:normal;font-weight:normal;font-stretch:normal;font-size:0.68592715px;line-height:1.25;font-family:sans-serif;-inkscape-font-specification:Acre;letter-spacing:0px;word-spacing:0px;fill:#c69249;fill-opacity:1;stroke:none;stroke-width:0.00094802" />
      <path
         inkscape:connector-curvature="0"
         id="path2536-5"
         d="m -70.193998,544.87604 c -0.931024,-0.0694 -1.978808,-0.24925 -2.800793,-0.48071 -1.221693,-0.34402 -1.963185,-0.7115 -2.413109,-1.19592 -0.31833,-0.34274 -0.316946,-0.32638 -0.09516,-1.12525 0.150026,-0.54041 0.152295,-0.65293 0.0177,-0.87519 -0.05268,-0.087 -0.144919,-0.15428 -0.320239,-0.2336 -0.629742,-0.2849 -1.260978,-0.60834 -1.784198,-0.9142 -0.689672,-0.40317 -0.876104,-0.47361 -1.085865,-0.41032 -0.08113,0.0245 -0.217593,0.10958 -0.303247,0.18911 -0.220015,0.20425 -0.442632,0.29175 -0.854946,0.33603 -0.454878,0.0489 -1.405136,0.0159 -1.782938,-0.0619 -0.357353,-0.0736 -0.946844,-0.30576 -1.181456,-0.4654 -0.891505,-0.60661 -1.277926,-1.37238 -1.511196,-2.99474 -0.07084,-0.49264 -0.0769,-0.65637 -0.06068,-1.64092 0.01602,-0.97219 0.02858,-1.15103 0.113083,-1.60993 0.105486,-0.57277 0.115207,-0.72261 0.05466,-0.84132 -0.02258,-0.0443 -0.225926,-0.27137 -0.451866,-0.5046 -0.225926,-0.23324 -0.477058,-0.52362 -0.558062,-0.64531 -0.560942,-0.8426 -0.889399,-2.02062 -0.889399,-3.18987 v -0.28739 l -0.268557,-0.0602 c -0.245158,-0.0549 -0.30221,-0.0871 -0.654959,-0.36915 -0.212506,-0.16994 -0.462344,-0.38229 -0.555194,-0.47189 -0.250484,-0.24173 -0.238215,-0.29774 0.154665,-0.70598 l 0.323456,-0.33613 -0.04741,-0.27325 c -0.02608,-0.15028 -0.06343,-0.44729 -0.083,-0.66001 -0.02262,-0.24592 -0.05316,-0.39799 -0.08384,-0.41759 -0.02654,-0.017 -0.122394,-0.0314 -0.212997,-0.0321 -0.531297,-0.004 -1.074357,-0.15972 -1.456556,-0.41719 -0.365732,-0.24639 -0.623806,-0.56954 -0.888794,-1.11295 -0.236464,-0.48496 -0.76663,-2.01926 -0.76663,-2.21866 0,-0.16914 0.108273,-0.27038 0.289185,-0.27038 0.137517,0 0.155808,0.0158 0.500349,0.43328 0.863894,1.04669 1.313683,1.35736 2.10774,1.45583 0.340044,0.0422 0.999484,-0.002 1.226555,-0.0828 0.07228,-0.0256 0.347082,-0.28469 0.741385,-0.69897 0.344574,-0.36205 0.626511,-0.66983 0.626511,-0.68396 0,-0.0141 -0.06591,-0.10904 -0.146449,-0.21093 -0.266855,-0.33758 -0.214932,-0.44327 0.397355,-0.80869 1.716999,-1.02474 2.947909,-1.35539 4.113408,-1.10498 0.346226,0.0744 0.370234,0.0748 0.933596,0.0174 0.504652,-0.0515 0.695138,-0.0531 1.496809,-0.0133 1.094762,0.0545 1.050012,0.0665 1.325266,-0.3565 0.308132,-0.47355 0.355705,-0.60606 0.354834,-0.98861 -0.0014,-0.31062 -0.0156,-0.37527 -0.232483,-1.00955 l -0.231721,-0.67768 0.07141,-0.0967 c 0.05651,-0.0765 0.107656,-0.0991 0.2452,-0.10808 0.14539,-0.01 0.209609,0.0101 0.393011,0.12015 0.618698,0.3712 1.200881,0.93302 1.440199,1.38982 0.128882,0.24601 0.143605,0.30297 0.157303,0.60868 0.01818,0.40585 -0.03423,0.59373 -0.26749,0.95889 -0.09588,0.15008 -0.145294,0.26057 -0.122807,0.27457 0.02505,0.0156 0.02242,0.048 -0.0079,0.0968 -0.03768,0.0608 -0.03353,0.0977 0.02409,0.21459 0.09766,0.19815 0.21534,0.2709 0.483245,0.29878 0.212364,0.0221 0.240758,0.0359 0.359303,0.17527 0.07079,0.0832 0.275946,0.39082 0.455874,0.6836 0.381899,0.62139 0.397924,0.6985 0.212848,1.02429 l -0.114298,0.20123 0.528438,0.54075 c 0.290641,0.29742 0.585006,0.61543 0.654151,0.7067 0.06915,0.0913 0.374178,0.43327 0.677868,0.76002 0.46347,0.49864 0.579303,0.64698 0.721027,0.92337 0.09288,0.1811 0.203618,0.45994 0.246099,0.61962 0.04249,0.15969 0.109079,0.33535 0.147963,0.39036 0.198927,0.28138 0.767907,0.29504 1.053,0.0253 0.04667,-0.0442 0.152406,-0.20517 0.234961,-0.35777 0.286199,-0.52912 0.563044,-0.78545 1.028079,-0.95193 0.231611,-0.0829 0.322412,-0.0945 0.739956,-0.0946 0.417572,-6e-5 0.505191,0.0111 0.714468,0.091 0.299747,0.11449 0.620083,0.32705 0.791598,0.52528 0.171681,0.19841 0.335779,0.54895 0.365419,0.78055 0.02972,0.23232 0.14413,0.44422 0.287195,0.53189 0.06118,0.0375 0.256353,0.12825 0.433735,0.20171 1.233606,0.51083 2.126895,1.13742 3.286279,2.30515 0.982636,0.98972 1.430139,1.59382 1.995841,2.69426 0.20925,0.40705 0.395377,0.60951 0.983315,1.06953 1.022712,0.80021 1.938541,1.93719 2.348725,2.91588 0.489706,1.16841 0.302526,2.0021 -0.552626,2.46139 -0.276472,0.14849 -0.39052,0.30742 -0.39052,0.54419 0,0.29642 0.155131,0.44306 0.643607,0.60839 0.496639,0.16808 1.143662,0.2834 1.943604,0.3464 1.149158,0.0905 1.684624,0.20784 2.160079,0.47338 0.788318,0.44027 0.50519,1.2952 -0.485833,1.46703 -0.331572,0.0575 -1.436711,0.0443 -1.912221,-0.0229 -0.956319,-0.13505 -2.07257,-0.41936 -2.822628,-0.71893 -0.209485,-0.0837 -0.603299,-0.27006 -0.875134,-0.41421 -0.400178,-0.21219 -0.526833,-0.26257 -0.665401,-0.26467 -0.280388,-0.004 -0.494314,0.20872 -0.580785,0.57818 -0.109648,0.46852 -0.332541,0.75648 -0.757405,0.97848 -0.310803,0.1624 -0.549581,0.23882 -0.944585,0.30232 -0.314635,0.0506 -0.518654,0.16186 -0.608487,0.3319 -0.05438,0.10295 -0.06787,0.21003 -0.06787,0.53871 v 0.41022 l -0.147991,0.16933 c -0.699219,0.80006 -3.139104,1.57283 -5.435273,1.72147 -0.635968,0.0412 -1.545572,0.0397 -2.123464,-0.003 z"
         style="fill:#ffffff;stroke-width:0.03674289" />
      <path
         inkscape:connector-curvature="0"
         id="path2328-8"
         d="m -90.752999,520.80807 1.145491,3.25423 1.054372,0.66386 2.824672,-0.13017 1.27566,-0.83308 0.364475,-0.91118 -0.624814,-0.82007 -2.668469,0.27336 -1.509965,-0.32543 -1.31471,-1.50996 z"
         style="fill:#be9355;fill-opacity:1;stroke:none;stroke-width:0.01840872px;stroke-linecap:butt;stroke-linejoin:miter;stroke-opacity:1" />
      <path
         inkscape:connector-curvature="0"
         id="path2334-2"
         d="m -83.554636,519.27207 5.258841,3.77491 4.868332,-1.50996 -0.182237,-0.85912 -0.88515,-1.17153 -4.63403,-0.20827 -2.004606,-0.52067 z"
         style="fill:#956f48;fill-opacity:1;stroke:none;stroke-width:0.01840872px;stroke-linecap:butt;stroke-linejoin:miter;stroke-opacity:1" />
      <path
         inkscape:connector-curvature="0"
         id="path2326-6"
         d="m -80.338476,518.87232 2.411543,1.44508 2.190637,-0.6351 -0.948049,-0.62589 -2.844147,-0.39579 z"
         style="fill:#565656;fill-opacity:1;stroke:none;stroke-width:0.01840872px;stroke-linecap:butt;stroke-linejoin:miter;stroke-opacity:1" />
      <path
         inkscape:connector-curvature="0"
         id="path2324-0"
         d="m -86.210089,521.95172 1.041354,-1.01532 1.640134,-0.28637 h 1.535998 l 1.041354,0.44257 0.104136,0.39051 -3.176132,1.84841 -2.681488,2.18684 -0.520678,0.31241 -0.182237,-1.09343 1.770304,-0.44257 1.021828,-0.57925 0.442577,-0.39051 0.136677,-0.62482 -0.449084,-0.65735 z"
         style="fill:#565656;fill-opacity:1;stroke:none;stroke-width:0.01840872px;stroke-linecap:butt;stroke-linejoin:miter;stroke-opacity:1" />
      <path
         inkscape:connector-curvature="0"
         id="path2332-6"
         d="m -75.994018,519.36935 0.533853,-0.71794 0.570671,-1.30702 -1.30702,-1.6936 -0.791575,-0.0552 -0.257722,0.4234 0.368175,1.23338 -0.312949,1.76724 z"
         style="fill:#956f48;fill-opacity:1;stroke:none;stroke-width:0.01840872px;stroke-linecap:butt;stroke-linejoin:miter;stroke-opacity:1" />
      <path
         sodipodi:nodetypes="cccccc"
         inkscape:connector-curvature="0"
         id="path2330-6"
         d="m -76.030835,519.09322 c 0.682112,-0.54855 0.732964,-1.32666 0.902027,-2.06177 l 0.552261,1.15975 -0.902027,1.41747 -0.662714,-0.29454 z"
         style="fill:#be9355;fill-opacity:1;stroke:none;stroke-width:0.01840872px;stroke-linecap:butt;stroke-linejoin:miter;stroke-opacity:1" />
      <path
         inkscape:connector-curvature="0"
         id="path2336-4"
         d="m -85.663377,520.5217 1.822369,-1.2236 1.588066,-0.36447 4.66006,3.93111 -2.889758,0.98929 -3.124063,1.97857 -2.733556,2.13478 -1.718235,-1.19756 2.030642,-1.87444 2.96786,-2.26494 2.29098,-1.22359 -1.353761,-0.85912 -3.176132,0.33844 z"
         style="fill:#be9355;fill-opacity:1;stroke:none;stroke-width:0.01840872px;stroke-linecap:butt;stroke-linejoin:miter;stroke-opacity:1" />
      <path
         sodipodi:nodetypes="scscccccsccsssccccccscssscsccccsccccssccccsss"
         inkscape:connector-curvature="0"
         id="path2345-6"
         d="m -69.936991,544.71318 c -0.482287,-0.0262 -1.766648,-0.1827 -2.095726,-0.25541 -0.526924,-0.11643 -1.107261,-0.27118 -1.530316,-0.40808 -1.040195,-0.3366 -1.910134,-0.8909 -2.024598,-1.29001 -0.01668,-0.0582 -0.0092,-0.14666 0.02586,-0.30751 0.06489,-0.29734 0.294018,-0.99458 0.42361,-1.28907 0.05671,-0.12886 0.144015,-0.3331 0.194015,-0.45386 0.116953,-0.28246 0.246723,-0.54206 0.382326,-0.76484 0.125307,-0.20587 0.292836,-0.33021 0.708132,-0.52556 0.263474,-0.12394 0.771383,-0.30648 0.974868,-0.35037 0.06443,-0.0139 0.263593,-0.0606 0.442575,-0.10386 0.423042,-0.10218 0.964089,-0.22243 1.57709,-0.29444 0.431106,-0.0506 0.629102,-0.0581 1.586024,-0.0598 1.172619,-0.002 1.358341,0.0388 2.330031,0.17412 0.914191,0.12731 1.537463,0.26848 2.174356,0.49247 0.303126,0.10661 0.907499,0.41311 1.042578,0.52873 0.263447,0.2255 0.631276,0.93216 0.869142,1.66977 0.258326,0.80105 0.342473,1.17028 0.302763,1.32849 -0.02746,0.10941 -0.265879,0.34372 -0.522811,0.5138 -0.457573,0.30289 -1.312875,0.67221 -1.733329,0.74846 -0.09059,0.0164 -0.282406,0.0745 -0.426263,0.12901 -0.367773,0.1394 -0.579812,0.1944 -1.154958,0.29954 -1.229271,0.22473 -2.259149,0.28816 -3.545372,0.21837 z m 1.718235,-2.93945 c 0.582316,-0.0307 0.821051,-0.0556 1.366778,-0.143 1.26633,-0.20273 2.181776,-0.58526 2.570586,-1.07414 0.130135,-0.16363 0.14632,-0.25852 0.068,-0.39865 -0.117105,-0.20953 -0.18058,-0.20345 -0.477774,0.0457 -0.114549,0.096 -0.277283,0.2193 -0.361634,0.27392 l -0.153363,0.0993 -0.4485,0.33821 c -0.494661,-0.53983 -1.356063,-0.44013 -2.935075,-0.53052 -1.375495,-0.0787 -2.874792,0.14745 -3.72935,0.56261 -0.267378,0.1299 -0.497958,-0.1443 -0.588405,-0.01 l -0.107707,-0.38686 -0.07858,-0.0452 c -0.04322,-0.0249 -0.187974,-0.14771 -0.321685,-0.273 -0.133709,-0.12528 -0.261996,-0.22779 -0.285081,-0.22779 -0.02308,0 -0.108007,0.0635 -0.188721,0.14102 l -0.14675,0.14102 0.04165,0.0868 c 0.07032,0.14652 0.27809,0.37733 0.473699,0.52624 0.337319,0.25679 0.747839,0.43042 1.412628,0.5975 0.711245,0.17875 1.366788,0.26321 2.341299,0.30164 0.544378,0.0215 0.717332,0.0187 1.547987,-0.0251 z"
         style="opacity:1;fill:#fae47e;fill-opacity:1;stroke:#fae47e;stroke-width:0.03681744;stroke-linecap:round;stroke-linejoin:round;stroke-miterlimit:4;stroke-dasharray:none;stroke-dashoffset:0;stroke-opacity:1" />
      <path
         sodipodi:nodetypes="sssss"
         inkscape:connector-curvature="0"
         id="path2342-2"
         d="m -65.17473,540.97642 c 10e-7,0.50249 -1.771674,0.37562 -3.957146,0.37562 -2.185473,0 -3.957149,0.12687 -3.957148,-0.37562 10e-7,-0.50249 1.771675,-0.90983 3.957148,-0.90983 2.185471,0 3.957146,0.40734 3.957146,0.90983 z"
         style="opacity:1;fill:#ab7028;fill-opacity:1;stroke:none;stroke-width:0.11288991;stroke-linecap:round;stroke-linejoin:round;stroke-miterlimit:4;stroke-dasharray:none;stroke-dashoffset:0;stroke-opacity:1" />
      <path
         inkscape:connector-curvature="0"
         id="path2347-8"
         d="m -71.170933,540.995 0.370476,-0.27613 0.524648,0.24391 0.04602,0.37738 -0.826092,-0.0943 z"
         style="fill:#ffffff;stroke:#000000;stroke-width:0.01840872px;stroke-linecap:butt;stroke-linejoin:miter;stroke-opacity:1" />
      <path
         sodipodi:nodetypes="cccc"
         inkscape:connector-curvature="0"
         id="path2349-9"
         d="m -62.805647,541.17957 c -0.09048,0.9552 -1.251177,2.4171 -1.955091,3.23598 l 2.449735,-1.38758 z"
         style="fill:#ab7028;fill-opacity:1;stroke:none;stroke-width:0.01840872px;stroke-linecap:butt;stroke-linejoin:miter;stroke-opacity:1" />
      <path
         sodipodi:nodetypes="czcccccc"
         inkscape:connector-curvature="0"
         id="path2351-6"
         d="m -75.07674,540.9428 c 0.314846,-0.25263 0.613906,-0.56844 0.723329,-0.66058 0.109422,-0.0921 0.31676,0.0347 0.31676,0.0347 l 0.362325,-0.30421 c 0.288247,-0.46562 1.271263,-0.88282 1.828318,-1.1869 l -1.859286,0.2025 -1.353036,0.89282 z"
         style="fill:#ffffff;fill-opacity:1;stroke:none;stroke-width:0.01840872px;stroke-linecap:butt;stroke-linejoin:miter;stroke-opacity:1" />
      <path
         inkscape:connector-curvature="0"
         id="path2320-0"
         d="m -70.131846,545.19224 c -0.453415,-0.0299 -1.014637,-0.0897 -1.222418,-0.1303 -0.06527,-0.0127 -0.188109,-0.0334 -0.272967,-0.0459 -0.365912,-0.0539 -0.531533,-0.0869 -1.091867,-0.21777 -0.163187,-0.0381 -0.362194,-0.0905 -0.442237,-0.11632 -0.08004,-0.0259 -0.162969,-0.047 -0.184278,-0.047 -0.02131,0 -0.05729,-0.009 -0.07996,-0.0208 -0.02267,-0.0114 -0.08394,-0.0335 -0.136162,-0.049 -0.05222,-0.0155 -0.116308,-0.0369 -0.142417,-0.0476 -0.02611,-0.0106 -0.125523,-0.044 -0.220917,-0.0741 -0.09539,-0.0301 -0.178805,-0.0634 -0.185357,-0.074 -0.0066,-0.0106 -0.02699,-0.0193 -0.04541,-0.0193 -0.09346,0 -0.80219,-0.35805 -1.058034,-0.53451 -0.406585,-0.28045 -0.658771,-0.54505 -0.80127,-0.84072 -0.07517,-0.15596 -0.06815,-0.36908 0.02294,-0.69725 0.04054,-0.14605 0.08256,-0.2869 0.09338,-0.31301 0.01929,-0.0466 0.0281,-0.0754 0.106488,-0.34915 0.02177,-0.076 0.03156,-0.1594 0.02231,-0.18989 -0.02322,-0.0765 -0.106182,-0.16118 -0.157923,-0.16118 -0.02401,0 -0.0622,-0.01 -0.08487,-0.0217 -0.05751,-0.0303 -0.184314,-0.0843 -0.33792,-0.14382 -0.37111,-0.1438 -1.048367,-0.51244 -1.870973,-1.01842 -0.273243,-0.16806 -0.317367,-0.16565 -0.527445,0.0289 -0.174708,0.16175 -0.378968,0.27556 -0.605038,0.33711 -0.296974,0.0809 -1.301205,0.11976 -1.850609,0.0717 -0.374455,-0.0328 -0.939837,-0.17295 -1.26989,-0.31486 -0.48472,-0.20842 -0.940623,-0.5306 -1.245535,-0.88022 -0.206566,-0.23685 -0.524454,-0.75872 -0.588588,-0.96627 -0.0081,-0.0261 -0.03778,-0.11157 -0.06603,-0.18989 -0.02825,-0.0783 -0.05977,-0.17981 -0.07006,-0.2255 -0.01028,-0.0457 -0.04532,-0.18989 -0.07785,-0.32044 -0.102807,-0.41258 -0.176247,-0.81309 -0.206741,-1.12747 -0.01076,-0.11097 -0.03183,-0.31902 -0.04682,-0.46234 -0.08671,-0.82912 -0.0082,-2.12039 0.181088,-2.97942 0.0776,-0.35212 0.08627,-0.31691 -0.124951,-0.5074 -0.869382,-0.78405 -1.331006,-1.57834 -1.6226,-2.79194 -0.01098,-0.0457 -0.03261,-0.17387 -0.04807,-0.28483 -0.01546,-0.11097 -0.03842,-0.24869 -0.05102,-0.30604 -0.01261,-0.0574 -0.02932,-0.28244 -0.03714,-0.50018 l -0.01422,-0.39591 -0.150648,-0.0258 c -0.179503,-0.0308 -0.293346,-0.10647 -0.797755,-0.53061 -0.553886,-0.46574 -0.580435,-0.49084 -0.631159,-0.59662 -0.111907,-0.23338 -0.08667,-0.5244 0.06271,-0.72329 0.09226,-0.12283 0.151383,-0.18368 0.359203,-0.36968 l 0.126459,-0.11318 -0.04106,-0.24286 c -0.02258,-0.13358 -0.04673,-0.32951 -0.05366,-0.43541 l -0.0126,-0.19254 -0.227925,-0.016 c -0.679921,-0.0478 -1.240271,-0.2878 -1.723574,-0.73823 -0.101686,-0.0948 -0.365116,-0.43103 -0.446443,-0.56987 -0.109458,-0.18685 -0.348891,-0.65818 -0.349057,-0.6871 -7e-5,-0.0125 -0.03659,-0.10327 -0.08116,-0.20176 -0.04457,-0.0985 -0.09641,-0.22714 -0.115198,-0.28589 -0.01879,-0.0587 -0.09842,-0.29908 -0.176967,-0.53406 -0.321108,-0.96074 -0.337549,-1.04314 -0.259582,-1.30138 0.04418,-0.14631 0.180049,-0.30935 0.316697,-0.38001 0.138415,-0.0716 0.343262,-0.0978 0.501736,-0.0641 0.179124,0.038 0.269072,0.11092 0.506424,0.41051 0.44629,0.5633 0.89859,1.0352 1.139316,1.18867 0.17769,0.11329 0.3557,0.19312 0.532653,0.23888 0.201315,0.0521 0.613585,0.0938 0.743699,0.0754 0.05969,-0.008 0.193972,-0.0258 0.298412,-0.0385 0.334446,-0.0408 0.397328,-0.0623 0.463081,-0.1586 0.03251,-0.0476 0.240699,-0.27165 0.462633,-0.49784 l 0.403516,-0.41125 -0.05466,-0.0649 c -0.139812,-0.16602 -0.187186,-0.36038 -0.138605,-0.56863 0.06607,-0.28322 0.193068,-0.39614 0.91153,-0.8105 0.397708,-0.22938 1.053765,-0.56089 1.406126,-0.71054 0.735046,-0.31218 1.664642,-0.47721 2.311592,-0.41037 0.15814,0.0163 0.410364,0.0567 0.560496,0.0898 0.272174,0.0599 0.273828,0.0599 0.56967,0.0231 0.528521,-0.0658 0.574497,-0.0686 1.105118,-0.0676 0.528963,10e-4 0.928509,0.0274 1.285735,0.0848 0.107386,0.0173 0.200848,0.0258 0.207692,0.019 0.0068,-0.007 0.01244,-0.037 0.01244,-0.0669 0,-0.0299 0.04574,-0.11095 0.101637,-0.18 0.229979,-0.28406 0.30077,-0.44922 0.30455,-0.71052 0.0032,-0.22089 -0.0219,-0.36364 -0.103717,-0.58996 -0.283657,-0.78466 -0.349943,-0.99496 -0.349943,-1.11027 0,-0.1764 0.05024,-0.29178 0.188605,-0.43319 0.116644,-0.11921 0.156716,-0.14368 0.31009,-0.18936 0.274971,-0.0819 0.473375,-0.0359 0.842588,0.19543 0.452518,0.28349 0.772082,0.54009 1.082743,0.86941 0.256787,0.27221 0.513952,0.67503 0.591754,0.92692 0.190446,0.6166 0.07932,1.2213 -0.322634,1.75561 -0.0713,0.0948 -0.12963,0.17748 -0.12963,0.1838 0,0.006 0.06352,0.004 0.141164,-0.004 0.200739,-0.0227 0.426328,0.0249 0.556404,0.11734 0.174504,0.12407 0.308905,0.31198 0.82807,1.15773 0.26636,0.43392 0.307469,0.56116 0.256977,0.7954 -0.01645,0.0763 -0.06043,0.18229 -0.09774,0.2355 l -0.06784,0.0968 0.278918,0.24994 c 0.286708,0.25691 0.56228,0.56718 0.818334,0.92138 0.08022,0.11097 0.209457,0.2605 0.287192,0.33231 0.349834,0.32313 0.595328,0.567 0.680986,0.67648 0.206346,0.26373 0.460808,0.68587 0.543702,0.90198 0.07762,0.20234 0.103032,0.27685 0.131967,0.38687 0.01819,0.0692 0.03308,0.15244 0.03308,0.18503 0,0.0326 0.02737,0.0866 0.06081,0.12008 0.05606,0.0561 0.07133,0.0595 0.195368,0.044 0.233277,-0.0291 0.298682,-0.0776 0.385035,-0.28499 0.112057,-0.26919 0.274539,-0.50552 0.499444,-0.72646 0.29283,-0.28765 0.498951,-0.39506 1.101265,-0.57382 0.146023,-0.0433 0.940956,-0.034 1.10925,0.013 0.407958,0.11399 0.645769,0.219 0.873879,0.38588 0.128471,0.094 0.394286,0.36213 0.505303,0.50974 0.178731,0.23763 0.323952,0.62859 0.326221,0.87823 4.18e-4,0.0457 0.01413,0.10066 0.03048,0.12215 0.03668,0.0482 0.195077,0.13896 0.242543,0.13896 0.01923,0 0.07483,0.0214 0.123542,0.0475 0.04872,0.0261 0.100084,0.0475 0.114152,0.0475 0.01407,0 0.07832,0.0253 0.142769,0.0562 0.06446,0.0309 0.193201,0.0894 0.286105,0.13002 0.469613,0.20521 1.145363,0.61736 1.689189,1.03026 0.534396,0.40573 1.410608,1.23052 1.910133,1.79803 0.592813,0.67349 1.080457,1.41631 1.519284,2.31428 0.100509,0.20568 0.173118,0.2956 0.302369,0.37445 0.10425,0.0636 0.567833,0.4233 0.818901,0.63539 0.279043,0.23571 0.733631,0.68904 0.962944,0.96027 0.369049,0.43651 0.542369,0.67638 0.812371,1.12429 0.08941,0.14833 0.420289,0.82163 0.420289,0.85525 0,0.0148 0.01018,0.0454 0.02262,0.068 0.03486,0.0635 0.110945,0.31145 0.140125,0.4566 0.0665,0.33079 0.07462,0.395 0.07462,0.59021 0,0.68161 -0.27537,1.20205 -0.820938,1.55156 -0.09026,0.0578 -0.191756,0.11205 -0.225534,0.12051 -0.10506,0.0263 -0.187814,0.10748 -0.187814,0.18427 0,0.0953 0.06343,0.15061 0.228205,0.19912 0.07684,0.0226 0.191867,0.0615 0.255621,0.0863 0.06375,0.0248 0.141893,0.0452 0.173647,0.0452 0.03175,0 0.0759,0.01 0.0981,0.0216 0.129572,0.0693 0.920495,0.18655 1.451895,0.21515 0.427388,0.023 0.8534,0.0629 1.056264,0.099 0.07833,0.0139 0.195824,0.0334 0.261099,0.0433 0.06527,0.01 0.150725,0.0293 0.189889,0.043 0.03917,0.0138 0.135298,0.043 0.213627,0.0649 0.164504,0.0461 0.164701,0.0462 0.462857,0.1851 0.588161,0.27402 0.829606,0.59225 0.830423,1.09449 3.48e-4,0.19876 -0.0055,0.22395 -0.09388,0.40656 -0.173325,0.35809 -0.550601,0.63261 -1.021379,0.74319 -0.300886,0.0707 -0.489181,0.0862 -1.032527,0.0852 -0.67046,-0.001 -0.884304,-0.0225 -1.798022,-0.17853 -0.292008,-0.0499 -1.00042,-0.21322 -1.228351,-0.28324 -0.03264,-0.01 -0.107407,-0.0318 -0.166154,-0.0484 -0.2885,-0.0814 -0.709544,-0.22728 -0.895786,-0.31029 -0.05534,-0.0247 -0.105761,-0.0448 -0.112044,-0.0448 -0.01333,0 -0.229036,-0.0962 -0.416346,-0.18562 -0.163951,-0.0783 -0.634937,-0.33684 -0.712166,-0.39093 -0.07447,-0.0522 -0.171022,-0.0518 -0.234837,9.5e-4 -0.04914,0.0406 -0.121129,0.2611 -0.121129,0.37105 0,0.0298 -0.0071,0.0613 -0.01575,0.07 -0.0087,0.009 -0.03454,0.0691 -0.0575,0.13431 -0.09687,0.27507 -0.356003,0.60182 -0.617161,0.7782 -0.342669,0.23143 -0.822336,0.402 -1.313418,0.46705 -0.354238,0.0469 -0.361667,0.055 -0.346308,0.37572 0.0064,0.13343 0.01033,0.32409 0.0088,0.42368 -0.0027,0.17219 -0.0079,0.18846 -0.104895,0.33136 -0.268725,0.39571 -0.899489,0.82716 -1.612634,1.10305 -0.05875,0.0227 -0.11696,0.0504 -0.129362,0.0615 -0.0124,0.0111 -0.04192,0.0202 -0.0656,0.0202 -0.02368,0 -0.06159,0.01 -0.08426,0.0218 -0.06423,0.034 -0.285741,0.11366 -0.468468,0.16841 -0.09138,0.0274 -0.184701,0.0598 -0.207369,0.0722 -0.02267,0.0123 -0.06006,0.0226 -0.08308,0.0228 -0.02302,2.1e-4 -0.08964,0.017 -0.148027,0.0373 -0.05839,0.0203 -0.149182,0.0462 -0.201758,0.0575 -0.05258,0.0113 -0.186385,0.0434 -0.297351,0.0712 -0.307376,0.0772 -0.743555,0.16476 -1.068132,0.21432 -0.08486,0.013 -0.213251,0.0341 -0.285319,0.047 -0.79507,0.142 -2.246279,0.199 -3.298856,0.12959 z m 2.028106,-0.46216 c 0.183508,-0.013 0.419102,-0.0342 0.523542,-0.0473 0.104439,-0.0131 0.286021,-0.0349 0.403516,-0.0486 0.289227,-0.0337 0.472967,-0.0644 1.151209,-0.19197 0.250078,-0.0471 0.629592,-0.15898 0.795164,-0.23452 0.145494,-0.0664 0.405803,-0.14241 0.487546,-0.14241 0.0945,0 0.664159,-0.20397 0.961956,-0.34443 0.735072,-0.34671 1.173972,-0.67333 1.24482,-0.92638 0.04302,-0.15364 -0.06865,-0.61213 -0.352414,-1.447 -0.01331,-0.0392 -0.04237,-0.13529 -0.06457,-0.21362 -0.05649,-0.19933 -0.341305,-0.77561 -0.506685,-1.02522 -0.148001,-0.22338 -0.242262,-0.32292 -0.393947,-0.416 -0.139675,-0.0857 -0.570116,-0.29893 -0.75956,-0.37626 -0.07866,-0.0321 -0.60986,-0.2044 -0.718022,-0.23288 -0.05548,-0.0146 -0.140934,-0.0376 -0.189889,-0.0512 -0.201465,-0.0557 -0.831874,-0.1808 -1.085934,-0.21542 -0.09139,-0.0124 -0.235583,-0.0328 -0.32044,-0.0453 -0.897121,-0.13195 -1.626688,-0.17578 -2.622856,-0.15758 -0.404704,0.007 -0.837297,0.0246 -0.961319,0.0383 -0.124023,0.0136 -0.34299,0.0366 -0.486594,0.051 -0.143604,0.0144 -0.35189,0.0421 -0.462856,0.0615 -0.110968,0.0194 -0.265847,0.0442 -0.344177,0.055 -0.130674,0.0181 -0.230777,0.0387 -0.7473,0.15428 -0.0977,0.0219 -0.195797,0.0495 -0.218,0.0613 -0.0222,0.0119 -0.0637,0.0216 -0.09222,0.0216 -0.05296,0 -0.333448,0.0835 -0.407871,0.12142 -0.02267,0.0115 -0.0575,0.021 -0.0774,0.021 -0.0199,0 -0.08146,0.0201 -0.136806,0.0448 -0.05534,0.0246 -0.16222,0.0686 -0.237508,0.0979 -0.07529,0.0292 -0.142677,0.0625 -0.149752,0.0739 -0.0071,0.0114 -0.02741,0.0208 -0.0452,0.0208 -0.05476,0 -0.44648,0.23612 -0.537122,0.32377 -0.09748,0.0943 -0.378649,0.62478 -0.495138,0.93425 -0.04177,0.11096 -0.0854,0.21778 -0.09696,0.23736 -0.187447,0.31766 -0.568397,1.49499 -0.568397,1.75664 0,0.30832 0.575787,0.77277 1.412307,1.13922 0.06527,0.0286 0.145997,0.0651 0.179381,0.0812 0.06049,0.0291 0.766439,0.25778 0.924355,0.2994 0.04569,0.012 0.158998,0.0435 0.25179,0.0698 0.09279,0.0264 0.195631,0.048 0.22853,0.048 0.0329,0 0.09909,0.0164 0.147089,0.0365 0.07997,0.0334 0.165404,0.0545 0.428855,0.10595 0.05222,0.0102 0.153693,0.031 0.225495,0.0462 0.0718,0.0152 0.269406,0.0426 0.43912,0.0608 0.169714,0.0182 0.426066,0.0504 0.569671,0.0716 0.650772,0.0957 1.954742,0.13559 2.704589,0.0827 z m -1.731403,-2.94706 c -0.499544,-0.0141 -1.027963,-0.0582 -1.363418,-0.1136 -0.42307,-0.0699 -0.733131,-0.13085 -0.891527,-0.17518 -0.06527,-0.0183 -0.204132,-0.0566 -0.308571,-0.0852 -0.706398,-0.19339 -1.187086,-0.4837 -1.499713,-0.90576 -0.147872,-0.19963 -0.147834,-0.20058 0.01453,-0.35848 0.07828,-0.0761 0.161419,-0.13841 0.184746,-0.1384 0.02333,10e-6 0.102607,0.0673 0.176181,0.1496 0.254526,0.28463 0.759352,0.60995 0.946501,0.60995 0.04006,0 0.117799,0.0231 0.172762,0.0512 0.06417,0.0329 0.159397,0.0549 0.266088,0.0614 0.165297,0.0101 0.167004,0.01 0.331083,-0.10148 0.194772,-0.13183 0.487818,-0.36552 0.487818,-0.38901 0,-0.0191 0.150302,-0.0855 0.237363,-0.10491 0.03264,-0.007 0.168273,-0.0294 0.301412,-0.0492 0.249544,-0.0371 0.386939,-0.0216 0.386939,0.0436 0,0.0278 0.04757,0.0727 0.489513,0.46219 0.106047,0.0934 0.247593,0.2329 0.314546,0.30988 0.07888,0.0907 0.152529,0.15013 0.209202,0.16883 0.173675,0.0573 1.371241,0.004 2.119925,-0.0941 0.410128,-0.0538 1.251478,-0.24392 1.377114,-0.31115 0.02687,-0.0144 0.06901,-0.0197 0.09365,-0.0119 0.04966,0.0158 0.4096,-0.11563 0.58494,-0.21352 0.200597,-0.11199 0.398614,-0.25558 0.543878,-0.39438 0.134354,-0.12838 0.231315,-0.18699 0.309359,-0.18699 0.03756,0 0.131606,0.13868 0.169995,0.25066 0.0341,0.0995 -0.02666,0.2195 -0.201682,0.39838 -0.329854,0.33712 -0.919925,0.62142 -1.654835,0.79729 -0.117495,0.0281 -0.251011,0.0607 -0.296704,0.0723 -0.195461,0.0499 -0.826245,0.15011 -1.210549,0.19236 -0.340618,0.0374 -1.577298,0.0988 -1.70901,0.0849 -0.01958,-0.002 -0.281275,-0.0107 -0.581539,-0.0192 z m -0.534066,-0.63519 c 0,-0.0988 -0.280429,-0.26321 -0.449002,-0.26321 -0.0681,0 -0.110867,0.0195 -0.181988,0.0828 -0.08767,0.0781 -0.09049,0.0848 -0.0496,0.11671 0.02515,0.0196 0.129842,0.0406 0.249231,0.0498 0.113222,0.009 0.237903,0.0247 0.277069,0.0354 0.118517,0.0324 0.154285,0.0274 0.154285,-0.0216 z m 8.75444,0.30441 c 0.277368,-0.057 0.350256,-0.0781 0.550174,-0.15934 0.433061,-0.1759 0.675854,-0.39838 0.795262,-0.72872 0.01416,-0.0392 0.04008,-0.14731 0.05761,-0.24033 0.03585,-0.19026 0.0093,-0.40485 -0.07421,-0.60073 -0.05471,-0.12826 -0.228769,-0.37618 -0.374274,-0.53309 -0.265818,-0.28664 -0.9541,-0.79695 -1.136466,-0.84259 -0.04775,-0.012 -0.140094,-0.0341 -0.2052,-0.0492 -0.146161,-0.0339 -0.194998,-0.0764 -0.227799,-0.1982 -0.02661,-0.0988 0.002,-0.27951 0.05413,-0.34237 0.01699,-0.0205 0.09968,-0.03 0.2607,-0.03 0.129697,0 0.285939,-0.0113 0.347204,-0.0252 0.377145,-0.0853 0.396545,-0.0914 0.597983,-0.1887 0.318075,-0.15357 0.562523,-0.34024 0.750814,-0.57337 0.122773,-0.152 0.222299,-0.33009 0.222461,-0.39806 0,-0.0467 0.08656,-0.19355 0.137064,-0.23291 0.0219,-0.0171 0.106363,-0.0297 0.198856,-0.0297 0.142033,0 0.164278,0.006 0.190756,0.0534 0.04568,0.0814 0.03395,0.3386 -0.02588,0.56765 -0.0644,0.24651 -0.05782,0.26581 0.134629,0.39467 0.143341,0.096 0.233916,0.14182 0.408883,0.20695 0.05875,0.0219 0.128176,0.0486 0.154286,0.0593 0.02611,0.0108 0.07417,0.0265 0.106813,0.035 0.03264,0.009 0.09672,0.0257 0.142418,0.0381 0.286852,0.0783 0.858416,0.13924 1.030265,0.10985 0.489719,-0.0838 0.931987,-0.41165 1.042541,-0.77292 0.06875,-0.22464 0.092,-0.46661 0.06366,-0.66238 -0.0297,-0.20517 -0.11592,-0.59186 -0.144207,-0.64678 -0.01009,-0.0196 -0.04273,-0.0997 -0.07252,-0.17805 -0.04645,-0.12213 -0.216673,-0.46832 -0.311939,-0.6344 -0.01613,-0.0281 -0.114188,-0.17995 -0.217899,-0.33738 -0.566558,-0.86004 -1.406321,-1.69225 -2.360308,-2.33908 -0.187542,-0.12716 -0.23018,-0.16817 -0.269959,-0.25964 -0.02598,-0.0597 -0.06808,-0.15669 -0.09356,-0.21543 -0.403058,-0.92949 -1.090406,-1.89498 -2.01273,-2.82719 -0.345771,-0.34948 -0.937559,-0.87796 -1.213552,-1.08373 -0.05718,-0.0426 -0.190944,-0.14509 -0.297254,-0.22769 -0.106313,-0.0826 -0.245169,-0.18011 -0.308571,-0.2167 -0.06341,-0.0366 -0.226649,-0.13595 -0.362764,-0.2208 -0.199083,-0.12411 -0.655546,-0.35748 -0.939329,-0.48024 -0.167379,-0.0724 -0.409766,-0.14249 -0.454227,-0.13133 -0.03431,0.009 -0.07573,0.0603 -0.119574,0.1492 -0.0995,0.20177 -0.426697,0.53468 -0.584536,0.59474 -0.188155,0.0716 -0.249233,0.086 -0.718257,0.16938 -0.185842,0.033 -1.416439,0.0333 -1.621768,3.7e-4 -0.305355,-0.049 -0.419806,-0.0757 -0.572407,-0.1336 -0.462852,-0.1756 -0.734758,-0.48042 -0.980951,-1.0997 -0.04865,-0.12238 -0.05699,-0.13051 -0.140926,-0.13746 -0.04907,-0.004 -0.150512,0.0131 -0.225428,0.0382 -0.07492,0.0251 -0.216321,0.0704 -0.314233,0.10067 -0.09791,0.0303 -0.188169,0.0638 -0.200571,0.0745 -0.0124,0.0107 -0.03617,0.0195 -0.05281,0.0195 -0.03263,0 -0.264869,0.1025 -0.494308,0.21817 -0.26099,0.13158 -0.540062,0.33725 -0.773976,0.57041 -0.127339,0.12693 -0.26698,0.25239 -0.310313,0.27881 -0.155663,0.0949 -0.305351,0.0378 -0.395806,-0.15113 -0.04007,-0.0837 -0.04105,-0.10071 -0.01022,-0.17802 0.141075,-0.35374 0.954428,-0.9877 1.585257,-1.23561 0.07833,-0.0308 0.152565,-0.065 0.164967,-0.076 0.0124,-0.011 0.04498,-0.02 0.0724,-0.02 0.02741,0 0.06266,-0.0128 0.07833,-0.0285 0.04297,-0.043 0.03428,-0.21923 -0.02011,-0.40808 -0.170019,-0.59031 -0.561432,-1.13214 -1.16196,-1.60848 -0.124021,-0.0984 -0.241189,-0.20988 -0.260373,-0.24779 -0.181665,-0.359 -0.654921,-0.89066 -1.145206,-1.28655 l -0.206898,-0.16707 -0.12541,0.0353 c -0.06898,0.0194 -0.184156,0.0512 -0.255958,0.0707 -0.0718,0.0195 -0.258725,0.0712 -0.415385,0.11507 -1.080349,0.30229 -1.358942,0.38153 -1.59033,0.45234 -0.143604,0.0439 -0.373252,0.11343 -0.510329,0.1544 -0.636821,0.19036 -1.740392,0.57626 -2.274669,0.79542 -0.178448,0.0732 -0.398506,0.15929 -0.489019,0.19131 -0.09051,0.032 -0.175962,0.0671 -0.189889,0.0779 -0.01393,0.0108 -0.137477,0.0705 -0.274555,0.13269 -0.545295,0.24721 -1.66494,0.82417 -1.934504,0.99686 -0.117305,0.0752 -0.498548,0.30425 -0.686366,0.41245 -0.05331,0.0307 -0.112953,0.0699 -0.132535,0.087 -0.01958,0.0172 -0.153099,0.10839 -0.296703,0.20273 -0.143605,0.0944 -0.335869,0.22667 -0.427253,0.29405 -0.531904,0.39216 -0.674328,0.50044 -0.996923,0.75795 -0.444018,0.35443 -1.134911,0.94651 -1.347033,1.15438 l -0.16022,0.15701 0.0012,0.27143 c 0.0023,0.50891 0.08402,1.15873 0.189438,1.50571 0.0119,0.0392 0.04407,0.14598 0.07149,0.23737 0.02742,0.0914 0.05883,0.18751 0.0698,0.21362 0.01097,0.0261 0.04485,0.11156 0.07528,0.18989 0.366417,0.94309 1.009118,1.66217 1.850589,2.07052 0.109389,0.0531 0.273658,0.11993 0.365043,0.14854 0.09138,0.0286 0.203539,0.0698 0.249231,0.0914 0.07968,0.0378 0.08337,0.0452 0.09034,0.18089 0.0042,0.0811 -0.0055,0.16721 -0.02266,0.20175 -0.04652,0.0937 -0.119259,0.16709 -0.165615,0.16709 -0.05659,0 -0.254284,-0.0532 -0.472744,-0.12713 -0.09846,-0.0333 -0.222934,-0.0676 -0.276607,-0.0762 -0.08576,-0.0137 -0.101789,-0.009 -0.132259,0.0405 -0.01907,0.0308 -0.04704,0.15221 -0.06214,0.26971 -0.01511,0.11749 -0.0376,0.28839 -0.04998,0.37978 -0.06069,0.44804 -0.07774,0.77138 -0.07571,1.43604 0.0012,0.39817 0.0072,0.756 0.01339,0.79516 0.0061,0.0392 0.01769,0.14598 0.02566,0.23737 0.008,0.0914 0.02411,0.2249 0.03588,0.2967 0.01177,0.0718 0.03352,0.21066 0.04834,0.30857 0.0358,0.23653 0.08343,0.46885 0.143542,0.70022 0.02714,0.10444 0.05762,0.2222 0.06773,0.26169 0.09162,0.35767 0.34003,0.80437 0.636792,1.14509 0.114136,0.13105 0.455643,0.43278 0.489826,0.43278 0.007,0 0.05321,0.0277 0.102745,0.0616 0.270743,0.18504 0.783382,0.37183 1.248296,0.45484 0.315951,0.0564 1.629734,0.0541 1.899833,-0.003 0.328084,-0.0698 0.4898,-0.18691 0.659172,-0.47743 0.210834,-0.36163 0.224206,-0.82911 0.03423,-1.19649 -0.113837,-0.22014 -0.389176,-0.51155 -0.650622,-0.68861 -0.159333,-0.1079 -0.428186,-0.23929 -0.489651,-0.23929 -0.02005,0 -0.055,-0.0101 -0.07766,-0.0224 -0.02267,-0.0123 -0.14803,-0.0457 -0.278579,-0.0742 -0.13055,-0.0285 -0.306791,-0.0745 -0.391648,-0.1022 l -0.154286,-0.0504 -0.0069,-0.19355 c -0.0067,-0.18847 -0.0051,-0.19474 0.05934,-0.23888 0.143321,-0.0981 0.237037,-0.10907 0.469714,-0.0549 0.872216,0.2032 1.411489,0.52083 1.848466,1.08871 0.120105,0.15609 0.272657,0.44437 0.303285,0.57314 0.07039,0.29591 0.09063,0.54766 0.06342,0.7885 -0.04861,0.43011 -0.06089,0.39067 0.170325,0.54682 0.110967,0.0749 0.244484,0.15847 0.296703,0.18561 0.05222,0.0271 0.147628,0.0815 0.212019,0.12075 0.365862,0.22315 1.763322,0.92215 1.843664,0.92219 0.06785,0 0.05425,0.0239 0.432997,-0.75953 0.196433,-0.40631 0.387075,-0.70905 0.501436,-0.79628 0.08019,-0.0612 0.64366,-0.35159 0.819554,-0.42242 0.05875,-0.0237 0.128175,-0.0522 0.154285,-0.0633 0.02611,-0.0112 0.0902,-0.0339 0.142418,-0.0505 0.05222,-0.0166 0.105092,-0.0387 0.117495,-0.049 0.0124,-0.0104 0.04498,-0.0189 0.0724,-0.0189 0.02742,0 0.05999,-0.009 0.0724,-0.0201 0.0124,-0.011 0.11334,-0.0444 0.224308,-0.0741 0.110967,-0.0297 0.271186,-0.0725 0.356044,-0.0952 1.362449,-0.36362 3.621545,-0.49557 5.295205,-0.30928 0.664167,0.0739 1.452685,0.20703 1.83754,0.31019 0.05222,0.014 0.13233,0.0344 0.178022,0.0453 0.115038,0.0275 0.353493,0.0929 0.439121,0.12041 0.398516,0.12807 0.604969,0.19748 0.664616,0.22345 0.189438,0.0825 0.267761,0.11629 0.344175,0.14862 0.08173,0.0346 0.152022,0.0698 0.348358,0.17442 0.162881,0.0868 0.32034,0.21682 0.434336,0.35859 0.133324,0.16582 0.505077,0.81695 0.62103,1.08775 0.130289,0.30427 0.24681,0.59297 0.306557,0.75956 0.04754,0.13255 0.08164,0.1486 0.279326,0.13146 0.09558,-0.008 0.277161,-0.0363 0.403516,-0.0623 z m -12.967626,-10.71323 c -0.243393,-0.052 -0.355346,-0.10379 -0.461579,-0.21371 l -0.0818,-0.0846 0.0818,-0.0857 c 0.190865,-0.19989 0.530445,-0.36369 0.771641,-0.37221 l 0.140927,-0.005 0.0082,0.0949 c 0.0094,0.10928 -0.0314,0.36808 -0.08794,0.5578 -0.03836,0.12872 -0.04024,0.13061 -0.133848,0.1347 -0.05222,0.002 -0.159034,-0.01 -0.237363,-0.0263 z m 1.87629,-0.8135 c -0.103821,-0.005 -0.20407,-0.0219 -0.222775,-0.0374 -0.02697,-0.0224 -0.03108,-0.0725 -0.01986,-0.24221 0.0078,-0.11769 0.02414,-0.24603 0.03636,-0.2852 0.01222,-0.0392 0.0396,-0.12995 0.06085,-0.20175 0.0602,-0.20342 0.05832,-0.20203 0.2712,-0.19973 0.370959,0.004 0.752383,0.23575 0.829054,0.5037 0.06764,0.23636 0.07179,0.26682 0.04725,0.34676 -0.01978,0.0645 -0.04001,0.0837 -0.09866,0.0939 -0.107136,0.0187 -0.683272,0.0327 -0.903421,0.0219 z m -7.122004,-0.63938 c -0.220695,-0.009 -0.278097,-0.0263 -0.40945,-0.12129 -0.05235,-0.0379 -0.07714,-0.0753 -0.07714,-0.11649 0,-0.0786 0.06836,-0.37925 0.107078,-0.47098 0.01653,-0.0392 0.0381,-0.0979 0.04792,-0.13055 0.05763,-0.19147 0.419439,-0.76678 0.555428,-0.88318 0.11209,-0.096 0.274516,-0.18495 0.337514,-0.18495 0.130243,0 0.620763,0.43744 0.803013,0.71613 0.216138,0.3305 0.350541,0.70442 0.307781,0.85627 -0.04911,0.17441 -0.07702,0.19455 -0.354779,0.25604 -0.0718,0.0159 -0.162593,0.0387 -0.201758,0.0506 -0.07952,0.0242 -0.785966,0.0422 -1.115605,0.0284 z m 0.926184,-0.64994 c 0.04048,-0.0447 0.04088,-0.0534 0.0058,-0.1269 -0.06043,-0.12673 -0.299546,-0.37104 -0.363143,-0.37104 -0.09395,0 -0.295875,0.28987 -0.295875,0.42475 0,0.10864 0.03451,0.12118 0.333376,0.12118 0.247261,0 0.280989,-0.005 0.319841,-0.048 z m 1.483047,-1.95548 c -0.224842,-0.0546 -0.413242,-0.14037 -0.462465,-0.21064 -0.04476,-0.0639 -0.01918,-0.42147 0.03302,-0.4614 0.0567,-0.0434 0.179472,-0.0363 0.367545,0.0211 0.225029,0.0687 0.558955,0.0737 0.679043,0.0102 0.13511,-0.0714 0.271239,-0.19275 0.321215,-0.28628 0.04604,-0.0862 0.04606,-0.0879 0.001,-0.12101 -0.02511,-0.0185 -0.08386,-0.0393 -0.13055,-0.0462 -0.156192,-0.0232 -0.321956,-0.0651 -0.35192,-0.0889 -0.0195,-0.0155 -0.02967,-0.0918 -0.02967,-0.22244 0,-0.23329 0.01963,-0.2633 0.23377,-0.35746 0.07378,-0.0324 0.15606,-0.0793 0.182849,-0.10419 0.02679,-0.0249 0.105055,-0.0559 0.173924,-0.069 0.06887,-0.0131 0.135823,-0.0303 0.148788,-0.0383 0.04823,-0.0298 0.344688,-0.0808 0.459341,-0.0791 0.06528,0.001 0.161415,0.0147 0.213635,0.0304 0.09246,0.0278 0.09537,0.032 0.111114,0.1584 0.0089,0.0714 0.0066,0.20457 -0.0052,0.29595 -0.01175,0.0914 -0.0217,0.17341 -0.0221,0.18227 -4.18e-4,0.009 0.01605,0.0329 0.03657,0.0534 0.07259,0.0726 0.530182,0.0345 0.651052,-0.0542 0.0345,-0.0253 0.06935,-0.0841 0.08325,-0.14039 0.01315,-0.0533 0.03184,-0.10478 0.04154,-0.11448 0.0097,-0.01 0.01763,-0.0369 0.01763,-0.0605 0,-0.0582 0.118463,-0.11534 0.239316,-0.11534 0.21799,0 0.335123,0.165 0.281471,0.39648 -0.08075,0.34841 -0.293871,0.56607 -0.704761,0.71977 -0.127578,0.0477 -0.468968,0.0369 -0.661222,-0.021 -0.09279,-0.028 -0.212823,-0.0508 -0.266735,-0.0508 -0.08846,0 -0.103838,0.009 -0.157661,0.0945 -0.0328,0.052 -0.05964,0.10299 -0.05964,0.11339 0,0.0316 -0.313805,0.32516 -0.418486,0.39152 -0.257023,0.16294 -0.721025,0.24335 -1.00569,0.17429 z m -3.121318,-0.49879 c -0.03917,-0.0179 -0.08832,-0.0381 -0.109234,-0.0448 -0.03927,-0.0126 -0.06879,-0.15254 -0.06879,-0.32603 0,-0.10143 -0.02042,-0.0867 0.554497,-0.40059 0.620182,-0.33862 1.052677,-0.50034 1.338076,-0.50034 0.124698,0 0.128243,0.002 0.165298,0.089 0.02083,0.0489 0.04279,0.13756 0.04882,0.1969 0.0093,0.0912 0.0012,0.11946 -0.05199,0.18269 -0.03462,0.0411 -0.0865,0.0814 -0.1153,0.0894 -0.0288,0.008 -0.07373,0.0236 -0.09984,0.0346 -0.02611,0.011 -0.11156,0.044 -0.18989,0.0734 -0.222238,0.0835 -0.593395,0.25916 -1.167088,0.55249 -0.189779,0.097 -0.203751,0.0995 -0.30456,0.0533 z m 5.358611,-2.24474 c -0.144014,-0.0604 -0.201819,-0.35261 -0.09157,-0.46286 0.138503,-0.1385 0.825655,-0.40309 1.201089,-0.46248 0.09791,-0.0155 0.198397,-0.0321 0.2233,-0.0369 0.103024,-0.0198 0.292655,0.11524 0.302042,0.21516 0.02171,0.2311 -0.05016,0.31927 -0.317549,0.38954 -0.58867,0.15472 -0.622512,0.16573 -0.956496,0.31112 -0.122453,0.0533 -0.292303,0.0752 -0.360817,0.0464 z m 21.86545,17.13496 c 0.425346,-0.0772 0.657309,-0.19726 0.833225,-0.43128 0.12098,-0.16094 0.133866,-0.2499 0.05982,-0.41299 -0.117595,-0.25899 -0.727733,-0.5675 -1.330738,-0.67285 -0.08486,-0.0148 -0.202352,-0.0362 -0.261099,-0.0474 -0.05875,-0.0112 -0.293736,-0.0324 -0.522198,-0.0471 -1.223521,-0.0788 -1.517684,-0.12732 -2.432966,-0.40153 -0.07833,-0.0235 -0.190484,-0.0563 -0.249231,-0.0729 -0.05875,-0.0167 -0.152092,-0.0502 -0.207433,-0.0746 -0.05534,-0.0244 -0.114813,-0.0444 -0.132159,-0.0444 -0.01735,0 -0.164331,-0.0546 -0.326632,-0.1213 -0.162302,-0.0667 -0.34316,-0.14049 -0.401908,-0.16397 -0.32858,-0.1313 -1.090617,-0.55563 -1.412307,-0.78642 -0.216015,-0.15497 -0.293627,-0.18934 -0.355712,-0.15749 -0.02629,0.0135 -0.154618,0.096 -0.285167,0.18338 -0.13055,0.0874 -0.286848,0.18723 -0.347328,0.22191 -0.06048,0.0347 -0.116484,0.0801 -0.124449,0.1008 -0.0192,0.05 0.03994,0.16077 0.119149,0.22307 0.199975,0.1573 0.483947,0.44482 0.627152,0.63499 0.274311,0.36427 0.391339,0.45854 0.983498,0.79219 0.130528,0.0735 0.788891,0.40207 0.805755,0.40207 0.0075,0 0.06428,0.0224 0.126152,0.0498 0.183923,0.0815 0.198955,0.0875 0.409191,0.16455 0.110967,0.0406 0.223121,0.0825 0.249231,0.0931 0.05623,0.0227 0.476577,0.15125 0.629011,0.19236 0.310729,0.0838 0.383614,0.10147 0.676484,0.16416 0.351576,0.0753 0.431002,0.0897 0.652746,0.11904 0.110967,0.0147 0.253309,0.0367 0.316317,0.0491 0.06301,0.0123 0.169819,0.023 0.237363,0.0238 0.06754,7.6e-4 0.165529,0.0102 0.217749,0.021 0.144466,0.0299 1.28064,0.0291 1.446483,-9.9e-4 z M -86.390532,527.6948 c 0.04735,-0.0322 0.50061,-0.43413 0.545282,-0.48352 0.02307,-0.0255 0.65549,-0.56108 0.850843,-0.72055 0.210299,-0.17167 1.300207,-0.99317 1.491991,-1.12456 0.445599,-0.30529 1.135243,-0.73803 1.514308,-0.95021 0.572588,-0.3205 1.90656,-0.9823 2.159999,-1.0716 0.06528,-0.023 0.235067,-0.0925 0.377316,-0.15452 0.283186,-0.12339 1.157276,-0.4489 1.699608,-0.63292 0.504002,-0.17102 1.516982,-0.47038 2.836482,-0.83824 1.235788,-0.34453 1.246154,-0.34862 1.246154,-0.49149 0,-0.0981 -0.05451,-0.19406 -0.513675,-0.90382 -0.05691,-0.088 -0.103467,-0.16656 -0.103467,-0.17467 0,-0.008 -0.0503,-0.0832 -0.111786,-0.16697 -0.180033,-0.24519 -0.222099,-0.24635 -1.075028,-0.0295 -0.202351,0.0514 -0.688351,0.16821 -1.079999,0.25952 -0.391649,0.0913 -0.872308,0.20691 -1.068132,0.25691 -0.578792,0.14778 -0.485341,0.16163 -0.823415,-0.1221 -0.556741,-0.46724 -0.928932,-0.71816 -1.382939,-0.93231 -0.495383,-0.23366 -0.861,-0.34495 -1.3298,-0.40477 -0.260557,-0.0332 -0.359322,-0.0352 -0.640928,-0.0129 -0.335816,0.0267 -0.863339,0.12841 -1.104236,0.21299 -0.425285,0.14932 -1.296169,0.55565 -1.661538,0.77524 -0.67862,0.40784 -0.739236,0.44814 -0.773395,0.5142 -0.01985,0.0384 -0.02928,0.0912 -0.02096,0.11742 0.0302,0.0951 0.104991,0.0942 0.441059,-0.005 0.628395,-0.18614 1.1858,-0.31421 1.540111,-0.35387 0.922602,-0.10327 1.624067,0.0604 2.43357,0.56782 0.298779,0.18729 0.724678,0.50571 0.715512,0.53496 -0.0038,0.0122 -0.220303,0.12436 -0.481061,0.24923 -0.886222,0.42439 -1.563767,0.79797 -2.252636,1.24203 -1.015223,0.65444 -1.939224,1.39334 -3.641762,2.91226 -0.227496,0.20296 -0.53345,0.47259 -0.679897,0.59917 -0.437543,0.37821 -0.456753,0.44114 -0.200099,0.65551 0.08486,0.0709 0.180989,0.1515 0.213626,0.17917 0.323355,0.27412 0.546217,0.45546 0.605275,0.49251 0.08834,0.0554 0.196534,0.0574 0.273619,0.005 z m 19.439345,-0.88657 c 0.288234,-0.0469 0.351579,-0.062 0.564144,-0.13489 0.278061,-0.0953 0.461756,-0.66037 0.351852,-1.08231 -0.04548,-0.17463 -0.104518,-0.284 -0.261757,-0.48496 -0.179816,-0.22981 -0.339124,-0.34952 -0.701712,-0.52729 -0.01958,-0.01 -0.09435,-0.0311 -0.166153,-0.0478 -0.0718,-0.0167 -0.161519,-0.0397 -0.199366,-0.0511 -0.09698,-0.0293 -0.726605,-0.0259 -0.862491,0.005 -0.408538,0.0918 -0.684347,0.24249 -0.919619,0.50247 -0.14437,0.15954 -0.208712,0.26335 -0.298058,0.48091 -0.0483,0.1176 -0.05838,0.1817 -0.05788,0.36791 5.56e-4,0.20694 0.0072,0.23906 0.08056,0.39033 0.09749,0.20099 0.265665,0.36916 0.463694,0.46365 0.318548,0.15201 1.405743,0.21616 2.00679,0.11842 z m -19.987341,-1.42932 c 0.175412,-0.16383 0.447289,-0.4044 0.530792,-0.46967 0.03659,-0.0286 0.06231,-0.0562 0.05715,-0.0614 -0.0052,-0.005 -0.07768,0.0125 -0.161163,0.0391 -0.122288,0.0391 -0.519814,0.11757 -0.59746,0.11799 -0.0098,4e-5 -0.0178,0.0466 -0.0178,0.10342 0,0.14005 0.02761,0.39513 0.04277,0.39513 0.0067,0 0.07232,-0.0561 0.145706,-0.12461 z m -0.259689,-0.88343 c 0.382414,-0.0483 0.453065,-0.064 0.959151,-0.21372 0.449437,-0.13292 1.269975,-0.45255 1.502784,-0.58538 0.250133,-0.14272 0.38992,-0.37615 0.40574,-0.67756 0.0099,-0.18856 0.0075,-0.19919 -0.07758,-0.35142 -0.0983,-0.17578 -0.209554,-0.26952 -0.407987,-0.34376 -0.193,-0.0722 -0.344353,-0.0614 -0.846907,0.0604 -0.929307,0.2253 -1.590242,0.31136 -2.045529,0.26636 -0.472445,-0.0467 -0.913862,-0.20933 -1.228117,-0.45244 -0.314537,-0.24334 -0.984325,-0.97409 -1.274918,-1.39096 -0.05064,-0.0726 -0.0639,-0.0787 -0.147995,-0.0674 -0.0508,0.007 -0.109089,0.0263 -0.129517,0.0432 -0.08772,0.0728 -0.08368,0.12866 0.0381,0.52665 0.201639,0.65896 0.525948,1.55754 0.592241,1.64097 0.011,0.0138 0.02732,0.049 0.03626,0.0782 0.03484,0.11367 0.263541,0.50088 0.386531,0.65442 0.165584,0.20672 0.223857,0.26516 0.398188,0.39932 0.489181,0.37648 1.079599,0.50906 1.83956,0.41308 z m 3.551894,-1.80022 c 0.230364,-0.16948 0.918283,-0.60483 1.207227,-0.76399 0.05222,-0.0288 0.196417,-0.10882 0.320439,-0.1779 0.124021,-0.0691 0.383812,-0.20613 0.577312,-0.30455 l 0.351817,-0.17895 -0.09072,-0.0563 c -0.0499,-0.031 -0.181511,-0.10236 -0.292477,-0.15863 -0.678385,-0.34396 -1.327646,-0.40618 -2.21934,-0.21265 -0.329075,0.0714 -1.045766,0.26445 -1.115605,0.30047 -0.14292,0.0737 -0.845931,0.70828 -0.801204,0.72319 0.0119,0.004 0.132945,-0.0198 0.268999,-0.0527 0.292882,-0.071 0.427077,-0.0742 0.650887,-0.0158 0.265518,0.0693 0.589214,0.25971 0.709504,0.41742 0.09572,0.12549 0.2219,0.38105 0.23946,0.48499 0.0091,0.0538 0.02509,0.0978 0.03557,0.0978 0.01047,0 0.08163,-0.0461 0.158133,-0.10233 z m 6.001951,-2.74648 c 0.195824,-0.0522 0.605658,-0.15084 0.910743,-0.21928 l 0.5547,-0.12444 -0.190585,-0.0877 c -0.354762,-0.16326 -0.902439,-0.3198 -1.346067,-0.38473 -0.31906,-0.0467 -1.078569,-0.0908 -1.399606,-0.0812 l -0.260266,0.008 0.212794,0.12687 c 0.262265,0.15637 0.585119,0.38747 0.913012,0.65354 0.137077,0.11123 0.249231,0.20265 0.249231,0.20316 0,5.1e-4 0.16022,-0.0417 0.356044,-0.0939 z m 2.172465,-0.82438 c 0.261863,-0.28498 0.430018,-0.54881 0.510599,-0.80109 0.07058,-0.22099 0.06008,-0.61507 -0.02177,-0.81649 -0.162777,-0.4006 -0.473706,-0.78223 -0.928548,-1.1397 -0.117495,-0.0923 -0.224308,-0.17633 -0.237363,-0.18664 -0.08436,-0.0666 -0.468324,-0.29396 -0.55224,-0.32697 -0.113209,-0.0445 -0.201738,-0.0243 -0.28211,0.0645 -0.04108,0.0454 -0.04071,0.0524 0.01015,0.19366 0.02902,0.0806 0.133052,0.3829 0.231179,0.67176 0.166681,0.49066 0.179337,0.54218 0.19243,0.7833 0.01186,0.21836 0.0064,0.28515 -0.0355,0.43385 -0.05805,0.20608 -0.15752,0.40686 -0.304026,0.6137 -0.07256,0.10244 -0.0956,0.1519 -0.07421,0.1593 0.01707,0.006 0.131098,0.0384 0.253404,0.0721 0.234157,0.0647 0.743239,0.275 0.912155,0.37687 0.05487,0.0331 0.117502,0.0606 0.139192,0.0611 0.02169,5.1e-4 0.105685,-0.0712 0.186656,-0.1593 z"
         style="fill:#000000;stroke-width:0.02373626" />
      <path
         sodipodi:nodetypes="zzzzz"
         inkscape:connector-curvature="0"
         id="path2338-7"
         d="m -89.298295,522.21305 c -0.05136,0.089 0.455621,1.0203 1.623997,1.02808 1.168377,0.008 2.188501,-0.4728 2.101658,-0.62321 -0.08684,-0.15042 -1.16328,0.35027 -2.078909,0.35027 -0.915628,0 -1.595393,-0.84409 -1.646746,-0.75514 z"
         style="fill:#ffffff;fill-opacity:1;stroke:none;stroke-width:0.0257332px;stroke-linecap:butt;stroke-linejoin:miter;stroke-opacity:1" />
      <circle
         r="0.076004244"
         cy="521.99438"
         cx="-89.439507"
         id="path2340-0"
         style="opacity:1;fill:#ffffff;fill-opacity:1;stroke:none;stroke-width:0.14331499;stroke-linecap:round;stroke-linejoin:round;stroke-miterlimit:4;stroke-dasharray:none;stroke-dashoffset:0;stroke-opacity:1" />
      <ellipse
         transform="rotate(-79.728173)"
         ry="0.61208999"
         rx="0.72714448"
         cy="23.712465"
         cx="-546.43567"
         id="path2353-1"
         style="opacity:1;fill:#ffffff;fill-opacity:1;stroke:none;stroke-width:0.03681744;stroke-linecap:round;stroke-linejoin:round;stroke-miterlimit:4;stroke-dasharray:none;stroke-dashoffset:0;stroke-opacity:1" />
      <ellipse
         style="opacity:1;fill:#ffffff;fill-opacity:1;stroke:none;stroke-width:0.01546594;stroke-linecap:round;stroke-linejoin:round;stroke-miterlimit:4;stroke-dasharray:none;stroke-dashoffset:0;stroke-opacity:1"
         id="ellipse2355-0"
         cx="-25.589809"
         cy="-546.45093"
         rx="0.30545229"
         ry="0.25712124"
         transform="rotate(-169.72817)" />
      <text
         id="text2574-1"
         y="552.31543"
         x="-61.232033"
         style="font-style:normal;font-variant:normal;font-weight:normal;font-stretch:normal;font-size:3.52777767px;line-height:125%;font-family:Acre;-inkscape-font-specification:Acre;text-align:end;letter-spacing:1.70920837px;word-spacing:0px;text-anchor:end;fill:#956f48;fill-opacity:1;stroke:none;stroke-width:0.12902081"
         xml:space="preserve"><tspan
           style="font-style:normal;font-variant:normal;font-weight:normal;font-stretch:normal;font-size:3.52777767px;font-family:Acre;-inkscape-font-specification:Acre;letter-spacing:1.70920837px;fill:#956f48;fill-opacity:1;stroke-width:0.12902081"
           y="552.31543"
           x="-59.522823"
           id="tspan2572-3"
           sodipodi:role="line">tubbs.</tspan></text>
    </g>
  </g>
</svg>
