<?xml version="1.0" encoding="UTF-8" standalone="no"?>
<!-- Created with Inkscape (http://www.inkscape.org/) -->

<svg
   xmlns:dc="http://purl.org/dc/elements/1.1/"
   xmlns:cc="http://creativecommons.org/ns#"
   xmlns:rdf="http://www.w3.org/1999/02/22-rdf-syntax-ns#"
   xmlns:svg="http://www.w3.org/2000/svg"
   xmlns="http://www.w3.org/2000/svg"
   xmlns:sodipodi="http://sodipodi.sourceforge.net/DTD/sodipodi-0.dtd"
   xmlns:inkscape="http://www.inkscape.org/namespaces/inkscape"
   width="132.83624mm"
   height="51.265587mm"
   viewBox="0 0 132.83624 51.265587"
   version="1.1"
   id="svg772"
   inkscape:version="0.92.4 (5da689c313, 2019-01-14)"
   sodipodi:docname="vikingsdev-rounded-rectangle.svg">
  <defs
     id="defs766" />
  <sodipodi:namedview
     id="base"
     pagecolor="#ffffff"
     bordercolor="#666666"
     borderopacity="1.0"
     inkscape:pageopacity="0.0"
     inkscape:pageshadow="2"
     inkscape:zoom="0.98994949"
     inkscape:cx="211.35228"
     inkscape:cy="-0.27861919"
     inkscape:document-units="mm"
     inkscape:current-layer="layer1"
     showgrid="false"
     fit-margin-top="0"
     fit-margin-left="0"
     fit-margin-right="0"
     fit-margin-bottom="0"
     inkscape:window-width="1920"
     inkscape:window-height="1016"
     inkscape:window-x="1680"
     inkscape:window-y="27"
     inkscape:window-maximized="1" />
  <metadata
     id="metadata769">
    <rdf:RDF>
      <cc:Work
         rdf:about="">
        <dc:format>image/svg+xml</dc:format>
        <dc:type
           rdf:resource="http://purl.org/dc/dcmitype/StillImage" />
        <dc:title />
      </cc:Work>
    </rdf:RDF>
  </metadata>
  <g
     inkscape:label="Layer 1"
     inkscape:groupmode="layer"
     id="layer1"
     transform="translate(-84.772357,-108.83744)">
    <g
       id="g1096"
       transform="translate(-299.13194,-43.728458)">
      <path
         style="fill:#ffffff;fill-opacity:1;stroke:#c69249;stroke-width:1.5;stroke-miterlimit:4;stroke-dasharray:none;stroke-opacity:1"
         d="M 395.50544,153.3159 H 505.1394 c 6.01153,0 10.85114,4.83961 10.85114,10.85115 v 28.0633 c 0,6.01153 -4.83961,10.85114 -10.85114,10.85114 H 395.50544 c -6.01153,0 -10.85114,-4.83961 -10.85114,-10.85114 v -28.0633 c 0,-6.01154 4.83961,-10.85115 10.85114,-10.85115 z"
         id="rect918" />
      <g
         id="g1077">
        <path
           style="font-style:normal;font-variant:normal;font-weight:normal;font-stretch:normal;font-size:10.58333302px;line-height:1.25;font-family:Acre;-inkscape-font-specification:Acre;letter-spacing:0px;word-spacing:0px;fill:#c69249;fill-opacity:1;stroke:none;stroke-width:0.02858033"
           d="m 401.72512,167.4012 c -0.36595,0.005 -0.79739,0.0982 -1.1607,0.26588 -0.33673,0.15545 -0.62338,0.36411 -0.91368,0.66506 -0.42912,0.44482 -0.6583,0.84986 -0.81851,1.44652 l -0.0888,0.33056 -0.0161,2.98663 c -0.0151,2.7897 -0.0196,2.997 -0.0683,3.14381 -0.11627,0.35034 -0.30653,0.62551 -0.56318,0.81442 -0.21603,0.15905 -0.41388,0.23261 -0.76878,0.28592 -0.60403,0.0907 -0.82808,0.25933 -0.91703,0.68995 -0.0654,0.31664 0.0489,0.65166 0.28318,0.8304 0.14346,0.1094 0.31358,0.16299 0.69342,0.21846 0.37293,0.0545 0.61104,0.17011 0.85831,0.41681 0.19363,0.19321 0.31835,0.40038 0.41419,0.6881 0.049,0.14702 0.0534,0.34945 0.0684,3.12953 l 0.0161,2.97233 0.0811,0.30009 c 0.1733,0.64163 0.44638,1.1182 0.90162,1.57348 0.50191,0.50195 1.05933,0.76152 1.7735,0.82591 0.72428,0.0653 1.12756,-0.15148 1.23505,-0.66397 0.0633,-0.30187 -0.0849,-0.66258 -0.33074,-0.80482 -0.14495,-0.0839 -0.28454,-0.12187 -0.64256,-0.17471 -0.39213,-0.0579 -0.67531,-0.20069 -0.92691,-0.4674 -0.18911,-0.20046 -0.32768,-0.44182 -0.39578,-0.68938 -0.0262,-0.0953 -0.0398,-0.88816 -0.0534,-3.11447 -0.0194,-3.16893 -0.014,-3.04572 -0.15206,-3.50378 -0.13406,-0.44488 -0.31945,-0.74508 -0.68733,-1.11296 l -0.26135,-0.26128 0.2062,-0.19203 c 0.33916,-0.31581 0.61616,-0.72723 0.7336,-1.08957 0.14667,-0.45248 0.14122,-0.33133 0.15976,-3.55762 0.0161,-2.8028 0.021,-3.02627 0.069,-3.1724 0.16797,-0.51135 0.51448,-0.87561 0.99395,-1.04477 0.0598,-0.0211 0.21511,-0.0527 0.34504,-0.0702 0.51023,-0.0688 0.71678,-0.18114 0.86473,-0.4704 0.20917,-0.40901 0.0353,-0.92423 -0.37278,-1.10477 -0.14358,-0.0635 -0.33959,-0.0923 -0.55916,-0.0893 z"
           id="path988"
           inkscape:connector-curvature="0" />
        <g
           aria-label="2019.20"
           transform="scale(1.0000069,0.99999312)"
           style="font-style:normal;font-variant:normal;font-weight:normal;font-stretch:normal;font-size:0.68592715px;line-height:1.25;font-family:sans-serif;-inkscape-font-specification:Acre;letter-spacing:0px;word-spacing:0px;fill:#c69249;fill-opacity:1;stroke:none;stroke-width:0.00453712"
           id="text926">
          <path
             d="m 409.16627,178.16995 h 0.29633 v -0.0631 h -0.1756 c 0.0329,-0.0412 0.0665,-0.0823 0.0988,-0.12347 0.0384,-0.0487 0.0713,-0.096 0.0713,-0.15639 0,-0.0754 -0.0597,-0.1461 -0.15159,-0.1461 -0.0926,0 -0.14953,0.0713 -0.15434,0.14816 l 0.0604,0.0171 c 0.003,-0.0576 0.0405,-0.10083 0.094,-0.10083 0.0528,0 0.0857,0.0418 0.0857,0.0837 0,0.0514 -0.0336,0.0919 -0.07,0.13718 -0.0528,0.0672 -0.10288,0.1317 -0.15502,0.19618 z"
             style="font-style:normal;font-variant:normal;font-weight:normal;font-stretch:normal;font-family:Acre;-inkscape-font-specification:Acre;fill:#c69249;fill-opacity:1;stroke-width:0.00453712"
             id="path831" />
          <path
             d="m 409.67737,178.17681 c 0.11455,0 0.1557,-0.11318 0.1557,-0.24693 0,-0.13307 -0.0412,-0.24694 -0.1557,-0.24694 -0.11524,0 -0.1564,0.11387 -0.1564,0.24694 0,0.13375 0.0412,0.24693 0.1564,0.24693 z m 0,-0.0645 c -0.0727,0 -0.0919,-0.0919 -0.0919,-0.18245 0,-0.0899 0.0192,-0.18246 0.0919,-0.18246 0.0713,0 0.0912,0.0926 0.0912,0.18246 0,0.0905 -0.0199,0.18245 -0.0912,0.18245 z"
             style="font-style:normal;font-variant:normal;font-weight:normal;font-stretch:normal;font-family:Acre;-inkscape-font-specification:Acre;fill:#c69249;fill-opacity:1;stroke-width:0.00453712"
             id="path833" />
          <path
             d="m 410.01998,177.68226 -0.15091,0.0947 0.0295,0.0535 0.0638,-0.0391 v 0.37863 h 0.0645 v -0.48769 z"
             style="font-style:normal;font-variant:normal;font-weight:normal;font-stretch:normal;font-family:Acre;-inkscape-font-specification:Acre;fill:#c69249;fill-opacity:1;stroke-width:0.00453712"
             id="path835" />
          <path
             d="m 410.43012,177.84482 v -6.8e-4 c 0,-0.0899 -0.0652,-0.1612 -0.16051,-0.1612 -0.0967,0 -0.16119,0.0713 -0.16119,0.1612 0,0.0892 0.0652,0.15982 0.16119,0.15982 0.0124,0 0.024,-0.001 0.035,-0.003 l -0.0926,0.16942 h 0.0734 c 0.0274,-0.0535 0.0514,-0.096 0.0796,-0.1509 0.0274,-0.0514 0.0645,-0.11112 0.0652,-0.17354 z m -0.25654,-0.001 c 0,-0.0521 0.0398,-0.096 0.096,-0.096 0.0556,0 0.0953,0.0439 0.0953,0.096 0,0.0528 -0.0391,0.0974 -0.0953,0.0974 -0.0569,0 -0.096,-0.0446 -0.096,-0.0974 z"
             style="font-style:normal;font-variant:normal;font-weight:normal;font-stretch:normal;font-family:Acre;-inkscape-font-specification:Acre;fill:#c69249;fill-opacity:1;stroke-width:0.00453712"
             id="path837" />
          <path
             d="m 410.46147,178.17475 c 0.024,0 0.0432,-0.0192 0.0432,-0.0432 0,-0.0233 -0.0192,-0.0432 -0.0432,-0.0432 -0.024,0 -0.0425,0.0199 -0.0425,0.0432 0,0.024 0.0185,0.0432 0.0425,0.0432 z"
             style="font-style:normal;font-variant:normal;font-weight:normal;font-stretch:normal;font-family:Acre;-inkscape-font-specification:Acre;fill:#c69249;fill-opacity:1;stroke-width:0.00453712"
             id="path839" />
          <path
             d="m 410.56492,178.16995 h 0.29632 v -0.0631 h -0.17559 c 0.0329,-0.0412 0.0665,-0.0823 0.0988,-0.12347 0.0384,-0.0487 0.0713,-0.096 0.0713,-0.15639 0,-0.0754 -0.0597,-0.1461 -0.15159,-0.1461 -0.0926,0 -0.14954,0.0713 -0.15434,0.14816 l 0.0604,0.0171 c 0.003,-0.0576 0.0405,-0.10083 0.094,-0.10083 0.0528,0 0.0857,0.0418 0.0857,0.0837 0,0.0514 -0.0336,0.0919 -0.07,0.13718 -0.0528,0.0672 -0.10289,0.1317 -0.15502,0.19618 z"
             style="font-style:normal;font-variant:normal;font-weight:normal;font-stretch:normal;font-family:Acre;-inkscape-font-specification:Acre;fill:#c69249;fill-opacity:1;stroke-width:0.00453712"
             id="path841" />
          <path
             d="m 411.07601,178.17681 c 0.11455,0 0.15571,-0.11318 0.15571,-0.24693 0,-0.13307 -0.0412,-0.24694 -0.15571,-0.24694 -0.11523,0 -0.15639,0.11387 -0.15639,0.24694 0,0.13375 0.0412,0.24693 0.15639,0.24693 z m 0,-0.0645 c -0.0727,0 -0.0919,-0.0919 -0.0919,-0.18245 0,-0.0899 0.0192,-0.18246 0.0919,-0.18246 0.0713,0 0.0912,0.0926 0.0912,0.18246 0,0.0905 -0.0199,0.18245 -0.0912,0.18245 z"
             style="font-style:normal;font-variant:normal;font-weight:normal;font-stretch:normal;font-family:Acre;-inkscape-font-specification:Acre;fill:#c69249;fill-opacity:1;stroke-width:0.00453712"
             id="path843" />
        </g>
        <path
           inkscape:connector-curvature="0"
           style="font-style:normal;font-variant:normal;font-weight:normal;font-stretch:normal;font-size:10.58333302px;line-height:1.25;font-family:Acre;-inkscape-font-specification:Acre;letter-spacing:0px;word-spacing:0px;fill:#c69249;fill-opacity:1;stroke:none;stroke-width:0.02858033"
           d="m 403.71984,161.79715 c -0.0543,0.003 -0.10684,0.023 -0.14821,0.0618 -0.0938,0.0881 -0.1131,0.24587 -0.0603,0.49255 0.0244,0.11409 0.0582,0.2974 0.0751,0.40744 0.0722,0.46991 0.1637,1.0264 0.21374,1.30039 0.0215,0.1179 0.0664,0.36869 0.0998,0.55732 0.0945,0.53456 0.13554,0.72808 0.29055,1.36956 0.14893,0.61636 0.40787,1.45121 0.50837,1.6389 0.0146,0.0273 0.0814,0.16536 0.14831,0.30683 0.15522,0.32813 0.24824,0.48161 0.48593,0.80125 0.30208,0.40626 0.78534,0.84202 1.1541,1.04074 0.0629,0.0339 0.13362,0.0733 0.1572,0.0877 0.0572,0.0349 0.30632,0.14238 0.3299,0.14238 0.0103,0 0.0592,0.0183 0.10874,0.0406 0.21888,0.0988 0.86871,0.24053 1.2619,0.27532 0.31921,0.0282 1.47815,0.007 1.72912,-0.0313 0.10218,-0.0157 0.32082,-0.047 0.48587,-0.0697 0.6071,-0.0832 0.80841,-0.12984 0.94991,-0.21995 0.14223,-0.0906 0.3259,-0.29172 0.4018,-0.44002 0.0658,-0.12867 0.16283,-0.53136 0.16283,-0.67438 -3.2e-4,-0.1607 -0.0977,-0.56546 -0.17042,-0.70801 -0.0711,-0.13947 -0.35212,-0.44548 -0.48754,-0.53096 -0.19891,-0.12559 -0.49341,-0.18763 -0.95661,-0.20169 -1.02555,-0.0311 -2.11766,-0.20707 -2.68657,-0.43282 -0.62498,-0.24805 -1.10911,-0.56194 -1.51784,-0.98424 -0.19183,-0.19818 -0.52567,-0.60273 -0.52567,-0.63697 0,-0.009 -0.0438,-0.0769 -0.0974,-0.15156 -0.27755,-0.38712 -0.78179,-1.34089 -1.17493,-2.22222 -0.021,-0.0472 -0.0854,-0.18863 -0.1429,-0.31438 -0.0576,-0.12575 -0.1245,-0.27366 -0.14876,-0.32867 -0.0243,-0.055 -0.0669,-0.15148 -0.0948,-0.21436 -0.0279,-0.0629 -0.0586,-0.14121 -0.0682,-0.17411 -0.0357,-0.12243 -0.16348,-0.19474 -0.2829,-0.18754 z"
           id="path993" />
        <path
           inkscape:connector-curvature="0"
           style="font-style:normal;font-variant:normal;font-weight:normal;font-stretch:normal;font-size:10.58333302px;line-height:1.25;font-family:Acre;-inkscape-font-specification:Acre;letter-spacing:0px;word-spacing:0px;fill:#c69249;fill-opacity:1;stroke:none;stroke-width:0.02858033"
           d="m 415.26213,163.2305 c -0.38729,0 -1.09246,0.10572 -1.72991,0.2598 -0.19649,0.0475 -0.41101,0.098 -0.47671,0.11215 -0.1384,0.0299 -0.39159,0.10551 -0.49502,0.14787 -0.0393,0.0161 -0.18721,0.0657 -0.32868,0.11023 -0.14147,0.0446 -0.32796,0.10872 -0.41442,0.14253 -0.0865,0.0338 -0.20409,0.0744 -0.26141,0.0902 -0.25504,0.0703 -0.37145,0.34656 -0.21284,0.50518 l 0.0745,0.0745 0.63569,0.005 c 0.70145,0.005 1.29265,0.0449 1.70752,0.11426 0.38858,0.065 0.89437,0.20241 1.05748,0.28726 0.0393,0.0204 0.0836,0.0373 0.0984,0.0373 0.0639,2.8e-4 0.4814,0.22324 0.74427,0.39723 0.31347,0.20747 0.83569,0.69279 1.10286,1.02486 0.22512,0.27983 0.6141,0.84728 0.82091,1.19759 0.19039,0.32247 0.37741,0.65869 0.37741,0.67855 0,0.007 -0.0675,0.0263 -0.15005,0.0423 -0.39419,0.0766 -1.17846,0.24733 -1.42188,0.30947 -0.14934,0.0381 -0.34869,0.0883 -0.443,0.11149 -0.32417,0.0797 -1.28861,0.38166 -1.46196,0.45765 -0.0495,0.0217 -0.10489,0.0395 -0.12303,0.0395 -0.0181,0 -0.0869,0.0235 -0.15284,0.0522 -0.0659,0.0286 -0.17778,0.075 -0.24852,0.10292 -0.0707,0.028 -0.17088,0.0688 -0.2225,0.0908 -0.0516,0.022 -0.10622,0.04 -0.12136,0.04 -0.0151,0 -0.12726,0.0463 -0.24913,0.10289 -0.12187,0.0566 -0.26013,0.11952 -0.30729,0.13987 -0.0472,0.0204 -0.22722,0.10343 -0.40013,0.1846 -0.43439,0.20395 -0.73715,0.35879 -1.41474,0.72345 -0.13595,0.0732 -0.50083,0.28634 -0.85295,0.49835 -0.0575,0.0346 -0.12379,0.0723 -0.14737,0.0837 -0.0236,0.0114 -0.0943,0.0535 -0.15719,0.0935 -0.0629,0.04 -0.14004,0.0872 -0.17148,0.10483 -0.0917,0.0514 -0.519,0.31198 -0.62933,0.3838 -0.0362,0.0236 -0.171,0.10718 -0.29954,0.18577 -0.12853,0.0786 -0.26332,0.16219 -0.29954,0.18577 -0.0362,0.0236 -0.13476,0.0854 -0.21898,0.13727 -0.0842,0.0519 -0.26244,0.16377 -0.39606,0.24857 -0.13361,0.0848 -0.31183,0.19671 -0.39605,0.24864 -0.0842,0.0519 -0.18277,0.11361 -0.21898,0.13719 -0.0362,0.0236 -0.16681,0.1034 -0.29017,0.17734 -0.31116,0.18651 -0.41731,0.30103 -0.41731,0.45025 0,0.0655 0.0196,0.13838 0.0446,0.16613 0.042,0.0466 0.40284,0.5566 0.84027,1.18774 0.27644,0.39883 0.31694,0.44453 0.41855,0.47157 0.14734,0.0392 0.17495,0.0267 0.73361,-0.33407 0.0393,-0.0254 0.0928,-0.0592 0.11901,-0.0751 0.0867,-0.0527 0.35185,-0.21615 0.39544,-0.24371 0.0236,-0.0149 0.23578,-0.13727 0.47158,-0.27185 0.23578,-0.13458 0.44799,-0.25708 0.47157,-0.2722 0.10604,-0.0679 1.198,-0.62016 1.54386,-0.78075 0.16478,-0.0765 0.38962,-0.18163 0.49965,-0.23361 0.11004,-0.052 0.32225,-0.14196 0.47158,-0.20001 0.23834,-0.0926 0.35901,-0.14281 0.5859,-0.24376 0.0314,-0.014 0.16649,-0.0622 0.3001,-0.10712 0.48843,-0.16416 0.70147,-0.23793 0.75738,-0.26236 0.0314,-0.0138 0.17934,-0.0588 0.32868,-0.10009 0.14933,-0.0413 0.29723,-0.086 0.32867,-0.0994 0.0697,-0.0296 0.14669,-0.0496 0.94316,-0.24405 0.34582,-0.0844 0.77024,-0.18094 0.94316,-0.21446 0.17291,-0.0335 0.38813,-0.0793 0.47828,-0.10166 0.0901,-0.0224 0.21105,-0.0406 0.26866,-0.0406 0.0576,0 0.20251,-0.0183 0.32198,-0.0406 0.44612,-0.0834 0.95181,-0.14339 1.80342,-0.2139 0.0751,-0.006 0.19095,-0.0163 0.29507,-0.0251 l -0.0187,-0.48089 c -0.0698,-1.79903 -0.68637,-3.46963 -1.80247,-4.88391 -0.29217,-0.37023 -0.95039,-1.02755 -1.33195,-1.3301 -0.16505,-0.13086 -0.45443,-0.33938 -0.64306,-0.46336 -0.39639,-0.26051 -1.21761,-0.6767 -1.62167,-0.82186 -0.15309,-0.055 -0.27848,-0.11603 -0.27866,-0.13569 0,-0.0196 0.003,-0.0358 0.007,-0.036 0.004,0 0.14862,-0.0191 0.32153,-0.0423 0.17291,-0.0231 0.39832,-0.0423 0.50094,-0.0426 0.1189,-3.2e-4 0.41914,0.0298 0.68677,0.0637 -0.26448,-0.034 -0.55943,-0.0644 -0.67248,-0.0644 z"
           id="path990" />
        <path
           inkscape:connector-curvature="0"
           style="font-style:normal;font-variant:normal;font-weight:normal;font-stretch:normal;font-size:10.58333302px;line-height:1.25;font-family:Acre;-inkscape-font-specification:Acre;letter-spacing:0px;word-spacing:0px;fill:#c69249;fill-opacity:1;stroke:none;stroke-width:0.02858033"
           d="m 411.32449,175.02461 c -0.10075,0 -0.28773,0.0817 -1.05095,0.45925 -0.57255,0.2832 -0.9587,0.49127 -1.00752,0.5428 -0.0962,0.10154 -0.1352,0.22767 -0.1352,0.43719 0,0.087 -0.0184,0.31215 -0.0408,0.50032 -0.0224,0.18815 -0.0486,0.45143 -0.0582,0.58504 -0.01,0.13361 -0.0355,0.42941 -0.0578,0.65734 -0.0223,0.22793 -0.0605,0.63948 -0.0849,0.91457 -0.0243,0.27508 -0.0573,0.63519 -0.0733,0.80024 -0.016,0.16505 -0.0422,0.46085 -0.0582,0.65734 -0.0161,0.19649 -0.0481,0.51802 -0.0711,0.71451 -0.023,0.19648 -0.0418,0.42027 -0.0418,0.49732 0,0.077 -0.0186,0.30852 -0.0414,0.51444 -0.0689,0.62185 -0.11385,1.13812 -0.1117,1.28414 0.004,0.28165 0.22522,0.36262 0.56765,0.20789 0.0943,-0.0426 0.22293,-0.10175 0.28581,-0.13136 0.13505,-0.0636 0.27544,-0.12621 0.64306,-0.28685 0.14933,-0.0652 0.34225,-0.15077 0.42871,-0.19001 0.26032,-0.1182 0.3207,-0.14558 0.51445,-0.23307 l 0.18577,-0.0838 0.0193,0.8897 c 0.0106,0.48938 0.0329,1.1663 0.0494,1.50426 0.0165,0.33796 0.0369,0.90384 0.0453,1.25752 0.0333,1.38968 0.0762,2.45118 0.10545,2.60634 0.0378,0.20112 0.11842,0.28677 0.27212,0.28932 0.11328,0.002 0.18649,-0.029 0.56592,-0.23819 0.2062,-0.11372 0.44867,-0.24448 0.7288,-0.39304 0.28268,-0.14993 0.74232,-0.39715 0.84313,-0.45348 0.0629,-0.0352 0.19148,-0.10423 0.2858,-0.15353 0.0943,-0.0493 0.26152,-0.13798 0.37155,-0.19709 0.11004,-0.0591 0.32382,-0.17397 0.4751,-0.25528 l 0.27503,-0.14776 0.0591,0.19304 c 0.0325,0.10617 0.1055,0.3473 0.16233,0.53593 0.0568,0.18863 0.12078,0.39441 0.14212,0.45728 0.0213,0.0629 0.0664,0.21078 0.10025,0.32867 0.0338,0.1179 0.0788,0.2658 0.10003,0.32868 0.0212,0.0629 0.0669,0.21077 0.10149,0.32867 0.0346,0.11789 0.0817,0.27865 0.10483,0.35725 0.0231,0.0786 0.0591,0.19434 0.08,0.25722 0.0209,0.0629 0.066,0.21078 0.1002,0.32867 0.064,0.22067 0.23521,0.78358 0.29987,0.98602 0.0201,0.0629 0.0451,0.15453 0.0556,0.20363 0.0209,0.0978 0.11239,0.19709 0.2019,0.21915 0.0912,0.0225 0.2235,-0.01 0.28999,-0.0708 0.0337,-0.031 0.14951,-0.20446 0.25723,-0.38555 0.10773,-0.18111 0.21517,-0.35965 0.23875,-0.39683 0.0236,-0.0372 0.21429,-0.34782 0.42385,-0.6903 0.20955,-0.34244 0.55987,-0.91205 0.77843,-1.26572 0.21857,-0.35368 0.40882,-0.66878 0.42279,-0.70022 0.0227,-0.051 0.0286,-0.0465 0.0553,0.0429 0.0164,0.055 0.0575,0.17077 0.0914,0.25722 0.0338,0.0865 0.0747,0.19578 0.0908,0.24293 0.0161,0.0472 0.0474,0.1263 0.0694,0.17586 0.022,0.0495 0.0401,0.10066 0.0401,0.11363 0,0.013 0.046,0.1397 0.10232,0.28152 0.11889,0.2996 0.15569,0.3952 0.24216,0.62936 0.0348,0.0943 0.0741,0.1972 0.0873,0.22864 0.0132,0.0314 0.0512,0.13433 0.0845,0.22864 0.0332,0.0943 0.10357,0.2808 0.15635,0.41441 0.0528,0.13362 0.12094,0.31839 0.15139,0.41059 0.0438,0.13247 0.10461,0.22872 0.17724,0.284 -0.0201,-0.0635 0.0227,-0.20638 0.1381,-0.55732 0.92873,-2.82351 1.39539,-5.96801 1.33731,-9.0114 -0.0212,-1.11174 -0.0833,-2.01473 -0.20922,-3.04373 l -0.0192,-0.15719 c 0.56941,0.51359 0.74854,0.68918 0.05,0.0397 -0.33572,-0.31278 -0.46565,-0.32373 -0.6885,-0.0577 -0.0741,0.0885 -0.18694,0.21918 -0.25064,0.2904 -0.0637,0.0712 -0.28297,0.32736 -0.48732,0.56926 -0.20435,0.24187 -0.60947,0.71785 -0.90029,1.05772 -0.2908,0.33988 -0.59304,0.69316 -0.67164,0.78507 -0.0786,0.0919 -0.26899,0.31644 -0.42307,0.49898 -0.15407,0.18254 -0.29203,0.32879 -0.30657,0.32499 -0.0145,-0.004 -0.22927,-0.164 -0.47722,-0.35597 -0.24794,-0.19197 -0.68231,-0.52639 -0.96526,-0.7432 -1.00507,-0.77006 -1.19348,-0.92248 -1.81123,-1.46544 -0.59701,-0.52474 -1.20663,-1.16142 -1.5879,-1.65834 -0.15346,-0.2 -0.55112,-0.78809 -0.61789,-0.91376 -0.11117,-0.20932 -0.20027,-0.36869 -0.22244,-0.3979 -0.0132,-0.0174 -0.0782,-0.15667 -0.14436,-0.30957 -0.0662,-0.15291 -0.13892,-0.31367 -0.16166,-0.35726 -0.0227,-0.0436 -0.0415,-0.0992 -0.0415,-0.12355 0,-0.0244 -0.0114,-0.0565 -0.0252,-0.0714 -0.027,-0.0293 -0.19543,-0.5664 -0.27414,-0.87429 -0.063,-0.24645 -0.16154,-0.34851 -0.33666,-0.34851 z"
           id="path928" />
        <path
           style="font-style:normal;font-variant:normal;font-weight:normal;font-stretch:normal;font-size:10.58333302px;line-height:1.25;font-family:Acre;-inkscape-font-specification:Acre;letter-spacing:0px;word-spacing:0px;fill:#9c6d41;fill-opacity:1;stroke:none;stroke-width:0.02858034"
           d="m 420.51508,191.96018 c -0.13999,-0.0225 -0.1372,-0.0614 0.0441,-0.61237 0.92873,-2.82353 1.39537,-5.96805 1.33729,-9.01142 -0.0212,-1.11175 -0.0833,-2.01477 -0.20918,-3.04376 l -0.0192,-0.15716 0.29777,0.27021 c 0.39289,0.35653 1.98801,1.8269 2.36547,2.18048 0.16361,0.15326 0.30713,0.27866 0.31894,0.27866 0.0118,0 0.0348,-0.0482 0.051,-0.10717 0.0163,-0.059 0.077,-0.27438 0.13505,-0.47873 0.10189,-0.35891 0.1264,-0.45485 0.22637,-0.88598 0.42053,-1.81369 0.43628,-3.78329 0.0444,-5.55883 -0.0295,-0.13361 -0.0603,-0.27508 -0.0686,-0.31438 -0.039,-0.18609 -0.10702,-0.44507 -0.20275,-0.77167 -0.0576,-0.19649 -0.11782,-0.40226 -0.13386,-0.45728 -0.016,-0.055 -0.0653,-0.20935 -0.10941,-0.34296 -0.0891,-0.26977 -0.0856,-0.36309 0.0173,-0.45979 0.12756,-0.11983 0.25797,-0.0908 0.75472,0.16814 0.24365,0.12699 0.53303,0.27578 0.64306,0.33065 0.35754,0.17827 0.40994,0.26881 0.48505,0.83814 0.0581,0.4406 0.11671,0.8466 0.21574,1.49501 0.018,0.1179 0.0439,0.30438 0.0577,0.41441 0.0137,0.11004 0.0453,0.3351 0.0703,0.50015 0.1087,0.71913 0.18029,1.21041 0.22905,1.57191 0.0202,0.14933 0.0513,0.36797 0.0692,0.48587 0.0179,0.11789 0.0509,0.34295 0.0733,0.50014 0.0879,0.61641 0.16198,1.12612 0.19947,1.37185 0.0216,0.14147 0.0604,0.41156 0.0862,0.60019 0.0258,0.18862 0.065,0.45228 0.087,0.58589 0.0534,0.32406 0.10663,0.76925 0.10229,0.8557 -0.004,0.0886 -0.10047,0.19183 -0.1954,0.20998 -0.12753,0.0244 -0.22368,-0.0251 -0.48364,-0.24916 l -0.25307,-0.21807 -0.0199,0.11484 c -0.0109,0.0632 -0.0339,0.50106 -0.0511,0.97308 -0.0172,0.47203 -0.0368,0.87409 -0.0436,0.89347 -0.007,0.0194 -0.0255,0.38892 -0.0415,0.8212 -0.027,0.72806 -0.0529,1.20706 -0.11415,2.11133 -0.0218,0.3216 -0.0303,0.36007 -0.0947,0.42441 -0.10061,0.10062 -0.25607,0.0968 -0.36643,-0.009 -0.0457,-0.0438 -0.0831,-0.0955 -0.0831,-0.11486 0,-0.0194 -0.0177,-0.0716 -0.0394,-0.11612 -0.0628,-0.12895 -0.12397,-0.26909 -0.19138,-0.43816 -0.0345,-0.0865 -0.0895,-0.21506 -0.12239,-0.2858 l -0.0597,-0.12861 -0.0204,0.11432 c -0.0112,0.0629 -0.0344,0.21721 -0.0515,0.34296 -0.0171,0.12575 -0.0507,0.35725 -0.0747,0.51444 -0.0776,0.50966 -0.12337,0.82092 -0.18266,1.24324 -0.0548,0.39013 -0.0992,0.69079 -0.17117,1.1575 -0.017,0.11003 -0.0443,0.3158 -0.0607,0.45728 -0.0436,0.3747 -0.12446,0.66843 -0.20678,0.75074 -0.0777,0.0777 -0.24735,0.0953 -0.32195,0.0334 -0.024,-0.0199 -0.13882,-0.17872 -0.25524,-0.35297 -0.11641,-0.17424 -0.24758,-0.36839 -0.29147,-0.43144 -0.0439,-0.0631 -0.22692,-0.32671 -0.40672,-0.5859 -0.1798,-0.25918 -0.34859,-0.49987 -0.37511,-0.53484 -0.048,-0.0633 -0.0494,-0.062 -0.28833,0.25722 -0.36997,0.49425 -1.26243,1.69763 -1.66765,2.2486 -0.14147,0.19236 -0.28937,0.38736 -0.32867,0.43332 -0.0744,0.087 -0.1984,0.1348 -0.30517,0.11764 z"
           id="path1065"
           inkscape:connector-curvature="0" />
        <path
           style="font-style:normal;font-variant:normal;font-weight:normal;font-stretch:normal;font-size:10.58333302px;line-height:1.25;font-family:Acre;-inkscape-font-specification:Acre;letter-spacing:0px;word-spacing:0px;fill:#9c6d41;fill-opacity:1;stroke:none;stroke-width:0.02858034"
           d="m 431.41868,188.98164 c -0.22281,-0.0331 -0.34098,-0.0876 -0.49243,-0.22725 -0.28882,-0.26622 -0.32859,-0.73914 -0.091,-1.082 0.12953,-0.1869 0.30984,-0.26057 0.81366,-0.33244 0.54567,-0.0778 0.94326,-0.34798 1.18176,-0.80298 0.19929,-0.38017 0.1925,-0.26462 0.19353,-3.29805 5.4e-4,-1.60732 0.0126,-2.84066 0.0294,-3.00003 0.0327,-0.3101 0.10969,-0.65547 0.20006,-0.89702 0.0927,-0.24777 0.36347,-0.63003 0.64014,-0.90375 l 0.24488,-0.24226 -0.2092,-0.20073 c -0.46804,-0.4491 -0.67015,-0.81762 -0.82686,-1.50775 -0.0585,-0.25737 -0.0606,-0.34966 -0.0766,-3.25151 l -0.0164,-2.98662 -0.0742,-0.19088 c -0.22859,-0.58783 -0.65019,-0.91915 -1.28318,-1.0084 -0.4638,-0.0654 -0.59231,-0.11241 -0.74906,-0.27408 -0.16689,-0.1721 -0.23665,-0.37923 -0.21569,-0.64035 0.0177,-0.2204 0.0971,-0.37665 0.26798,-0.52703 0.18075,-0.1591 0.37154,-0.21287 0.73964,-0.20844 1.03489,0.0125 1.85121,0.48566 2.46674,1.42994 0.18995,0.2914 0.31626,0.5835 0.4234,0.97907 l 0.0805,0.29727 0.0161,2.97233 c 0.0178,3.29534 0.003,3.05439 0.20704,3.45785 0.11833,0.23447 0.42175,0.5331 0.65252,0.64224 0.17772,0.084 0.23099,0.0982 0.71228,0.1886 0.5561,0.10449 0.7955,0.38532 0.7658,0.89832 -0.0283,0.48972 -0.3042,0.71154 -0.99444,0.79965 -0.35305,0.0451 -0.64784,0.1946 -0.8891,0.45099 -0.18361,0.19514 -0.33479,0.45809 -0.40163,0.69857 -0.025,0.0899 -0.0392,0.92535 -0.0528,3.09547 -0.0202,3.23713 -0.0107,3.05442 -0.18567,3.57557 -0.31769,0.94637 -1.1537,1.7503 -2.07712,1.99742 -0.23464,0.0628 -0.33959,0.0791 -0.72365,0.11245 -0.0629,0.005 -0.18729,-8.6e-4 -0.27646,-0.0142 z"
           id="path1063"
           inkscape:connector-curvature="0" />
        <path
           style="font-style:normal;font-variant:normal;font-weight:normal;font-stretch:normal;font-size:10.58333302px;line-height:1.25;font-family:Acre;-inkscape-font-specification:Acre;letter-spacing:0px;word-spacing:0px;fill:#9c6d41;fill-opacity:1;stroke:none;stroke-width:0.02858034"
           d="m 420.0963,170.98697 c -0.0698,-1.79903 -0.68637,-3.46963 -1.80246,-4.88392 -0.29217,-0.37023 -0.95041,-1.02756 -1.33197,-1.33012 -0.16505,-0.13088 -0.45442,-0.3394 -0.64306,-0.46337 -0.39638,-0.26052 -1.21757,-0.67668 -1.62163,-0.82182 -0.15309,-0.055 -0.27849,-0.11605 -0.27866,-0.1357 0,-0.0197 0.003,-0.0358 0.007,-0.036 0.004,0 0.14862,-0.0192 0.32153,-0.0423 0.17291,-0.0231 0.39835,-0.0423 0.50097,-0.0426 0.21531,-6.5e-4 1.02974,0.0981 1.1567,0.14023 0.0472,0.0156 0.20149,0.0632 0.34296,0.10558 0.14148,0.0424 0.27652,0.0871 0.3001,0.0994 0.0236,0.0122 0.12004,0.0571 0.21435,0.0996 0.23585,0.10645 0.58206,0.32464 0.8563,0.53969 0.4704,0.36884 1.22041,1.20717 1.51589,1.69437 0.0157,0.0259 0.0704,0.10872 0.12146,0.184 0.0511,0.0753 0.0929,0.1437 0.0929,0.15203 0,0.008 0.0352,0.0695 0.0783,0.13605 0.043,0.0665 0.0946,0.15305 0.11447,0.19235 0.0199,0.0393 0.0825,0.15505 0.13899,0.25722 0.0565,0.10218 0.16418,0.30795 0.23922,0.45728 0.12252,0.24381 0.1746,0.35473 0.33868,0.72135 0.0364,0.0814 0.0682,0.11024 0.13357,0.12101 0.16226,0.0267 0.818,0.0722 1.03761,0.0719 0.12096,0 0.44501,0.0187 0.72009,0.0419 0.50357,0.0425 1.00953,0.0766 1.95777,0.13209 0.72595,0.0425 0.74486,0.0457 0.8569,0.14403 0.11768,0.10332 0.12531,0.13665 0.25742,1.12553 0.0616,0.46114 0.1002,0.72523 0.14893,1.01908 0.0575,0.34675 0.0382,0.55048 -0.0615,0.65021 l -0.0714,0.0714 -2.10851,-0.007 c -1.25423,-0.004 -2.2822,0.005 -2.53722,0.023 -0.23578,0.0165 -0.55201,0.0381 -0.70271,0.048 l -0.27401,0.0181 z"
           id="path1061"
           inkscape:connector-curvature="0" />
        <path
           style="font-style:normal;font-variant:normal;font-weight:normal;font-stretch:normal;font-size:10.58333302px;line-height:1.25;font-family:Acre;-inkscape-font-specification:Acre;letter-spacing:0px;word-spacing:0px;fill:#9c6d41;fill-opacity:1;stroke:none;stroke-width:0.02858034"
           d="m 423.94982,167.35181 c -0.0681,-0.0134 -0.21436,-0.14515 -0.21436,-0.19309 0,-0.064 -0.10963,-0.37686 -0.18223,-0.52013 -0.11107,-0.21917 -0.36278,-0.40597 -0.54837,-0.40694 -0.061,-5.3e-4 -0.1876,-0.16481 -0.18993,-0.24668 -0.004,-0.14345 0.028,-0.19146 0.28842,-0.43162 0.13992,-0.12903 0.33627,-0.34112 0.43634,-0.4713 0.19099,-0.24848 0.26272,-0.36797 0.42959,-0.71557 0.04,-0.0834 0.15621,-0.45487 0.18991,-0.60718 0.10155,-0.45906 0.125,-0.78423 0.14343,-1.98874 l 0.0187,-1.22527 0.075,-0.0749 c 0.0551,-0.0551 0.10432,-0.0749 0.18566,-0.0749 0.17461,0 0.24874,0.10023 0.65952,0.8917 0.0857,0.16505 0.20691,0.42227 0.26944,0.5716 0.0625,0.14934 0.12531,0.29724 0.13952,0.32867 0.0459,0.10171 0.24803,0.73769 0.29515,0.92886 0.1101,0.44673 0.14056,0.66777 0.15415,1.11826 0.0133,0.44174 0.009,0.4981 -0.0615,0.80024 -0.15998,0.68628 -0.35289,1.04704 -0.81327,1.52089 -0.25891,0.26649 -0.65005,0.57182 -0.83217,0.64963 -0.0393,0.0168 -0.0907,0.0471 -0.11433,0.0673 -0.0539,0.0462 -0.25291,0.0942 -0.32872,0.0793 z"
           id="path930"
           inkscape:connector-curvature="0" />
      </g>
      <g
         transform="translate(0,-2.2855531)"
         id="g1051">
        <g
           aria-label="vikingsDev"
           style="font-style:normal;font-weight:normal;font-size:12.36657333px;line-height:1.25;font-family:sans-serif;letter-spacing:0px;word-spacing:0px;fill:#c69249;fill-opacity:1;stroke:none;stroke-width:0.30916435"
           id="text940">
          <path
             d="m 448.70702,175.6821 -1.83025,4.48907 -1.84262,-4.48907 h -1.26139 l 2.73301,6.20802 h 0.742 l 2.70828,-6.20802 z"
             style="font-style:normal;font-variant:normal;font-weight:normal;font-stretch:normal;font-family:Acre;-inkscape-font-specification:Acre;letter-spacing:0px;fill:#c69249;fill-opacity:1;stroke-width:0.30916435"
             id="path846" />
          <path
             d="m 451.58786,174.51964 c 0.45756,0 0.79146,-0.34626 0.79146,-0.80382 0,-0.43283 -0.3339,-0.7791 -0.79146,-0.7791 -0.45757,0 -0.79147,0.34627 -0.79147,0.7791 0,0.45756 0.3339,0.80382 0.79147,0.80382 z m -0.58123,7.34575 h 1.16245 v -6.18329 h -1.16245 z"
             style="font-style:normal;font-variant:normal;font-weight:normal;font-stretch:normal;font-family:Acre;-inkscape-font-specification:Acre;letter-spacing:0px;fill:#c69249;fill-opacity:1;stroke-width:0.30916435"
             id="path848" />
          <path
             d="m 459.51908,181.86539 -2.93088,-3.05455 2.75775,-3.12874 h -1.42216 l -2.53515,2.93088 v -6.64085 h -1.16245 v 9.89326 h 1.16245 v -2.84431 l 2.62172,2.84431 z"
             style="font-style:normal;font-variant:normal;font-weight:normal;font-stretch:normal;font-family:Acre;-inkscape-font-specification:Acre;letter-spacing:0px;fill:#c69249;fill-opacity:1;stroke-width:0.30916435"
             id="path850" />
          <path
             d="m 461.3217,174.51964 c 0.45756,0 0.79146,-0.34626 0.79146,-0.80382 0,-0.43283 -0.3339,-0.7791 -0.79146,-0.7791 -0.45756,0 -0.79146,0.34627 -0.79146,0.7791 0,0.45756 0.3339,0.80382 0.79146,0.80382 z m -0.58123,7.34575 h 1.16246 v -6.18329 h -1.16246 z"
             style="font-style:normal;font-variant:normal;font-weight:normal;font-stretch:normal;font-family:Acre;-inkscape-font-specification:Acre;letter-spacing:0px;fill:#c69249;fill-opacity:1;stroke-width:0.30916435"
             id="path852" />
          <path
             d="m 466.98984,175.55843 c -0.85329,0 -1.50872,0.4081 -1.86735,0.98933 v -0.86566 h -1.16246 v 6.18329 h 1.16246 v -3.37608 c 0,-1.22429 0.64306,-1.86735 1.50872,-1.86735 0.87803,0 1.50872,0.64306 1.50872,1.86735 v 3.37608 h 1.16246 v -3.54921 c 0,-1.84262 -1.10062,-2.75775 -2.31255,-2.75775 z"
             style="font-style:normal;font-variant:normal;font-weight:normal;font-stretch:normal;font-family:Acre;-inkscape-font-specification:Acre;letter-spacing:0px;fill:#c69249;fill-opacity:1;stroke-width:0.30916435"
             id="path854" />
          <path
             d="m 476.73973,175.6821 h -1.1501 v 1.00169 c -0.46993,-0.65543 -1.19955,-1.08826 -2.11468,-1.08826 -1.71895,0 -2.89378,1.39743 -2.89378,3.17821 0,1.78079 1.17483,3.17821 2.89378,3.17821 0.92749,0 1.65712,-0.44519 2.13942,-1.11299 v 0.46993 c 0,1.37269 -0.79146,2.01575 -1.92919,2.01575 -0.72963,0 -1.52109,-0.2968 -2.21361,-0.77909 l -0.0124,1.22429 c 0.68016,0.38336 1.40979,0.65543 2.34965,0.65543 1.47162,0 2.94324,-0.9275 2.94324,-2.81958 z m -3.06691,5.14449 c -1.113,0 -1.89209,-0.91512 -1.89209,-2.05285 0,-1.12535 0.77909,-2.04048 1.89209,-2.04048 1.11299,0 1.91681,0.95223 1.91681,2.04048 0,1.08826 -0.80382,2.05285 -1.91681,2.05285 z"
             style="font-style:normal;font-variant:normal;font-weight:normal;font-stretch:normal;font-family:Acre;-inkscape-font-specification:Acre;letter-spacing:0px;fill:#c69249;fill-opacity:1;stroke-width:0.30916435"
             id="path856" />
          <path
             d="m 480.3413,181.96432 c 1.28612,0 2.13942,-0.76673 2.15178,-1.78079 0,-2.15178 -2.96797,-1.74368 -2.95561,-2.85668 0,-0.37099 0.3339,-0.61832 0.80383,-0.61832 0.5194,0 1.01406,0.35863 1.28612,0.60596 l 0.68016,-0.8533 c -0.38336,-0.43283 -1.11299,-0.89039 -1.97865,-0.87802 -1.21192,0 -1.99102,0.77909 -1.99102,1.71895 -0.0124,2.10232 2.94325,1.65712 2.94325,2.85668 0,0.4081 -0.38336,0.68016 -0.90276,0.68016 -0.58123,0 -1.11299,-0.34626 -1.49636,-0.71726 l -0.72962,0.86566 c 0.50703,0.56886 1.40979,0.97696 2.18888,0.97696 z"
             style="font-style:normal;font-variant:normal;font-weight:normal;font-stretch:normal;font-family:Acre;-inkscape-font-specification:Acre;letter-spacing:0px;fill:#c69249;fill-opacity:1;stroke-width:0.30916435"
             id="path858" />
          <path
             d="m 486.27339,173.20879 h -2.27545 v 8.6566 h 2.27545 c 2.72064,0 4.34066,-1.95392 4.34066,-4.35304 0,-2.38675 -1.62002,-4.30356 -4.34066,-4.30356 z m 0.0124,7.50651 h -1.11299 v -6.35642 h 1.11299 c 1.97866,0 3.14111,1.38505 3.14111,3.15347 0,1.73132 -1.16245,3.20295 -3.14111,3.20295 z"
             style="font-style:normal;font-variant:normal;font-weight:normal;font-stretch:normal;font-family:Acre;-inkscape-font-specification:Acre;letter-spacing:0px;fill:#c69249;fill-opacity:1;stroke-width:0.30916435"
             id="path860" />
          <path
             d="m 494.89019,175.59553 c -1.81789,0 -3.02981,1.45926 -3.02981,3.17821 0,1.73132 1.18719,3.19058 3.15347,3.19058 0.84093,0 1.58292,-0.23497 2.10232,-0.61833 v -1.17482 c -0.5936,0.40809 -1.22429,0.66779 -2.04048,0.66779 -1.06353,0 -1.83026,-0.61833 -2.01576,-1.59529 h 4.72403 c 0.13604,-1.95392 -0.96459,-3.64814 -2.89377,-3.64814 z m -0.0247,1.16246 c 0.8904,0 1.52109,0.61833 1.69422,1.52109 h -3.48737 c 0.1855,-0.89039 0.85329,-1.52109 1.79315,-1.52109 z"
             style="font-style:normal;font-variant:normal;font-weight:normal;font-stretch:normal;font-family:Acre;-inkscape-font-specification:Acre;letter-spacing:0px;fill:#c69249;fill-opacity:1;stroke-width:0.30916435"
             id="path862" />
          <path
             d="m 503.00401,175.6821 -1.83025,4.48907 -1.84262,-4.48907 h -1.26139 l 2.73301,6.20802 h 0.74199 l 2.70828,-6.20802 z"
             style="font-style:normal;font-variant:normal;font-weight:normal;font-stretch:normal;font-family:Acre;-inkscape-font-specification:Acre;letter-spacing:0px;fill:#c69249;fill-opacity:1;stroke-width:0.30916435"
             id="path864" />
        </g>
        <g
           aria-label="2019.20"
           style="font-style:normal;font-weight:normal;font-size:3.99667501px;line-height:1.25;font-family:sans-serif;letter-spacing:0px;word-spacing:0px;fill:#c69249;fill-opacity:1;stroke:none;stroke-width:0.09991688"
           id="text944">
          <path
             d="m 443.86068,188.95641 h 1.72656 v -0.3677 h -1.02315 c 0.19184,-0.2398 0.38768,-0.4796 0.57552,-0.7194 0.22382,-0.28376 0.41566,-0.55953 0.41566,-0.91124 0,-0.43964 -0.34771,-0.85129 -0.88327,-0.85129 -0.53955,0 -0.87127,0.41565 -0.89925,0.86328 l 0.35171,0.0999 c 0.02,-0.33573 0.2358,-0.58752 0.54754,-0.58752 0.30775,0 0.49959,0.2438 0.49959,0.4876 0,0.29975 -0.19584,0.53555 -0.40767,0.79933 -0.30774,0.39168 -0.5995,0.76736 -0.90324,1.14305 z"
             style="font-style:normal;font-variant:normal;font-weight:normal;font-stretch:normal;font-family:Acre;-inkscape-font-specification:Acre;letter-spacing:1.13459337px;fill:#c69249;fill-opacity:1;stroke-width:0.09991688"
             id="path867" />
          <path
             d="m 447.97323,188.99637 c 0.66744,0 0.90724,-0.65945 0.90724,-1.4388 0,-0.77536 -0.2398,-1.4388 -0.90724,-1.4388 -0.67144,0 -0.91124,0.66344 -0.91124,1.4388 0,0.77935 0.2398,1.4388 0.91124,1.4388 z m 0,-0.37569 c -0.42365,0 -0.53556,-0.53555 -0.53556,-1.06311 0,-0.52357 0.11191,-1.06312 0.53556,-1.06312 0.41565,0 0.53156,0.53955 0.53156,1.06312 0,0.52756 -0.11591,1.06311 -0.53156,1.06311 z"
             style="font-style:normal;font-variant:normal;font-weight:normal;font-stretch:normal;font-family:Acre;-inkscape-font-specification:Acre;letter-spacing:1.13459337px;fill:#c69249;fill-opacity:1;stroke-width:0.09991688"
             id="path869" />
          <path
             d="m 451.1041,186.11477 -0.87927,0.55154 0.17186,0.31174 0.37169,-0.22781 v 2.20617 h 0.37569 v -2.84164 z"
             style="font-style:normal;font-variant:normal;font-weight:normal;font-stretch:normal;font-family:Acre;-inkscape-font-specification:Acre;letter-spacing:1.13459337px;fill:#c69249;fill-opacity:1;stroke-width:0.09991688"
             id="path871" />
          <path
             d="m 454.62845,187.06198 v -0.004 c 0,-0.52357 -0.37968,-0.93922 -0.93522,-0.93922 -0.56353,0 -0.93922,0.41565 -0.93922,0.93922 0,0.51956 0.37969,0.93122 0.93922,0.93122 0.0719,0 0.13989,-0.008 0.20383,-0.02 l -0.53955,0.98718 h 0.42765 c 0.15986,-0.31175 0.29975,-0.55954 0.46361,-0.87927 0.15987,-0.29975 0.37569,-0.64746 0.37968,-1.01116 z m -1.49475,-0.008 c 0,-0.30375 0.23181,-0.55954 0.55953,-0.55954 0.32373,0 0.55554,0.25579 0.55554,0.55954 0,0.30774 -0.22781,0.56753 -0.55554,0.56753 -0.33172,0 -0.55953,-0.25979 -0.55953,-0.56753 z"
             style="font-style:normal;font-variant:normal;font-weight:normal;font-stretch:normal;font-family:Acre;-inkscape-font-specification:Acre;letter-spacing:1.13459337px;fill:#c69249;fill-opacity:1;stroke-width:0.09991688"
             id="path873" />
          <path
             d="m 455.94571,188.98438 c 0.13988,0 0.25179,-0.1119 0.25179,-0.25179 0,-0.13589 -0.11191,-0.25179 -0.25179,-0.25179 -0.13989,0 -0.2478,0.1159 -0.2478,0.25179 0,0.13989 0.10791,0.25179 0.2478,0.25179 z"
             style="font-style:normal;font-variant:normal;font-weight:normal;font-stretch:normal;font-family:Acre;-inkscape-font-specification:Acre;letter-spacing:1.13459337px;fill:#c69249;fill-opacity:1;stroke-width:0.09991688"
             id="path875" />
          <path
             d="m 457.68311,188.95641 h 1.72657 v -0.3677 h -1.02315 c 0.19184,-0.2398 0.38767,-0.4796 0.57552,-0.7194 0.22381,-0.28376 0.41565,-0.55953 0.41565,-0.91124 0,-0.43964 -0.34771,-0.85129 -0.88326,-0.85129 -0.53955,0 -0.87128,0.41565 -0.89925,0.86328 l 0.3517,0.0999 c 0.02,-0.33573 0.23581,-0.58752 0.54755,-0.58752 0.30774,0 0.49958,0.2438 0.49958,0.4876 0,0.29975 -0.19584,0.53555 -0.40766,0.79933 -0.30774,0.39168 -0.5995,0.76736 -0.90325,1.14305 z"
             style="font-style:normal;font-variant:normal;font-weight:normal;font-stretch:normal;font-family:Acre;-inkscape-font-specification:Acre;letter-spacing:1.13459337px;fill:#c69249;fill-opacity:1;stroke-width:0.09991688"
             id="path877" />
          <path
             d="m 461.79567,188.99637 c 0.66744,0 0.90724,-0.65945 0.90724,-1.4388 0,-0.77536 -0.2398,-1.4388 -0.90724,-1.4388 -0.67145,0 -0.91125,0.66344 -0.91125,1.4388 0,0.77935 0.2398,1.4388 0.91125,1.4388 z m 0,-0.37569 c -0.42365,0 -0.53556,-0.53555 -0.53556,-1.06311 0,-0.52357 0.11191,-1.06312 0.53556,-1.06312 0.41565,0 0.53155,0.53955 0.53155,1.06312 0,0.52756 -0.1159,1.06311 -0.53155,1.06311 z"
             style="font-style:normal;font-variant:normal;font-weight:normal;font-stretch:normal;font-family:Acre;-inkscape-font-specification:Acre;letter-spacing:1.13459337px;fill:#c69249;fill-opacity:1;stroke-width:0.09991688"
             id="path879" />
        </g>
      </g>
    </g>
  </g>
</svg>
