<?xml version="1.0" encoding="UTF-8" standalone="no"?>
<!-- Created with Inkscape (http://www.inkscape.org/) -->

<svg
   xmlns:dc="http://purl.org/dc/elements/1.1/"
   xmlns:cc="http://creativecommons.org/ns#"
   xmlns:rdf="http://www.w3.org/1999/02/22-rdf-syntax-ns#"
   xmlns:svg="http://www.w3.org/2000/svg"
   xmlns="http://www.w3.org/2000/svg"
   xmlns:sodipodi="http://sodipodi.sourceforge.net/DTD/sodipodi-0.dtd"
   xmlns:inkscape="http://www.inkscape.org/namespaces/inkscape"
   width="175.75342mm"
   height="137.19473mm"
   viewBox="0 0 175.75342 137.19473"
   version="1.1"
   id="svg3231"
   inkscape:version="0.92.4 (5da689c313, 2019-01-14)"
   sodipodi:docname="logo-flat.svg">
  <defs
     id="defs3225" />
  <sodipodi:namedview
     id="base"
     pagecolor="#ffffff"
     bordercolor="#666666"
     borderopacity="1.0"
     inkscape:pageopacity="0.0"
     inkscape:pageshadow="2"
     inkscape:zoom="0.35"
     inkscape:cx="-496.43898"
     inkscape:cy="127.83706"
     inkscape:document-units="mm"
     inkscape:current-layer="layer1"
     showgrid="false"
     inkscape:window-width="1680"
     inkscape:window-height="1013"
     inkscape:window-x="0"
     inkscape:window-y="0"
     inkscape:window-maximized="1" />
  <metadata
     id="metadata3228">
    <rdf:RDF>
      <cc:Work
         rdf:about="">
        <dc:format>image/svg+xml</dc:format>
        <dc:type
           rdf:resource="http://purl.org/dc/dcmitype/StillImage" />
        <dc:title></dc:title>
      </cc:Work>
    </rdf:RDF>
  </metadata>
  <g
     inkscape:label="Layer 1"
     inkscape:groupmode="layer"
     id="layer1"
     transform="translate(-47.438765,-45.46216)">
    <path
       inkscape:connector-curvature="0"
       style="fill:#c68e49;fill-opacity:1;stroke-width:0.12362568"
       d="m 169.3783,45.46216 c -0.35241,0 -0.56171,0.0858 -0.80301,0.32454 l -0.32331,0.32451 -0.0762,5.29995 c -0.0823,5.21009 -0.18415,6.61691 -0.62203,8.60255 -0.14605,0.65879 -0.64401,2.26563 -0.82181,2.6262 -0.72178,1.50371 -1.03213,2.02057 -1.85816,3.09542 -0.43286,0.56319 -1.28402,1.48061 -1.88727,2.03864 -1.12686,1.03886 -1.31154,1.24619 -1.24751,1.86708 0.0106,0.35417 0.56144,1.06461 0.82179,1.06659 0.80222,0.005 1.88885,0.81248 2.37145,1.76062 0.31221,0.619601 0.78846,1.97321 0.78846,2.24999 0,0.20682 0.62706,0.775992 0.92604,0.83457 0.33153,0.0621 1.18323,-0.144039 1.41711,-0.34313 0.1016,-0.0863 0.3236,-0.218519 0.49505,-0.290941 0.78713,-0.336759 2.47941,-1.657538 3.59911,-2.810169 1.99233,-2.0497 2.82629,-3.60992 3.51817,-6.57838 0.33074,-1.30697 0.33074,-1.55107 0.2667,-3.46181 -0.0572,-1.94861 -0.1905,-2.90465 -0.66675,-4.83693 -0.20372,-0.82701 -1.08002,-3.57852 -1.27687,-4.01783 -0.0635,-0.13613 -0.32995,-0.77586 -0.603,-1.42163 -0.26987,-0.64614 -0.79717,-1.75871 -1.16522,-2.47272 -1.77693,-3.42339 -2.09734,-3.85712 -2.85274,-3.85712 z m -90.238254,6.06475 c -0.234156,0 -0.461698,0.099 -0.638704,0.26665 -0.4064,0.38089 -0.488686,1.06376 -0.260086,2.13061 0.10795,0.49392 0.253736,1.28616 0.323586,1.76218 0.310885,2.03258 0.708025,4.43992 0.924454,5.62496 0.09499,0.5098 0.285485,1.59533 0.431535,2.41123 0.4064,2.3123 0.583936,3.14875 1.256242,5.92367 0.64426,2.666211 1.764506,6.27777 2.199217,7.089491 0.06323,0.119348 0.349514,0.714931 0.64135,1.327039 0.671777,1.419201 1.073943,2.083332 2.10185,3.46596 1.307041,1.75723 3.396985,3.642341 4.992423,4.502052 0.27305,0.145359 0.57785,0.316568 0.679979,0.378769 0.24765,0.150469 1.324768,0.615979 1.426368,0.615979 0.06403,0 0.260086,0.0771 0.469636,0.176239 0.946679,0.426591 3.757877,1.040662 5.458619,1.191131 1.380865,0.12189 6.394185,0.0314 7.479775,-0.13489 0.44423,-0.0673 1.38747,-0.202219 2.10158,-0.30125 2.62626,-0.35997 3.49621,-0.56166 4.10819,-0.951888 0.61595,-0.391692 1.41023,-1.261851 1.73857,-1.90323 0.28549,-0.55676 0.7038,-2.298542 0.7038,-2.917143 0,-0.695079 -0.42519,-2.445538 -0.73687,-3.062359 -0.3048,-0.603099 -1.52373,-1.92683 -2.10899,-2.29648 -0.86016,-0.54343 -2.13413,-0.811689 -4.13782,-0.87231 -4.43627,-0.134591 -9.159612,-0.896109 -11.621031,-1.872739 -2.703248,-1.07278 -4.797425,-2.430361 -6.564842,-4.257121 -0.830527,-0.85736 -2.273829,-2.60707 -2.273829,-2.75537 0,-0.0317 -0.1905,-0.33251 -0.425185,-0.65527 -1.201209,-1.6746 -3.382434,-5.80043 -5.082382,-9.61284 -0.09499,-0.20445 -0.368035,-0.81569 -0.615685,-1.35962 -0.247386,-0.54406 -0.539486,-1.18393 -0.643731,-1.42163 -0.10795,-0.23868 -0.291836,-0.65566 -0.406136,-0.92758 -0.12065,-0.27172 -0.253735,-0.61047 -0.298185,-0.75292 -0.1524,-0.52946 -0.707761,-0.84243 -1.223698,-0.81132 z m 49.928724,6.19911 c -1.67481,0 -4.72519,0.45717 -7.48241,1.12395 -0.84932,0.20442 -1.77747,0.42365 -2.06164,0.48524 -0.5969,0.12952 -1.69412,0.4566 -2.14153,0.63977 -0.17145,0.0698 -0.80963,0.28345 -1.42161,0.47643 -0.6096,0.19175 -1.41896,0.46988 -1.79282,0.61651 -0.37438,0.14539 -0.88291,0.3221 -1.13109,0.39068 -1.10278,0.30409 -1.60602,1.4986 -0.92049,2.18488 l 0.32359,0.32298 2.74981,0.0254 c 3.03372,0.0254 5.59144,0.19386 7.38558,0.4935 1.6809,0.28125 3.86848,0.87574 4.57438,1.24282 0.17145,0.0882 0.36222,0.16124 0.42572,0.16124 0.2794,0 2.08201,0.96557 3.21892,1.71823 1.35599,0.89755 3.61474,2.9968 4.7707,4.433329 0.9734,1.210212 2.65642,3.664673 3.55018,5.180042 0.82418,1.39483 1.63301,2.849139 1.63301,2.935211 0,0.0317 -0.2921,0.114138 -0.64902,0.183988 -1.70524,0.331391 -5.0972,1.06961 -6.15051,1.338422 -0.64505,0.165679 -1.50812,0.382349 -1.91558,0.482658 -1.40256,0.345331 -5.57398,1.651 -6.32381,1.97971 -0.2159,0.0933 -0.45058,0.171561 -0.53313,0.171561 -0.0759,0 -0.37465,0.100881 -0.66093,0.225319 -0.28575,0.124431 -0.76862,0.324321 -1.07447,0.444921 -0.3048,0.121899 -0.73978,0.297659 -0.96309,0.39225 -0.22225,0.0959 -0.46381,0.17362 -0.52731,0.17362 -0.064,0 -0.55219,0.19989 -1.07792,0.44495 -0.52678,0.24376 -1.12553,0.51636 -1.32847,0.604599 -0.2032,0.0882 -0.98345,0.44709 -1.73117,0.798401 -1.87933,0.882309 -3.18849,1.552178 -6.11954,3.129518 -0.59055,0.316151 -2.16668,1.238462 -3.68988,2.155431 -0.24739,0.150471 -0.53287,0.31337 -0.63712,0.362241 -0.1016,0.0508 -0.4064,0.230799 -0.67998,0.40412 -0.27305,0.17331 -0.60325,0.37701 -0.74163,0.45321 -0.40005,0.223469 -2.24525,1.349801 -2.72282,1.660361 -0.15214,0.100938 -0.73899,0.463928 -1.29487,0.803568 -0.5588,0.339651 -1.13877,0.701651 -1.29567,0.803572 -0.15213,0.100938 -0.58393,0.369538 -0.947208,0.594278 -0.368036,0.225372 -1.135327,0.707972 -1.713442,1.074869 -0.57785,0.366922 -1.348317,0.850842 -1.712648,1.075373 -0.36195,0.225368 -0.790575,0.491568 -0.947208,0.593778 -0.1524,0.10094 -0.722048,0.44664 -1.255183,0.76687 -1.345936,0.80682 -1.805782,1.30212 -1.805782,1.94767 0,0.28316 0.08917,0.59883 0.197115,0.71882 0.1778,0.20188 1.742546,2.40716 3.634846,5.13715 1.195387,1.7254 1.370806,1.92334 1.810279,2.04021 0.637381,0.16885 0.756444,0.11416 3.173411,-1.44489 0.17145,-0.10917 0.40614,-0.25647 0.51409,-0.32505 0.37465,-0.22791 1.52188,-0.9349 1.71053,-1.05417 0.1016,-0.0648 1.01944,-0.5937 2.03967,-1.17618 1.01971,-0.58214 1.93807,-1.11186 2.03967,-1.17719 0.4572,-0.29392 5.1824,-2.68279 6.67809,-3.37756 0.71305,-0.33076 1.68513,-0.7855 2.16059,-1.01029 0.47625,-0.22537 1.39514,-0.61378 2.04073,-0.86505 1.03108,-0.40058 1.55284,-0.61749 2.53365,-1.054209 0.1397,-0.0571 0.72019,-0.268631 1.29884,-0.463521 2.11269,-0.710139 3.03371,-1.02952 3.27554,-1.135329 0.13361,-0.0571 0.77602,-0.254029 1.4216,-0.43307 0.64638,-0.17902 1.28588,-0.371661 1.42214,-0.429422 0.3048,-0.126968 0.63473,-0.215289 4.07935,-1.055737 1.49568,-0.365041 3.33163,-0.782662 4.07934,-0.927601 0.74851,-0.145391 1.67931,-0.34377 2.06931,-0.44029 0.38708,-0.0959 0.91255,-0.17622 1.16205,-0.17622 0.24765,0 0.87577,-0.0802 1.39329,-0.17671 1.92934,-0.360601 4.11666,-0.619922 7.79992,-0.92501 0.32385,-0.0254 0.82629,-0.0702 1.27714,-0.109569 l -0.0833,-2.079961 c -0.29845,-7.781931 -2.96915,-15.00786 -7.79647,-21.125341 -1.26392,-1.60145 -4.11136,-4.44492 -5.76131,-5.75366 -0.7141,-0.56626 -1.96585,-1.46833 -2.78183,-2.00451 -1.71476,-1.12699 -5.26732,-2.9269 -7.01489,-3.55483 -0.66173,-0.23871 -1.20465,-0.50197 -1.20518,-0.58703 0,-0.023 0.005,-0.0444 0.0106,-0.0641 -0.005,0.0185 -0.0106,0.039 -0.0106,0.0605 0,0.0851 0.54239,0.34885 1.20439,0.58756 1.74863,0.62791 5.29986,2.42758 7.01516,3.55431 0.81571,0.53644 2.06692,1.43825 2.7813,2.00453 1.65047,1.30879 4.49791,4.15219 5.7613,5.75366 4.82812,6.117481 7.49803,13.343922 7.79648,21.125841 l 0.1262,2.083589 1.1848,-0.0775 c 0.65194,-0.0444 2.01956,-0.13742 3.03953,-0.207219 1.10278,-0.073 5.55044,-0.124122 10.97518,-0.0987 l 9.11993,0.032 0.31089,-0.30953 c 0.4318,-0.43138 0.51435,-1.312469 0.2667,-2.81223 -0.21273,-1.27122 -0.37783,-2.41377 -0.64426,-4.40852 -0.57389,-4.277569 -0.60591,-4.421499 -1.11364,-4.868431 -0.48497,-0.425979 -0.56594,-0.4386 -3.70576,-0.622699 -4.10235,-0.23998 -6.291,-0.387459 -8.46931,-0.571551 -1.18956,-0.101578 -2.59398,-0.181379 -3.11441,-0.181379 -0.95065,0 -3.78592,-0.194279 -4.48865,-0.31109 -0.2794,-0.047 -0.4191,-0.17114 -0.57785,-0.52348 -0.70988,-1.58591 -0.93874,-2.065549 -1.46553,-3.120229 -0.32438,-0.646091 -0.79322,-1.536329 -1.03452,-1.97816 -0.24765,-0.441801 -0.51408,-0.941199 -0.60298,-1.112602 -0.0889,-0.170018 -0.31168,-0.544409 -0.49557,-0.832009 -0.1905,-0.28757 -0.34263,-0.55689 -0.34263,-0.58859 0,-0.0362 -0.1905,-0.33216 -0.4064,-0.65783 -0.22199,-0.32618 -0.45694,-0.68472 -0.52705,-0.79582 -1.27794,-2.10724 -4.52252,-5.73333 -6.55664,-7.32874 -1.18639,-0.93031 -2.68393,-1.8745 -3.70364,-2.33474 -0.40692,-0.18476 -0.82602,-0.38018 -0.92762,-0.43101 -0.1016,-0.0533 -0.68872,-0.24529 -1.29805,-0.42942 -0.61198,-0.18409 -1.28058,-0.39004 -1.48378,-0.45733 -0.36857,-0.12234 -2.0545,-0.34745 -3.41975,-0.48627 -0.14419,-0.0151 -0.29051,-0.0328 -0.42439,-0.0455 -0.0839,-0.008 -0.15663,-0.0135 -0.23548,-0.0201 -0.16139,-0.014 -0.31405,-0.0267 -0.44556,-0.0352 -0.0394,-0.003 -0.0646,-0.003 -0.10133,-0.004 -0.11297,-0.006 -0.23892,-0.0145 -0.31617,-0.0145 z M 70.510925,75.62053 h 0.0026 c -1.582738,0.0254 -3.449373,0.42495 -5.021263,1.150331 -1.456531,0.672489 -2.696104,1.57456 -3.951816,2.87631 -1.856317,1.924259 -2.847182,3.67607 -3.54039,6.25697 l -0.387615,1.430419 -0.06958,12.91857 c -0.06403,12.06701 -0.08943,12.96369 -0.298715,13.59866 -0.50165,1.51537 -1.326356,2.7056 -2.436548,3.52279 -0.934508,0.68803 -1.789906,1.00637 -3.325018,1.23714 -2.613025,0.39233 -3.581929,1.12155 -3.966634,2.98429 -0.2794,1.3697 0.2159,2.81861 1.224757,3.59204 0.622035,0.47297 1.356254,0.70506 2.999316,0.94517 1.613165,0.2355 2.643188,0.73581 3.712898,1.80298 0.837406,0.83558 1.376627,1.73161 1.791229,2.97606 0.2159,0.63597 0.228865,1.51193 0.298715,13.53714 l 0.06958,12.85711 0.349515,1.29809 c 0.749565,2.77543 1.930929,4.83696 3.899429,6.80633 2.171171,2.17128 4.582584,3.29393 7.671859,3.57238 3.132931,0.2825 4.877591,-0.65524 5.342202,-2.87218 0.27305,-1.30562 -0.368036,-2.86626 -1.430867,-3.48145 -0.628385,-0.36247 -1.230577,-0.5267 -2.779712,-0.75549 -1.69545,-0.2514 -2.920736,-0.86788 -4.008967,-2.0216 -0.817563,-0.86725 -1.417373,-1.91124 -1.712119,-2.98222 -0.1143,-0.41201 -0.171185,-3.84191 -0.228335,-13.47206 -0.08307,-13.70737 -0.06296,-13.17437 -0.658277,-15.15567 -0.577849,-1.92445 -1.381389,-3.22281 -2.973123,-4.81418 l -1.130035,-1.13016 0.89191,-0.83043 c 1.467115,-1.3663 2.665149,-3.14618 3.172884,-4.71342 0.635,-1.95709 0.6096,-1.43306 0.691621,-15.38872 0.06985,-12.12381 0.09472,-13.0901 0.297921,-13.72216 0.727075,-2.21197 2.225939,-3.787699 4.300008,-4.51961 0.26035,-0.0908 0.930539,-0.22768 1.492514,-0.30385 2.206625,-0.29776 3.100651,-0.783829 3.739887,-2.035019 0.90461,-1.769139 0.152664,-3.997672 -1.612372,-4.778531 -0.622035,-0.274879 -1.469231,-0.39923 -2.418556,-0.38653 z m 129.637635,0.008 c -1.59201,-0.01929 -2.41697,0.213649 -3.19934,0.901758 -0.74004,0.650391 -1.08348,1.326172 -1.15942,2.279463 -0.091,1.129638 0.21141,2.025488 0.93319,2.769838 0.67786,0.699302 1.23375,0.902311 3.24062,1.185471 2.73739,0.386051 4.56089,1.819431 5.55017,4.362 l 0.32385,0.825791 0.0699,12.918599 c 0.0699,12.55231 0.0762,12.95151 0.3302,14.06477 0.67786,2.98535 1.55258,4.57946 3.5769,6.52209 l 0.90488,0.86815 -1.0594,1.04801 c -1.1967,1.18409 -2.36934,2.8375 -2.76912,3.9093 -0.38921,1.04484 -0.72549,2.53847 -0.86519,3.87988 -0.063,0.68937 -0.127,6.02416 -0.127,12.97699 -0.005,13.12114 0.0238,12.62182 -0.83661,14.26631 -1.03162,1.96807 -2.75221,3.13605 -5.11202,3.47318 -2.17937,0.31081 -2.96095,0.62929 -3.51975,1.43764 -1.02711,1.48323 -0.85488,3.52872 0.39396,4.68032 0.65511,0.60386 1.16682,0.84069 2.13043,0.98288 v -0.003 c 0.38576,0.0605 0.9226,0.089 1.19565,0.0636 1.66132,-0.14475 2.11561,-0.21521 3.13002,-0.48628 3.99442,-1.06894 7.61074,-4.54636 8.98499,-8.63978 0.74004,-2.25428 0.7141,-1.46439 0.803,-15.46678 0.0572,-9.38696 0.12038,-13.00019 0.2286,-13.38934 0.28946,-1.0404 0.94298,-2.17821 1.73726,-3.02205 1.04299,-1.10913 2.31881,-1.75651 3.84625,-1.95077 2.98582,-0.3811 4.18042,-1.34088 4.30107,-3.45924 0.12806,-2.21901 -0.90753,-3.43352 -3.31312,-3.88554 -2.08147,-0.39163 -2.31192,-0.45169 -3.08081,-0.81544 -0.998,-0.47207 -2.30743,-1.76443 -2.82151,-2.77866 -0.83238,-1.74506 -0.82074,-0.70286 -0.89667,-14.95721 l -0.0696,-12.856579 -0.34952,-1.28625 c -0.46328,-1.711079 -1.00992,-2.97434 -1.83144,-4.23486 -2.6625,-4.08459 -6.19363,-6.128071 -10.67013,-6.18517 z m -29.93707,21.848789 c -0.29344,-0.005 -0.50192,0.0988 -0.7091,0.293032 -0.44423,0.418168 -0.46328,0.82179 -0.0759,1.988499 0.1905,0.57817 0.39978,1.24492 0.46963,1.48362 0.0701,0.238 0.32993,1.12832 0.57731,1.97819 0.41329,1.41271 0.70566,2.53278 0.87684,3.33777 0.0381,0.16989 0.17145,0.78243 0.29818,1.36012 1.69704,7.6803 1.62877,16.19959 -0.18996,24.04504 -0.43366,1.86486 -0.53553,2.27962 -0.97976,3.83233 -0.24765,0.88379 -0.51408,1.8161 -0.5842,2.07068 -0.0635,0.25329 -0.15187,0.46353 -0.2159,0.46353 -0.0513,0 -0.67205,-0.54211 -1.37927,-1.20508 -1.4941,-1.39919 -7.05988,-6.52891 -9.35594,-8.62687 0.003,0.003 -0.0529,-0.0492 -0.0508,-0.047 0.0857,0.0812 -0.4265,-0.3863 -1.89839,-1.75496 -1.45202,-1.35284 -2.0148,-1.39996 -2.97919,-0.24855 -0.3175,0.3828 -0.80831,0.94824 -1.08375,1.25624 -0.27913,0.30793 -1.22422,1.41605 -2.10793,2.4624 -0.88371,1.04608 -2.63604,3.10486 -3.89413,4.57491 -1.25783,1.47029 -2.56514,2.99844 -2.90486,3.39617 -0.34264,0.39743 -1.16391,1.36826 -1.82986,2.15802 -0.66649,0.78967 -1.26365,1.42274 -1.32662,1.4061 -0.0638,-0.0254 -0.9914,-0.70956 -2.06428,-1.53996 -1.07289,-0.83044 -2.9509,-2.27681 -4.17513,-3.21479 -4.34737,-3.33094 -5.16255,-3.99002 -7.83405,-6.33862 -2.58259,-2.26984 -5.21996,-5.0242 -6.86937,-7.17373 -0.66384,-0.86516 -2.38363,-3.40852 -2.67256,-3.95221 -0.4826,-0.90535 -0.86598,-1.59512 -0.96176,-1.72133 -0.063,-0.0755 -0.3429,-0.67757 -0.6223,-1.33895 -0.28575,-0.66132 -0.60272,-1.35715 -0.6985,-1.54564 -0.095,-0.18918 -0.1778,-0.42894 -0.1778,-0.53433 0,-0.10665 -0.064,-0.24363 -0.10795,-0.30903 -0.1143,-0.12697 -0.84587,-2.44983 -1.18613,-3.78169 -0.27305,-1.06601 -0.69876,-1.50791 -1.45626,-1.50791 h -0.005 c -0.43815,0 -1.2454,0.35337 -4.5466,1.98643 -2.4765,1.225 -4.14655,2.12522 -4.35796,2.34818 -0.41883,0.43868 -0.58393,0.98449 -0.58393,1.89085 0,0.37647 -0.082,1.35014 -0.1778,2.16421 -0.095,0.81386 -0.20955,1.95244 -0.254,2.53061 -0.0632,0.57769 -0.15214,1.85782 -0.25374,2.84374 -0.0953,0.98597 -0.26088,2.76582 -0.36248,3.95584 -0.10768,1.19001 -0.24738,2.74772 -0.31723,3.4618 -0.0699,0.71369 -0.17754,1.99343 -0.25374,2.84324 -0.0698,0.84992 -0.20955,2.24036 -0.3048,3.09023 -0.095,0.84987 -0.1778,1.81819 -0.1778,2.1513 0,0.3333 -0.0759,1.33488 -0.1778,2.2257 -0.298183,2.68984 -0.494768,4.92289 -0.482068,5.55472 0.06297,1.21825 0.973928,1.56808 2.455068,0.89863 0.4064,-0.1841 0.96441,-0.43969 1.23613,-0.5679 0.58394,-0.2749 1.19195,-0.54592 2.78236,-1.24077 0.64559,-0.28249 1.47955,-0.65235 1.85341,-0.82216 1.12633,-0.51107 1.38774,-0.62998 2.22594,-1.00822 l 0.80354,-0.36224 0.082,3.84833 c 0.064,2.11691 0.13996,5.04513 0.21616,6.50711 0.0759,1.46198 0.15875,3.90954 0.19685,5.43947 0.13944,6.0112 0.32967,10.60248 0.45667,11.27371 0.1651,0.8701 0.51462,1.24068 1.1774,1.25161 0.48868,0 0.80671,-0.12457 2.44792,-1.03042 0.89244,-0.49202 1.94019,-1.0577 3.15225,-1.70016 1.22264,-0.64863 3.21125,-1.71773 3.64728,-1.96112 0.27305,-0.15301 0.82841,-0.4517 1.23613,-0.66455 0.40614,-0.21268 1.13083,-0.59651 1.60761,-0.85215 0.47599,-0.25648 1.40018,-0.75282 2.05449,-1.10434 l 1.1893,-0.63924 0.26035,0.83511 c 0.1397,0.45897 0.4572,1.50204 0.70274,2.3182 0.24765,0.81589 0.52096,1.70561 0.61595,1.97765 0.0892,0.2717 0.28548,0.91223 0.43153,1.42214 0.14605,0.50977 0.34264,1.14914 0.43154,1.4211 0.095,0.27173 0.2921,0.91215 0.43815,1.42214 0.1524,0.50977 0.35533,1.20496 0.45058,1.54511 0.1016,0.33965 0.26062,0.84064 0.34317,1.1126 0.095,0.2717 0.28548,0.91165 0.43153,1.42161 0.2794,0.95461 1.01786,3.3896 1.29726,4.26537 0.0889,0.27173 0.19685,0.66823 0.2413,0.88059 0.095,0.4228 0.48842,0.85288 0.87312,0.94826 0.3937,0.0984 0.96652,-0.0443 1.25492,-0.30593 0.14579,-0.13457 0.64585,-0.8844 1.11257,-1.66759 0.46964,-0.78346 0.93001,-1.55596 1.03241,-1.7167 0.1016,-0.1606 0.92683,-1.50498 1.83356,-2.98638 0.90646,-1.48108 2.42067,-3.9447 3.36656,-5.4746 0.94535,-1.52984 1.769,-2.89266 1.82933,-3.02876 0.095,-0.22029 0.12673,-0.20196 0.23468,0.18656 0.0701,0.2387 0.24792,0.73847 0.3937,1.1126 0.14605,0.3739 0.32385,0.84703 0.39397,1.05108 0.0699,0.20442 0.20267,0.5466 0.29818,0.76068 0.095,0.21521 0.17754,0.43442 0.17754,0.49093 0,0.0571 0.19685,0.60373 0.4445,1.21748 0.51435,1.29598 0.67283,1.7099 1.04748,2.72285 0.1524,0.40757 0.3175,0.85297 0.381,0.98907 0.0638,0.13459 0.22199,0.58063 0.36169,0.98859 0.13943,0.4082 0.44476,1.21457 0.67627,1.79266 0.2286,0.57769 0.52017,1.37736 0.65485,1.77612 0.1905,0.57324 0.45085,0.98933 0.76649,1.22833 0,-0.003 0,-0.007 0,-0.01 0.0468,0.16377 0.18468,0.21063 0.40773,0.24701 v 0.003 c 0.46196,0.0737 0.99589,-0.13256 1.31973,-0.50901 0.17013,-0.19888 0.8128,-1.04267 1.42214,-1.87481 1.75286,-2.38315 5.61261,-7.5882 7.21307,-9.72603 1.03135,-1.38131 1.03796,-1.38673 1.24725,-1.1131 0.11509,0.15139 0.84455,1.19306 1.62216,2.31407 0.7784,1.12107 1.56924,2.26184 1.75974,2.53421 0.18971,0.27273 0.75935,1.11233 1.26074,1.86602 0.50086,0.75396 1.00277,1.44135 1.10437,1.52705 0.32253,0.26664 1.05622,0.1901 1.39277,-0.14574 0.3548,-0.35626 0.70405,-1.62676 0.89455,-3.24733 0.0635,-0.61212 0.18442,-1.50204 0.26035,-1.97819 0.31486,-2.01861 0.50509,-3.31938 0.74004,-5.00692 0.25718,-1.82676 0.45376,-3.17296 0.79005,-5.37744 0.10795,-0.68006 0.24818,-1.68114 0.32411,-2.2252 0.0762,-0.54393 0.15822,-1.2119 0.22225,-1.48363 l 0.0889,-0.49453 0.26035,0.55602 c 0.1397,0.30594 0.381,0.8622 0.52705,1.23611 0.29475,0.73133 0.55431,1.33747 0.82736,1.8955 0.0955,0.19235 0.17171,0.41907 0.17171,0.50229 0,0.0832 0.16484,0.30742 0.36169,0.49659 0.4773,0.45712 1.14723,0.4726 1.58538,0.0377 0.27305,-0.27818 0.31115,-0.44434 0.40613,-1.83555 0.2667,-3.91141 0.38074,-5.98355 0.49504,-9.13275 0.0635,-1.86981 0.11377,-3.46906 0.1778,-3.55224 0.0317,-0.0837 0.11456,-1.8233 0.19076,-3.8649 0.0699,-2.0419 0.15188,-3.93605 0.2159,-4.20905 l 0.0889,-0.49609 1.09511,0.94311 c 1.12501,0.9685 1.53962,1.18408 2.0918,1.07746 0.41328,-0.0785 0.78079,-0.52451 0.84482,-0.90797 0.0185,-0.37404 -0.20955,-2.29979 -0.44424,-3.70158 -0.0952,-0.5779 -0.26061,-1.71825 -0.37465,-2.5342 -0.1143,-0.81616 -0.27966,-1.98424 -0.37465,-2.59623 -0.16193,-1.06299 -0.48154,-3.26747 -0.86254,-5.93402 -0.0953,-0.67971 -0.2413,-1.65338 -0.31724,-2.16318 -0.0825,-0.50996 -0.20981,-1.45611 -0.29871,-2.10219 -0.21087,-1.56356 -0.52044,-3.68851 -0.99007,-6.79905 -0.10795,-0.71403 -0.2421,-1.68757 -0.30507,-2.16371 -0.0572,-0.47575 -0.17145,-1.28286 -0.24738,-1.79266 -0.42545,-2.80461 -0.67945,-4.56091 -0.93345,-6.46679 -0.32491,-2.46261 -0.55139,-2.85406 -2.09788,-3.625081 -0.47625,-0.23725 -1.728,-0.881269 -2.7813,-1.43042 -1.34303,-0.699709 -2.06719,-1.011341 -2.55588,-1.020101 z m -13.43343,29.048571 c 0,0 0,10e-5 0,0 l 0.0818,0.67799 z m 0.27383,2.32648 c 0.417,3.79457 0.63581,7.31086 0.71385,11.51816 -0.0833,-4.20714 -0.29792,-7.7233 -0.71385,-11.51816 z m -5.33346,51.31056 c -0.0505,0.15979 -0.0897,0.29107 -0.12912,0.42323 0.0392,-0.13062 0.0789,-0.26535 0.12912,-0.42323 z m -0.1995,0.663 c -0.0855,0.30459 -0.13758,0.53297 -0.15028,0.69453 0.0106,-0.15886 0.0672,-0.39704 0.15028,-0.69453 z m -0.15293,0.76533 c 0,0.0188 0,0.0394 0,0.0563 0,-0.0167 0,-0.0378 0,-0.0563 z"
       id="path1959" />
  </g>
</svg>
